<svg xmlns="http://www.w3.org/2000/svg" xmlns:xlink="http://www.w3.org/1999/xlink" viewBox="0 0 211.66 115.29"><defs><style>.cls-1,.cls-10,.cls-100,.cls-101,.cls-102,.cls-103,.cls-104,.cls-105,.cls-106,.cls-107,.cls-108,.cls-109,.cls-11,.cls-110,.cls-111,.cls-112,.cls-113,.cls-114,.cls-115,.cls-116,.cls-117,.cls-118,.cls-119,.cls-12,.cls-120,.cls-121,.cls-122,.cls-123,.cls-124,.cls-125,.cls-126,.cls-127,.cls-128,.cls-129,.cls-13,.cls-130,.cls-131,.cls-132,.cls-133,.cls-134,.cls-135,.cls-136,.cls-137,.cls-138,.cls-139,.cls-14,.cls-140,.cls-141,.cls-142,.cls-143,.cls-144,.cls-145,.cls-146,.cls-147,.cls-148,.cls-149,.cls-15,.cls-150,.cls-151,.cls-152,.cls-153,.cls-154,.cls-155,.cls-156,.cls-157,.cls-159,.cls-16,.cls-160,.cls-161,.cls-162,.cls-163,.cls-164,.cls-165,.cls-166,.cls-167,.cls-168,.cls-169,.cls-17,.cls-170,.cls-171,.cls-172,.cls-173,.cls-174,.cls-175,.cls-176,.cls-177,.cls-178,.cls-179,.cls-18,.cls-180,.cls-181,.cls-182,.cls-183,.cls-184,.cls-185,.cls-186,.cls-187,.cls-188,.cls-189,.cls-19,.cls-190,.cls-191,.cls-192,.cls-193,.cls-194,.cls-195,.cls-196,.cls-197,.cls-198,.cls-199,.cls-20,.cls-200,.cls-201,.cls-202,.cls-203,.cls-204,.cls-205,.cls-206,.cls-207,.cls-208,.cls-209,.cls-21,.cls-210,.cls-211,.cls-212,.cls-213,.cls-214,.cls-215,.cls-216,.cls-217,.cls-218,.cls-219,.cls-22,.cls-220,.cls-221,.cls-23,.cls-24,.cls-25,.cls-26,.cls-27,.cls-28,.cls-29,.cls-30,.cls-31,.cls-32,.cls-33,.cls-34,.cls-35,.cls-36,.cls-37,.cls-38,.cls-39,.cls-40,.cls-41,.cls-42,.cls-43,.cls-44,.cls-45,.cls-46,.cls-47,.cls-48,.cls-49,.cls-50,.cls-51,.cls-52,.cls-53,.cls-54,.cls-55,.cls-56,.cls-57,.cls-58,.cls-59,.cls-60,.cls-61,.cls-62,.cls-63,.cls-64,.cls-65,.cls-66,.cls-67,.cls-68,.cls-69,.cls-70,.cls-71,.cls-72,.cls-73,.cls-74,.cls-75,.cls-76,.cls-77,.cls-78,.cls-79,.cls-8,.cls-80,.cls-81,.cls-82,.cls-83,.cls-84,.cls-85,.cls-86,.cls-87,.cls-88,.cls-89,.cls-9,.cls-90,.cls-91,.cls-92,.cls-93,.cls-94,.cls-95,.cls-96,.cls-97,.cls-99{fill:none;}.cls-2{fill:#e60012;}.cls-3{fill:url(#linear-gradient);}.cls-4{fill:url(#linear-gradient-2);}.cls-5{fill:url(#linear-gradient-3);}.cls-6{fill:#867a6d;}.cls-7{clip-path:url(#clip-path);}.cls-8,.cls-97{stroke:#541b86;}.cls-10,.cls-11,.cls-12,.cls-13,.cls-14,.cls-15,.cls-16,.cls-17,.cls-18,.cls-19,.cls-20,.cls-21,.cls-22,.cls-23,.cls-24,.cls-25,.cls-26,.cls-27,.cls-28,.cls-29,.cls-30,.cls-31,.cls-32,.cls-33,.cls-34,.cls-35,.cls-36,.cls-37,.cls-38,.cls-39,.cls-40,.cls-41,.cls-42,.cls-43,.cls-44,.cls-45,.cls-46,.cls-47,.cls-48,.cls-49,.cls-50,.cls-51,.cls-52,.cls-53,.cls-54,.cls-55,.cls-56,.cls-57,.cls-58,.cls-59,.cls-60,.cls-61,.cls-62,.cls-63,.cls-64,.cls-65,.cls-66,.cls-67,.cls-68,.cls-8,.cls-9{stroke-width:0.97px;}.cls-9{stroke:#551d87;}.cls-10{stroke:#561f87;}.cls-11{stroke:#572188;}.cls-12{stroke:#582389;}.cls-13{stroke:#59258a;}.cls-14{stroke:#5a288b;}.cls-15{stroke:#5b2a8c;}.cls-16{stroke:#5c2c8d;}.cls-17{stroke:#5c2e8d;}.cls-18{stroke:#5d308e;}.cls-19{stroke:#5e328f;}.cls-20{stroke:#5f3490;}.cls-21{stroke:#603691;}.cls-22{stroke:#613892;}.cls-23{stroke:#623a93;}.cls-24{stroke:#633c94;}.cls-25{stroke:#633e95;}.cls-26{stroke:#643f95;}.cls-27{stroke:#654196;}.cls-28{stroke:#664397;}.cls-29{stroke:#674598;}.cls-30{stroke:#684799;}.cls-31{stroke:#69499a;}.cls-32{stroke:#694b9b;}.cls-33{stroke:#6a4c9c;}.cls-34{stroke:#6b4e9d;}.cls-35{stroke:#6c509e;}.cls-36{stroke:#6d529f;}.cls-37{stroke:#6e54a1;}.cls-38{stroke:#6f56a2;}.cls-39{stroke:#7057a3;}.cls-40,.cls-95,.cls-96{stroke:#531b86;}.cls-41,.cls-94{stroke:#521b85;}.cls-42,.cls-93{stroke:#511b85;}.cls-43,.cls-92{stroke:#501c84;}.cls-44,.cls-91{stroke:#4f1c84;}.cls-45,.cls-90{stroke:#4e1c83;}.cls-46,.cls-89{stroke:#4d1c82;}.cls-47,.cls-88{stroke:#4c1c82;}.cls-48,.cls-87{stroke:#4c1c81;}.cls-49,.cls-86{stroke:#4b1d81;}.cls-50,.cls-85{stroke:#4a1d80;}.cls-51,.cls-84{stroke:#491d7f;}.cls-52,.cls-83{stroke:#481d7f;}.cls-53,.cls-82{stroke:#471d7e;}.cls-54,.cls-81{stroke:#461d7e;}.cls-55,.cls-80{stroke:#451e7d;}.cls-56,.cls-79{stroke:#441e7d;}.cls-57,.cls-78{stroke:#431e7c;}.cls-58,.cls-77{stroke:#421e7b;}.cls-59,.cls-76{stroke:#411e7b;}.cls-60,.cls-75{stroke:#401e7a;}.cls-61,.cls-74{stroke:#3f1f79;}.cls-62,.cls-73{stroke:#3e1f79;}.cls-63,.cls-72{stroke:#3d1f78;}.cls-64,.cls-71{stroke:#3c1f77;}.cls-65,.cls-70{stroke:#3b1f77;}.cls-66,.cls-69{stroke:#3a1f76;}.cls-67{stroke:#391f76;}.cls-68{stroke:#381f75;}.cls-69,.cls-70{stroke-width:0.97px;}.cls-71,.cls-72{stroke-width:0.97px;}.cls-73,.cls-74{stroke-width:0.97px;}.cls-75{stroke-width:0.97px;}.cls-76,.cls-77{stroke-width:0.97px;}.cls-78,.cls-79{stroke-width:0.97px;}.cls-80,.cls-81{stroke-width:0.97px;}.cls-82,.cls-83{stroke-width:0.97px;}.cls-84,.cls-85{stroke-width:0.97px;}.cls-86,.cls-87{stroke-width:0.97px;}.cls-88,.cls-89{stroke-width:0.97px;}.cls-90,.cls-91{stroke-width:0.97px;}.cls-92,.cls-93{stroke-width:0.97px;}.cls-94,.cls-95{stroke-width:0.97px;}.cls-96,.cls-97{stroke-width:0.97px;}.cls-98{clip-path:url(#clip-path-2);}.cls-99{stroke:#f39800;}.cls-100,.cls-101,.cls-102,.cls-103,.cls-104,.cls-105,.cls-106,.cls-107,.cls-108,.cls-109,.cls-110,.cls-111,.cls-112,.cls-113,.cls-114,.cls-115,.cls-116,.cls-117,.cls-118,.cls-119,.cls-120,.cls-121,.cls-122,.cls-123,.cls-124,.cls-125,.cls-126,.cls-127,.cls-128,.cls-129,.cls-130,.cls-131,.cls-132,.cls-133,.cls-134,.cls-135,.cls-136,.cls-137,.cls-138,.cls-139,.cls-140,.cls-141,.cls-142,.cls-143,.cls-144,.cls-145,.cls-146,.cls-147,.cls-148,.cls-149,.cls-150,.cls-151,.cls-152,.cls-153,.cls-154,.cls-155,.cls-156,.cls-157,.cls-159,.cls-160,.cls-161,.cls-162,.cls-163,.cls-164,.cls-165,.cls-166,.cls-167,.cls-168,.cls-169,.cls-170,.cls-171,.cls-172,.cls-173,.cls-174,.cls-175,.cls-176,.cls-177,.cls-178,.cls-179,.cls-180,.cls-181,.cls-182,.cls-183,.cls-184,.cls-185,.cls-186,.cls-187,.cls-188,.cls-189,.cls-190,.cls-191,.cls-192,.cls-193,.cls-194,.cls-195,.cls-196,.cls-197,.cls-198,.cls-199,.cls-200,.cls-201,.cls-202,.cls-203,.cls-204,.cls-205,.cls-206,.cls-207,.cls-208,.cls-209,.cls-210,.cls-211,.cls-212,.cls-213,.cls-214,.cls-215,.cls-216,.cls-217,.cls-218,.cls-219,.cls-220,.cls-221,.cls-99{stroke-width:0.94px;}.cls-100{stroke:#f39900;}.cls-101{stroke:#f49b00;}.cls-102{stroke:#f49c00;}.cls-103{stroke:#f49e00;}.cls-104{stroke:#f5a000;}.cls-105{stroke:#f5a100;}.cls-106{stroke:#f5a300;}.cls-107{stroke:#f5a400;}.cls-108{stroke:#f6a600;}.cls-109{stroke:#f6a800;}.cls-110{stroke:#f6a900;}.cls-111{stroke:#f6ab00;}.cls-112{stroke:#f7ac00;}.cls-113{stroke:#f7ae00;}.cls-114{stroke:#f7b000;}.cls-115{stroke:#f8b100;}.cls-116{stroke:#f8b300;}.cls-117{stroke:#f8b400;}.cls-118{stroke:#f8b600;}.cls-119{stroke:#f9b700;}.cls-120{stroke:#f9b900;}.cls-121{stroke:#f9ba00;}.cls-122{stroke:#f9bc00;}.cls-123{stroke:#fabd00;}.cls-124{stroke:#fabf00;}.cls-125{stroke:#fac000;}.cls-126{stroke:#fbc200;}.cls-127{stroke:#fbc300;}.cls-128{stroke:#fbc500;}.cls-129{stroke:#fbc600;}.cls-130{stroke:#fcc800;}.cls-131{stroke:#f39700;}.cls-132{stroke:#f29600;}.cls-133{stroke:#f29500;}.cls-134{stroke:#f19400;}.cls-135{stroke:#f09300;}.cls-136{stroke:#ef9200;}.cls-137{stroke:#ef9100;}.cls-138{stroke:#ee9000;}.cls-139{stroke:#ed9000;}.cls-140{stroke:#ed8f00;}.cls-141{stroke:#ec8e00;}.cls-142{stroke:#eb8d00;}.cls-143{stroke:#eb8c00;}.cls-144{stroke:#ea8c00;}.cls-145{stroke:#ea8b00;}.cls-146{stroke:#e98a00;}.cls-147{stroke:#e88900;}.cls-148{stroke:#e78800;}.cls-149{stroke:#e68700;}.cls-150{stroke:#e68600;}.cls-151{stroke:#e58500;}.cls-152{stroke:#e48400;}.cls-153{stroke:#e38300;}.cls-154{stroke:#e38200;}.cls-155{stroke:#e28100;}.cls-156{stroke:#e18000;}.cls-157{stroke:#e07f00;}.cls-158{clip-path:url(#clip-path-3);}.cls-159{stroke:#e60012;}.cls-160{stroke:#e60811;}.cls-161{stroke:#e61111;}.cls-162{stroke:#e61811;}.cls-163{stroke:#e71e10;}.cls-164{stroke:#e72410;}.cls-165{stroke:#e7280f;}.cls-166{stroke:#e72c0f;}.cls-167{stroke:#e7300e;}.cls-168{stroke:#e8340e;}.cls-169{stroke:#e8370d;}.cls-170{stroke:#e83a0c;}.cls-171{stroke:#e83d0c;}.cls-172{stroke:#e8400b;}.cls-173{stroke:#e9430a;}.cls-174{stroke:#e94609;}.cls-175{stroke:#e94909;}.cls-176{stroke:#e94b08;}.cls-177{stroke:#ea4e07;}.cls-178{stroke:#ea5106;}.cls-179{stroke:#ea5305;}.cls-180{stroke:#ea5504;}.cls-181{stroke:#eb5803;}.cls-182{stroke:#eb5a02;}.cls-183{stroke:#eb5c01;}.cls-184{stroke:#eb5f00;}.cls-185{stroke:#eb6100;}.cls-186{stroke:#ec6300;}.cls-187{stroke:#ec6600;}.cls-188{stroke:#ec6800;}.cls-189{stroke:#ed6a00;}.cls-190{stroke:#ed6c00;}.cls-191{stroke:#e50012;}.cls-192{stroke:#e40012;}.cls-193{stroke:#e40113;}.cls-194{stroke:#e30213;}.cls-195{stroke:#e20314;}.cls-196{stroke:#e10414;}.cls-197{stroke:#e00515;}.cls-198{stroke:#df0615;}.cls-199{stroke:#de0716;}.cls-200{stroke:#dd0816;}.cls-201{stroke:#dc0916;}.cls-202{stroke:#db0917;}.cls-203{stroke:#da0a17;}.cls-204{stroke:#d90b18;}.cls-205{stroke:#d80c18;}.cls-206{stroke:#d70d18;}.cls-207{stroke:#d60d19;}.cls-208{stroke:#d50e19;}.cls-209{stroke:#d40f19;}.cls-210{stroke:#d4101a;}.cls-211{stroke:#d3101a;}.cls-212{stroke:#d2111b;}.cls-213{stroke:#d1111b;}.cls-214{stroke:#d0121b;}.cls-215{stroke:#cf131c;}.cls-216{stroke:#ce131c;}.cls-217{stroke:#cd141c;}.cls-218{stroke:#cc141d;}.cls-219{stroke:#cb151d;}.cls-220{stroke:#c9151d;}.cls-221{stroke:#c8161d;}</style><linearGradient id="linear-gradient" x1="-530.55" y1="967.77" x2="-530.28" y2="967.77" gradientTransform="matrix(36.71, 0.99, 0, -36.71, 19556.19, 36084.17)" gradientUnits="userSpaceOnUse"><stop offset="0" stop-color="#e60012"/><stop offset="0.06" stop-color="#e9330a"/><stop offset="0.13" stop-color="#ed6c00"/><stop offset="0.14" stop-color="#ec5903"/><stop offset="0.18" stop-color="#e9330a"/><stop offset="0.22" stop-color="#e7170e"/><stop offset="0.25" stop-color="#e60611"/><stop offset="0.27" stop-color="#e60012"/><stop offset="1" stop-color="#e60012"/></linearGradient><linearGradient id="linear-gradient-2" x1="-533.34" y1="971.37" x2="-533.07" y2="971.37" gradientTransform="matrix(53.34, 1.45, 0, -53.34, 28571.54, 52606.77)" xlink:href="#linear-gradient"/><linearGradient id="linear-gradient-3" x1="-532.25" y1="969.4" x2="-531.98" y2="969.4" gradientTransform="matrix(48.34, 1.31, 0, -48.34, 25833.68, 47567.26)" xlink:href="#linear-gradient"/><clipPath id="clip-path"><path class="cls-1" d="M119.49,67.66c1,0,1.51-.83.83-1.6-1.45-1.62-2.5-2.85-4-7a306.32,306.32,0,0,1-13.41-48.16.55.55,0,0,0-.55-.48.56.56,0,0,0-.55.48A305.18,305.18,0,0,1,88.38,59.1c-1.51,4.11-2.56,5.34-4,7-.69.77-.21,1.6.83,1.6Z"/></clipPath><clipPath id="clip-path-2"><path class="cls-1" d="M93.09,78.07c.74,0,1.09-.6.6-1.15a12.5,12.5,0,0,1-2.88-5,219.62,219.62,0,0,1-9.62-34.54.4.4,0,0,0-.79,0,218.49,218.49,0,0,1-9.62,34.54,12.5,12.5,0,0,1-2.88,5c-.49.55-.15,1.15.6,1.15Z"/></clipPath><clipPath id="clip-path-3"><path class="cls-1" d="M139.88,85c1,0,1.47-.81.81-1.55a17.14,17.14,0,0,1-3.89-6.74,295.42,295.42,0,0,1-13-46.7.55.55,0,0,0-.54-.46.54.54,0,0,0-.53.46,296.55,296.55,0,0,1-13,46.7,17.14,17.14,0,0,1-3.89,6.74c-.66.74-.2,1.55.8,1.55Z"/></clipPath></defs><title>Asset 1</title><g id="Layer_2" data-name="Layer 2"><g id="레이어_1" data-name="레이어 1"><path class="cls-2" d="M172.31,109.55c-.8-1.65-1.52-2.76-3.31-3a4.46,4.46,0,0,0,3.86-4.41c0-2.73-1.93-5-6.64-5h-8.11a2,2,0,0,0-2,2.06v15.3H161v-7.28h2.31a4.17,4.17,0,0,1,3.84,2.42l2.34,4.86h5.28Zm-7.55-4.34H161v-5a1,1,0,0,1,1-1h2.88a2.88,2.88,0,0,1,3,3A3,3,0,0,1,164.76,105.21Z"/><path class="cls-2" d="M201.64,97.15h-8.58v17.36h8.58c6.83,0,10-3.48,10-8.68S208.47,97.15,201.64,97.15Zm-.27,15.3H197.9V99.21h3.47c3.27,0,5.13,2.54,5.13,6.62S204.64,112.45,201.37,112.45Z"/><path class="cls-2" d="M142.62,96.46c-6.66,0-10.64,4.22-10.64,9.42s4,9.41,10.64,9.41,10.65-4.21,10.65-9.41S149.28,96.46,142.62,96.46Zm0,16.81c-3.19,0-5.62-3.31-5.62-7.39s2.43-7.39,5.62-7.39,5.62,3.31,5.62,7.39S145.81,113.27,142.62,113.27Z"/><path class="cls-2" d="M181.92,97.15h-4.84v15.29a2.07,2.07,0,0,0,2.06,2.07h11.78v-2.06h-8a1,1,0,0,1-1-1Z"/><path class="cls-2" d="M128.19,97.15l-3.73,13.72-4-13.72H117l-3.83,13.71-4-13.71h-4.6l4.73,16a1.59,1.59,0,0,0,1.62,1.36h2.66a1.59,1.59,0,0,0,1.62-1.36l2.66-9.36,2.79,9.36a1.61,1.61,0,0,0,1.62,1.36h2.66a1.59,1.59,0,0,0,1.62-1.36l4.54-16Z"/><path class="cls-3" d="M85,28.83a4.23,4.23,0,0,0-2.44-1,1.86,1.86,0,0,0-1.74,1.08v6.49c.78-2.93,2.88-1.46,4.31-1,2.9.88,5.54-.46,5.61-4.6C89.53,31.06,87.78,30.93,85,28.83Z"/><path class="cls-4" d="M129.7,20.29a6.65,6.65,0,0,0-3.94-1.62,2.6,2.6,0,0,0-2.48,1.47v7.77c1-3.32,4.19-1.4,6.22-.78,4.29,1.33,8-.09,8.19-5C136.1,24,132.8,22.78,129.7,20.29Z"/><path class="cls-5" d="M108.21,1.54A7.06,7.06,0,0,0,104.48,0a2.41,2.41,0,0,0-2.12,1.18V8.86c1.18-3.5,4.21-1.69,6-1,3.7,1.35,7.27-.89,7-5.48C114,4,111.5,3.86,108.21,1.54Z"/><path class="cls-6" d="M149.67,40.58c-10.59-12.1-46-8.14-76.53,10.94C59.78,59.88,48.75,71,44.38,77.64c-.27.4.16.63.46.26C49.54,72,60,61.84,71.7,54.69c30.13-18.42,63.86-23.37,75.64-12.88,3.85,3.42,3.38,8.86-1.4,13.23-.34.37,0,.37.49,0C151.77,51.38,153.73,45.22,149.67,40.58Z"/><g class="cls-7"><path class="cls-8" d="M101.71,7.34c-3.93,18.55-12.66,50.1-20.52,62.92"/><path class="cls-9" d="M101.72,7.34c-3.85,18.56-12.37,49.83-20.18,63"/><path class="cls-10" d="M101.74,7.34C98,25.92,89.66,56.9,81.88,70.31"/><path class="cls-11" d="M101.75,7.35C98,25.94,90,56.62,82.23,70.33"/><path class="cls-12" d="M101.77,7.35c-3.64,18.61-11.5,49-19.2,63"/><path class="cls-13" d="M101.78,7.35c-3.56,18.63-11.2,48.73-18.86,63"/><path class="cls-14" d="M101.79,7.36C98.31,26,90.89,55.81,83.26,70.4"/><path class="cls-15" d="M101.81,7.36C98.39,26,91.19,55.53,83.61,70.43"/><path class="cls-16" d="M101.82,7.36C98.48,26,91.5,55.26,84,70.45"/><path class="cls-17" d="M101.84,7.36C98.57,26.05,91.81,55,84.3,70.47"/><path class="cls-18" d="M101.85,7.37C98.66,26.06,92.11,54.71,84.64,70.5"/><path class="cls-19" d="M101.86,7.37C98.75,26.08,92.42,54.44,85,70.52"/><path class="cls-20" d="M101.88,7.37c-3,18.73-9.15,46.8-16.55,63.18"/><path class="cls-21" d="M101.89,7.38C98.92,26.12,93,53.9,85.68,70.57"/><path class="cls-22" d="M101.91,7.38C99,26.13,93.34,53.62,86,70.59"/><path class="cls-23" d="M101.92,7.38c-2.82,18.77-8.27,46-15.55,63.24"/><path class="cls-24" d="M101.93,7.38c-2.74,18.79-8,45.7-15.22,63.26"/><path class="cls-25" d="M102,7.39c-2.67,18.8-7.69,45.41-14.89,63.27"/><path class="cls-26" d="M102,7.39c-2.6,18.81-7.4,45.14-14.56,63.3"/><path class="cls-27" d="M102,7.39c-2.53,18.83-7.11,44.87-14.23,63.32"/><path class="cls-28" d="M102,7.4C99.54,26.24,95.18,52,88.1,70.73"/><path class="cls-29" d="M102,7.4c-2.37,18.86-6.52,44.31-13.56,63.36"/><path class="cls-30" d="M102,7.4c-2.3,18.87-6.23,44-13.23,63.38"/><path class="cls-31" d="M102,7.41C99.8,26.29,96.1,51.17,89.13,70.8"/><path class="cls-32" d="M102,7.41c-2.15,18.9-5.64,43.48-12.56,63.42"/><path class="cls-33" d="M102.06,7.41C100,26.33,96.71,50.62,89.82,70.85"/><path class="cls-34" d="M102.07,7.41c-2,18.94-5,42.94-11.9,63.47"/><path class="cls-35" d="M102.09,7.42c-1.93,18.94-4.77,42.65-11.58,63.48"/><path class="cls-36" d="M102.1,7.42c-1.86,19-4.47,42.38-11.24,63.5"/><path class="cls-37" d="M102.11,7.42C100.33,26.4,97.94,49.53,91.2,71"/><path class="cls-38" d="M102.13,7.43c-1.71,19-3.89,41.83-10.58,63.54"/><path class="cls-39" d="M102.14,7.43C100.51,26.43,98.55,49,91.89,71"/><path class="cls-38" d="M92.23,71c6.44-21.3,8.34-45.18,9.92-63.57"/><path class="cls-37" d="M92.57,71c6.23-20.58,8.06-45.79,9.59-63.57"/><path class="cls-36" d="M92.91,71c6-19.88,7.78-46.41,9.25-63.58"/><path class="cls-35" d="M93.24,71c5.8-19.17,7.51-47,8.93-63.59"/><path class="cls-34" d="M93.58,71c5.58-18.46,7.23-47.64,8.6-63.58"/><path class="cls-33" d="M93.92,71c5.37-17.75,7-48.27,8.26-63.59"/><path class="cls-32" d="M94.26,71c5.15-17,6.67-48.88,7.93-63.59"/><path class="cls-31" d="M94.59,71c4.94-16.33,6.4-49.5,7.61-63.6"/><path class="cls-30" d="M94.93,71c4.73-15.61,6.12-50.11,7.28-63.6"/><path class="cls-29" d="M95.27,71.05c4.51-14.91,5.84-50.73,6.94-63.61"/><path class="cls-28" d="M95.61,71.06c4.29-14.2,5.56-51.35,6.61-63.62"/><path class="cls-27" d="M95.94,71.06c4.08-13.49,5.29-52,6.29-63.61"/><path class="cls-26" d="M96.28,71.07c3.87-12.78,5-52.59,6-63.62"/><path class="cls-25" d="M96.62,71.07c3.65-12.07,4.73-53.2,5.62-63.62"/><path class="cls-24" d="M97,71.08c3.43-11.36,4.44-53.82,5.29-63.63"/><path class="cls-23" d="M97.3,71.09c3.22-10.65,4.16-54.44,5-63.64"/><path class="cls-22" d="M97.63,71.09c3-9.94,3.89-55,4.63-63.64"/><path class="cls-21" d="M98,71.1c2.79-9.23,3.61-55.68,4.3-63.65"/><path class="cls-20" d="M98.31,71.1c2.58-8.52,3.33-56.29,4-63.64"/><path class="cls-19" d="M98.65,71.11c2.36-7.81,3-56.91,3.63-63.65"/><path class="cls-18" d="M99,71.12c2.15-7.11,2.78-57.53,3.31-63.66"/><path class="cls-17" d="M99.32,71.12c1.93-6.39,2.5-58.14,3-63.66"/><path class="cls-16" d="M99.66,71.13c1.72-5.68,2.22-58.76,2.64-63.67"/><path class="cls-15" d="M100,71.13c1.5-5,1.94-59.38,2.31-63.67"/><path class="cls-14" d="M100.33,71.14c1.29-4.26,1.67-60,2-63.68"/><path class="cls-13" d="M100.67,71.14c1.08-3.55,1.39-60.61,1.66-63.68"/><path class="cls-12" d="M101,71.15c.86-2.84,1.11-61.23,1.32-63.68"/><path class="cls-11" d="M101.35,71.16c.64-2.13.83-61.85,1-63.69"/><path class="cls-10" d="M101.68,71.16c.43-1.42.56-62.47.67-63.69"/><path class="cls-9" d="M102,71.17c.22-.71.28-63.09.33-63.7"/><line class="cls-8" x1="102.36" y1="71.17" x2="102.36" y2="7.47"/><path class="cls-40" d="M102.7,71.17c-.21-.71-.28-63.09-.33-63.7"/><path class="cls-40" d="M103.05,71.16c-.43-1.42-.57-62.47-.68-63.69"/><path class="cls-41" d="M103.39,71.16c-.65-2.13-.85-61.85-1-63.69"/><path class="cls-42" d="M103.73,71.15c-.86-2.84-1.13-61.23-1.35-63.68"/><path class="cls-43" d="M104.07,71.14c-1.07-3.55-1.42-60.61-1.68-63.68"/><path class="cls-44" d="M104.42,71.14c-1.29-4.26-1.71-60-2-63.68"/><path class="cls-45" d="M104.76,71.13c-1.5-5-2-59.38-2.36-63.67"/><path class="cls-46" d="M105.1,71.13c-1.72-5.68-2.27-58.76-2.69-63.67"/><path class="cls-47" d="M105.44,71.12c-1.93-6.39-2.55-58.14-3-63.66"/><path class="cls-48" d="M105.79,71.12C103.64,64,103,13.59,102.42,7.46"/><path class="cls-49" d="M106.13,71.11c-2.36-7.81-3.12-56.91-3.7-63.65"/><path class="cls-50" d="M106.47,71.1c-2.58-8.52-3.41-56.29-4-63.64"/><path class="cls-51" d="M106.81,71.1c-2.79-9.23-3.69-55.68-4.37-63.65"/><path class="cls-52" d="M107.16,71.09c-3-9.94-4-55-4.72-63.64"/><path class="cls-53" d="M107.5,71.09c-3.22-10.65-4.26-54.44-5-63.64"/><path class="cls-54" d="M107.84,71.08c-3.43-11.36-4.54-53.82-5.38-63.63"/><path class="cls-55" d="M108.18,71.07c-3.65-12.07-4.82-53.2-5.72-63.62"/><path class="cls-56" d="M108.53,71.07c-3.87-12.78-5.11-52.59-6.06-63.62"/><path class="cls-57" d="M108.87,71.06c-4.08-13.49-5.4-52-6.4-63.61"/><path class="cls-58" d="M109.21,71.06c-4.29-14.2-5.68-51.35-6.73-63.62"/><path class="cls-59" d="M109.55,71.05c-4.5-14.91-6-50.73-7.06-63.61"/><path class="cls-60" d="M109.9,71c-4.73-15.61-6.25-50.11-7.41-63.6"/><path class="cls-60" d="M110.24,71c-4.94-16.33-6.53-49.5-7.74-63.6"/><path class="cls-61" d="M110.58,71c-5.15-17-6.81-48.88-8.08-63.59"/><path class="cls-62" d="M110.92,71c-5.36-17.75-7.09-48.27-8.41-63.59"/><path class="cls-63" d="M111.27,71c-5.58-18.46-7.38-47.64-8.75-63.58"/><path class="cls-64" d="M111.61,71c-5.8-19.17-7.67-47-9.09-63.59"/><path class="cls-65" d="M112,71c-6-19.88-8-46.41-9.42-63.58"/><path class="cls-66" d="M112.29,71c-6.22-20.58-8.23-45.79-9.76-63.57"/><path class="cls-67" d="M112.64,71c-6.44-21.3-8.52-45.18-10.1-63.57"/><path class="cls-68" d="M102.54,7.43C104.18,26.43,106.33,49,113,71"/><path class="cls-67" d="M102.56,7.43c1.71,19,4.07,41.83,10.76,63.54"/><path class="cls-69" d="M102.57,7.42c1.78,19,4.36,42.11,11.09,63.53"/><path class="cls-70" d="M102.59,7.42c1.85,19,4.64,42.38,11.41,63.5"/><path class="cls-71" d="M102.6,7.42c1.93,18.94,4.93,42.65,11.74,63.48"/><path class="cls-72" d="M102.61,7.41c2,18.94,5.22,42.94,12.06,63.47"/><path class="cls-73" d="M102.63,7.41c2.08,18.92,5.5,43.21,12.38,63.44"/><path class="cls-74" d="M102.64,7.41c2.15,18.9,5.79,43.48,12.71,63.42"/><path class="cls-75" d="M102.66,7.41c2.22,18.88,6.07,43.76,13,63.39"/><path class="cls-75" d="M102.67,7.4C105,26.27,109,51.44,116,70.78"/><path class="cls-76" d="M102.68,7.4c2.38,18.86,6.65,44.31,13.69,63.36"/><path class="cls-77" d="M102.7,7.4c2.45,18.84,6.93,44.58,14,63.33"/><path class="cls-78" d="M102.71,7.39c2.52,18.83,7.22,44.87,14.34,63.32"/><path class="cls-79" d="M102.73,7.39c2.59,18.81,7.5,45.14,14.66,63.3"/><path class="cls-80" d="M102.74,7.39c2.67,18.8,7.79,45.41,15,63.27"/><path class="cls-81" d="M102.75,7.38c2.75,18.79,8.08,45.7,15.32,63.26"/><path class="cls-82" d="M102.77,7.38c2.81,18.77,8.36,46,15.64,63.24"/><path class="cls-83" d="M102.78,7.38c2.89,18.75,8.65,46.24,16,63.21"/><path class="cls-84" d="M102.8,7.38c3,18.74,8.93,46.52,16.28,63.19"/><path class="cls-85" d="M102.81,7.37c3,18.73,9.22,46.8,16.61,63.18"/><path class="cls-86" d="M102.82,7.37c3.12,18.71,9.51,47.07,16.94,63.15"/><path class="cls-87" d="M102.84,7.37C106,26.06,112.63,54.71,120.1,70.5"/><path class="cls-88" d="M102.85,7.36c3.26,18.69,10.08,47.63,17.59,63.11"/><path class="cls-89" d="M102.87,7.36c3.33,18.67,10.36,47.9,17.91,63.09"/><path class="cls-90" d="M102.88,7.36c3.41,18.65,10.65,48.17,18.24,63.07"/><path class="cls-91" d="M102.89,7.36c3.49,18.63,10.94,48.45,18.57,63"/><path class="cls-92" d="M102.91,7.35c3.55,18.63,11.22,48.73,18.89,63"/><path class="cls-93" d="M102.92,7.35c3.63,18.61,11.52,49,19.22,63"/><path class="cls-94" d="M102.94,7.35c3.7,18.59,11.8,49.27,19.53,63"/><path class="cls-95" d="M103,7.34c3.78,18.58,12.09,49.56,19.86,63"/><path class="cls-96" d="M103,7.34c3.86,18.56,12.38,49.83,20.19,63"/><path class="cls-97" d="M103,7.34c3.92,18.55,12.66,50.1,20.51,62.92"/></g><g class="cls-98"><path class="cls-99" d="M80.34,34.81c-2.82,13.3-9.08,35.93-14.71,45.12"/><path class="cls-100" d="M80.35,34.81C77.59,48.12,71.46,70.54,65.85,80"/><path class="cls-101" d="M80.36,34.81C77.65,48.14,71.65,70.35,66.07,80"/><path class="cls-102" d="M80.37,34.81C77.71,48.15,71.84,70.15,66.29,80"/><path class="cls-103" d="M80.38,34.82C77.78,48.16,72,70,66.51,80"/><path class="cls-104" d="M80.39,34.82C77.84,48.17,72.23,69.76,66.73,80"/><path class="cls-105" d="M80.4,34.82C77.9,48.19,72.43,69.57,67,80"/><path class="cls-106" d="M80.41,34.82C78,48.2,72.62,69.37,67.18,80.05"/><path class="cls-107" d="M80.42,34.83C78,48.21,72.81,69.17,67.4,80.07"/><path class="cls-108" d="M80.43,34.83C78.09,48.23,73,69,67.62,80.08"/><path class="cls-109" d="M80.44,34.83c-2.29,13.41-7.24,34-12.6,45.27"/><path class="cls-110" d="M80.45,34.83c-2.23,13.42-7.06,33.76-12.38,45.29"/><path class="cls-111" d="M80.46,34.83c-2.18,13.43-6.87,33.56-12.17,45.31"/><path class="cls-112" d="M80.47,34.84c-2.13,13.44-6.69,33.36-12,45.31"/><path class="cls-113" d="M80.48,34.84C78.41,48.29,74,68,68.73,80.17"/><path class="cls-114" d="M80.49,34.84c-2,13.46-6.32,33-11.54,45.35"/><path class="cls-115" d="M80.5,34.84c-2,13.47-6.13,32.77-11.33,45.36"/><path class="cls-116" d="M80.51,34.84c-1.91,13.49-6,32.57-11.11,45.38"/><path class="cls-117" d="M80.52,34.85c-1.86,13.49-5.77,32.37-10.9,45.39"/><path class="cls-118" d="M80.53,34.85C78.72,48.35,75,67,69.84,80.25"/><path class="cls-119" d="M80.54,34.85c-1.76,13.52-5.4,32-10.48,45.42"/><path class="cls-120" d="M80.55,34.85c-1.7,13.53-5.22,31.78-10.27,45.44"/><path class="cls-121" d="M80.56,34.86c-1.65,13.53-5,31.58-10.06,45.44"/><path class="cls-122" d="M80.57,34.86C79,48.4,75.72,66.24,70.73,80.32"/><path class="cls-123" d="M80.58,34.86C79,48.42,75.92,66.05,71,80.34"/><path class="cls-124" d="M80.59,34.86c-1.49,13.57-4.48,31-9.42,45.5"/><path class="cls-125" d="M80.6,34.86c-1.44,13.58-4.3,30.79-9.21,45.51"/><path class="cls-126" d="M80.61,34.87c-1.38,13.58-4.11,30.59-9,45.52"/><path class="cls-127" d="M80.62,34.87c-1.33,13.6-3.93,30.39-8.78,45.54"/><path class="cls-128" d="M80.63,34.87c-1.28,13.61-3.74,30.2-8.57,45.55"/><path class="cls-129" d="M80.64,34.87c-1.23,13.62-3.56,30-8.36,45.57"/><path class="cls-130" d="M80.65,34.87C79.48,48.5,77.27,64.68,72.5,80.46"/><path class="cls-129" d="M72.77,80.46c4.62-15.27,6.75-32.39,7.89-45.58"/><path class="cls-128" d="M73,80.47c4.46-14.77,6.52-32.84,7.62-45.59"/><path class="cls-127" d="M73.3,80.47c4.32-14.25,6.31-33.28,7.37-45.59"/><path class="cls-126" d="M73.57,80.47c4.16-13.74,6.08-33.72,7.1-45.59"/><path class="cls-125" d="M73.84,80.48c4-13.24,5.85-34.17,6.84-45.6"/><path class="cls-124" d="M74.11,80.48c3.85-12.72,5.62-34.61,6.57-45.6"/><path class="cls-123" d="M74.38,80.49c3.69-12.22,5.4-35,6.31-45.61"/><path class="cls-122" d="M74.64,80.49c3.55-11.71,5.18-35.49,6-45.61"/><path class="cls-121" d="M74.91,80.49c3.39-11.19,5-35.93,5.79-45.61"/><path class="cls-120" d="M75.18,80.5c3.23-10.69,4.73-36.38,5.52-45.61"/><path class="cls-119" d="M75.45,80.5c3.08-10.18,4.5-36.82,5.26-45.61"/><path class="cls-118" d="M75.72,80.51c2.92-9.68,4.27-37.27,5-45.62"/><path class="cls-117" d="M76,80.51C78.76,71.35,80,42.8,80.72,34.89"/><path class="cls-116" d="M76.25,80.52c2.62-8.66,3.83-38.15,4.47-45.63"/><path class="cls-115" d="M76.52,80.52c2.46-8.14,3.6-38.59,4.21-45.63"/><path class="cls-114" d="M76.79,80.52c2.31-7.63,3.37-39,3.94-45.63"/><path class="cls-113" d="M77.06,80.53c2.15-7.13,3.15-39.48,3.68-45.64"/><path class="cls-112" d="M77.32,80.53c2-6.62,2.93-39.92,3.42-45.63"/><path class="cls-111" d="M77.59,80.54c1.85-6.11,2.7-40.37,3.16-45.64"/><path class="cls-110" d="M77.86,80.54c1.69-5.6,2.48-40.81,2.89-45.64"/><path class="cls-109" d="M78.13,80.54c1.54-5.09,2.25-41.24,2.63-45.64"/><path class="cls-108" d="M78.4,80.55c1.38-4.58,2-41.69,2.36-45.65"/><path class="cls-107" d="M78.66,80.55c1.24-4.07,1.8-42.13,2.11-45.65"/><path class="cls-106" d="M78.93,80.56C80,77,80.51,38,80.77,34.9"/><path class="cls-105" d="M79.2,80.56c.92-3,1.35-43,1.58-45.66"/><path class="cls-104" d="M79.47,80.57C80.24,78,80.59,37.1,80.78,34.9"/><path class="cls-103" d="M79.74,80.57c.61-2,.9-43.91,1.05-45.66"/><path class="cls-102" d="M80,80.57c.47-1.52.68-44.34.79-45.66"/><path class="cls-101" d="M80.27,80.58c.31-1,.45-44.79.53-45.67"/><path class="cls-100" d="M80.54,80.58c.15-.51.22-45.23.26-45.67"/><line class="cls-99" x1="80.81" y1="80.59" x2="80.81" y2="34.91"/><path class="cls-131" d="M81.07,80.58c-.15-.51-.22-45.23-.26-45.67"/><path class="cls-132" d="M81.34,80.58c-.31-1-.45-44.79-.52-45.67"/><path class="cls-133" d="M81.61,80.57c-.46-1.52-.68-44.34-.79-45.66"/><path class="cls-134" d="M81.88,80.57c-.62-2-.9-43.91-1.06-45.66"/><path class="cls-134" d="M82.14,80.57C81.37,78,81,37.1,80.83,34.9"/><path class="cls-135" d="M82.41,80.56c-.92-3-1.35-43-1.58-45.66"/><path class="cls-136" d="M82.68,80.56C81.6,77,81.1,38,80.84,34.9"/><path class="cls-137" d="M82.94,80.55c-1.23-4.07-1.8-42.13-2.1-45.65"/><path class="cls-138" d="M83.21,80.55c-1.38-4.58-2-41.69-2.36-45.65"/><path class="cls-139" d="M83.48,80.54c-1.54-5.09-2.25-41.24-2.63-45.64"/><path class="cls-140" d="M83.75,80.54c-1.7-5.6-2.48-40.81-2.9-45.64"/><path class="cls-141" d="M84,80.54c-1.85-6.11-2.7-40.37-3.15-45.64"/><path class="cls-142" d="M84.28,80.53c-2-6.62-2.93-39.92-3.42-45.63"/><path class="cls-143" d="M84.55,80.53c-2.16-7.13-3.15-39.48-3.68-45.64"/><path class="cls-144" d="M84.81,80.52c-2.31-7.63-3.37-39-3.94-45.63"/><path class="cls-145" d="M85.08,80.52c-2.46-8.14-3.6-38.59-4.21-45.63"/><path class="cls-146" d="M85.35,80.52c-2.62-8.66-3.83-38.15-4.47-45.63"/><path class="cls-147" d="M85.62,80.51c-2.78-9.16-4.05-37.71-4.74-45.62"/><path class="cls-147" d="M85.88,80.51c-2.92-9.68-4.27-37.27-5-45.62"/><path class="cls-148" d="M86.15,80.5c-3.08-10.18-4.5-36.82-5.26-45.61"/><path class="cls-149" d="M86.42,80.5c-3.24-10.69-4.73-36.38-5.52-45.61"/><path class="cls-150" d="M86.69,80.49c-3.39-11.19-5-35.93-5.79-45.61"/><path class="cls-151" d="M87,80.49c-3.54-11.71-5.17-35.49-6-45.61"/><path class="cls-151" d="M87.22,80.49c-3.7-12.22-5.4-35-6.31-45.61"/><path class="cls-152" d="M87.49,80.48c-3.85-12.72-5.63-34.61-6.58-45.6"/><path class="cls-153" d="M87.75,80.48c-4-13.24-5.85-34.17-6.83-45.6"/><path class="cls-154" d="M88,80.47c-4.16-13.74-6.08-33.72-7.1-45.59"/><path class="cls-155" d="M88.29,80.47C84,66.22,82,47.19,80.93,34.88"/><path class="cls-155" d="M88.56,80.47C84.09,65.7,82,47.63,80.93,34.88"/><path class="cls-156" d="M88.82,80.46c-4.62-15.27-6.75-32.39-7.89-45.58"/><path class="cls-157" d="M80.94,34.87c1.17,13.63,3.37,29.81,8.15,45.59"/><path class="cls-156" d="M81,34.87c1.23,13.62,3.56,30,8.36,45.57"/><path class="cls-155" d="M81,34.87c1.28,13.61,3.74,30.2,8.57,45.55"/><path class="cls-155" d="M81,34.87c1.33,13.6,3.93,30.39,8.78,45.54"/><path class="cls-154" d="M81,34.87c1.39,13.58,4.11,30.59,9,45.52"/><path class="cls-153" d="M81,34.86c1.44,13.58,4.29,30.79,9.21,45.51"/><path class="cls-152" d="M81,34.86c1.49,13.57,4.48,31,9.42,45.5"/><path class="cls-151" d="M81,34.86c1.54,13.56,4.66,31.19,9.63,45.48"/><path class="cls-151" d="M81,34.86c1.6,13.54,4.85,31.38,9.84,45.46"/><path class="cls-150" d="M81,34.86c1.65,13.53,5,31.58,10.06,45.44"/><path class="cls-149" d="M81,34.85c1.7,13.53,5.21,31.78,10.27,45.44"/><path class="cls-148" d="M81.05,34.85c1.76,13.52,5.4,32,10.48,45.42"/><path class="cls-147" d="M81.06,34.85c1.81,13.5,5.58,32.17,10.69,45.4"/><path class="cls-147" d="M81.07,34.85C82.93,48.34,86.84,67.22,92,80.24"/><path class="cls-146" d="M81.08,34.84C83,48.33,87,67.41,92.19,80.22"/><path class="cls-145" d="M81.09,34.84c2,13.47,6.13,32.77,11.33,45.36"/><path class="cls-144" d="M81.1,34.84c2,13.46,6.32,33,11.54,45.35"/><path class="cls-143" d="M81.11,34.84C83.18,48.29,87.61,68,92.86,80.17"/><path class="cls-142" d="M81.12,34.84c2.13,13.44,6.69,33.36,12,45.31"/><path class="cls-141" d="M81.13,34.83C83.31,48.26,88,68.39,93.3,80.14"/><path class="cls-140" d="M81.14,34.83c2.23,13.42,7,33.76,12.38,45.29"/><path class="cls-139" d="M81.15,34.83c2.29,13.41,7.24,34,12.6,45.27"/><path class="cls-138" d="M81.16,34.83C83.5,48.23,88.58,69,94,80.08"/><path class="cls-137" d="M81.17,34.83c2.39,13.38,7.61,34.34,13,45.24"/><path class="cls-136" d="M81.18,34.82C83.63,48.2,89,69.37,94.41,80.05"/><path class="cls-135" d="M81.19,34.82c2.5,13.37,8,34.75,13.44,45.21"/><path class="cls-134" d="M81.2,34.82C83.75,48.17,89.36,69.76,94.85,80"/><path class="cls-134" d="M81.21,34.82C83.81,48.16,89.55,70,95.08,80"/><path class="cls-133" d="M81.22,34.81C83.88,48.15,89.75,70.15,95.3,80"/><path class="cls-132" d="M81.23,34.81C83.94,48.14,89.94,70.35,95.52,80"/><path class="cls-131" d="M81.24,34.81C84,48.12,90.13,70.54,95.74,80"/><path class="cls-99" d="M81.25,34.81C84.07,48.11,90.33,70.74,96,79.93"/></g><g class="cls-158"><path class="cls-159" d="M122.65,26.53c-3.81,18-12.28,48.57-19.89,61"/><path class="cls-160" d="M122.66,26.53c-3.74,18-12,48.31-19.6,61"/><path class="cls-161" d="M122.67,26.54c-3.66,18-11.77,48-19.31,61"/><path class="cls-162" d="M122.69,26.54c-3.6,18-11.53,47.77-19,61.07"/><path class="cls-163" d="M122.7,26.54c-3.52,18-11.28,47.51-18.74,61.09"/><path class="cls-164" d="M122.71,26.54c-3.45,18.06-11,47.24-18.45,61.11"/><path class="cls-165" d="M122.73,26.55c-3.38,18.07-10.78,47-18.17,61.12"/><path class="cls-166" d="M122.74,26.55c-3.31,18.08-10.53,46.7-17.88,61.15"/><path class="cls-167" d="M122.75,26.55c-3.23,18.1-10.28,46.44-17.6,61.17"/><path class="cls-168" d="M122.77,26.56c-3.17,18.11-10,46.16-17.32,61.18"/><path class="cls-169" d="M122.78,26.56c-3.09,18.13-9.78,45.9-17,61.2"/><path class="cls-170" d="M122.8,26.56c-3,18.14-9.54,45.64-16.75,61.23"/><path class="cls-171" d="M122.81,26.56c-3,18.16-9.29,45.37-16.46,61.25"/><path class="cls-172" d="M122.82,26.57c-2.87,18.17-9,45.1-16.17,61.26"/><path class="cls-173" d="M122.84,26.57C120,44.75,114,71.4,107,87.86"/><path class="cls-174" d="M122.85,26.57c-2.73,18.2-8.54,44.57-15.6,61.31"/><path class="cls-175" d="M122.86,26.58c-2.66,18.21-8.29,44.29-15.31,61.32"/><path class="cls-176" d="M122.88,26.58c-2.59,18.23-8,44-15,61.34"/><path class="cls-177" d="M122.89,26.58c-2.52,18.24-7.8,43.76-14.74,61.37"/><path class="cls-178" d="M122.91,26.58c-2.45,18.26-7.55,43.5-14.46,61.39"/><path class="cls-179" d="M122.92,26.59c-2.38,18.27-7.3,43.23-14.17,61.4"/><path class="cls-180" d="M122.93,26.59c-2.3,18.28-7.05,43-13.88,61.42"/><path class="cls-181" d="M123,26.59c-2.24,18.3-6.81,42.7-13.6,61.45"/><path class="cls-182" d="M123,26.59C120.8,44.91,116.4,69,109.65,88.06"/><path class="cls-183" d="M123,26.6c-2.09,18.32-6.3,42.16-13,61.48"/><path class="cls-184" d="M123,26.6c-2,18.34-6.06,41.89-12.74,61.51"/><path class="cls-185" d="M123,26.6c-2,18.36-5.81,41.63-12.45,61.53"/><path class="cls-186" d="M123,26.61C121.14,45,117.45,68,110.85,88.15"/><path class="cls-187" d="M123,26.61C121.22,45,117.72,67.7,111.15,88.17"/><path class="cls-188" d="M123,26.61C121.31,45,118,67.44,111.45,88.2"/><path class="cls-189" d="M123.06,26.61C121.4,45,118.24,67.17,111.75,88.22"/><path class="cls-190" d="M123.07,26.62c-1.59,18.42-4.57,40.29-11,61.62"/><path class="cls-189" d="M112.41,88.25c6.25-20.65,9.13-43.8,10.67-61.63"/><path class="cls-188" d="M112.77,88.25c6-20,8.83-44.39,10.31-61.63"/><path class="cls-187" d="M113.14,88.26c5.82-19.27,8.51-45,10-61.64"/><path class="cls-186" d="M113.5,88.26c5.62-18.58,8.21-45.59,9.6-61.64"/><path class="cls-185" d="M113.86,88.27c5.41-17.89,7.91-46.19,9.24-61.65"/><path class="cls-184" d="M114.22,88.28c5.21-17.21,7.61-46.79,8.89-61.65"/><path class="cls-183" d="M114.59,88.28c5-16.52,7.3-47.39,8.53-61.65"/><path class="cls-182" d="M115,88.29c4.79-15.83,7-48,8.17-61.66"/><path class="cls-181" d="M115.31,88.29c4.58-15.14,6.69-48.58,7.82-61.66"/><path class="cls-180" d="M115.67,88.3c4.37-14.45,6.39-49.18,7.47-61.67"/><path class="cls-179" d="M116,88.3c4.16-13.76,6.08-49.78,7.1-61.67"/><path class="cls-178" d="M116.4,88.31c3.95-13.08,5.78-50.38,6.75-61.68"/><path class="cls-177" d="M116.76,88.32c3.75-12.39,5.48-51,6.4-61.68"/><path class="cls-176" d="M117.12,88.32c3.54-11.7,5.17-51.58,6-61.68"/><path class="cls-175" d="M117.48,88.33c3.33-11,4.87-52.18,5.69-61.69"/><path class="cls-174" d="M117.85,88.33C121,78,122.41,35.56,123.18,26.64"/><path class="cls-173" d="M118.21,88.34c2.91-9.64,4.26-53.38,5-61.7"/><path class="cls-172" d="M118.57,88.34c2.71-8.94,4-54,4.62-61.7"/><path class="cls-171" d="M118.93,88.35c2.5-8.26,3.65-54.57,4.27-61.7"/><path class="cls-170" d="M119.3,88.35c2.28-7.57,3.34-55.16,3.91-61.7"/><path class="cls-169" d="M119.66,88.36c2.08-6.88,3-55.77,3.55-61.71"/><path class="cls-168" d="M120,88.37c1.87-6.2,2.74-56.37,3.2-61.72"/><path class="cls-167" d="M120.38,88.37c1.67-5.5,2.44-57,2.85-61.72"/><path class="cls-166" d="M120.75,88.38c1.45-4.82,2.12-57.57,2.48-61.73"/><path class="cls-165" d="M121.11,88.38c1.25-4.13,1.82-58.16,2.13-61.73"/><path class="cls-164" d="M121.47,88.39c1-3.44,1.52-58.76,1.78-61.73"/><path class="cls-163" d="M121.83,88.39c.83-2.75,1.22-59.35,1.42-61.73"/><path class="cls-162" d="M122.19,88.4c.63-2.07.92-60,1.07-61.74"/><path class="cls-161" d="M122.56,88.41c.41-1.38.6-60.56.71-61.75"/><path class="cls-160" d="M122.92,88.41c.21-.69.3-61.15.35-61.75"/><line class="cls-159" x1="123.28" y1="88.42" x2="123.28" y2="26.66"/><path class="cls-191" d="M123.64,88.41c-.21-.69-.3-61.15-.35-61.75"/><path class="cls-192" d="M124,88.41c-.41-1.38-.6-60.56-.71-61.75"/><path class="cls-193" d="M124.36,88.4c-.62-2.07-.91-60-1.06-61.74"/><path class="cls-194" d="M124.73,88.39c-.84-2.75-1.22-59.35-1.43-61.73"/><path class="cls-195" d="M125.09,88.39c-1-3.44-1.52-58.76-1.78-61.73"/><path class="cls-196" d="M125.45,88.38c-1.25-4.13-1.83-58.16-2.14-61.73"/><path class="cls-197" d="M125.81,88.38c-1.46-4.82-2.13-57.57-2.49-61.73"/><path class="cls-198" d="M126.17,88.37c-1.67-5.5-2.43-57-2.84-61.72"/><path class="cls-199" d="M126.53,88.37c-1.87-6.2-2.74-56.37-3.2-61.72"/><path class="cls-200" d="M126.89,88.36c-2.08-6.88-3-55.77-3.55-61.71"/><path class="cls-201" d="M127.25,88.35c-2.29-7.57-3.34-55.16-3.91-61.7"/><path class="cls-202" d="M127.62,88.35c-2.5-8.26-3.66-54.57-4.27-61.7"/><path class="cls-203" d="M128,88.34c-2.71-8.94-4-54-4.63-61.7"/><path class="cls-204" d="M128.34,88.34c-2.92-9.64-4.26-53.38-5-61.7"/><path class="cls-205" d="M128.7,88.33c-3.12-10.32-4.57-52.77-5.33-61.69"/><path class="cls-206" d="M129.06,88.33c-3.33-11-4.87-52.18-5.69-61.69"/><path class="cls-207" d="M129.42,88.32c-3.54-11.7-5.17-51.58-6-61.68"/><path class="cls-208" d="M129.78,88.32c-3.75-12.39-5.47-51-6.4-61.68"/><path class="cls-209" d="M130.14,88.31c-3.95-13.08-5.78-50.38-6.75-61.68"/><path class="cls-210" d="M130.5,88.3c-4.16-13.76-6.08-49.78-7.11-61.67"/><path class="cls-211" d="M130.87,88.3c-4.38-14.45-6.39-49.18-7.47-61.67"/><path class="cls-212" d="M131.23,88.29c-4.58-15.14-6.7-48.58-7.83-61.66"/><path class="cls-213" d="M131.59,88.29c-4.79-15.83-7-48-8.18-61.66"/><path class="cls-214" d="M132,88.28c-5-16.52-7.3-47.39-8.54-61.65"/><path class="cls-215" d="M132.31,88.28c-5.21-17.21-7.61-46.79-8.89-61.65"/><path class="cls-216" d="M132.67,88.27c-5.41-17.89-7.91-46.19-9.24-61.65"/><path class="cls-217" d="M133,88.26c-5.62-18.58-8.21-45.59-9.6-61.64"/><path class="cls-218" d="M133.39,88.26c-5.83-19.27-8.52-45-9.95-61.64"/><path class="cls-219" d="M133.75,88.25c-6-20-8.82-44.39-10.31-61.63"/><path class="cls-220" d="M134.12,88.25c-6.25-20.65-9.13-43.8-10.67-61.63"/><path class="cls-221" d="M123.45,26.62c1.6,18.42,4.57,40.29,11,61.62"/><path class="cls-220" d="M123.47,26.61c1.66,18.42,4.81,40.56,11.31,61.61"/><path class="cls-219" d="M123.48,26.61c1.74,18.4,5.07,40.83,11.6,61.59"/><path class="cls-218" d="M123.5,26.61c1.8,18.38,5.31,41.09,11.87,61.56"/><path class="cls-217" d="M123.51,26.61C125.39,45,129.07,68,135.67,88.15"/><path class="cls-216" d="M123.52,26.6c2,18.36,5.81,41.63,12.45,61.53"/><path class="cls-215" d="M123.54,26.6c2,18.34,6,41.89,12.73,61.51"/><path class="cls-214" d="M123.55,26.6c2.09,18.32,6.31,42.16,13,61.48"/><path class="cls-213" d="M123.56,26.59c2.17,18.32,6.56,42.43,13.31,61.47"/><path class="cls-212" d="M123.58,26.59c2.23,18.3,6.8,42.7,13.59,61.45"/><path class="cls-211" d="M123.59,26.59c2.31,18.28,7,43,13.88,61.42"/><path class="cls-210" d="M123.6,26.59C126,44.86,130.91,69.82,137.77,88"/><path class="cls-209" d="M123.62,26.58c2.45,18.26,7.55,43.5,14.45,61.39"/><path class="cls-208" d="M123.63,26.58c2.52,18.24,7.8,43.76,14.74,61.37"/><path class="cls-207" d="M123.65,26.58c2.59,18.23,8,44,15,61.34"/><path class="cls-206" d="M123.66,26.58C126.32,44.79,132,70.87,139,87.9"/><path class="cls-205" d="M123.67,26.57c2.74,18.2,8.55,44.57,15.6,61.31"/><path class="cls-204" d="M123.69,26.57c2.8,18.18,8.79,44.83,15.88,61.29"/><path class="cls-203" d="M123.7,26.57c2.88,18.17,9,45.1,16.17,61.26"/><path class="cls-202" d="M123.71,26.56c3,18.16,9.29,45.37,16.46,61.25"/><path class="cls-201" d="M123.73,26.56c3,18.14,9.54,45.64,16.74,61.23"/><path class="cls-200" d="M123.74,26.56c3.09,18.13,9.79,45.9,17,61.2"/><path class="cls-199" d="M123.75,26.56c3.17,18.11,10,46.16,17.32,61.18"/><path class="cls-198" d="M123.77,26.55C127,44.65,134.05,73,141.37,87.72"/><path class="cls-197" d="M123.78,26.55c3.31,18.08,10.54,46.7,17.89,61.15"/><path class="cls-196" d="M123.79,26.55c3.38,18.07,10.79,47,18.18,61.12"/><path class="cls-195" d="M123.81,26.54c3.45,18.06,11,47.24,18.46,61.11"/><path class="cls-194" d="M123.82,26.54c3.52,18,11.28,47.51,18.75,61.09"/><path class="cls-193" d="M123.84,26.54c3.59,18,11.52,47.77,19,61.07"/><path class="cls-192" d="M123.85,26.54c3.66,18,11.78,48,19.31,61"/><path class="cls-191" d="M123.86,26.53c3.74,18,12,48.31,19.6,61"/><path class="cls-159" d="M123.88,26.53c3.8,18,12.27,48.57,19.88,61"/></g><path class="cls-2" d="M138.11,61.17l3.26-1a.28.28,0,0,1,.18,0,.28.28,0,0,1,.14.12l1.88,2.85a.24.24,0,0,0,.14.1.23.23,0,0,0,.18,0,.32.32,0,0,0,.19-.17s0-.06,0-.09l.11-3.41a.29.29,0,0,1,0-.09.2.2,0,0,1,0-.08.31.31,0,0,1,.15-.1l3.28-.9a.3.3,0,0,0,.2-.18.25.25,0,0,0,0-.08.26.26,0,0,0-.18-.28l-3.21-1.16a.26.26,0,0,1-.14-.11.34.34,0,0,1-.05-.17l.16-3.41a.28.28,0,0,0-.19-.27.26.26,0,0,0-.32.09l-2.09,2.7a.42.42,0,0,1-.14.09.28.28,0,0,1-.18,0l-3.2-1.21a.31.31,0,0,0-.33.09.59.59,0,0,0,0,.08.34.34,0,0,0,0,.26L140,57.72a.25.25,0,0,1,0,.17.28.28,0,0,1,0,.09l0,.08-2.13,2.66s0,.05,0,.08a.27.27,0,0,0,0,.26.28.28,0,0,0,.13.11A.31.31,0,0,0,138.11,61.17Z"/><path class="cls-2" d="M26.86,96.46c-6.82,0-10.9,4.22-10.9,9.42s4.08,9.41,10.9,9.41,10.91-4.21,10.91-9.41S33.68,96.46,26.86,96.46Zm0,16.81c-3.26,0-5.75-3.32-5.75-7.39s2.49-7.39,5.75-7.39,5.76,3.3,5.76,7.39S30.13,113.27,26.86,113.27Z"/><polygon class="cls-2" points="38.7 99.24 45.88 99.24 45.88 114.51 51.29 114.51 51.29 99.24 57.35 99.24 57.35 97.16 38.7 97.16 38.7 99.24"/><polygon class="cls-2" points="59.32 99.24 65.38 99.24 65.38 114.51 70.78 114.51 70.78 99.24 77.97 99.24 77.97 97.16 59.32 97.16 59.32 99.24"/><path class="cls-2" d="M5.19,111.39V97.16H0v15.28a2.07,2.07,0,0,0,2.07,2.07H15.34v-2.08H6.23A1,1,0,0,1,5.19,111.39Z"/><path class="cls-2" d="M80.91,99.22v13.22A2.07,2.07,0,0,0,83,114.51H97.12v-2.06h-10a1,1,0,0,1-1-1v-5.11H97v-2H86.11v-4a1,1,0,0,1,1-1h10v-2H83A2.06,2.06,0,0,0,80.91,99.22Z"/></g></g></svg>