<?xml version="1.0" encoding="UTF-8"?> <svg xmlns="http://www.w3.org/2000/svg" id="Snorkfröken_5_Image" data-name="Snorkfröken 5 Image" viewBox="0 0 2400 2400"><defs><style>.cls-1{fill:#fef065;}.cls-2{fill:#fff;}.cls-3{fill:#0e5256;}</style></defs><title>primadonnas_horse</title><path class="cls-1" d="M865.36,1232.87c.31-3.46.59-7.09-.81-10.26-3.26-7.34-30.82-14.13-30.13-21,.17-1.72,1.61-4.26,3.05-4.69a14.31,14.31,0,0,1,8.25-.09c12.48,4.21,25,6.08,38.24,4.1,7-1.05,10.17-5.66,13.47-10.49,2.12-3.11,1-6.08-2.45-7.78a23.35,23.35,0,0,0-5.84-2.11c-5.08-1-10.21-1.79-15.33-2.56-13.14-2-26.18-2.82-39.13,1.58a26.91,26.91,0,0,1-11.5,1c-2.07-.25-4.56-2.47-5.63-4.47-1.32-2.47-.12-5.12,2.71-6.43s5.58-3.13,8.54-3.63c11.92-2,62.06-1.92,52.47-26.92-2.27-5.9-6.3-10.08-13.24-10.45a68.67,68.67,0,0,1-6.87-1.21c-14.17-2.25-27.19.16-38.73,9.2a30,30,0,0,1-8.2,4.3,6.77,6.77,0,0,1-8.35-2.55c-2.16-3.3.38-5.86,2.37-8.26.49-.58,1.36-.83,1.88-1.39a84.9,84.9,0,0,0,7.25-8.08c2.88-4,2.28-7.46-2.18-9.59-3.87-1.84-8.33-2.45-12.53-3.61-16.46.32-28.46,8.17-38.25,20.26a6.33,6.33,0,0,0-1,7.25c1.17,2.52,2.21,5.52,1.93,8.17-.31,2.85-1.56,6.23-3.58,8.11-2.79,2.57-5.33-.83-7.4-2.4-16.86-12.75-39.22-3.76-50.61,11.7-3.22,4.36-2.52,7.89,2.52,9.54,6.87,2.24,13.73,5.05,21.35,2.69,2.05-.64,4.65,0,6.88.51,3.38.8,5.62,3.3,5.42,6.68-.48,7.63-23.68,11.13-29,13.33-13.76,5.67-25,15.76-34,27.61a23.08,23.08,0,0,0-3.28,6.21c-5.67,16.26,40.25,4.71,46.23-3.89,2.21-3.18,6.32-5.43,10-7,1.73-.73,5,.63,6.82,2,2.4,1.82,1.9,4.67.17,7-1.54,2.09-3.26,4-4.88,6.06-4.06,5.08-8.58,9.87-12,15.33-4.66,7.32-6.09,15.4-2.8,23.9,1.89,4.86,3.08,5.92,8.06,5.21a16.85,16.85,0,0,0,6.54-2.28,124.12,124.12,0,0,0,10.7-7.87c8.3-6.63,15-14.35,16.82-25.33.34-2,1.58-3.85,2.44-5.75,1.3-2.86,3.49-5.2,6.63-4.15,2.44.81,5.68,2.82,6.24,4.93a24,24,0,0,1-.15,11.41c-1.72,7.07-4.12,14-6.45,20.91-1.67,4.95-.31,9.44,2.23,13.4,3.62,5.64,14.94,9.33,21.14,7,7.43-2.74,10.34-9,11.64-16.32.13-.76-.18-1.59-.06-2.35,1.58-9.61-.8-26.62,6.14-34.33,3.1-3.46,7.85-.24,8.14,3.7.78,10.89,10.76,15.55,15.94,23.45a4.12,4.12,0,0,0,2.76,1.18C857.11,1265.57,863.61,1252.37,865.36,1232.87Zm-69.59-38.72c-1.13,8-5.31,11.53-13.27,13a43.59,43.59,0,0,0-4.49,1.18c-1.5.44-3,1-4.45,1.44-4.14,1.22-8.27,1.92-11.57-1.81-3.47-3.92-.53-7.24,1.57-10.73-6.23-7-5.47-11.52,2.09-15,6.61-3,13.28-6,20-8.84,5.7-2.47,9.28-.5,9.72,5.49C795.7,1184,796.47,1189.17,795.77,1194.15Z"></path><path class="cls-1" d="M754.51,1521.06c-13.72,9.82-24.94,21.36-24.66,39.41a40.26,40.26,0,0,1-.25,4.41c-1.73,9.46,9.62,16.88,17.75,11.08,2.74-2,5.6-3.79,8.18-5.94,11.71-9.74,18.36-23,24.81-36.36.9-1.87.36-5.25-.8-7.17C776.58,1521.59,759.12,1517.76,754.51,1521.06Z"></path><path class="cls-1" d="M933.68,1539.77c-9,1.39-17.62,4.29-25.13,9.58a19.25,19.25,0,0,0-5.32,6.63c-3.53,6.61-.22,15.3,6.6,17.5,2.17.7,4.61.52,6.93.74l0-.25c1.82,0,3.76.41,5.45-.06,11.34-3.14,20.22-10.11,27.76-18.8,1.09-1.27,1.2-4.83.21-6.23C946.27,1543.3,941.34,1538.59,933.68,1539.77Z"></path><path class="cls-1" d="M1253.86,1510.5c-1.09-.22-2.39.51-3.59.82-5.78,1.52-9.18,5.92-11.84,10.68-3.37,6-6,12.47-7.91,16.39-.19,10.38,4.93,14,11.94,10.22,10.14-5.48,17.72-13.52,19.36-25.69C1262.25,1519.74,1256.8,1511.1,1253.86,1510.5Z"></path><path class="cls-1" d="M1264.46,1352.77c-8.26,1-16.42,2.71-24.64,4.09-4.17.7-7.43-.9-9.1-4.16-2-3.86,0-6.32,2.63-8.89,2.81-2.8,6.22-3.54,9.94-3.86,9.9-.85,17.44-6.5,24.5-12.71,3.3-2.9,3.76-9.25,1.9-12.37-1.73-2.89-5-3.19-10.68-1.74-7,1.79-13.06,4.91-17.89,10.45a40.06,40.06,0,0,1-7.09,6.14c-3.45,2.46-9.7,1.59-12.22-1.41-2.26-2.68-1.94-5.5,2.23-9.5a143.2,143.2,0,0,1,13.35-10.92c7.47-5.61,13.76-17.35,3.11-24.25-8.94-5.8-18.59,4.58-24.68,11.69-5.71,6.65-10.51,14.08-16.67,20.32-1.61,1.63-3.41,3.23-5.65,3.71-8.23,1.76-6.38-7.88-3.88-11.86s6-7.37,8.1-11.49a21.47,21.47,0,0,0,2.15-10.3c-.15-3.54-1.71-7-2.79-10.52-1.47-4.76-3.19-6.06-8-5.06-11.55,2.39-21.72,7.09-28.43,17.53-5,7.76-3.92,15.66,2.76,22,1.84,1.73,3.77,5.2,3.21,7.18a10.44,10.44,0,0,1-6.13,6.19c-7.56,2.21-14.15-2.28-21.31-3.72l-1.44-.24c-9.19-1.25-17.9,3.89-22.89,11.47a44.71,44.71,0,0,1-3.16,3.48c-4,4.83-3.17,8.92,1.77,12.44s9.77,2.61,14.93,1.55a168.38,168.38,0,0,1,17.59-3.14c3.58-.34,6.53,1.69,7.35,5.7.78,3.79-1.28,6.13-4.37,7.37-3.36,1.35-7,2-10.46,3.1-6.4,2.08-13.79,2.94-18.86,6.8-6,4.58-10.21,11.69-14.87,17.94-1.67,2.23-2.75,5-.47,8s5.18,2.73,8.42,1.93c11.24-2.8,22-6.53,31.23-13.86,3.79-3,7.32-2.85,9.89-.25s2.6,6.32-.27,9.9a67.94,67.94,0,0,1-7.1,7.3c-6.81,6.2-9.72,14.28-9.79,23,0,3.42,2.68,7.1,4.84,10.17.68,1,4.27,1.21,5.4.33,4.28-3.3,8.63-6.79,11.93-11,3.63-4.67,6.1-10.25,9.16-15.38,1.67-2.8,4.25-3.68,7.41-3,3.37.75,6,2.49,6.12,6.13s.15,7.5-1.19,10.68a25.14,25.14,0,0,0-.68,19c2.29,6.61,7.4,9.32,14,6.79s10.59-7.81,12.37-14.22c1.33-4.77,4.76-10,1.21-15-4.78-6.7-.12-11.81,2.42-17.17.68-1.43,3.36-2.39,5.26-2.66,6.38-.93,11.38,3.23,13.38,10.46.83,3,1.59,6.1,3.11,8.72,3,5.16,9.59,8.51,13.74,6.83,5.84-2.36,11-5.89,14.55-11.38,1.89-2.92,1.88-5.65-.75-7.66-7.08-5.4-10.81-15.11-21.22-16.32-1.58-.18-2.89-2.15-4.47-3-5.79-3.24-4-9.08.3-12.09,4.83-3.41,9.66-2.84,14.77-.49,3.72,1.71,7.78,4.18,11.55,4,5-.29,10-2.51,14.78-4.58,5.93-2.6,6.93-7.9,3.63-13.44S1269.49,1352.19,1264.46,1352.77Zm-49.64,7.76c-5.79,6.67-11.89,13.16-18.27,19.25-5,4.81-8.64,4.47-14.32-.2-2.93-2.42-6.85-3.94-7.54-8.51-.14-.9-1.8-1.58-2.79-2.33-9.13-6.81,1.22-17.76,7.35-22.92a22.9,22.9,0,0,1,12.8-5.46,23.69,23.69,0,0,1,9.64,1.17c1.7.57,4.15,2.27,4.24,3.61.27,3.78,2.53,3.62,5.2,4.25C1217.17,1350.82,1218.92,1355.79,1214.82,1360.53Z"></path><path class="cls-1" d="M1160.39,1497.36c-6.76-4.87-13.85-5.76-21.21-1.46-2.48,1.44-4.69,3.34-7.17,4.76-3.38,1.94-6.88,3.67-10.39,5.37-2.89,1.4-6.33,1.26-7.59-1.54-1-2.14-.63-6.06.8-7.84,2.87-3.56,6.77-6.35,10.46-9.17,3.1-2.36,6.77-4,9.69-6.54a17.56,17.56,0,0,0,4.76-6.87c1.92-5.19-2.53-10.55-7.8-8.8-6.54,2.16-13.76,3.64-18.48,9.52-3.41,4.25-6.87,8.46-10.06,12.86-3.56,4.9-6.74,6.41-10.26,4.39s-4.19-7-1.29-11.67c.54-.88,1.53-1.61,1.77-2.55.56-2.22,1.38-4.61,1-6.77-1.35-8.49-10.29-14-18.78-12.37-8,1.58-11.88,7.52-14.2,14.21-3.37,9.71-2.26,10.17,4.69,12.64,3,1.07,5.85,3.06,4.59,7a7,7,0,0,1-7.79,5.2,52.6,52.6,0,0,1-7.65-1.35c-8.53-2-18.31,1-22.68,6.86-2.25,3-1.95,5.66-.44,8.68a6.6,6.6,0,0,0,7,3.93,51.5,51.5,0,0,0,7.54-1.85,41,41,0,0,1,5.93-1.53c3-.32,4.88,1.4,5.94,4.11a5.67,5.67,0,0,1-1.8,7,41.44,41.44,0,0,1-3.94,2.55c-5.9,3.78-12,7.28-17.6,11.48a20.94,20.94,0,0,0-5.88,8.07c-.83,1.85-.8,5.63.34,6.45a8.14,8.14,0,0,0,7.09.54c7.72-3.89,17-5.54,21.66-14.24a7.31,7.31,0,0,1,4.43-3c2.6-.59,5.94-1.39,7.94-.27,3.2,1.8,2.19,5.36.89,8.41-2.74,6.45-5.47,12.9-8.09,19.39a20.05,20.05,0,0,0-1.63,6c-.42,6,3.94,9.1,9.57,6.92,6.67-2.58,10.92-6.55,10.2-14.62-.49-5.4,2.94-10.14,6.26-10.45,3.7-.35,9.12,5,9.82,9.79a25.12,25.12,0,0,1,.07,3.13c0,1.57-.05,3.14,0,4.7.26,5.23,2.59,7,7.58,5.15,2.84-1.08,5.29-3.24,7.86-5,5.05-3.48,6.14-6.21,3.64-11.72a29.32,29.32,0,0,0-5.84-7.92c-4-4.19-3.7-8.65,1.23-11.51a18.39,18.39,0,0,1,20.23,1.59c6.07,5,13,5.53,19.8,3,2.92-1.11,4.75-5.08,7.07-7.75-2.35-1.87-4.46-4.24-7.11-5.46-2.22-1-5.05-.81-7.62-1-3.09-.24-6.2-.22-9.28-.5s-5.63-2-6-5.2c-.42-3.48.41-7,4.25-8.33s7.82-2.36,10.16-3.06c8.15,1.58,13.13-.75,17.08-5.52C1164,1501.71,1163.8,1499.82,1160.39,1497.36Zm-56.73,28.87c-3.47,2.22-7.17,4.65-11.08,5.44-3.23.64-7.26-.32-10.28-1.86-1.66-.84-2.87-4.41-2.7-6.62.42-5.45,10.25-13.37,17.74-13.37,1.94,1.28,5.79,3,8.55,5.84C1109.06,1518.89,1107.93,1523.51,1103.66,1526.23Z"></path><path class="cls-1" d="M1023.15,1383.72a28.06,28.06,0,0,0-24.78-5.61c-2,.49-4,1.38-6,1.81-4.81,1-9.64,2.47-14.49,2.53-2.18,0-5.58-2.41-6.31-4.48-1-2.86,1.57-5.26,4.6-6.19,2.73-.84,5.54-1.43,8.29-2.2,8.49-2.38,17.27-4.06,25.37-7.39,9.65-4,18.59-9.14,18.61-22.09,0-7.36-2.27-13.73-9.05-16.67-9.21-4-18.56-5.11-27.54,1-6.66,4.54-13.29,9.13-20.13,13.38-1.44.89-4.35,1.17-5.49.3s-1.68-3.78-1.17-5.37a25.13,25.13,0,0,1,4.42-8.15c5.3-6.41,6.82-14,7.14-21.88.5-11.94-11-20-22.41-15.94-11,3.88-15,13.75-19.1,23.15-2.6,5.9-4,12.32-6,18.5-.84,2.65-2.22,5-5.27,5-3.53.06-4.94-2.83-5.63-5.58-.47-1.86.19-4,.46-6.05,1.43-10.58,1.58-21.34-5.08-30.1-7.46-9.82-14.33-14-25.82-5.47-7.15,5.3-9.75,13.09-13.62,20.32-4.9,9.14-1.42,17.12,3.13,24.9,1.69,2.89,4.12,5.37,6.3,8,2.57,3,3.66,8.75,2.09,11.46-1.83,3.15-8.47,5.52-12.33,3.94-7.74-3.16-14.36-2.38-20.82,3.45-5.38,4.86-9.68,10.3-12,17-2.71,7.89,2.56,14.42,10.74,13.31,5.85-.8,11.53-2.79,17.31-4.16a78.53,78.53,0,0,1,10.67-2.08c1.53-.13,4.22.85,4.53,1.88.5,1.64.07,4.42-1.1,5.52a46.8,46.8,0,0,1-10.06,7.29,39.46,39.46,0,0,0-13.73,11.38c-3.26,4.35-6.35,8.89-10.1,12.79a20.6,20.6,0,0,0-5.83,17.11,11.39,11.39,0,0,0,7.35,10.18c8,3.41,15.15,1.44,22.26-2.72a76.69,76.69,0,0,0,28.91-29.94c.91-1.65,3.83-3.57,5.24-3.2,1.65.44,3.54,3.15,3.79,5.07.74,5.81-1,11.43-3.94,16.34-6.48,10.72-8.6,22.31-7.45,34.52,1.26,13.31,17.8,23.86,29.6,18.84,8.16-3.46,14.62-9.1,17.7-17.78.86-2.43,1.8-5.08,1.64-7.57-.43-7-1.48-13.91-2.16-20.87a37.39,37.39,0,0,1-.29-8.57c.57-4.07,3.25-5.25,6.8-3.11a13.06,13.06,0,0,1,4.3,4.32c3,4.94,5.7,10.13,5.13,16.12-.55,5.77,2.56,9.24,6.66,12.31,2.09,1.56,4.18,3.12,6.39,4.5,8.77,5.5,14.46,4,18.92-5.34a25.79,25.79,0,0,0,2.15-8.23c1-9.54-4-16.29-10.66-22.22-1.53-1.37-3.49-2.28-5-3.69-2.34-2.23-3-5.38-1.13-7.79,1.07-1.39,4-1.69,6.07-1.86a13.22,13.22,0,0,1,5.3,1.07,68.73,68.73,0,0,0,19.43,4.21,35.89,35.89,0,0,0,15.5-2.09C1042.81,1413.72,1034.07,1392.53,1023.15,1383.72ZM952.27,1389a82.85,82.85,0,0,1-3.94,8.5c-3.43,6.41-7,12.78-10.54,19.11s-7,7.82-11.7,5.36c-3.3-1.72-4.66-4.33-3-7.72a52,52,0,0,1,4.68-7.12c1.5-2.12,3.15-4.14,4.62-6.27a39.05,39.05,0,0,0,2-3.71l-1.22-1a84.36,84.36,0,0,1-6.2,6.6,12.72,12.72,0,0,1-5.3,2.78c-3.92.88-6.2-1-5.46-4.87a8.3,8.3,0,0,0-2-7.77c-1.1-1.31-1.8-4.17-1.12-5.58,4.25-8.84,7.06-18.51,14.48-25.61,2.82-2.7,5.19-3.84,8.85-1.37,1.73,1.16,4.38.88,6.52,1.55,1.88.59,4.82,1.21,5.24,2.48C950.79,1372.35,955.81,1380.05,952.27,1389Z"></path><path class="cls-1" d="M773.17,1646.48c-2.9-3.58-6.68-5.14-11-4.29-3.81.74-4.93,4.26-5.89,7.55-.66,2.25-1.29,4.51-1.82,6.8-2.88,12.28-4.69,24.47,1.51,36.46,1.88,3.62,3.71,7.57,8,7.61s6.65-4.07,7.78-7.77c2.79-9.14,6.89-18,6.29-28C778.11,1655.14,777.06,1651.31,773.17,1646.48Z"></path><path class="cls-2" d="M1710.74,424.31c-.83-1.91-1.91-3.73-2.56-5.7-5.6-16.78-15.7-31.08-25.28-45.64-3.37-5.1-7.54-9.67-11.35-14.49.35,3.25,1.68,5.77,3,8.32,4.15,8.36,9.21,16.42,12.2,25.18,5.25,15.44,9.49,31.24,13.6,47a62.72,62.72,0,0,1,1.5,17c0,1.92-2.55,5.09-4.33,5.4-3.42.6-3.67-2.78-3.81-5.46-.06-1,0-2.09-.05-3.13-.47-6.77-.95-13.44-7.4-17.88-1.53-1.05-2.09-3.45-3.23-5.13-6.68-9.92-13-20.1-20.25-29.6-3.84-5-8.92-5.56-13.85-1.68-6.84,5.4-14.52,10.51-17.67,19.17-2.13,5.86-5.91,11.44-5,19.11,1.61-1.36,2.54-2.2,3.51-3,6.69-5.34,13-4.37,17.9,2.65,3.51,5.08,3.43,10.65,2.81,16.5-1.9,17.7-4.69,20.69-22.7,22.33,4.07,7,7.23,14.09,15,17.22,10.59,4.25,21.91,4.8,33,4.59,6.52-.12,13.26-2.18,19.42-4.59,19.36-7.6,34.45-37.2,30.43-60.13-.7-4-2-4.88-5.62-3.48C1715.37,430.69,1712.53,428.45,1710.74,424.31Z"></path><path class="cls-1" d="M947.31,1227.14a55.18,55.18,0,0,0,13.86-1.45c11.3-2.35,22.35-5.4,30.06-15a34,34,0,0,1,3.47-4.23c2.81-2.57,8.51-2.82,10.85-.69s2.29,6.13-1.25,9.54c-13.75,13.24-34.2,28.36-35.6,49.23-.28,4.22-.79,8.23,2.71,10.52s7.45.9,11.07-1.21c11.91-6.93,21.81-15.78,27.74-28.49,1.64-3.5,2.86-7.2,4.62-10.63,1.52-3,4.41-3.71,7.42-2.83,3.18.93,4.52,3.31,3.89,6.68-.24,1.28-.27,2.61-.62,3.85-1.58,5.5-3.53,10.91-4.79,16.48a138.42,138.42,0,0,0-2.06,14.53c-.72,6.18,2.94,9.72,7.88,12.21,6.06,3,13.8,1,16.25-4.49,5.76-12.87,8.84-26.11,5.13-40.26-.71-2.71-1.1-5.93-.28-8.47a11.13,11.13,0,0,1,5.27-5.93c1.12-.54,4.06,1.51,5.49,3a16.18,16.18,0,0,1,3.29,6.13c1.8,5.69,3.06,11.55,4.94,17.21,2.87,8.65,7.09,16.18,16.81,19,6.49,1.88,8.26,1.28,11.26-4.48,4.7-9,5.77-19,6.13-28.73.27-7.6-.88-16-10.55-18.78a6.54,6.54,0,0,1-2.47-1.87c-3.94-4-3.16-8.43,2.06-10.42s10.61-2.55,15.71.81c3.27,2.15,6.84,3.89,10,6.23,4.85,3.65,10.3,3.78,15.56,2.31,2.65-.74,5.85-3.23,6.78-5.7,4.17-11,2.32-14.85-8.32-20.46-.92-.49-1.81-1-2.72-1.55-6.23-3.51-12.46-5.8-20-4a18.58,18.58,0,0,1-15-2.86c-3.58-2.47-4-5.33-1-8.5,2.52-2.65,5.76-3.39,9.35-2.69,12.47,2.42,23-2.73,32.84-9.21,2.15-1.41,3.83-5.25,3.76-7.91-.1-3.31-3.5-4.36-6.87-5.08-13-2.78-25.37-2.28-36.84,5.19-2.36,1.54-4.39,1.21-6.26-.82s-2-4.35-.27-6.34c2-2.2,4.32-4,7.41-6.87-5.36-.51-9.93-1.65-14.35-1.25-16.23,1.5-32.16.94-47.73-4.43-4.13-1.43-8.45-2.33-13.37-3.66-.12,1.69-.24,2.44-.21,3.18.31,7.7-.87,8.57-8.41,7a27.77,27.77,0,0,0-7.57-.11c-4.35.31-8.68,1-13,1.27-6.95.4-14-.15-20.63,2.61-4.28,1.78-8.07,3.91-8.49,9.17s2.94,8,7.05,10.25c9.61,5.23,19.76,6.12,30.39,4.24a20.27,20.27,0,0,1,9.14.1c4.19,1.27,4.49,5.36.61,7.52a30,30,0,0,1-8.87,2.73c-8.32,1.63-16.69,3-25,4.57a19.52,19.52,0,0,0-4.45,1.47c-13.34,6.08-22.37,16.62-29.21,29.12A9.07,9.07,0,0,0,947.31,1227.14Zm77.51-44.66a121.69,121.69,0,0,1,12-17.19c1.79-2.15,5.27-2.89,6.8-3.67,6.92.49,15.64,8.67,16.77,14.27.39,1.92.67,4.1,1.75,5.62,3.6,5.1,4.61,8.22.25,11.34-7.42,5.3-9.61,13.07-12.93,20.55-.88,2-2.89,3.64-4.73,4.95-2.67,1.91-5.43,1.85-7.38-1.27-2.22-3.56-4.79-6.32-9-7.95s-4.87-4.57-2.46-8.92c2.07-3.75,3.39-6.54-1-9.88C1023.51,1189.34,1023.63,1184.54,1024.82,1182.48Z"></path><path class="cls-1" d="M736.32,1488.93c1.88-14.2-1.23-26.37-14.36-34.36a29.88,29.88,0,0,1-3.57-3c-5.16-4.37-10.27-8.78-15.49-13.06-4.83-4-9.75-7.83-14.69-11.66-2.52-1.95-4-4.19-2.58-7.39,1.35-3,4.07-2.84,6.74-2.61,1,.1,2.07.26,3.11.39,9.91,1.19,19.63,2.08,29.46,2.68q6.19.39,12.48.61a14.94,14.94,0,0,0,6.39-.71c16.5-7,11.72-30.09,3.63-40.88-13.62-18.15-32.28-16.6-48.57-3.53-5.67,4.54-11.21,9.24-16.9,13.75-2.3,1.83-5,2.13-6.94-.41s-.75-5,1.26-7a18.34,18.34,0,0,1,2.34-2.07c12.34-8.73,25.37-21.19,31.74-35.09,4.64-10.14,5.1-23-1.8-31.72a17.6,17.6,0,0,0-6.76-5.4,18.24,18.24,0,0,0-9.66-1c-7.62,1.08-14.41,5.61-19.65,11.25-8.81,9.51-14.4,21.9-21.49,32.65a55.92,55.92,0,0,1-8.64,9.87c-.91.85-3.79.72-4.89-.11-3.6-2.73,1.93-11.81,2.87-14.54,2.21-6.45,3.93-13.16,3.39-20-.22-2.77-.79-5.57-.32-8.31.33-1.93,1.18-3.81,1.1-5.77-.12-2.76-2-5.08-3.85-7.16-4.06-4.67-10.14-12.3-17-9.7-4.35,1.63-6.86,7.3-8.56,11.21-4.26,9.77-5.94,20.57-7.76,31-5.78,33.12-6.35,65,.69,97.77a299,299,0,0,0,7.51,29.42q6,18.49,12.62,36.85c4.48,12.46,10.31,24.35,14.45,36.92a11,11,0,0,0,2.26,4.08,6.45,6.45,0,0,0,3.77,2.15,15.28,15.28,0,0,0,16.12-18c-.69-4.35-2.42-8.53-3.22-12.87-2.09-11.43-7.14-21.63-13.13-31.35-1.88-3.06-2.68-5.58-.74-8.59a59.15,59.15,0,0,1,5.37-7.67c4.35-4.84,8.1-4.51,10.73,1.47,8.43,19.2,25.8,30.24,44.16,38.54,3.88,1.75,8.67,1.56,13.07,2.08,3.32.4,5.76-1,8.27-3.41C733.76,1499.93,735.55,1494.69,736.32,1488.93Zm-83.13-80.72c-2.15,4.44-4.92,8.59-7,13.07a68.5,68.5,0,0,0-4.51,12.28c-1.66,6.71-2.91,8-10.31,9.48-3,.61-5.84,2.11-8.81,3-5,1.48-7.47-.61-6.86-5.76a17,17,0,0,1,.81-3.82c1.5-4.17.57-7.39-2.83-10.43-4.42-3.94-4.22-4.69-1.65-10,3.28-6.8,6.18-13.79,9.66-20.49a76.07,76.07,0,0,1,8.06-12.39,12,12,0,0,1,6.41-3.83c4.47-1,6.15.91,5.79,5.61-.62,8.32.79,10.57,8.78,14C654.14,1400.36,655.25,1403.92,653.19,1408.21Z"></path><path class="cls-2" d="M598.72,1447.57c-1.42-8.7-2.74-17.42-4-26.15-.83-5.66-2-11.32-2.19-17-.32-10.68-.16-21.39.1-32.09q.36-14.44,1.42-28.87a92.17,92.17,0,0,1,2.19-13c2.24-10.16,4.44-20.34,7.06-30.4,1.77-6.77,4.74-13.24,6.26-20,3.82-17.19,11.27-33,18.23-49,5.72-13.1,13.34-25.36,19.7-38.19A67.08,67.08,0,0,1,661.14,1174c2.38-2.3,4.39-5,7.38-8.43-4.93-3.3-9.13-6.14-13.36-8.92-22.11-14.56-43-28-68.17-36.77-9.53-3.33-19.24-6.26-29.23-7.7-41.58-6-82.08,15.93-117.63,35.5-43.93,24.19-74.12,61.73-97.63,105.62-28.57,53.37-23.53,99.89-20.74,151.15A836.47,836.47,0,0,0,333.31,1505c2.44,13.75,5.52,27.4,9,40.93.95,3.72.61,8.7,5.49,11.52,1.66-12.76,4.49-24.86,4.58-37,.24-34.66-.63-69.32-1.05-104-.06-5-.11-9.9-.1-14.85,0-13.26,0-26.52.19-39.77a22.19,22.19,0,0,1,1.16-7.63c1.31-3.4,4.95-3.8,6.49-.53s1.92,6.93,2.17,10.48c.94,13.73,2.66,27.23,3.69,41,1.51,20.17,5.91,41.1,5.91,61.26.68,6.19,1.81,12.33,2.55,18.51,1,8.52,2.81,17.08,2.65,25.59-.41,21.86-1.68,43.7-2.66,65.55-.32,7.27-.43,14.58-1.3,21.8-1.4,11.59-3.29,23.13-5.08,34.67-1.07,7-2.21,13.88-3.54,20.78-1.08,5.58-2.66,11.06-3.73,16.65-1.12,5.88-1.47,11.93-2.91,17.72q-5.08,20.46-10.94,40.73c-2.36,8.24-5.32,16.3-8,24.44q-3.54,10.71-7.1,21.43a254.63,254.63,0,0,0,16.35-32.66c10.85-27,15.08-55.69,21.41-83.85,3-13.44,5.44-27,8.12-40.53,2.57-13,5.33-26,7.64-39,1.85-10.51,3.13-21.12,4.71-31.68,2-13.63,4.71-27.2,6.08-40.89,1.55-15.52,2.38-31.14,2.78-46.74s.87-31.48.82-47.23c0-7.87-.18-15.74-.53-23.61-.26-5.74-2.9-15.91-1-21.31,3.52-9.78,9.2,1.15,9.13,6.16-.09,7-.92,14-.88,21,.06,10.66.64,21.31.93,32,.22,8.34-.08,16.71.58,25,2,25.36,7.93,50.28,8,75.91.06,18.45,2.14,36.9,2.21,55.36.06,14.27-1.46,28.56-2.51,42.83-1.06,14.46-2.12,28.93-3.73,43.33-.95,8.5-3.11,16.87-4.45,25.34-.77,4.86-1,9.8-1.46,14.71a3.93,3.93,0,0,0,2.28-2.5c1.53-5.5,2.87-11,4.45-16.52,4.17-14.44,9-28.7,12.5-43.3,4.62-19.49,8.47-39.17,12.09-58.87,2.53-13.79,2.77-28,6.91-41.52a10,10,0,0,0,.14-2.34c.63-14.56,1.76-29.13,1.81-43.69.1-34.46-.33-68.92-.49-103.39,0-3.49.11-7,.22-10.45.06-1.78.45-3.7,1.8-4.87,5.33-4.6,6.89,8.34,6.92,10.88.11,11.35.22,22.71-.33,34-.78,16.3,1.57,32.21,5.78,47.78a110.23,110.23,0,0,1,3.86,25.34q.79,23.73,2.12,47.44c.65,11.92,2.2,23.82,2.34,35.74.2,16.69-.56,33.39-.86,50.08,0,2.86.29,5.73.32,8.59.08,9.26.44,18.54,0,27.79-.32,7.25-1.51,14.48-2.52,21.69-1.13,8.15-2.53,16.27-3.74,24.41-1.13,7.59-2.16,15.2-3.23,22.8,5.18-14.22,9.41-28.65,13.2-43.2,3.16-12.08,5.94-24.27,8.64-36.47,2.35-10.61,4.91-21.23,6.36-32,1.77-13.15,2.43-26.44,3.69-39.67.24-2.58,1.05-5.1,1.5-7.66.48-2.82,1-5.65,1.24-8.49,1.34-13.73,2.71-27.45,3.86-41.19.38-4.62.11-9.28.19-13.93.18-9.61.89-19.24.49-28.83-.53-12.48-1.51-25-3.06-37.36-1.23-9.86-2.76-19.67-4.32-29.48-.9-5.66-5.93-19.53-2.8-24.8,3.42-5.75,7.5,1.75,8.37,4.68,4.69,15.81,5.34,32.26,7.68,48.43,1.3,9,.32,18.37,2,27.26a231.76,231.76,0,0,1,4.1,41.16c.15,15.78.4,31.56.21,47.33-.08,6.45-1.48,12.88-1.82,19.34-.38,6.91,0,13.86-.34,20.77-.87,17.69-2,35.37-3,53.06-.07,1.25,0,2.51,0,3.76,2.72-6.57,5.16-13.2,6-20,2.31-18.86,3.86-37.81,5.89-56.7.81-7.51,2.59-14.93,3-22.45.64-11.61.67-23.28.63-34.92-.07-19.27.84-38.58-2.64-57.71-1-5.5.6-9.92,3.31-10.14,2.38-.19,5.4,4.47,5.69,9.35.56,9.34,1.18,18.69,1.27,28,.1,9.1-.09,18.23-.75,27.3-1.34,18.21.87,36.47-1.48,54.68-1.8,13.93-2.44,28-3.61,42-.08,1-.14,2.08-.3,3.11-2.88,18.22-5.51,36.49-8.77,54.64-2.56,14.3-5.79,28.47-9,42.65-1.3,5.83-3.63,11.44-4.77,17.28-3.2,16.42-7.29,32.48-16.14,46.94-.18.3.2.93.67,2.86,3.58-4.29,6.5-8,9.68-11.54a72.14,72.14,0,0,0,17-32c4.92-20.43,10-40.82,13-61.65.78-5.39,2.26-10.67,3.11-16a340.68,340.68,0,0,0,3.61-34.84c1.08-19.74,4-39.36,5.17-59.09.94-15.09.7-30.27.58-45.41-.07-8.84-.83-17.69-1.45-26.53-.33-4.66-1.26-9.28-1.44-13.93-.06-1.46,1.2-3.92,2.32-4.23,1.35-.37,3.5.71,4.75,1.8a7.34,7.34,0,0,1,1.91,4.17,138,138,0,0,1,1.87,14.72c.7,14.21,1.31,28.42,1.57,42.65.14,7.25-1.14,14.55-.73,21.77.86,15-.05,29.91-1.6,44.8-1,9.31-2.3,18.58-3.33,27.88-.73,6.71-1.07,13.47-1.87,20.18-1,8.51-2.27,17-3.47,25.49-.75,5.36-1.25,10.79-2.47,16-2,8.58-4.47,17-6.71,25.58-.38,1.47-.56,3-.84,4.5,2.7-2,4.94-4,6-6.56,4.95-11.47,9.86-23,14.26-34.67,11.1-29.5,17.4-60,17.47-91.6q0-17.91.73-35.83c.64-16.92,1.76-33.83,2.27-50.76.26-8.32-1.62-16.86-.32-25,1.48-9.16-.29-17.73-2-26.25-2.88-14.28-7-28.32-10.72-42.4-1.34-5-3.4-9.84-4.93-14.8-1.08-3.48-3.54-7.56-3.56-11.44,0-4.91,4.49-10.49,7-3.31,4.75,13.49,10.09,26.81,14.06,40.53,11.2,38.78,18.27,80.28,22.16,120.42,3.42,35.27,3.68,72.68-.51,107.84-.37,3.1.09,6.33-.53,9.36-2.35,11.42-4.65,22.87-7.59,34.15-2.89,11.05-6.47,21.92-9.88,32.83-2.81,9-8.54,17-8,27.17,5.18-3.62,4.5-9.7,6.49-14.58a273.06,273.06,0,0,0,13.84-42.27c13.87-60.85,24.33-123.32,26.52-185.67.75-21.39-2.26-42.58-5.62-63.67C600.1,1452.59,599.13,1450.13,598.72,1447.57Z"></path><path class="cls-2" d="M1383.33,916.1c3.06-12.89,7.8-25.24,10.33-38.4a604.94,604.94,0,0,1,16.58-65c5.54-17.85,13-35.12,20.07-52.46,5.31-13,11.82-25.52,17-38.57,6.29-15.87,17.28-28.86,25.64-43.44,4.48-7.82,11.43-14.19,16.82-21.54,5.84-8,12.29-15.78,16.47-24.61,11.42-24.08,18.83-49.65,24.64-75.6,3.18-14.2,5.17-28.68,7.53-43.06,1.68-10.28,4.11-20.58,4.41-30.93.67-23,.21-46,.2-69a16.88,16.88,0,0,0-.24-3.9c-2-8.24-.34-16.12,2.65-23.73,6.06-15.41,14.39-29.44,26-41.41,1.89-1.95,3.41-4.25,5.26-6.57-1.52-1.31-2.51-1.85-3.06-2.69-1.19-1.83-3.48-4.51-2.92-5.58,1-1.92,3.67-3.16,5.86-4.21a6.52,6.52,0,0,1,4.6-.39c7.95,3,16.16,5.63,23.6,9.65,8.2,4.42,15.74,10.1,23.43,15.44a88,88,0,0,1,10.91,8.8c6.36,6.13,12.52,12.47,18.54,18.94,3.71,4,7,8.31,10.47,12.53,3.84,4.69,7.61,9.42,11.41,14.14a12.34,12.34,0,0,0-.75-7.88c-4.92-10.63-10.24-21.07-15-31.74-9.94-22.06-24.94-40.16-42.83-56.12-1.1-1-2.47-2.36-2.53-3.62-.08-1.58.6-4,1.77-4.69,2.74-1.74,5.44-.52,7.76,1.61q13.77,12.69,27.61,25.31c1.53,1.4,3.34,2.51,4.76,4,3.93,4.11,8.09,8.07,11.49,12.59,8.43,11.21,16.47,22.72,24.71,34.07a10.63,10.63,0,0,0,2.28,1.78c-5.4-10.72-11.12-21-15.8-31.65-5.69-13-12.54-25.17-22.07-35.77-5.05-5.63-9.9-11.44-14.89-17.13-1.69-1.93-2.9-3.88-.8-6.17s4.44-1,6.18.54c3.49,3.09,6.82,6.35,10,9.74,1.59,1.69,2.55,4,4.12,5.7,20.87,22.92,35.38,56,46.72,84.58,4,10.18,8.3,5.56,4.86-3.54-10-26.59-23.21-51.16-37.17-75.84a126.8,126.8,0,0,0-33.84-39.29c-1.34-1-2.74-4.09-2.17-5,1-1.62,3.53-3.26,5.35-3.19,5.4.22,11,.45,16.1,2.15,11.3,3.81,22.62,7.84,33.33,13,13.37,6.44,28.08,21.15,36.81,33.07a55.93,55.93,0,0,1,5,8.88,352.89,352.89,0,0,1,18.86,47.43c-3.8-25.16-8.3-47.59-24-68.43-10.94-14.56-23.13-27.39-38.48-37.11-3.24-2.06-7.21-2.93-10.72-4.62-2.43-1.16-6-1.88-4.67-5.93,1.15-3.48,4.29-3.34,7.2-3.27a7.84,7.84,0,0,1,3.07.51c19.64,9.44,36.67,24.44,50.24,41.38,1.05-.67.53-2.28-.12-3.34-7.1-11.61-16.64-21.71-22.73-33.9-3.5-7,4.66-2.84,7.27-.83,3.8,2.93,6.52,7.16,9.63,10.75,13.06,15.08,23.36,32.3,33.59,49.43-3.79-6.34-4.36-16.81-7.36-23.9a126.69,126.69,0,0,0-12.64-22.89c-10.62-15.24-23.42-25.15-39-34.78-14.45-8.92-30.74-11.63-46.51-5.91-12.31,4.45-23.87,11.75-34.67,19.35-11.73,8.26-21,19.41-29.18,31.31-3.15,4.58-7,7.9-12.95,9.2-6.75,1.48-13.53,2.92-19.67,7.08-4.27,2.89-10.23,3.28-15.42,4.83-11.21,3.33-22.53,6.38-32,13.88a68.22,68.22,0,0,1-9.62,6.71,13.9,13.9,0,0,1-7.13,1.59c-19.74-1.18-39.37-1.88-59,1-47.81,7.1-96.25,26.46-138.26,50.18-39.27,22.18-74.93,51.38-101.89,87.54-18.88,25.34-33.3,53.77-45.11,83.08-6.13,15.22-11.67,31.27-10.5,47.64A405.39,405.39,0,0,1,1181.41,530c11.47-16.95,22.82-34.7,37.25-49.3,3.44-3.47,6.67-7.14,10-10.68,4.85-5.08,9.57-10.3,14.72-15.07a7.38,7.38,0,0,1,6.16-1.47c1.14.36,1.86,3.55,1.86,5.47,0,1.18-1.63,2.45-2.68,3.52-26.91,27.35-52,53.71-68.53,88.89-7.7,16.32-16.88,32-23,49.06-6.58,18.42-7.29,37.12-8.22,56.46-.77,15.86-1.4,31.73-1.65,47.6-.21,13.69.15,27.4.35,41.1.08,5.43.62,10.85.55,16.28-.22,15.56-.66,31.13-1,46.69,0,2,.24,3.93.38,5.89a11.72,11.72,0,0,0,3.72-6.65c2.35-12.55,4.75-25.09,6.76-37.69,4.7-29.55,9.07-59.15,13.82-88.7,2.27-14.14,3.88-28.56,8-42.19,5.59-18.64,13.28-36.64,20-54.93,1.53-4.13,2.75-8.4,4.5-12.44,3-6.84,4.5-14.52,10.47-19.74a5.07,5.07,0,0,1,3.93-1c.71.16,1.57,2.23,1.38,3.26-.88,4.81-1.56,9.79-3.34,14.29-6.15,15.5-14.08,31.18-20,47.12-2.67,7.17-5.65,14.25-7.41,21.72-2.85,12.1,3.22,22,3.75,33.91,1,22.73-.7,45.31-.7,68-.15,7.52-.76,15-1.29,22.54-.88,12.67-1.63,25.36-2.86,38-1,10.34-2.59,20.64-4,30.94-1.61,11.84-3.31,23.67-4.92,35.51a30.52,30.52,0,0,0,0,4.17,11.77,11.77,0,0,0,4.87-5.81q8.72-20.84,17.25-41.75a39.08,39.08,0,0,0,1.84-5.16c3.49-13.89,7.12-27.75,10.32-41.71,4.12-18,7.56-36.08,7.13-54.75-.4-17.55,1.63-35.16-1.81-52.64a22.65,22.65,0,0,1,.61-10c1.79-6.47,8.88-1.41,10.29,2.51a21.93,21.93,0,0,1,1,6.51c1.11,23.57,1.72,46.6,6.85,69.7a314.8,314.8,0,0,1,3.93,45.26c.5,30.44-3.06,60.89-9.53,90.61-5.72,26.24-13.66,52.08-16.64,78.76,20.1-27.1,27.77-63.43,35.69-95.61,3.48-14.11,5.92-28.49,8.38-42.83,1.14-6.65,1.32-13.48,1.78-20.24q2-30.34,3.91-60.72c.23-3.85,0-7.73-.06-11.59,0-11.46,1.15-23-1.85-34.29a21.77,21.77,0,0,1-.68-7.74c.17-1.55,1.44-3.71,2.75-4.2,1-.4,3.42.9,4.27,2.11a16.42,16.42,0,0,1,2.5,6.42c2.51,14.49,2.13,29.08,1.4,43.68a60.73,60.73,0,0,0,0,6.88c.53,7.8,1.34,15.59,1.71,23.4.69,14.53-.57,29,.34,43.63.64,10.08-.66,20.3-1.37,30.44-1.45,20.8-3.1,41.58-4.63,62.37-.16,2.25,0,4.52,0,6.78,9-20.5,13.2-41.93,18.08-63.22,2.51-10.93,2.44-21.67,2.71-32.57.13-5.48,0-11,.64-16.43,1.88-16.3,4.17-32.55,6.1-48.85,1.87-15.83,4.47-31.5,10-46.52,4.92-13.44,10.1-26.78,15.35-40.09,6.8-17.25,18.22-33.65,27.14-49.94,3.24-5.93,7.3-19.32,16.25-17.47,1.08,16-12.4,31.48-20.1,44.52-9.14,15.45-18.13,31.18-23.54,48.39-4.38,13.9-9.08,27.77-12.26,42-3,13.67-4.48,27.71-6.32,41.64-1.3,9.81-2.45,19.66-3,29.54q-1.15,20.22-1.25,40.49c-.06,10.88-1.65,21.64-.79,32.66,1.59,20.26,1.49,40.64,2.51,60.95a37.89,37.89,0,0,0,6.33,20.3c0-5.09.09-8.4,0-11.7-.18-4.94-.86-9.88-.7-14.81.39-12,.7-24,1.85-35.91,1.46-15,3.52-30,5.71-44.91,1.7-11.56,4-23,6-34.52,1.4-7.68,2.47-15.45,4.51-23,7.7-28.38,18.31-55.74,29.85-82.74,2-4.79,3.81-9.78,6.5-14.19,13-21.32,26-42.66,39.67-63.6,5.92-9.1,13.55-17.07,19.93-25.9,5.37-7.43,9.23-15.7,16.65-21.42,1.13-.86,2.47-1.71,3.86-1.46,4,.71,1.28,7.19.27,9-8.74,15.48-20.34,28.9-30.94,43.05-5.15,6.87-10.49,13.62-15.27,20.75a222.22,222.22,0,0,0-11.52,19.53c-7.32,13.81-15.76,27.24-21.19,41.77-9.11,24.43-14.82,49.84-13.62,76.29,0,.77-.13,1.55-.16,2.33-.32,8.28-.77,16.55-.88,24.83q-.19,14,.15,27.93c.09,3.73,0,17.4,2,19.08.73.61,1.75-.36,3.16-4,7.8-20,13.45-40.72,22.5-60.22,9.24-19.92,21-38.82,31.79-58Q1441.91,673,1474.69,611c3.32-6.28,7.15-12.33,10.66-18.52a14.25,14.25,0,0,0,.57-1.46c6.4-14.52,12.55-29.17,19.29-43.54,4.92-10.47,7.36-21.73,10.24-32.86,1.51-5.83.6-12.25,2.62-18,1.44-4.1,8.33-10.24,8.78-1.67.49,9.36,1.11,18.7-3,27.61a63.19,63.19,0,0,0-3.61,10.3c-4.44,16.66-9.85,32.89-18.65,47.88-4.61,7.85-8.55,16.09-12.81,24.15-2.31,4.37-4.58,8.76-7,13.07-2,3.61-4.28,7.12-6.43,10.67,9.73-10.1,18.53-20.63,24-33.57,2.42-5.75,5.65-11.15,8.62-16.65,1.16-2.14,2.83-4.11,5.58-2.85,3.16,1.45,1.67,3.92.74,6-3.6,8.11-7.4,16.13-10.86,24.29a128.09,128.09,0,0,1-14.73,25.67c-6.12,8.38-11.44,17.37-16.81,26.27-3,4.89-4.94,10.38-8,15.19-6.83,10.78-13.07,21.76-17.73,33.73-4.43,11.36-9.85,22.34-15,33.43-3.14,6.82-6.81,13.4-9.79,20.29q-7.72,17.91-14.85,36.09c-3.4,8.71-6.67,17.51-9.32,26.47-2.5,8.46-4.16,17.18-6.1,25.8-3.2,14.22-6.58,28.4-9.41,42.7-1.75,8.84-1.65,17.85-.52,28.42C1382.44,917.75,1383.13,917,1383.33,916.1ZM1277,494.78c11.23-21.14,27.46-40.28,43.28-58.14,17.34-19.58,36.25-38.34,56.87-54.45,3.18-2.48,7.2-5.38,11.39-6.61,4.46-1.31,13.39-.65,6.55,5.19-5.54,4.75-11.36,9.17-17.07,13.72a439.42,439.42,0,0,0-59.16,56.81c-16.29,18.87-29.27,39.88-41.61,61.36-2.17,3.79-3.73,9.78-8.9,10C1266.76,512.91,1272.59,503.06,1277,494.78Zm-4.92,68.1a8.22,8.22,0,0,1-2.64,2.77c-2.72,1.84-5.52.6-5.33-2.69a25,25,0,0,1,2.41-8.92c4.63-9.86,9.5-19.62,14.38-29.36,10.06-20.07,22.3-38.8,34.87-57.36,9.38-13.85,19.31-27.13,31.3-38.86,12.85-12.57,26.22-24.46,40.91-34.88,7.71-5.47,13.09-14.42,21.94-18.38a16.89,16.89,0,0,1,6-1.61c2,0,3.64.75,3.75,3.33.16,3.79-7.26,8-9.81,10C1396,397.83,1381.35,408,1368.29,420a306.77,306.77,0,0,0-36.79,41C1307.68,492.6,1290.47,528.06,1272.07,562.88Zm166.06-155.95a224.19,224.19,0,0,1-18,13.61A159.7,159.7,0,0,0,1386,451.11c-7,8.43-14.37,16.44-21.42,24.79-25.7,30.43-42.12,69.75-57.64,106.06-1.6,3.73-4.69,6.85-7.34,10.06-.89,1.09-2.5,1.58-4.25,2.62-1-1.48-2.44-2.61-2.52-3.82a10.82,10.82,0,0,1,1.27-5.19c11.31-22.88,22.54-45.81,34.14-68.55A326.17,326.17,0,0,1,1367,457.56c4-4.8,8.6-9.05,12.89-13.59,5-5.27,9.53-11.06,15-15.74,7.49-6.4,15.68-12,23.59-17.87,3.54-2.64,7.15-5.18,10.69-7.82,1.25-.93,2.22-2.42,3.59-3,2.67-1,4.9-4.84,8.34-2C1443.29,399.42,1442.3,403.43,1438.13,406.93Z"></path><path class="cls-1" d="M1471.57,1303.64c-1.57,4.13-2.93,8.36-4.8,12.35-3,6.31-6.12,12.56-9.55,18.63-1.51,2.67-4.33,4-7.42,2.48s-3.45-4.28-2.79-7.33l3.56-16.39c-4-2.27-7.25-1.19-9.58,1.43-4.27,4.81-8.61,9.74-11.9,15.23a60,60,0,0,1-14.74,17c-2.88,2.22-6.32,2.59-8.43-.12-1.44-1.85-1.7-5.3-1.2-7.77s2.52-4.5,4.08-6.59c2.62-3.53,5.42-6.93,8.12-10.4,5.49-7.07,7.44-14.79,4.35-23.47-.87-2.45-1.42-5-2.35-7.45-2-5.12-4.79-6.44-9.78-4.06-10.3,4.92-19.87,12.88-24.38,23.6-2.87,6.81-.91,33.27-14.7,22.43-3.51-2.76-7.15-4.18-11.55-3.4-2.81.49-5.6,1.09-8.39,1.71-10.76,2.38-20.34,6.84-26.27,16.63-1.9,3.13-4.16,7.55-3.27,10.47,1.26,4.13,6,6.43,10.71,6.63a41.18,41.18,0,0,0,9.3-.93c3.58-.68,7.07-1.82,10.62-2.65a20.61,20.61,0,0,1,5.36-.78c2.93.12,4.32,1.88,3.37,4.75-1.28,3.85-3.52,6.83-7.58,8.39a78.91,78.91,0,0,0-11.3,5.26c-12.28,7.11-18.43,18.85-22.86,31.61-2.44,7,1.47,14,8.23,15.12,10.88,1.85,29.83-3.62,35.1-16.68a69.77,69.77,0,0,1,5.4-10.4c1.54-2.51,3.63-4.51,7.13-2.78s6.47,8.07,4.71,11.29a179.19,179.19,0,0,1-10.14,16.47c-6.48,9.3-11.56,19.17-12.35,30.62-.17,2.46,1.41,6.81,3.06,7.28,4.83,1.4,10.56,3.4,15.07,0,5.29-4,10.47-8.64,14.35-14,6.07-8.34,6.8-19,10-28.52.74-2.22,1.11-4.65,2.28-6.6,2.3-3.86,5.8-4.21,9.23-1.3s3.85,6.49,3.16,10.65c-1.19,7.2-2.25,14.42-3.07,21.66a13.19,13.19,0,0,0,.87,6.81c2.41,5.09,6.76,5.48,10.24,1,5.36-6.94,8.94-14.55,8.67-23.68-.1-3.25-.06-16.44,6.52-13.91,1.88.72,2.82,2.76,4.22,4.21,7.34,7.6,16.12-12.29,16.55-17.17.23-2.55,1.4-5,2.06-7.53,1.11-4.3,2.15-8.62,3.66-14.68-8,5.09-14,3.78-19.46-.85a14.71,14.71,0,0,0-2-1.2c-4.59-2.69-5.1-5.75-.72-8.65,3.84-2.54,8.41-4,12.6-6,4.43-2.16,8.79-2.55,13.07.43,5.68-19.12,13.78-69.59,11.75-76.91C1475.85,1292.3,1473.72,1298,1471.57,1303.64Zm-53.8,73.9a25.45,25.45,0,0,1-15.51,7.44c-3.74-.79-8,0-9.44-4.47-1.29-3.93-.75-7.54,2.6-10.61s6.21-7,9.82-9.87a11.69,11.69,0,0,1,7.68-2.37c3.2.31,4.16,3.26,4.06,6.51a5.93,5.93,0,0,0,1.48,4.1C1422.27,1371.79,1420.58,1374.84,1417.77,1377.54ZM1442,1398c3.13,0,8.37,5.87,8.29,9.27-.07,2.9-3.77,6.4-6.85,6.49-3.7.11-7-4-7-8.75C1436.36,1400.83,1438.62,1398,1442,1398Zm24-55.1a30.16,30.16,0,0,1-13,15.07c-3.11,1.74-6.29,3.36-8.27,4.41-4.91-.26-6.12-2.45-3.89-5.43,2.62-3.5,5.88-6.52,8.93-9.69,2.87-3,6.06-5.67,8.66-8.87,1.8-2.23,3.73-4.58,6.17-2.35C1466.05,1337.37,1466.8,1341.07,1466,1342.91Z"></path><path class="cls-2" d="M2079,406.26a4.05,4.05,0,0,0-.79,1.34c-3.52,12.8-10.6,23.14-21.85,30.22-12.76,8-26,15.32-36.61,26.29a5.49,5.49,0,0,1-3.43,1.66c-5.87.12-10.18,2.74-13.56,7.41a5.13,5.13,0,0,1-3.42,1.64,40.36,40.36,0,0,0-20.58,7.5,131.84,131.84,0,0,0-15.68,12.6c-2.8,2.74-6.74,5.29-10.49,5.86-6.47,1-12.29,4.84-19.18,4-1.29-.15-3.13,1.76-4.25,3.1-4.42,5.3-9.11,7.38-16.45,5.26-5.82-1.68-12.49-2.82-17.36,4.43-3.55,5.28-7.61,4-10.55-2.12-.16-.34-.82-.46-.71-.4-3.64,1-7.22,3.08-9.94,2.28s-4.75-4.49-6.78-6.61a71,71,0,0,1-6.49,5.27c-2.33,1.51-4.86,3.42-7.7.56-2.64-2.66-2.62-5.48-.85-8.53l4.27-7.31a6.8,6.8,0,0,0-5,1.87c-3.68,3.65-7.2,7.48-10.88,11.14-2.82,2.8-6.06,5.71-10.18,4.71-1.94-.48-3.25-3.52-5-5.55-4.63,4.29-9.57,8.51-14.1,13.13-5.86,6-8,5.93-14.36.81-3.44-2.77-2.53-5.81-2-9.2-3.28-1.65-6.41-3-9.27-4.71-3.86-2.36-6.68-1.49-9.55,1.75a106.55,106.55,0,0,1-11,11.05c-6.62,5.54-7.92,5.28-14.11-1-4.9-4.93-9.15-5.22-15-1-4.22,3-8.47,6-12.64,9.14-2.67,2-5.35,2.42-7.69-.17-2.6-2.89-.71-5.34,1.39-7.47a47.79,47.79,0,0,1,4.33-3.49c-3.81-1.87-6.37-5-10.93-3-3.37,1.45-4.55-1.09-4.48-4.26.07-3,0-6,0-10.47-3.35,2.3-5.62,3.81-7.84,5.39-4.87,3.48-9.56,7.23-14.63,10.4-3.4,2.13-8.17,1-9.75-1.59s.13-5.12,4.79-7.5c2.38-1.22,4.71-2.55,7.06-3.83-.19-.54-.38-1.07-.56-1.61-1.66.08-3.47-.24-4.93.33-3.75,1.46-7.34,2.24-11.4,1-1.87-.56-4.11.24-6.18.26-10.78.12-21.33-.8-30.61-7.11-13.27-9-17.39-23.09-19.26-37.68-1.39-10.82.15-21.61,3.54-32.34,5.44-17.19,11.86-33.18,29-42,.23-.12.57-.24.63-.43.48-1.5,1.69-3.51,1.13-4.41-.71-1.15-3.16-2.28-4.33-1.88a22.16,22.16,0,0,0-6.57,4.11c-11.51,9.39-19.3,21.48-26,34.65-8.15,16.13-11,32.28-3.65,49.39.5,1.19,1.17,2.64.89,3.74-.42,1.63-1.29,3.78-2.58,4.36-1.14.51-3.46-.42-4.62-1.44-1.51-1.33-2.3-3.44-3.56-5.09-1-1.37-2.1-3.12-3.55-3.73-3.29-1.37-5.44-3-6.65-6.77-1.11-3.48-4.66-3.1-8-2-9.73,3.11-17-2.83-16.14-13.13a51.5,51.5,0,0,1,2.53-13c4.48-12.22,9-24.47,14.36-36.31,4.72-10.41,10.43-20.3,19.2-28.22,4.41-4,7.62-9.3,11.53-14.22-1.44-.59-1.92-1-2.37-.92a7.94,7.94,0,0,0-2.19.64c-7.89,3.28-13.89,8.89-19.48,15.21-10.78,12.16-17.18,26.69-22.79,41.59-1.64,4.35-3.76,7.28-8.27,8.13-.48,18.3-.86,35.51-1.44,52.72-.26,7.54-.53,15.13-1.54,22.59-2,15-4,30-7,44.79-3,15.28-6.6,30.49-10.79,45.5-3.42,12.25-8.08,24.15-12.22,36.19-2.81,8.14-5.91,16.11-12.09,22.49a45.89,45.89,0,0,0-4.61,6.3c-5.54,8.17-11,16.38-16.55,24.56-5.08,7.54-10.59,14.83-15.19,22.66-5.92,10.07-11.46,20.4-16.55,30.91-4.55,9.42-8.25,19.24-12.75,29.9,12.38-5.27,16.86-15.71,23-24.58a4.13,4.13,0,0,0,.38-3.67c-3.07-4.94-.27-8.45,2.6-11.93a209.42,209.42,0,0,0,22.48-32.87c1.16-2.13,3.61-3.6,5.61-5.19,2.36-1.89,5.47-3.13,7.22-5.44,6.82-9,12.71-18.79,19.84-27.51,1.24-1.51,2.71-3.07,4.65-3.33,10.89-1.44-7.28,24.66-9,27.12A166.68,166.68,0,0,1,1500.78,693c-.7.68-.53,2.26-.76,3.42,1.4,0,3.19.44,4.13-.25,1.64-1.19,2.75-3.1,4.09-4.7,5.21-6.18,10.32-12.44,15.69-18.49,1.47-1.65,3.65-3.63,5.56-3.69s4.1,2,6,3.05c1.81-1.56,3.38-3.5,5.41-4.48,1.33-.65,3.88-.54,4.85.36s1,3.59.28,4.73c-3.93,6.1-8.23,12-12.44,17.89-2.86,4-5.78,8-8.67,12l1.43,1c1.77-2.42,3.26-5.13,5.37-7.21a79.4,79.4,0,0,1,10-8.25,4.45,4.45,0,0,1,4.23.29,4.61,4.61,0,0,1,.78,4.17,30.06,30.06,0,0,1-4.28,7.35c-5.18,6.47-10.59,12.76-16,19.21,5,2.75,5,2.75,4.27,8.45.12-.93,4.45,5.64,4.67,6.39,1.24,4.22.63,9.09.45,13.41-.14,3.44-3,40.71-5.58,41,11.47-1.41,17.94-13.5,22.71-24,12.85-28.38,27.18-56.34,46.31-80.93S1642.72,638,1671.47,626c22.47-9.37,48.34-14.33,72.27-18.16,12.57-2,25.26-3.35,37.82-5.42s24.93-4.2,37.64-4.09a14.06,14.06,0,0,0,3.12-.14c4.8-1.13,5.83-4.7,2.33-8.29-3.83-3.92-7.72-7.78-11.73-11.49-6.09-5.65-12.4-11.06-18.43-16.76a23.64,23.64,0,0,1-5.14-6.7c-2.08-4.36-.14-7,4.76-7a13.63,13.63,0,0,1,4.65.57c9.31,3.33,18.74,6.39,27.79,10.32,37.64,16.35,71.41,17.47,110.79,6.15,28.74-8.25,57.45-22.09,80.63-42.08,26.48-22.83,38.3-49.92,52.77-80.58,5.3-11.22,6-23.53,9.72-35.07.08-.26-.49-.74-.76-1.11C2079.45,406.15,2079.09,406.11,2079,406.26Z"></path><path class="cls-1" d="M1427.19,1269.78c13.56-2.76,23.12-13.79,29-25.61,5.34-10.76-6.59-27.79-18.62-28a11.84,11.84,0,0,0-2.14.14c-3.67.57-6.82,2.85-9.74,5.14-9.66,7.58-19.18,17.17-20.55,29.38a18.66,18.66,0,0,0,2.08,11.53C1411.07,1268.89,1419.76,1271.3,1427.19,1269.78Z"></path><path class="cls-2" d="M1488.92,805.3c-19.51-1.43-32.28-11.81-44.86-25.77-1.92-2.13-4.24-5.44-6.8-3.08-2,1.88-2.34,5.94-2.79,9.11-.17,1.17,1.27,2.75,2.28,3.85,2.47,2.68,5,5.3,7.7,7.74,10.64,9.59,22.86,14.27,36.92,16.4,13.5,2,27.67,2.29,40.88,5.63,6.58,1.67,9-2,10.89-6.7,1.64-4,2.83-8.2,4.65-13.6-4.08.52-6.73.48-9.13,1.23C1516.14,804,1502,806.25,1488.92,805.3Z"></path><path class="cls-1" d="M1326.39,1256.55c4.31,4.24,8.73,4.19,13,0,8.08-7.83,10.6-23.94,5.66-34.13-2.41-5-5-9.51-9.7-12.88-3.59-2.54-4.25-8.59-2.28-11.28,2.38-3.25,7.67-3.68,12-.68a20.1,20.1,0,0,1,4.24,4.48c4.13,5.38,8.12,10.88,12.24,16.27,2.14,2.8,4.65,5,8.63,3.89s6-3.54,6.91-7.59a19.92,19.92,0,0,0-12.28-23.18c-7.51-2.86-14.58-6.72-22.9-6.79-1,0-1.92-.77-2.85-1.25-3.28-1.67-5.31-4.38-5.3-8,0-2.85,5.14-6.55,8.89-6.32a36.66,36.66,0,0,1,9.92,1.88c4.84,1.71,9.22,1,13.59-1.17a64.26,64.26,0,0,0,7.62-3.9c1.75-1.17,4.41-3.2,4.24-4.52-.24-1.79-2.52-4-4.43-4.76-11-4.18-21.93-5.91-32.79,1-3.21,2-7.26,2.79-11,4-3.19,1-6.21-.22-7.19-3-.7-2,.38-4.88,1.32-7.09a5.73,5.73,0,0,1,3.63-2.73c9.68-2.22,16.12-9.25,23-15.49a78.65,78.65,0,0,0,10.78-12.27c1.75-2.43,2.52-5.73,3.13-8.75s-1.15-5.31-4.23-5.34-6.47.12-9.12,1.42c-6.7,3.28-13.64,5.87-20,10.08a86.2,86.2,0,0,0-21.84,19.79c-.77,1-1.83,2.27-2.92,2.47-2.16.39-5.47,1-6.43-.09-1.33-1.53-1.62-4.73-1.1-6.9.65-2.69,2.81-5,3.94-7.6,3.3-7.64,6.73-15.24,9.48-23.08,2-5.79-2.35-12.3-9.12-10.75a15.75,15.75,0,0,0-6.43,3.76,64.35,64.35,0,0,0-20.46,30.56,5,5,0,0,0,1.25,4.06c3.15,3.28,2.79,6.72.5,9.93-5.08,7.14-19.78,1.62-28.89.45a20.07,20.07,0,0,0-3.26-.19c-11.84.43-24.24,5.84-28.53,17.67-1.48,4.07-.23,7.12,2.33,10,8.83,9.75,30.06.81,40.43-.61,3.28-.45,6.13,1.17,6.56,4.22a10.66,10.66,0,0,1-2.12,7.58c-1.72,2-4.82,2.93-7.42,4.09-3.8,1.7-7.87,2.88-11.53,4.84-10.56,5.64-19.33,13.13-23.74,24.73-2,5.13,1.59,9.66,6.93,8.6a25.64,25.64,0,0,0,6.44-2.77c4.15-2.17,8.14-4.67,12.37-6.67,6.95-3.29,13-7.47,17.76-13.7,2.08-2.73,5.43-4.62,8.47-6.46,3.76-2.28,6.7.08,8.62,2.93,1.83,2.69.51,5.46-1.63,7.76-3.35,3.61-7.52,6.83-9.73,11.06-3.31,6.33-5.52,13.29-7.58,20.17a6.06,6.06,0,0,0,3.9,7.68c4.16,1.46,7.82,5.6,13,2.23,7.79-5,11.36-12.59,13.49-21.13.69-2.76.75-5.78,1.9-8.32,2.47-5.43,9-6.21,12.8-1.56a11.36,11.36,0,0,1,2.66,6.32c.18,12.32,7.23,22.09,11.77,32.78A14.38,14.38,0,0,0,1326.39,1256.55Zm-31.76-66.1c-6.35,2.65-13.79-2.27-13.46-9.21.43-9.3,5.47-16.09,13.09-20.82,4.59-2.85,11.32.76,12.75,6.38a14.89,14.89,0,0,1,.29,3.48C1307.35,1177.9,1300.67,1187.93,1294.63,1190.45Z"></path><path class="cls-1" d="M1492.13,963.11c-3.34,0-3.13,2.86-3.24,5.18-.14,3.1.67,6.58-.47,9.23-3.4,7.85-8.21,15.08-4.15,24.36,1.32,3-1.81,5.66-4.44,6.39-1.46.41-4.59-1.4-5.37-3-2.5-5.11-7.34-7.24-11.56-10-7.15-4.74-15-4.12-22.47-1-3.27,1.39-7.18,3.7-6.82,8.56.47,6.21,9.87,15.72,16.27,15.8,5.59.06,10,2.67,14.42,5.31a5.4,5.4,0,0,1,.21,9.2c-3.18,2.12-6.36,3.72-10.87,2.15-5.82-2-12.43-4.41-18.17-3.45-8.47,1.42-17.23,3.71-24,10.3-2.73,2.65-6.32,5.22-4.58,8.86,1.94,4.09,6.32,2.2,9.79,1.2,7.26-2.1,14.48-4.36,21.77-6.39,2.78-.77,6-1.39,7.71,1.74,1.79,3.37.81,6.69-2.28,9a62.71,62.71,0,0,1-7.85,5c-12.63,6.83-21.23,17.94-30.36,28.47-2.06,2.37-2.8,5.57-.29,7.66,1.22,1,4.45.6,6.28-.25,9.48-4.4,18.3-9.78,25.5-17.63a28.43,28.43,0,0,1,8.85-6.21c3.32-1.53,8,1,7.83,4.1a12.11,12.11,0,0,1-3,6.84c-4.28,4.86-9.24,9.13-13.44,14a28.31,28.31,0,0,0-5.12,9.4c-1.23,3.77-2.33,7.22-6,9.49-4.5,2.83-6,7.74-7.66,12.4a4.76,4.76,0,0,0,.76,4.21c.74.66,3,.37,4.12-.29a42.38,42.38,0,0,0,6.9-5.12c6.37-5.7,12.35-11.6,14.79-20.34a14.18,14.18,0,0,1,5.47-7.15c1.8-1.24,5.44-1.67,7.16-.63s2.79,4.62,2.29,6.62c-1.12,4.44-2.68,9.13-5.38,12.72-3.79,5-5.33,10.63-6.52,16.46a6.37,6.37,0,0,0,1.53,4.78c.56.62,3.1.29,4.09-.47,3.68-2.8,7.54-5.59,10.44-9.11,2-2.49,2.5-6.22,3.9-9.29,1.74-3.81,5.79-4.42,7.93-.91,2.54,4.18.41,7.55.38,11.84a6.12,6.12,0,0,0,.49,2.7c3,6.4,8.25-4.19,8-7.31-2-22.16,1.92-45.08,3.13-67.3,1.11-20.46,2.34-40.89,5.05-61.21,1.4-10.53,2-21.17,3.08-31.75C1496.58,965.07,1495.3,963.11,1492.13,963.11Zm-5.34,96.2c-1.12,6-2.9,12-7.62,16.36-3.63,3.34-9,3.65-12.29,1.42-3.46-2.35-5.75-7.39-4.06-11.58a207.22,207.22,0,0,1,9.4-19.46c1.54-2.91,4.28-4.77,7.78-3.75a8.86,8.86,0,0,1,6.72,7.8A80.79,80.79,0,0,1,1486.79,1059.31Z"></path><path class="cls-3" d="M2091.56,388.83c-3.06-2.7-6.42-3.16-10-.89-8.8,5.52-17.63,11-26.43,16.5-16.47,10.34-31.17,23.24-48.44,32.54-11.35,6.11-23.64,9.06-35.47,13.52a71.6,71.6,0,0,1-14.3,3.4c-23.45,3.63-48.1,9.6-71.9,7a198.06,198.06,0,0,1-19.76-3.56c-21.84-4.68-43.73-9.36-65-16.05a276,276,0,0,1-30.89-11.5c-9-4.05-17.07-9.84-26-13.93-7.11-3.24-9.86-7-11.16-14.83a89.66,89.66,0,0,0-7.78-25.28c-5.17-10.5-9.93-21.19-15.08-31.7q-5.67-11.56-11.9-22.85c-2.89-5.24-6.66-10-9.24-15.4a77.74,77.74,0,0,0-18.45-25c-1.47-1.31-2.87-2.7-5.11-4.8,2.22,0,3.39-.34,4.22.05,8.71,4.07,17.86,7.5,25.92,12.63,8.29,5.28,15.59,12.15,23.16,18.51,9.19,7.72,18.49,15.41,21.6,27.88a24.94,24.94,0,0,0,1.36,2.81c7.61,19.48,14.08,39.16,11.59,60.59-.41,3.54,1.79,11.79,6.92,9.71,2.25-.91,3.55-3.26,4.5-5.5,5.85-13.84,5.27-29.65,3.2-44.24-2-13.92-5.4-27.65-6.38-41.68,7.14,9.58,11.2,20.45,14.47,31.84.49,1.71,4.08,10.45,5.84,4.91,1.31-4.14,1.09-8.38.83-12.66-.46-7.51-2.1-14.95-2.73-22.46-1.17-14.12-4.91-27.35-12.28-39.46-10-16.39-17-31.45-32.55-43.63a103.72,103.72,0,0,0-45.68-20.5c-14.21-2.52-27-1.23-39.91,5.51-3,1.59-33.13,22.09-33.2,22-6.2-8.89-2.84-31-2.42-41.67a67.62,67.62,0,0,0-.47-12.49,16.39,16.39,0,0,0-3.2-6.95c-1.44-1.94-3.64-2.21-5,.46-1.49,3-2.94,6.12-4.12,9.29q-11.45,30.73-22.74,61.52c-.45,1.22-.71,2.5-1,3.76-1.86,7.29-3.65,14.6-5.62,21.87-.9,3.29-4.41,5.45-7.1,4.37-2.9-1.16-2-3.57-1.75-6,1.34-12.69,2.47-25.39,3.65-38.1.58-6.22,1.35-12.44,1.58-18.68a134.67,134.67,0,0,0-.36-18.74c-.31-3-.73-7.48-5.59-7-7,0-10.9,23.67-12.76,29.13q-7.08,20.7-13.54,41.6c-5.21,16.87-8.12,33.54-25.19,42.55-2.13,1.13-5.07,2.06-7.24,1.52-10.11-2.54-20.34-.8-30.59-1s-20.12-.45-30.34.94a227.86,227.86,0,0,0-37.86,8.91c-74.58,23.54-147.16,61.2-198.26,121.79-5.2,6.18-10.17,12.56-14.78,19.2-17.16,24.7-32.67,54.1-42.1,82.72-3.09,9.37-7,18.73-8.27,28.39-1.78,13.39-1.28,27.07-2.12,40.6a62.42,62.42,0,0,1-2.64,16c-4.66,13.82-10.45,27.26-14.94,41.13-8.13,25.06-15.1,50.48-18.29,76.71-1.15,9.48-1.82,19-2.19,28.55-.15,3.92-3.14,14.19-.51,17.41,3.17,3.88,5.53-1.21,6.72-4.4,3.09-8.23,1.87-17.69,3-26.31,1.32-9.89,3.1-19.72,5.09-29.5,3.87-19,9-38.34,14.39-56.62,2.17-7.27,5-14.39,9.75-20.7,0,7.66-1,15.15-1.21,22.65-.43,19.8-.76,39.61-.6,59.41.16,19.52,1,39,1.47,58.56,0,1.82-.29,3.64-.32,5.46-.18,12.24-.24,24.49-.56,36.73-.1,3.79,0,8-1.52,11.28-5,10.89-10.56,21.51-16.1,32.13-4.1,7.85-8.54,15.52-12.77,23.3-1.46,2.71-2.19,5.84,1,7.59,2.88,1.61,4.81-1,6.24-3.13,1.73-2.6,3.13-5.41,4.69-8.11,10.27-17.72,22-34.63,30-53.63,1.69-4,2.82-8.29,4.71-12.21,5.79-12.06,9.23-24.86,11.94-37.84,2.53-12.14,4.27-24.46,6.43-36.68.81-4.6,2.31-9.12,2.65-13.74a535.58,535.58,0,0,1,8.26-62.58,15,15,0,0,1,1.66-3.43l1.58.36c-.66,22.37-.93,44.77-2.11,67.12-.88,16.6-2.85,33.15-4.53,49.7-.72,7-2.06,13.9-2.94,20.87-1.82,14.48-3.31,29-5.36,43.43q-2.31,16.2-5.75,32.22a85.51,85.51,0,0,1-5.59,17,229.32,229.32,0,0,1-23.22,40.67c-1.93,2.69-4.47,5.38-1.72,9.33,14.83-3,22.9-18.3,28.68-30.67,12.64-27.06,27.71-53,38.46-80.74,2.72-7,5.88-13.89,8.43-21,2.64-7.32,4.81-14.8,7.08-22.24,2.12-7,4.63-13.85,6.06-21,2.27-11.31,3.78-22.78,5.61-34.18,1.84,10.52,3.38,21,3.55,31.59.21,13-.31,26-1.27,38.88-1.79,24.18-6.45,48-11.39,71.66-2.81,13.49-6.44,26.81-9.35,40.29-3.23,16.14-6.29,32.67-8,49.05,16.64-7.21,25.18-32.52,31.89-47.8,3.56-8.11,7.33-16.14,10.65-24.34,3.88-9.61,7.39-19.37,11-29.07a40.06,40.06,0,0,0,1.69-5.21c1.3-5.81,2.47-11.64,3.7-17.47a75.61,75.61,0,0,1-.23,14.91c-1.32,16.63-2.25,33.3-4.07,49.88-1.24,11.32-.62,22.89-4.79,33.93-1.84,4.87-1.74,10.47-2.6,16.29,6.33-3.95,9.22-6.89,11.83-13.79,4.87-12.9,9.55-25.88,13.91-39,4.5-13.52,8.51-27.21,12.74-40.83,1.87,12.88,2.52,25.62,3.62,38.33,1,11.14,1.43,22.49,4,33.28,2,8.17,6.75,15.71,10.63,23.34a38.87,38.87,0,0,0,6.42,8.8,20.5,20.5,0,0,0,6.44,4.16,3.83,3.83,0,0,0,3.5-.8c.56-.62.29-2.41-.16-3.43-.94-2.1-2.89-3.92-3.29-6.07-2.67-14.33-5.2-28.69-4.51-43.38.55-11.88.87-23.77,1.63-35.63.54-8.47,1.36-16.94,2.54-25.33,1.35-9.53,3.21-19,4.91-28.47,2.61-14.58,5.23-29.16,8-43.72.3-1.58,1.4-3,2.13-4.52.63,2.93.29,5.5.4,8.05.36,8.28.93,16.55,1.31,24.83.3,6.77-.08,13.62.76,20.32,2.17,17.29,4.61,34.55,7.45,51.73a125.71,125.71,0,0,0,5.56,20.22c1,3,2.57,7.39,6.76,6.28,5-1.32,3.08-5.84,2.39-9.26-2.28-11.19-5.12-22.2-2.07-33.87,2-7.69.93-16.57,4.25-23.45,5-10.28,6.87-21.27,10.55-31.79,1.88-5.38,2.86-11.14,5.22-16.29,3.9-8.49,8.59-16.61,12.94-24.9,5.83-11.08,11.59-22.21,17.45-33.28,4.69-8.85,8.2-18.39,16.23-24.9,1,13.22-7.65,25.71-13.8,36.71-6.68,12-11.55,24.79-16.1,37.72a392.42,392.42,0,0,0-19.93,90.83,124.13,124.13,0,0,0,.1,28.77c1.19,8.79.75,16.47-3,24.74-25,55.78-65.47,101.68-118.84,131.36-60.09,33.4-130.23,50.6-199,47.23-72.23-3.53-139.43-39.14-213.18-35.57-9.93.48-20.15.53-29.67,4.41-.21.08-.52-.13-.77-.11-23.29,2.19-45.33,9.31-67.06,17.4-5.76,2.15-11.11,5.65-16.29,9.08-8.44,5.59-16.6,11.62-24.85,17.51-8,5.72-15.9,11.63-24.07,17.13-1.23.83-4,.47-5.48-.39-5.73-3.42-11.24-7.2-16.77-10.94-28-18.93-54.3-36.13-88.75-39.82-31.56-3.38-64,2.46-93.34,14.32-88.67,35.86-159.94,129.19-162,226.52-.28,13.11.58,26.25,1.26,39.37,3.54,67.61,15.05,132,30.73,197.8a21.46,21.46,0,0,1-.17,8.44c-1.83,10.24-3.79,20.46-6,30.63-.56,2.63-.72,5.26,2,5.69,1.45.24,4.23-2,4.9-3.71,2.48-6.28,5-12.68,6.26-19.26,2.54-13,3.84-26.18,6.52-39.11a160.41,160.41,0,0,0,3.65-34c0-1,.45-2,.54-3.07.67-8,1.63-16.05,1.82-24.09.14-5.7-.8-11.41-1.36-18.43a20.6,20.6,0,0,1,1.78,3.12c3.45,13,2.9,26.35,3.63,39.57.39,7.22-.58,14.5-.85,21.77-.54,15.1.17,30.27-3,45.21-1.83,8.64-3.32,17.36-4.73,26.08-3.11,19.2-5.42,38.55-9.26,57.59-4.79,23.75-9.94,47.44-18,70.42-5.66,16-11.3,31.93-20.64,46.28a46.18,46.18,0,0,0-4.49,8.87c-.54,1.41.12,3.27.24,4.92,1.59-.53,3.34-.79,4.71-1.65s2-2.43,3.23-3.38c12.7-10,23.36-21.45,29-37,1.31-3.6,3.49-6.88,5-10.42,4.35-10,8.65-20.09,12.81-30.21,1.08-2.64,1.2-5.69,2.4-8.25,7-15,8.25-31.65,13.74-47.13,3.53-10,4.93-20.74,7.24-31.17,1.17-5.3,2.23-10.64,3.33-16,2.44-11.71,5.25-23.36,7.18-35.15,1.67-10.27,2.2-20.72,3.48-31.06,1.78-14.35,3.8-28.67,5.71-43a91.82,91.82,0,0,1,2.75,17.64c.59,13,1.28,26.06,1,39.07-.28,14-1.63,28.06-2.43,42.1,0,35.4-6.67,71.36-12.32,106.19-1.68,10.3-3.1,20.74-5.29,30.94-.86,4-10.4,30.12.8,19.1,7.51-7.4,10.26-19.26,14.81-28.16a248.48,248.48,0,0,0,15.73-37.87c5.76-18.36,12.13-36.56,17-55.15,4.31-16.34,7.11-33.09,10.3-49.7,1-5.35,1.07-10.88,1.76-16.3,1.36-10.66,2.87-21.3,4.28-32,1.1-8.26,2.15-16.53,3.22-24.79a365.8,365.8,0,0,1,2.36,42.73c-.09,29.16-.56,58.32-1,87.47-.08,4.66-.94,9.3-1.44,13.95-5.26,49.16-13,95.67-30.55,141.86-1.15,3.06-2.49,6.26.15,9.57,4.95-1.34,6.62-5.32,8.38-9,8.51-17.56,17.46-34.8,26.16-52.3,8.41-16.92,14.05-35.25,19.66-53.27,2.63-8.41,3.75-17.28,5.9-25.86,3.52-14,7.33-28,11-41.93-1.12,13.41-2.54,26.85-4.43,40.23-1.37,9.79-3.25,19.52-5.1,29.24-1.8,9.45-3.78,18.87-5.82,28.28-2.37,10.94-4.86,21.86-7.34,32.77-2.58,11.31-6.34,22-15,30.35-1.08,1-2.28,2.48-2.44,3.86a90.71,90.71,0,0,0-.11,10c3.56-2.07,7.14-4,10.5-6.17,1.69-1.13,2.85-3,4.46-4.32a47.28,47.28,0,0,1,5.12-3.33c5.06-3.14,11-5.42,15-9.54A289.37,289.37,0,0,0,516,1761.47c7.73-10.39,14.12-21.79,21-32.82,9.18-14.72,15.35-30.86,20.07-47.37,4.64-16.24,8.9-32.81,10.92-49.52,2.37-19.62,2.11-39.55,3.07-59.34.44-9.08,1.09-18.14,1.65-27.22l1.89,0c.87,11.36,2.16,22.71,2.48,34.08.34,12.52-.83,25.1-.26,37.6,1.38,30.25-3.08,59.87-9.65,89.13-3.73,16.62-7.79,33.45-15.86,48.76-6.73,12.77-8.88,27.68-18.45,39.09-.17.19-.45.41-.45.62,0,1.2-.39,2.85.23,3.51a4.24,4.24,0,0,0,3.53.62,11.33,11.33,0,0,0,4-2.29c9.46-7.83,19.31-15.56,24.74-26.82,6.76-14,13.09-28.35,18.45-43,4.28-11.67,6.12-24.22,10.32-35.92,6.25-17.44,5.83-35.89,9.56-53.69,2.27-10.87,3.46-22,5.06-33,2.19-15.12,5-30.18,6.26-45.38,1.17-14.23.63-28.59.9-42.9,0-2.14.39-4.29.6-6.43l1.62,0c.43,3.55,1.1,7.1,1.25,10.66.23,5.22-.24,10.48.16,15.68,1.65,21.58-3.07,43.08-5.9,64.46-3.31,25-6.12,50-10,75q-2.36,15-5.08,29.86c-.35,1.9-3.92,20.09,2.62,18.21a3.09,3.09,0,0,0,1.29-.9c7.47-7.53,8.62-19.13,10-29.09,5.25-37.54,8.23-75.58,12.77-113.24,1.44-12,2.47-24.11,3.76-36.16.06-.6.85-1.12,2.09-2.65,4.8,9.86,9.57,19,13.79,28.45,31.88,63.76,55.85,133.91,78.87,201.3,33.12,97,40.16,201.18,10.41,300.53-13.78,46-36.74,109.68-76,140.13-2,1.58-3.56,3.84-1.86,6,1.21,1.56,3.7,2.51,5.78,2.87,1.62.28,3.63-.46,5.2-1.27,5.77-3,11.81-5.66,17.05-9.43,28.58-20.6,47.81-53.68,65.84-83.33,2-3.32,4.19-4.81,8.79-5.38-.35,5.2-.68,9.75-1,14.3-.52,8.06-.77,16.14-1.58,24.18-1.26,12.42-.12,15.6,15.17,15.49.76,0,1.52-.42,2.29-.46,3.88-.19,5.3-2.1,5.19-6-.52-19.26,4.75-38.12,3.55-57.54-2.27-36.82.74-75.76,4.67-112.39,2.64-24.65,4.68-49.39,8.3-74,2-13.84,2.36-27.93,3.78-41.87,1-9.52.15-19.31,4.06-28.44a11.07,11.07,0,0,0,.46-3.85c2.69-73.46,14.83-146.53,16.1-220.59q1-58.23-3.46-116.38-2.24-29-5.83-57.93c-.81-6.48-3.11-52.43-8-54.4,4.84,1.94,6.86,7.57,8.26,12.6A481.23,481.23,0,0,1,828.14,1539c.12,16.85.8,36.69,14.74,46.15,4,2.7,9,4.48,11.26,8.71,1.69,3.11,1.47,6.87,1.22,10.41-1.82,25-3.51,49.87-6.51,74.67-1,8.27-1.8,16.56-2.88,24.82-2.33,17.81-5.66,35.5-5.26,53.58a73.94,73.94,0,0,1-.88,10.9c-1.38,10.84-3.23,21.63-4.16,32.5-4.54,53-3.16,108-5,161.35-2,57.91-2.59,116,2.41,173.77.41,4.75,2.84,7.71,7.69,8.33,3.46.43,6.94.7,10.86,1.09,0-3.5.22-5.84,0-8.13-1.13-10.09-2.3-20.17-3.63-30.24-.91-6.85,0-13.43,1.77-20.71,6.25,11.87,11.89,22.92,17.83,33.8,3.74,6.85,6.82,14.55,12.17,19.9,8.1,8.11,14.91,17.52,25.88,23.1s20.34,13.51,33.42,13.34c2.76,0,5.34.28,6.38-3,.94-2.94-1.15-4.36-3.24-5.48-90.08-48.28-70.45-184.62-61.9-266.79C890,1808,912,1715.51,953.57,1631.25c1.38-2.8,2.94-3.89,6.1-3.25,63.37,12.89,127.58,9.56,189-7.62,2-.55,4.52-2.28,5.06-4,8.28-26.48,12.4-53,16.91-80.4.29-1.77,1.22-4,3-3.8,1.46.21,2,2,2.17,3.5,1.4,12.8-1.58,27.07-3.2,39.75a177.88,177.88,0,0,1-3.89,20.72c-9.65,38.34-18.21,76.57-18.43,116.42-.27,50.92,7.39,103.45,12,154.17.26,2.83.59,5.66,1.11,8.45.92,5,2.56,10,2.93,15.06.9,12.43,1.62,24.9,1.76,37.37.89,78.58-1.29,158.22-1.59,236,0,7.29,2.56,9.82,10,9.85,3.36,0,6.74-1.08,10.09-1,8,.23,7-1.5,8.55-8.17.4-1.75.09-3.65.19-5.47.59-10.55,1.19-21.1,1.85-32.64,3.8,7.09,6.88,13.28,10.37,19.23,10.89,18.57,27.2,32.13,43.32,45.71,5.69,4.8,12.55,8.33,19.2,11.83a56.56,56.56,0,0,0,13.2,4.52,82.81,82.81,0,0,0,15.37,2.36c4.44.19,6.34-3.81,3.91-7.56-1-1.45-2.62-2.46-4-3.57-3.64-2.84-7.69-5.26-10.91-8.51-50.64-50.94-62.57-114.13-67.12-182.57-3.38-50.77-1.73-101.8,3.3-152.4,8.58-86.15,22.79-174.78,53.3-255.73,1.07-2.84,3.26-5.34,5.27-7.71.84-1,2.56-1.23,4.72-2.18-.69,9.37-1.12,17.85-2,26.29-4.47,43.89-11.61,87-13.67,131.22-5.3,115.75-5.38,231.72-11,347.46q-.88,18-1.41,35.93a8.43,8.43,0,0,0,1.44,4.3c2.68,4.41,6.72,5.13,13.86,3.22,2.66-.7,4-1.8,4.28-4.62.91-9.26,2.22-18.48,3-27.75.94-11.4,1.37-22.85,2.27-34.26.14-1.78,1.61-3.45,2.47-5.17,1.39,1.27,3.22,2.28,4.1,3.83,4.32,7.67,8.4,15.47,12.54,23.24,4.76,8.93,9.62,17.81,14.21,26.84,5.81,11.43,15.21,19.28,26.27,24.78,7.83,3.89,16.63,5.79,24.91,8.84,2.62,1,4.53.7,6.24-1.39,1.88-2.29.91-4.44-.55-6.41a10.73,10.73,0,0,0-2.81-2.69c-6.12-3.85-10.56-9.31-14.39-15.26-27.91-43.35-47.53-88.34-51.6-140.39-4.34-55.36,5.82-112.39,14.88-166.76,9-54.13,23-107.34,39.54-159.64,9.24-29.23,19.28-58.2,29.56-87.08,8.28-23.22,14.41-54.36,30.88-73.42,9.81-11.36,16.59-24.66,23.1-38,30.17-61.57,42.89-131.5,48.28-199.32q.75-9.37,1.32-18.76c10-164.18,3.25-330.5,72.84-484,17.25-38,39.22-75.35,72.48-100.62,26.62-20.23,58.68-31.27,91-38.37,29.53-6.47,64.32-15.34,94.57-13.63,4.82.27,9.75-1,14.6-1.74,20.18-3.13-17.43-34-22.08-39,3,3.25,21.36,8,26.68,10.15,46.7,18.58,105.94-.14,147.75-23.89,42.34-24,74.62-62.26,89.54-108.77,1-3.14,3.45-5.86,4.32-9,3.5-12.67,6.47-25.49,10-38.15C2095.68,393.61,2094.18,391.13,2091.56,388.83Zm-366,43.57c4,22.93-11.07,52.53-30.43,60.13-6.16,2.41-12.9,4.47-19.42,4.59-11.13.21-22.45-.34-33-4.59-7.78-3.13-10.94-10.19-15-17.22,18-1.64,20.8-4.63,22.7-22.33.62-5.85.7-11.42-2.81-16.5-4.85-7-11.21-8-17.9-2.65-1,.78-1.9,1.62-3.51,3-.88-7.67,2.9-13.25,5-19.11,3.15-8.66,10.83-13.77,17.67-19.17,4.93-3.88,10-3.36,13.85,1.68,7.23,9.5,13.57,19.68,20.25,29.6,1.14,1.68,1.7,4.08,3.23,5.13,6.45,4.44,6.93,11.11,7.4,17.88.07,1,0,2.09.05,3.13.14,2.68.39,6.06,3.81,5.46,1.78-.31,4.29-3.48,4.33-5.4a62.72,62.72,0,0,0-1.5-17c-4.11-15.8-8.35-31.6-13.6-47-3-8.76-8-16.82-12.2-25.18-1.27-2.55-2.6-5.07-3-8.32,3.81,4.82,8,9.39,11.35,14.49,9.58,14.56,19.68,28.86,25.28,45.64.65,2,1.73,3.79,2.56,5.7,1.79,4.14,4.63,6.38,9.24,4.61C1723.61,427.52,1724.9,428.43,1725.6,432.4ZM1381.69,891.56c2.83-14.3,6.21-28.48,9.41-42.7,1.94-8.62,3.6-17.34,6.1-25.8,2.65-9,5.92-17.76,9.32-26.47q7.11-18.17,14.85-36.09c3-6.89,6.65-13.47,9.79-20.29,5.12-11.09,10.54-22.07,15-33.43,4.66-12,10.9-22.95,17.73-33.73,3.05-4.81,5-10.3,8-15.19,5.37-8.9,10.69-17.89,16.81-26.27a128.09,128.09,0,0,0,14.73-25.67c3.46-8.16,7.26-16.18,10.86-24.29.93-2.11,2.42-4.58-.74-6-2.75-1.26-4.42.71-5.58,2.85-3,5.5-6.2,10.9-8.62,16.65-5.44,12.94-14.24,23.47-24,33.57,2.15-3.55,4.39-7.06,6.43-10.67,2.43-4.31,4.7-8.7,7-13.07,4.26-8.06,8.2-16.3,12.81-24.15,8.8-15,14.21-31.22,18.65-47.88a63.19,63.19,0,0,1,3.61-10.3c4.11-8.91,3.49-18.25,3-27.61-.45-8.57-7.34-2.43-8.78,1.67-2,5.71-1.11,12.13-2.62,18-2.88,11.13-5.32,22.39-10.24,32.86-6.74,14.37-12.89,29-19.29,43.54a14.25,14.25,0,0,1-.57,1.46c-3.51,6.19-7.34,12.24-10.66,18.52q-32.78,62-67.1,123.12c-10.79,19.22-22.55,38.12-31.79,58-9,19.5-14.7,40.24-22.5,60.22-1.41,3.63-2.43,4.6-3.16,4-2-1.68-1.87-15.35-2-19.08q-.36-14-.15-27.93c.11-8.28.56-16.55.88-24.83,0-.78.2-1.56.16-2.33-1.2-26.45,4.51-51.86,13.62-76.29,5.43-14.53,13.87-28,21.19-41.77a222.22,222.22,0,0,1,11.52-19.53c4.78-7.13,10.12-13.88,15.27-20.75,10.6-14.15,22.2-27.57,30.94-43.05,1-1.78,3.74-8.26-.27-9-1.39-.25-2.73.6-3.86,1.46-7.42,5.72-11.28,14-16.65,21.42-6.38,8.83-14,16.8-19.93,25.9-13.62,20.94-26.64,42.28-39.67,63.6-2.69,4.41-4.45,9.4-6.5,14.19-11.54,27-22.15,54.36-29.85,82.74-2,7.5-3.11,15.27-4.51,23-2.09,11.49-4.35,23-6,34.52-2.19,14.93-4.25,29.9-5.71,44.91-1.15,11.92-1.46,23.93-1.85,35.91-.16,4.93.52,9.87.7,14.81.12,3.3,0,6.61,0,11.7a37.89,37.89,0,0,1-6.33-20.3c-1-20.31-.92-40.69-2.51-60.95-.86-11,.73-21.78.79-32.66q.12-20.25,1.25-40.49c.57-9.88,1.72-19.73,3-29.54,1.84-13.93,3.27-28,6.32-41.64,3.18-14.19,7.88-28.06,12.26-42,5.41-17.21,14.4-32.94,23.54-48.39,7.7-13,21.18-28.54,20.1-44.52-9-1.85-13,11.54-16.25,17.47-8.92,16.29-20.34,32.69-27.14,49.94-5.25,13.31-10.43,26.65-15.35,40.09-5.5,15-8.1,30.69-10,46.52-1.93,16.3-4.22,32.55-6.1,48.85-.63,5.43-.51,11-.64,16.43-.27,10.9-.2,21.64-2.71,32.57-4.88,21.29-9,42.72-18.08,63.22,0-2.26-.14-4.53,0-6.78,1.53-20.79,3.18-41.57,4.63-62.37.71-10.14,2-20.36,1.37-30.44-.91-14.58.35-29.1-.34-43.63-.37-7.81-1.18-15.6-1.71-23.4a60.73,60.73,0,0,1,0-6.88c.73-14.6,1.11-29.19-1.4-43.68a16.42,16.42,0,0,0-2.5-6.42c-.85-1.21-3.22-2.51-4.27-2.11-1.31.49-2.58,2.65-2.75,4.2a21.77,21.77,0,0,0,.68,7.74c3,11.32,1.81,22.83,1.85,34.29,0,3.86.29,7.74.06,11.59q-1.85,30.36-3.91,60.72c-.46,6.76-.64,13.59-1.78,20.24-2.46,14.34-4.9,28.72-8.38,42.83-7.92,32.18-15.59,68.51-35.69,95.61,3-26.68,10.92-52.52,16.64-78.76,6.47-29.72,10-60.17,9.53-90.61a314.8,314.8,0,0,0-3.93-45.26c-5.13-23.1-5.74-46.13-6.85-69.7a21.93,21.93,0,0,0-1-6.51c-1.41-3.92-8.5-9-10.29-2.51a22.65,22.65,0,0,0-.61,10c3.44,17.48,1.41,35.09,1.81,52.64.43,18.67-3,36.75-7.13,54.75-3.2,14-6.83,27.82-10.32,41.71a39.08,39.08,0,0,1-1.84,5.16q-8.58,20.9-17.25,41.75a11.77,11.77,0,0,1-4.87,5.81,30.52,30.52,0,0,1,0-4.17c1.61-11.84,3.31-23.67,4.92-35.51,1.4-10.3,3-20.6,4-30.94,1.23-12.64,2-25.33,2.86-38,.53-7.51,1.14-15,1.29-22.54,0-22.72,1.7-45.3.7-68-.53-11.95-6.6-21.81-3.75-33.91,1.76-7.47,4.74-14.55,7.41-21.72,5.94-15.94,13.87-31.62,20-47.12,1.78-4.5,2.46-9.48,3.34-14.29.19-1-.67-3.1-1.38-3.26a5.07,5.07,0,0,0-3.93,1c-6,5.22-7.49,12.9-10.47,19.74-1.75,4-3,8.31-4.5,12.44-6.77,18.29-14.46,36.29-20,54.93-4.1,13.63-5.71,28-8,42.19-4.75,29.55-9.12,59.15-13.82,88.7-2,12.6-4.41,25.14-6.76,37.69a11.72,11.72,0,0,1-3.72,6.65c-.14-2-.41-3.93-.38-5.89.31-15.56.75-31.13,1-46.69.07-5.43-.47-10.85-.55-16.28-.2-13.7-.56-27.41-.35-41.1.25-15.87.88-31.74,1.65-47.6.93-19.34,1.64-38,8.22-56.46,6.09-17,15.27-32.74,23-49.06,16.57-35.18,41.62-61.54,68.53-88.89,1-1.07,2.68-2.34,2.68-3.52,0-1.92-.72-5.11-1.86-5.47a7.38,7.38,0,0,0-6.16,1.47c-5.15,4.77-9.87,10-14.72,15.07-3.37,3.54-6.6,7.21-10,10.68-14.43,14.6-25.78,32.35-37.25,49.3A405.39,405.39,0,0,0,1148.79,588c-1.17-16.37,4.37-32.42,10.5-47.64,11.81-29.31,26.23-57.74,45.11-83.08,27-36.16,62.62-65.36,101.89-87.54,42-23.72,90.45-43.08,138.26-50.18,19.67-2.92,39.3-2.22,59-1a13.9,13.9,0,0,0,7.13-1.59,68.22,68.22,0,0,0,9.62-6.71c9.43-7.5,20.75-10.55,32-13.88,5.19-1.55,11.15-1.94,15.42-4.83,6.14-4.16,12.92-5.6,19.67-7.08,5.93-1.3,9.8-4.62,12.95-9.2,8.18-11.9,17.45-23,29.18-31.31,10.8-7.6,22.36-14.9,34.67-19.35,15.77-5.72,32.06-3,46.51,5.91,15.61,9.63,28.41,19.54,39,34.78a126.69,126.69,0,0,1,12.64,22.89c3,7.09,3.57,17.56,7.36,23.9-10.23-17.13-20.53-34.35-33.59-49.43-3.11-3.59-5.83-7.82-9.63-10.75-2.61-2-10.77-6.18-7.27.83,6.09,12.19,15.63,22.29,22.73,33.9.65,1.06,1.17,2.67.12,3.34-13.57-16.94-30.6-31.94-50.24-41.38a7.84,7.84,0,0,0-3.07-.51c-2.91-.07-6-.21-7.2,3.27-1.34,4.05,2.24,4.77,4.67,5.93,3.51,1.69,7.48,2.56,10.72,4.62,15.35,9.72,27.54,22.55,38.48,37.11,15.66,20.84,20.16,43.27,24,68.43A352.89,352.89,0,0,0,1740.55,320a55.93,55.93,0,0,0-5-8.88c-8.73-11.92-23.44-26.63-36.81-33.07-10.71-5.17-22-9.2-33.33-13-5-1.7-10.7-1.93-16.1-2.15-1.82-.07-4.38,1.57-5.35,3.19-.57.94.83,4,2.17,5a126.8,126.8,0,0,1,33.84,39.29c14,24.68,27.13,49.25,37.17,75.84,3.44,9.1-.82,13.72-4.86,3.54-11.34-28.55-25.85-61.66-46.72-84.58-1.57-1.73-2.53-4-4.12-5.7-3.2-3.39-6.53-6.65-10-9.74-1.74-1.54-4-3-6.18-.54s-.89,4.24.8,6.17c5,5.69,9.84,11.5,14.89,17.13,9.53,10.6,16.38,22.75,22.07,35.77,4.68,10.69,10.4,20.93,15.8,31.65a10.63,10.63,0,0,1-2.28-1.78c-8.24-11.35-16.28-22.86-24.71-34.07-3.4-4.52-7.56-8.48-11.49-12.59-1.42-1.48-3.23-2.59-4.76-4q-13.85-12.61-27.61-25.31c-2.32-2.13-5-3.35-7.76-1.61-1.17.73-1.85,3.11-1.77,4.69.06,1.26,1.43,2.64,2.53,3.62,17.89,16,32.89,34.06,42.83,56.12,4.8,10.67,10.12,21.11,15,31.74a12.34,12.34,0,0,1,.75,7.88c-3.8-4.72-7.57-9.45-11.41-14.14-3.44-4.22-6.76-8.55-10.47-12.53-6-6.47-12.18-12.81-18.54-18.94a88,88,0,0,0-10.91-8.8c-7.69-5.34-15.23-11-23.43-15.44-7.44-4-15.65-6.64-23.6-9.65a6.52,6.52,0,0,0-4.6.39c-2.19,1-4.85,2.29-5.86,4.21-.56,1.07,1.73,3.75,2.92,5.58.55.84,1.54,1.38,3.06,2.69-1.85,2.32-3.37,4.62-5.26,6.57-11.61,12-19.94,26-26,41.41-3,7.61-4.62,15.49-2.65,23.73a16.88,16.88,0,0,1,.24,3.9c0,23,.47,46-.2,69-.3,10.35-2.73,20.65-4.41,30.93-2.36,14.38-4.35,28.86-7.53,43.06-5.81,26-13.22,51.52-24.64,75.6-4.18,8.83-10.63,16.64-16.47,24.61-5.39,7.35-12.34,13.72-16.82,21.54-8.36,14.58-19.35,27.57-25.64,43.44-5.18,13-11.69,25.57-17,38.57-7.08,17.34-14.53,34.61-20.07,52.46a604.94,604.94,0,0,0-16.58,65c-2.53,13.16-7.27,25.51-10.33,38.4-.2.88-.89,1.65-2.16,3.88C1380,909.41,1379.94,900.4,1381.69,891.56ZM939.81,1213.92c6.84-12.5,15.87-23,29.21-29.12a19.52,19.52,0,0,1,4.45-1.47c8.33-1.56,16.7-2.94,25-4.57a30,30,0,0,0,8.87-2.73c3.88-2.16,3.58-6.25-.61-7.52a20.27,20.27,0,0,0-9.14-.1c-10.63,1.88-20.78,1-30.39-4.24-4.11-2.24-7.47-5-7.05-10.25s4.21-7.39,8.49-9.17c6.65-2.76,13.68-2.21,20.63-2.61,4.35-.24,8.68-1,13-1.27a27.77,27.77,0,0,1,7.57.11c7.54,1.54,8.72.67,8.41-7,0-.74.09-1.49.21-3.18,4.92,1.33,9.24,2.23,13.37,3.66,15.57,5.37,31.5,5.93,47.73,4.43,4.42-.4,9,.74,14.35,1.25-3.09,2.83-5.45,4.67-7.41,6.87-1.78,2-1.63,4.28.27,6.34s3.9,2.36,6.26.82c11.47-7.47,23.86-8,36.84-5.19,3.37.72,6.77,1.77,6.87,5.08.07,2.66-1.61,6.5-3.76,7.91-9.88,6.48-20.37,11.63-32.84,9.21-3.59-.7-6.83,0-9.35,2.69-3,3.17-2.57,6,1,8.5a18.58,18.58,0,0,0,15,2.86c7.56-1.8,13.79.49,20,4,.91.51,1.8,1.06,2.72,1.55,10.64,5.61,12.49,9.5,8.32,20.46-.93,2.47-4.13,5-6.78,5.7-5.26,1.47-10.71,1.34-15.56-2.31-3.11-2.34-6.68-4.08-10-6.23-5.1-3.36-10.43-2.82-15.71-.81s-6,6.42-2.06,10.42a6.54,6.54,0,0,0,2.47,1.87c9.67,2.81,10.82,11.18,10.55,18.78-.36,9.74-1.43,19.71-6.13,28.73-3,5.76-4.77,6.36-11.26,4.48-9.72-2.81-13.94-10.34-16.81-19-1.88-5.66-3.14-11.52-4.94-17.21a16.18,16.18,0,0,0-3.29-6.13c-1.43-1.52-4.37-3.57-5.49-3a11.13,11.13,0,0,0-5.27,5.93c-.82,2.54-.43,5.76.28,8.47,3.71,14.15.63,27.39-5.13,40.26-2.45,5.48-10.19,7.54-16.25,4.49-4.94-2.49-8.6-6-7.88-12.21a138.42,138.42,0,0,1,2.06-14.53c1.26-5.57,3.21-11,4.79-16.48.35-1.24.38-2.57.62-3.85.63-3.37-.71-5.75-3.89-6.68-3-.88-5.9-.12-7.42,2.83-1.76,3.43-3,7.13-4.62,10.63-5.93,12.71-15.83,21.56-27.74,28.49-3.62,2.11-7.62,3.47-11.07,1.21s-3-6.3-2.71-10.52c1.4-20.87,21.85-36,35.6-49.23,3.54-3.41,3.73-7.27,1.25-9.54s-8-1.88-10.85.69a34,34,0,0,0-3.47,4.23c-7.71,9.62-18.76,12.67-30.06,15a55.18,55.18,0,0,1-13.86,1.45A9.07,9.07,0,0,1,939.81,1213.92Zm-333.68,304.9c-2.19,62.35-12.65,124.82-26.52,185.67a273.06,273.06,0,0,1-13.84,42.27c-2,4.88-1.31,11-6.49,14.58-.55-10.12,5.18-18.21,8-27.17,3.41-10.91,7-21.78,9.88-32.83,2.94-11.28,5.24-22.73,7.59-34.15.62-3,.16-6.26.53-9.36,4.19-35.16,3.93-72.57.51-107.84-3.89-40.14-11-81.64-22.16-120.42-4-13.72-9.31-27-14.06-40.53-2.54-7.18-7-1.6-7,3.31,0,3.88,2.48,8,3.56,11.44,1.53,5,3.59,9.78,4.93,14.8,3.77,14.08,7.84,28.12,10.72,42.4,1.71,8.52,3.48,17.09,2,26.25-1.3,8.09.58,16.63.32,25-.51,16.93-1.63,33.84-2.27,50.76q-.67,17.91-.73,35.83c-.07,31.65-6.37,62.1-17.47,91.6-4.4,11.69-9.31,23.2-14.26,34.67-1.09,2.52-3.33,4.55-6,6.56.28-1.5.46-3,.84-4.5,2.24-8.53,4.73-17,6.71-25.58,1.22-5.26,1.72-10.69,2.47-16,1.2-8.49,2.47-17,3.47-25.49.8-6.71,1.14-13.47,1.87-20.18,1-9.3,2.36-18.57,3.33-27.88,1.55-14.89,2.46-29.79,1.6-44.8-.41-7.22.87-14.52.73-21.77-.26-14.23-.87-28.44-1.57-42.65a138,138,0,0,0-1.87-14.72,7.34,7.34,0,0,0-1.91-4.17c-1.25-1.09-3.4-2.17-4.75-1.8-1.12.31-2.38,2.77-2.32,4.23.18,4.65,1.11,9.27,1.44,13.93.62,8.84,1.38,17.69,1.45,26.53.12,15.14.36,30.32-.58,45.41-1.22,19.73-4.09,39.35-5.17,59.09a340.68,340.68,0,0,1-3.61,34.84c-.85,5.38-2.33,10.66-3.11,16-3,20.83-8.09,41.22-13,61.65a72.14,72.14,0,0,1-17,32c-3.18,3.51-6.1,7.25-9.68,11.54-.47-1.93-.85-2.56-.67-2.86,8.85-14.46,12.94-30.52,16.14-46.94,1.14-5.84,3.47-11.45,4.77-17.28,3.17-14.18,6.4-28.35,9-42.65,3.26-18.15,5.89-36.42,8.77-54.64.16-1,.22-2.07.3-3.11,1.17-14,1.81-28.08,3.61-42,2.35-18.21.14-36.47,1.48-54.68.66-9.07.85-18.2.75-27.3-.09-9.35-.71-18.7-1.27-28-.29-4.88-3.31-9.54-5.69-9.35-2.71.22-4.32,4.64-3.31,10.14,3.48,19.13,2.57,38.44,2.64,57.71,0,11.64,0,23.31-.63,34.92-.42,7.52-2.2,14.94-3,22.45-2,18.89-3.58,37.84-5.89,56.7-.84,6.82-3.28,13.45-6,20,0-1.25-.06-2.51,0-3.76,1-17.69,2.09-35.37,3-53.06.34-6.91,0-13.86.34-20.77.34-6.46,1.74-12.89,1.82-19.34.19-15.77-.06-31.55-.21-47.33a231.76,231.76,0,0,0-4.1-41.16c-1.69-8.89-.71-18.26-2-27.26-2.34-16.17-3-32.62-7.68-48.43-.87-2.93-4.95-10.43-8.37-4.68-3.13,5.27,1.9,19.14,2.8,24.8,1.56,9.81,3.09,19.62,4.32,29.48,1.55,12.39,2.53,24.88,3.06,37.36.4,9.59-.31,19.22-.49,28.83-.08,4.65.19,9.31-.19,13.93-1.15,13.74-2.52,27.46-3.86,41.19-.27,2.84-.76,5.67-1.24,8.49-.45,2.56-1.26,5.08-1.5,7.66-1.26,13.23-1.92,26.52-3.69,39.67-1.45,10.75-4,21.37-6.36,32-2.7,12.2-5.48,24.39-8.64,36.47-3.79,14.55-8,29-13.2,43.2,1.07-7.6,2.1-15.21,3.23-22.8,1.21-8.14,2.61-16.26,3.74-24.41,1-7.21,2.2-14.44,2.52-21.69.41-9.25.05-18.53,0-27.79,0-2.86-.37-5.73-.32-8.59.3-16.69,1.06-33.39.86-50.08-.14-11.92-1.69-23.82-2.34-35.74q-1.29-23.71-2.12-47.44a110.23,110.23,0,0,0-3.86-25.34c-4.21-15.57-6.56-31.48-5.78-47.78.55-11.33.44-22.69.33-34,0-2.54-1.59-15.48-6.92-10.88-1.35,1.17-1.74,3.09-1.8,4.87-.11,3.49-.23,7-.22,10.45.16,34.47.59,68.93.49,103.39-.05,14.56-1.18,29.13-1.81,43.69a10,10,0,0,1-.14,2.34c-4.14,13.54-4.38,27.73-6.91,41.52-3.62,19.7-7.47,39.38-12.09,58.87-3.47,14.6-8.33,28.86-12.5,43.3-1.58,5.48-2.92,11-4.45,16.52a3.93,3.93,0,0,1-2.28,2.5c.47-4.91.69-9.85,1.46-14.71,1.34-8.47,3.5-16.84,4.45-25.34,1.61-14.4,2.67-28.87,3.73-43.33,1.05-14.27,2.57-28.56,2.51-42.83-.07-18.46-2.15-36.91-2.21-55.36-.07-25.63-6-50.55-8-75.91-.66-8.3-.36-16.67-.58-25-.29-10.66-.87-21.31-.93-32,0-7,.79-14,.88-21,.07-5-5.61-15.94-9.13-6.16-1.94,5.4.7,15.57,1,21.31.35,7.87.5,15.74.53,23.61.05,15.75-.42,31.49-.82,47.23s-1.23,31.22-2.78,46.74c-1.37,13.69-4,27.26-6.08,40.89-1.58,10.56-2.86,21.17-4.71,31.68-2.31,13-5.07,26-7.64,39-2.68,13.51-5.1,27.09-8.12,40.53-6.33,28.16-10.56,56.89-21.41,83.85a254.63,254.63,0,0,1-16.35,32.66q3.56-10.71,7.1-21.43c2.7-8.14,5.66-16.2,8-24.44q5.82-20.27,10.94-40.73c1.44-5.79,1.79-11.84,2.91-17.72,1.07-5.59,2.65-11.07,3.73-16.65,1.33-6.9,2.47-13.83,3.54-20.78,1.79-11.54,3.68-23.08,5.08-34.67.87-7.22,1-14.53,1.3-21.8,1-21.85,2.25-43.69,2.66-65.55.16-8.51-1.62-17.07-2.65-25.59-.74-6.18-1.87-12.32-2.55-18.51,0-20.16-4.4-41.09-5.91-61.26-1-13.77-2.75-27.27-3.69-41-.25-3.55-.69-7.33-2.17-10.48s-5.18-2.87-6.49.53a22.19,22.19,0,0,0-1.16,7.63c-.15,13.25-.16,26.51-.19,39.77,0,4.95,0,9.9.1,14.85.42,34.66,1.29,69.32,1.05,104-.09,12.12-2.92,24.22-4.58,37-4.88-2.82-4.54-7.8-5.49-11.52-3.46-13.53-6.54-27.18-9-40.93a836.47,836.47,0,0,1-11.55-100.58c-2.79-51.26-7.83-97.78,20.74-151.15,23.51-43.89,53.7-81.43,97.63-105.62,35.55-19.57,76-41.52,117.63-35.5,10,1.44,19.7,4.37,29.23,7.7,25.21,8.82,46.06,22.21,68.17,36.77,4.23,2.78,8.43,5.62,13.36,8.92-3,3.44-5,6.13-7.38,8.43a67.08,67.08,0,0,0-13.68,18.91c-6.36,12.83-14,25.09-19.7,38.19-7,15.94-14.41,31.77-18.23,49-1.52,6.81-4.49,13.28-6.26,20-2.62,10.06-4.82,20.24-7.06,30.4a92.17,92.17,0,0,0-2.19,13q-1,14.41-1.42,28.87c-.26,10.7-.42,21.41-.1,32.09.16,5.69,1.36,11.35,2.19,17,1.29,8.73,2.61,17.45,4,26.15.41,2.56,1.38,5,1.79,7.58C603.87,1476.24,606.88,1497.43,606.13,1518.82ZM721,1507.59c-4.4-.52-9.19-.33-13.07-2.08-18.36-8.3-35.73-19.34-44.16-38.54-2.63-6-6.38-6.31-10.73-1.47a59.15,59.15,0,0,0-5.37,7.67c-1.94,3-1.14,5.53.74,8.59,6,9.72,11,19.92,13.13,31.35.8,4.34,2.53,8.52,3.22,12.87a15.28,15.28,0,0,1-16.12,18,6.45,6.45,0,0,1-3.77-2.15,11,11,0,0,1-2.26-4.08c-4.14-12.57-10-24.46-14.45-36.92q-6.58-18.33-12.62-36.85a299,299,0,0,1-7.51-29.42c-7-32.73-6.47-64.65-.69-97.77,1.82-10.43,3.5-21.23,7.76-31,1.7-3.91,4.21-9.58,8.56-11.21,6.89-2.6,13,5,17,9.7,1.82,2.08,3.73,4.4,3.85,7.16.08,2-.77,3.84-1.1,5.77-.47,2.74.1,5.54.32,8.31.54,6.87-1.18,13.58-3.39,20-.94,2.73-6.47,11.81-2.87,14.54,1.1.83,4,1,4.89.11a55.92,55.92,0,0,0,8.64-9.87c7.09-10.75,12.68-23.14,21.49-32.65,5.24-5.64,12-10.17,19.65-11.25a18.24,18.24,0,0,1,9.66,1,17.6,17.6,0,0,1,6.76,5.4c6.9,8.75,6.44,21.58,1.8,31.72-6.37,13.9-19.4,26.36-31.74,35.09a18.34,18.34,0,0,0-2.34,2.07c-2,2-3.19,4.45-1.26,7s4.64,2.24,6.94.41c5.69-4.51,11.23-9.21,16.9-13.75,16.29-13.07,35-14.62,48.57,3.53,8.09,10.79,12.87,33.89-3.63,40.88a14.94,14.94,0,0,1-6.39.71q-6.28-.23-12.48-.61c-9.83-.6-19.55-1.49-29.46-2.68-1-.13-2.07-.29-3.11-.39-2.67-.23-5.39-.4-6.74,2.61-1.43,3.2.06,5.44,2.58,7.39,4.94,3.83,9.86,7.69,14.69,11.66,5.22,4.28,10.33,8.69,15.49,13.06a29.88,29.88,0,0,0,3.57,3c13.13,8,16.24,20.16,14.36,34.36-.77,5.76-2.56,11-7.07,15.25C726.74,1506.54,724.3,1508,721,1507.59Zm50.69,185.25c-1.13,3.7-3.38,7.82-7.78,7.77s-6.09-4-8-7.61c-6.2-12-4.39-24.18-1.51-36.46.53-2.29,1.16-4.55,1.82-6.8,1-3.29,2.08-6.81,5.89-7.55,4.37-.85,8.15.71,11,4.29,3.89,4.83,4.94,8.66,4.79,18.4C778.56,1674.8,774.46,1683.7,771.67,1692.84Zm8.67-159.18c-6.45,13.33-13.1,26.62-24.81,36.36-2.58,2.15-5.44,4-8.18,5.94-8.13,5.8-19.48-1.62-17.75-11.08a40.26,40.26,0,0,0,.25-4.41c-.28-18,10.94-29.59,24.66-39.41,4.61-3.3,22.07.53,25,5.43C780.7,1528.41,781.24,1531.79,780.34,1533.66Zm55.56-270.25a4.12,4.12,0,0,1-2.76-1.18c-5.18-7.9-15.16-12.56-15.94-23.45-.29-3.94-5-7.16-8.14-3.7-6.94,7.71-4.56,24.72-6.14,34.33-.12.76.19,1.59.06,2.35-1.3,7.27-4.21,13.58-11.64,16.32-6.2,2.29-17.52-1.4-21.14-7-2.54-4-3.9-8.45-2.23-13.4,2.33-6.91,4.73-13.84,6.45-20.91a24,24,0,0,0,.15-11.41c-.56-2.11-3.8-4.12-6.24-4.93-3.14-1.05-5.33,1.29-6.63,4.15-.86,1.9-2.1,3.75-2.44,5.75-1.86,11-8.52,18.7-16.82,25.33a124.12,124.12,0,0,1-10.7,7.87,16.85,16.85,0,0,1-6.54,2.28c-5,.71-6.17-.35-8.06-5.21-3.29-8.5-1.86-16.58,2.8-23.9,3.47-5.46,8-10.25,12-15.33,1.62-2,3.34-4,4.88-6.06,1.73-2.34,2.23-5.19-.17-7-1.83-1.38-5.09-2.74-6.82-2-3.72,1.56-7.83,3.81-10,7-6,8.6-51.9,20.15-46.23,3.89a23.08,23.08,0,0,1,3.28-6.21c9-11.85,20.26-21.94,34-27.61,5.35-2.2,28.55-5.7,29-13.33.2-3.38-2-5.88-5.42-6.68-2.23-.53-4.83-1.15-6.88-.51-7.62,2.36-14.48-.45-21.35-2.69-5-1.65-5.74-5.18-2.52-9.54,11.39-15.46,33.75-24.45,50.61-11.7,2.07,1.57,4.61,5,7.4,2.4,2-1.88,3.27-5.26,3.58-8.11.28-2.65-.76-5.65-1.93-8.17a6.33,6.33,0,0,1,1-7.25c9.79-12.09,21.79-19.94,38.25-20.26,4.2,1.16,8.66,1.77,12.53,3.61,4.46,2.13,5.06,5.56,2.18,9.59a84.9,84.9,0,0,1-7.25,8.08c-.52.56-1.39.81-1.88,1.39-2,2.4-4.53,5-2.37,8.26a6.77,6.77,0,0,0,8.35,2.55,30,30,0,0,0,8.2-4.3c11.54-9,24.56-11.45,38.73-9.2a68.67,68.67,0,0,0,6.87,1.21c6.94.37,11,4.55,13.24,10.45,9.59,25-40.55,24.92-52.47,26.92-3,.5-5.72,2.33-8.54,3.63s-4,4-2.71,6.43c1.07,2,3.56,4.22,5.63,4.47a26.91,26.91,0,0,0,11.5-1c13-4.4,26-3.58,39.13-1.58,5.12.77,10.25,1.56,15.33,2.56a23.35,23.35,0,0,1,5.84,2.11c3.4,1.7,4.57,4.67,2.45,7.78-3.3,4.83-6.47,9.44-13.47,10.49-13.25,2-25.76.11-38.24-4.1a14.31,14.31,0,0,0-8.25.09c-1.44.43-2.88,3-3.05,4.69-.69,6.9,26.87,13.69,30.13,21,1.4,3.17,1.12,6.8.81,10.26C863.61,1252.37,857.11,1265.57,835.9,1263.41ZM950,1555.11c-7.54,8.69-16.42,15.66-27.76,18.8-1.69.47-3.63.06-5.45.06l0,.25c-2.32-.22-4.76,0-6.93-.74-6.82-2.2-10.13-10.89-6.6-17.5a19.25,19.25,0,0,1,5.32-6.63c7.51-5.29,16.11-8.19,25.13-9.58,7.66-1.18,12.59,3.53,16.52,9.11C951.19,1550.28,951.08,1553.84,950,1555.11Zm60-132.2a68.73,68.73,0,0,1-19.43-4.21,13.22,13.22,0,0,0-5.3-1.07c-2.12.17-5,.47-6.07,1.86-1.87,2.41-1.21,5.56,1.13,7.79,1.48,1.41,3.44,2.32,5,3.69,6.61,5.93,11.71,12.68,10.66,22.22a25.79,25.79,0,0,1-2.15,8.23c-4.46,9.31-10.15,10.84-18.92,5.34-2.21-1.38-4.3-2.94-6.39-4.5-4.1-3.07-7.21-6.54-6.66-12.31.57-6-2.17-11.18-5.13-16.12a13.06,13.06,0,0,0-4.3-4.32c-3.55-2.14-6.23-1-6.8,3.11a37.39,37.39,0,0,0,.29,8.57c.68,7,1.73,13.9,2.16,20.87.16,2.49-.78,5.14-1.64,7.57-3.08,8.68-9.54,14.32-17.7,17.78-11.8,5-28.34-5.53-29.6-18.84-1.15-12.21,1-23.8,7.45-34.52,3-4.91,4.68-10.53,3.94-16.34-.25-1.92-2.14-4.63-3.79-5.07-1.41-.37-4.33,1.55-5.24,3.2a76.69,76.69,0,0,1-28.91,29.94c-7.11,4.16-14.24,6.13-22.26,2.72a11.39,11.39,0,0,1-7.35-10.18,20.6,20.6,0,0,1,5.83-17.11c3.75-3.9,6.84-8.44,10.1-12.79A39.46,39.46,0,0,1,872.66,1397a46.8,46.8,0,0,0,10.06-7.29c1.17-1.1,1.6-3.88,1.1-5.52-.31-1-3-2-4.53-1.88a78.53,78.53,0,0,0-10.67,2.08c-5.78,1.37-11.46,3.36-17.31,4.16-8.18,1.11-13.45-5.42-10.74-13.31,2.3-6.69,6.6-12.13,12-17,6.46-5.83,13.08-6.61,20.82-3.45,3.86,1.58,10.5-.79,12.33-3.94,1.57-2.71.48-8.41-2.09-11.46-2.18-2.58-4.61-5.06-6.3-8-4.55-7.78-8-15.76-3.13-24.9,3.87-7.23,6.47-15,13.62-20.32,11.49-8.53,18.36-4.35,25.82,5.47,6.66,8.76,6.51,19.52,5.08,30.1-.27,2-.93,4.19-.46,6.05.69,2.75,2.1,5.64,5.63,5.58,3,0,4.43-2.38,5.27-5,2-6.18,3.38-12.6,6-18.5,4.15-9.4,8.13-19.27,19.1-23.15,11.41-4,22.91,4,22.41,15.94-.32,7.85-1.84,15.47-7.14,21.88a25.13,25.13,0,0,0-4.42,8.15c-.51,1.59,0,4.49,1.17,5.37s4,.59,5.49-.3c6.84-4.25,13.47-8.84,20.13-13.38,9-6.13,18.33-5,27.54-1,6.78,2.94,9.06,9.31,9.05,16.67,0,13-9,18.11-18.61,22.09-8.1,3.33-16.88,5-25.37,7.39-2.75.77-5.56,1.36-8.29,2.2-3,.93-5.61,3.33-4.6,6.19.73,2.07,4.13,4.51,6.31,4.48,4.85-.06,9.68-1.51,14.49-2.53,2-.43,4-1.32,6-1.81a28.06,28.06,0,0,1,24.78,5.61c10.92,8.81,19.66,30,2.39,37.1A35.89,35.89,0,0,1,1010,1422.91Zm151.16,82.22c-4,4.77-8.93,7.1-17.08,5.52-2.34.7-6.33,1.68-10.16,3.06s-4.67,4.85-4.25,8.33c.39,3.19,2.84,4.91,6,5.2s6.19.26,9.28.5c2.57.19,5.4,0,7.62,1,2.65,1.22,4.76,3.59,7.11,5.46-2.32,2.67-4.15,6.64-7.07,7.75-6.77,2.56-13.73,2-19.8-3a18.39,18.39,0,0,0-20.23-1.59c-4.93,2.86-5.27,7.32-1.23,11.51a29.32,29.32,0,0,1,5.84,7.92c2.5,5.51,1.41,8.24-3.64,11.72-2.57,1.77-5,3.93-7.86,5-5,1.88-7.32.08-7.58-5.15-.08-1.56,0-3.13,0-4.7a25.12,25.12,0,0,0-.07-3.13c-.7-4.77-6.12-10.14-9.82-9.79-3.32.31-6.75,5-6.26,10.45.72,8.07-3.53,12-10.2,14.62-5.63,2.18-10-.88-9.57-6.92a20.05,20.05,0,0,1,1.63-6c2.62-6.49,5.35-12.94,8.09-19.39,1.3-3,2.31-6.61-.89-8.41-2-1.12-5.34-.32-7.94.27a7.31,7.31,0,0,0-4.43,3c-4.68,8.7-13.94,10.35-21.66,14.24a8.14,8.14,0,0,1-7.09-.54c-1.14-.82-1.17-4.6-.34-6.45a20.94,20.94,0,0,1,5.88-8.07c5.58-4.2,11.7-7.7,17.6-11.48a41.44,41.44,0,0,0,3.94-2.55,5.67,5.67,0,0,0,1.8-7c-1.06-2.71-3-4.43-5.94-4.11a41,41,0,0,0-5.93,1.53,51.5,51.5,0,0,1-7.54,1.85,6.6,6.6,0,0,1-7-3.93c-1.51-3-1.81-5.7.44-8.68,4.37-5.82,14.15-8.9,22.68-6.86a52.6,52.6,0,0,0,7.65,1.35,7,7,0,0,0,7.79-5.2c1.26-3.94-1.6-5.93-4.59-7-6.95-2.47-8.06-2.93-4.69-12.64,2.32-6.69,6.16-12.63,14.2-14.21,8.49-1.67,17.43,3.88,18.78,12.37.34,2.16-.48,4.55-1,6.77-.24.94-1.23,1.67-1.77,2.55-2.9,4.72-2.34,9.58,1.29,11.67s6.7.51,10.26-4.39c3.19-4.4,6.65-8.61,10.06-12.86,4.72-5.88,11.94-7.36,18.48-9.52,5.27-1.75,9.72,3.61,7.8,8.8a17.56,17.56,0,0,1-4.76,6.87c-2.92,2.53-6.59,4.18-9.69,6.54-3.69,2.82-7.59,5.61-10.46,9.17-1.43,1.78-1.77,5.7-.8,7.84,1.26,2.8,4.7,2.94,7.59,1.54,3.51-1.7,7-3.43,10.39-5.37,2.48-1.42,4.69-3.32,7.17-4.76,7.36-4.3,14.45-3.41,21.21,1.46C1163.8,1499.82,1164,1501.71,1161.2,1505.13Zm100.62,17.79c-1.64,12.17-9.22,20.21-19.36,25.69-7,3.8-12.13.16-11.94-10.22,1.86-3.92,4.54-10.34,7.91-16.39,2.66-4.76,6.06-9.16,11.84-10.68,1.2-.31,2.5-1,3.59-.82C1256.8,1511.1,1262.25,1519.74,1261.82,1522.92Zm12.81-152.1c-4.74,2.07-9.77,4.29-14.78,4.58-3.77.23-7.83-2.24-11.55-4-5.11-2.35-9.94-2.92-14.77.49-4.26,3-6.09,8.85-.3,12.09,1.58.88,2.89,2.85,4.47,3,10.41,1.21,14.14,10.92,21.22,16.32,2.63,2,2.64,4.74.75,7.66-3.58,5.49-8.71,9-14.55,11.38-4.15,1.68-10.73-1.67-13.74-6.83-1.52-2.62-2.28-5.75-3.11-8.72-2-7.23-7-11.39-13.38-10.46-1.9.27-4.58,1.23-5.26,2.66-2.54,5.36-7.2,10.47-2.42,17.17,3.55,5,.12,10.2-1.21,15-1.78,6.41-5.73,11.66-12.37,14.22s-11.68-.18-14-6.79a25.14,25.14,0,0,1,.68-19c1.34-3.18,1.26-7.1,1.19-10.68s-2.75-5.38-6.12-6.13c-3.16-.7-5.74.18-7.41,3-3.06,5.13-5.53,10.71-9.16,15.38-3.3,4.22-7.65,7.71-11.93,11-1.13.88-4.72.64-5.4-.33-2.16-3.07-4.87-6.75-4.84-10.17.07-8.76,3-16.84,9.79-23a67.94,67.94,0,0,0,7.1-7.3c2.87-3.58,2.8-7.34.27-9.9s-6.1-2.76-9.89.25c-9.24,7.33-20,11.06-31.23,13.86-3.24.8-6,1.13-8.42-1.93s-1.2-5.72.47-8c4.66-6.25,8.84-13.36,14.87-17.94,5.07-3.86,12.46-4.72,18.86-6.8,3.46-1.13,7.1-1.75,10.46-3.1,3.09-1.24,5.15-3.58,4.37-7.37-.82-4-3.77-6-7.35-5.7a168.38,168.38,0,0,0-17.59,3.14c-5.16,1.06-10.07,1.91-14.93-1.55s-5.79-7.61-1.77-12.44a44.71,44.71,0,0,0,3.16-3.48c5-7.58,13.7-12.72,22.89-11.47l1.44.24c7.16,1.44,13.75,5.93,21.31,3.72a10.44,10.44,0,0,0,6.13-6.19c.56-2-1.37-5.45-3.21-7.18-6.68-6.3-7.75-14.2-2.76-22,6.71-10.44,16.88-15.14,28.43-17.53,4.82-1,6.54.3,8,5.06,1.08,3.48,2.64,7,2.79,10.52a21.47,21.47,0,0,1-2.15,10.3c-2.12,4.12-5.6,7.52-8.1,11.49s-4.35,13.62,3.88,11.86c2.24-.48,4-2.08,5.65-3.71,6.16-6.24,11-13.67,16.67-20.32,6.09-7.11,15.74-17.49,24.68-11.69,10.65,6.9,4.36,18.64-3.11,24.25a143.2,143.2,0,0,0-13.35,10.92c-4.17,4-4.49,6.82-2.23,9.5,2.52,3,8.77,3.87,12.22,1.41a40.06,40.06,0,0,0,7.09-6.14c4.83-5.54,10.87-8.66,17.89-10.45,5.69-1.45,9-1.15,10.68,1.74,1.86,3.12,1.4,9.47-1.9,12.37-7.06,6.21-14.6,11.86-24.5,12.71-3.72.32-7.13,1.06-9.94,3.86-2.58,2.57-4.59,5-2.63,8.89,1.67,3.26,4.93,4.86,9.1,4.16,8.22-1.38,16.38-3.14,24.64-4.09,5-.58,10.42-1.06,13.8,4.61S1280.56,1368.22,1274.63,1370.82Zm34-157.72c-3.77-4.65-10.33-3.87-12.8,1.56-1.15,2.54-1.21,5.56-1.9,8.32-2.13,8.54-5.7,16.09-13.49,21.13-5.22,3.37-8.88-.77-13-2.23a6.06,6.06,0,0,1-3.9-7.68c2.06-6.88,4.27-13.84,7.58-20.17,2.21-4.23,6.38-7.45,9.73-11.06,2.14-2.3,3.46-5.07,1.63-7.76-1.92-2.85-4.86-5.21-8.62-2.93-3,1.84-6.39,3.73-8.47,6.46-4.76,6.23-10.81,10.41-17.76,13.7-4.23,2-8.22,4.5-12.37,6.67a25.64,25.64,0,0,1-6.44,2.77c-5.34,1.06-8.88-3.47-6.93-8.6,4.41-11.6,13.18-19.09,23.74-24.73,3.66-2,7.73-3.14,11.53-4.84,2.6-1.16,5.7-2.08,7.42-4.09a10.66,10.66,0,0,0,2.12-7.58c-.43-3-3.28-4.67-6.56-4.22-10.37,1.42-31.6,10.36-40.43.61-2.56-2.84-3.81-5.89-2.33-10,4.29-11.83,16.69-17.24,28.53-17.67a20.07,20.07,0,0,1,3.26.19c9.11,1.17,23.81,6.69,28.89-.45,2.29-3.21,2.65-6.65-.5-9.93a5,5,0,0,1-1.25-4.06,64.35,64.35,0,0,1,20.46-30.56,15.75,15.75,0,0,1,6.43-3.76c6.77-1.55,11.14,5,9.12,10.75-2.75,7.84-6.18,15.44-9.48,23.08-1.13,2.62-3.29,4.91-3.94,7.6-.52,2.17-.23,5.37,1.1,6.9,1,1.1,4.27.48,6.43.09,1.09-.2,2.15-1.46,2.92-2.47a86.2,86.2,0,0,1,21.84-19.79c6.39-4.21,13.33-6.8,20-10.08,2.65-1.3,6.06-1.45,9.12-1.42s4.83,2.32,4.23,5.34-1.38,6.32-3.13,8.75a78.65,78.65,0,0,1-10.78,12.27c-6.86,6.24-13.3,13.27-23,15.49a5.73,5.73,0,0,0-3.63,2.73c-.94,2.21-2,5.09-1.32,7.09,1,2.79,4,4,7.19,3,3.71-1.2,7.76-2,11-4,10.86-6.91,21.81-5.18,32.79-1,1.91.73,4.19,3,4.43,4.76.17,1.32-2.49,3.35-4.24,4.52a64.26,64.26,0,0,1-7.62,3.9c-4.37,2.14-8.75,2.88-13.59,1.17a36.66,36.66,0,0,0-9.92-1.88c-3.75-.23-8.88,3.47-8.89,6.32,0,3.66,2,6.37,5.3,8,.93.48,1.9,1.24,2.85,1.25,8.32.07,15.39,3.93,22.9,6.79a19.92,19.92,0,0,1,12.28,23.18c-.87,4-3,6.51-6.91,7.59s-6.49-1.09-8.63-3.89c-4.12-5.39-8.11-10.89-12.24-16.27a20.1,20.1,0,0,0-4.24-4.48c-4.37-3-9.66-2.57-12,.68-2,2.69-1.31,8.74,2.28,11.28,4.74,3.37,7.29,7.89,9.7,12.88,4.94,10.19,2.42,26.3-5.66,34.13-4.32,4.19-8.74,4.24-13,0a14.38,14.38,0,0,1-3.29-4.35c-4.54-10.69-11.59-20.46-11.77-32.78A11.36,11.36,0,0,0,1308.67,1213.1Zm158,149.29c-4.28-3-8.64-2.59-13.07-.43-4.19,2-8.76,3.49-12.6,6-4.38,2.9-3.87,6,.72,8.65a14.71,14.71,0,0,1,2,1.2c5.5,4.63,11.41,5.94,19.46.85-1.51,6.06-2.55,10.38-3.66,14.68-.66,2.52-1.83,5-2.06,7.53-.43,4.88-9.21,24.77-16.55,17.17-1.4-1.45-2.34-3.49-4.22-4.21-6.58-2.53-6.62,10.66-6.52,13.91.27,9.13-3.31,16.74-8.67,23.68-3.48,4.5-7.83,4.11-10.24-1a13.19,13.19,0,0,1-.87-6.81c.82-7.24,1.88-14.46,3.07-21.66.69-4.16.21-7.8-3.16-10.65s-6.93-2.56-9.23,1.3c-1.17,1.95-1.54,4.38-2.28,6.6-3.23,9.56-4,20.18-10,28.52-3.88,5.34-9.06,9.94-14.35,14-4.51,3.45-10.24,1.45-15.07,0-1.65-.47-3.23-4.82-3.06-7.28.79-11.45,5.87-21.32,12.35-30.62a179.19,179.19,0,0,0,10.14-16.47c1.76-3.22-1.35-9.63-4.71-11.29s-5.59.27-7.13,2.78a69.77,69.77,0,0,0-5.4,10.4c-5.27,13.06-24.22,18.53-35.1,16.68-6.76-1.15-10.67-8.07-8.23-15.12,4.43-12.76,10.58-24.5,22.86-31.61a78.91,78.91,0,0,1,11.3-5.26c4.06-1.56,6.3-4.54,7.58-8.39,1-2.87-.44-4.63-3.37-4.75a20.61,20.61,0,0,0-5.36.78c-3.55.83-7,2-10.62,2.65a41.18,41.18,0,0,1-9.3.93c-4.71-.2-9.45-2.5-10.71-6.63-.89-2.92,1.37-7.34,3.27-10.47,5.93-9.79,15.51-14.25,26.27-16.63,2.79-.62,5.58-1.22,8.39-1.71,4.4-.78,8,.64,11.55,3.4,13.79,10.84,11.83-15.62,14.7-22.43,4.51-10.72,14.08-18.68,24.38-23.6,5-2.38,7.82-1.06,9.78,4.06.93,2.43,1.48,5,2.35,7.45,3.09,8.68,1.14,16.4-4.35,23.47-2.7,3.47-5.5,6.87-8.12,10.4-1.56,2.09-3.59,4.21-4.08,6.59s-.24,5.92,1.2,7.77c2.11,2.71,5.55,2.34,8.43.12a60,60,0,0,0,14.74-17c3.29-5.49,7.63-10.42,11.9-15.23,2.33-2.62,5.63-3.7,9.58-1.43l-3.56,16.39c-.66,3-.18,5.85,2.79,7.33s5.91.19,7.42-2.48c3.43-6.07,6.58-12.32,9.55-18.63,1.87-4,3.23-8.22,4.8-12.35,2.15-5.66,4.28-11.34,6.85-18.16C1480.45,1292.8,1472.35,1343.27,1466.67,1362.39Zm-61.55-111.56c1.37-12.21,10.89-21.8,20.55-29.38,2.92-2.29,6.07-4.57,9.74-5.14a11.84,11.84,0,0,1,2.14-.14c12,.21,24,17.24,18.62,28-5.86,11.82-15.42,22.85-29,25.61-7.43,1.52-16.12-.89-20-7.42A18.66,18.66,0,0,1,1405.12,1250.83Zm91.12-282.48c-1.09,10.58-1.68,21.22-3.08,31.75-2.71,20.32-3.94,40.75-5.05,61.21-1.21,22.22-5.11,45.14-3.13,67.3.28,3.12-4.93,13.71-8,7.31a6.12,6.12,0,0,1-.49-2.7c0-4.29,2.16-7.66-.38-11.84-2.14-3.51-6.19-2.9-7.93.91-1.4,3.07-1.86,6.8-3.9,9.29-2.9,3.52-6.76,6.31-10.44,9.11-1,.76-3.53,1.09-4.09.47a6.37,6.37,0,0,1-1.53-4.78c1.19-5.83,2.73-11.43,6.52-16.46,2.7-3.59,4.26-8.28,5.38-12.72.5-2-.69-5.66-2.29-6.62s-5.36-.61-7.16.63a14.18,14.18,0,0,0-5.47,7.15c-2.44,8.74-8.42,14.64-14.79,20.34a42.38,42.38,0,0,1-6.9,5.12c-1.13.66-3.38,1-4.12.29a4.76,4.76,0,0,1-.76-4.21c1.63-4.66,3.16-9.57,7.66-12.4,3.62-2.27,4.72-5.72,6-9.49a28.31,28.31,0,0,1,5.12-9.4c4.2-4.92,9.16-9.19,13.44-14a12.11,12.11,0,0,0,3-6.84c.13-3.13-4.51-5.63-7.83-4.1a28.43,28.43,0,0,0-8.85,6.21c-7.2,7.85-16,13.23-25.5,17.63-1.83.85-5.06,1.27-6.28.25-2.51-2.09-1.77-5.29.29-7.66,9.13-10.53,17.73-21.64,30.36-28.47a62.71,62.71,0,0,0,7.85-5c3.09-2.32,4.07-5.64,2.28-9-1.66-3.13-4.93-2.51-7.71-1.74-7.29,2-14.51,4.29-21.77,6.39-3.47,1-7.85,2.89-9.79-1.2-1.74-3.64,1.85-6.21,4.58-8.86,6.76-6.59,15.52-8.88,24-10.3,5.74-1,12.35,1.42,18.17,3.45,4.51,1.57,7.69,0,10.87-2.15a5.4,5.4,0,0,0-.21-9.2c-4.42-2.64-8.83-5.25-14.42-5.31-6.4-.08-15.8-9.59-16.27-15.8-.36-4.86,3.55-7.17,6.82-8.56,7.43-3.14,15.32-3.76,22.47,1,4.22,2.81,9.06,4.94,11.56,10,.78,1.59,3.91,3.4,5.37,3,2.63-.73,5.76-3.39,4.44-6.39-4.06-9.28.75-16.51,4.15-24.36,1.14-2.65.33-6.13.47-9.23.11-2.32-.1-5.18,3.24-5.18C1495.3,963.11,1496.58,965.07,1496.24,968.35Zm36.9-155.87c-1.94,4.73-4.31,8.37-10.89,6.7-13.21-3.34-27.38-3.59-40.88-5.63-14.06-2.13-26.28-6.81-36.92-16.4-2.7-2.44-5.23-5.06-7.7-7.74-1-1.1-2.45-2.68-2.28-3.85.45-3.17.75-7.23,2.79-9.11,2.56-2.36,4.88.95,6.8,3.08,12.58,14,25.35,24.34,44.86,25.77,13.12,1,27.22-1.27,39.74-5.19,2.4-.75,5-.71,9.13-1.23C1536,804.28,1534.78,808.47,1533.14,812.48Zm547.32-405.27c-3.75,11.54-4.42,23.85-9.72,35.07-14.47,30.66-26.29,57.75-52.77,80.58-23.18,20-51.89,33.83-80.63,42.08-39.38,11.32-73.15,10.2-110.79-6.15-9-3.93-18.48-7-27.79-10.32a13.63,13.63,0,0,0-4.65-.57c-4.9,0-6.84,2.66-4.76,7a23.64,23.64,0,0,0,5.14,6.7c6,5.7,12.34,11.11,18.43,16.76,4,3.71,7.9,7.57,11.73,11.49,3.5,3.59,2.47,7.16-2.33,8.29a14.06,14.06,0,0,1-3.12.14c-12.71-.11-25.15,2-37.64,4.09s-25.25,3.4-37.82,5.42c-23.93,3.83-49.8,8.79-72.27,18.16-28.75,12-53,33.22-72.11,57.81s-33.46,52.55-46.31,80.93c-4.77,10.52-11.24,22.61-22.71,24,2.56-.32,5.44-37.59,5.58-41,.18-4.32.79-9.19-.45-13.41-.22-.75-4.55-7.32-4.67-6.39.71-5.7.71-5.7-4.27-8.45,5.39-6.45,10.8-12.74,16-19.21a30.06,30.06,0,0,0,4.28-7.35,4.61,4.61,0,0,0-.78-4.17,4.45,4.45,0,0,0-4.23-.29,79.4,79.4,0,0,0-10,8.25c-2.11,2.08-3.6,4.79-5.37,7.21l-1.43-1c2.89-4,5.81-8,8.67-12,4.21-5.92,8.51-11.79,12.44-17.89.74-1.14.59-3.92-.28-4.73s-3.52-1-4.85-.36c-2,1-3.6,2.92-5.41,4.48-1.93-1.06-4-3.11-6-3.05s-4.09,2-5.56,3.69c-5.37,6-10.48,12.31-15.69,18.49-1.34,1.6-2.45,3.51-4.09,4.7-.94.69-2.73.21-4.13.25.23-1.16.06-2.74.76-3.42a166.68,166.68,0,0,0,20.35-23.79c1.73-2.46,19.9-28.56,9-27.12-1.94.26-3.41,1.82-4.65,3.33-7.13,8.72-13,18.54-19.84,27.51-1.75,2.31-4.86,3.55-7.22,5.44-2,1.59-4.45,3.06-5.61,5.19a209.42,209.42,0,0,1-22.48,32.87c-2.87,3.48-5.67,7-2.6,11.93a4.13,4.13,0,0,1-.38,3.67c-6.19,8.87-10.67,19.31-23,24.58,4.5-10.66,8.2-20.48,12.75-29.9,5.09-10.51,10.63-20.84,16.55-30.91,4.6-7.83,10.11-15.12,15.19-22.66,5.53-8.18,11-16.39,16.55-24.56a45.89,45.89,0,0,1,4.61-6.3c6.18-6.38,9.28-14.35,12.09-22.49,4.14-12,8.8-23.94,12.22-36.19,4.19-15,7.78-30.22,10.79-45.5,2.91-14.82,5-29.81,7-44.79,1-7.46,1.28-15.05,1.54-22.59.58-17.21,1-34.42,1.44-52.72,4.51-.85,6.63-3.78,8.27-8.13,5.61-14.9,12-29.43,22.79-41.59,5.59-6.32,11.59-11.93,19.48-15.21a7.94,7.94,0,0,1,2.19-.64c.45-.05.93.33,2.37.92-3.91,4.92-7.12,10.24-11.53,14.22-8.77,7.92-14.48,17.81-19.2,28.22-5.37,11.84-9.88,24.09-14.36,36.31a51.5,51.5,0,0,0-2.53,13c-.91,10.3,6.41,16.24,16.14,13.13,3.38-1.08,6.93-1.46,8,2,1.21,3.8,3.36,5.4,6.65,6.77,1.45.61,2.5,2.36,3.55,3.73,1.26,1.65,2.05,3.76,3.56,5.09,1.16,1,3.48,1.95,4.62,1.44,1.29-.58,2.16-2.73,2.58-4.36.28-1.1-.39-2.55-.89-3.74-7.32-17.11-4.5-33.26,3.65-49.39,6.66-13.17,14.45-25.26,26-34.65a22.16,22.16,0,0,1,6.57-4.11c1.17-.4,3.62.73,4.33,1.88.56.9-.65,2.91-1.13,4.41-.06.19-.4.31-.63.43-17.18,8.85-23.6,24.84-29,42-3.39,10.73-4.93,21.52-3.54,32.34,1.87,14.59,6,28.64,19.26,37.68,9.28,6.31,19.83,7.23,30.61,7.11,2.07,0,4.31-.82,6.18-.26,4.06,1.22,7.65.44,11.4-1,1.46-.57,3.27-.25,4.93-.33.18.54.37,1.07.56,1.61-2.35,1.28-4.68,2.61-7.06,3.83-4.66,2.38-6.34,5-4.79,7.5s6.35,3.72,9.75,1.59c5.07-3.17,9.76-6.92,14.63-10.4,2.22-1.58,4.49-3.09,7.84-5.39,0,4.47,0,7.48,0,10.47-.07,3.17,1.11,5.71,4.48,4.26,4.56-2,7.12,1.16,10.93,3a47.79,47.79,0,0,0-4.33,3.49c-2.1,2.13-4,4.58-1.39,7.47,2.34,2.59,5,2.15,7.69.17,4.17-3.1,8.42-6.1,12.64-9.14,5.82-4.2,10.07-3.91,15,1,6.19,6.23,7.49,6.49,14.11,1a106.55,106.55,0,0,0,11-11.05c2.87-3.24,5.69-4.11,9.55-1.75,2.86,1.75,6,3.06,9.27,4.71-.54,3.39-1.45,6.43,2,9.2,6.33,5.12,8.5,5.16,14.36-.81,4.53-4.62,9.47-8.84,14.1-13.13,1.71,2,3,5.07,5,5.55,4.12,1,7.36-1.91,10.18-4.71,3.68-3.66,7.2-7.49,10.88-11.14a6.8,6.8,0,0,1,5-1.87l-4.27,7.31c-1.77,3.05-1.79,5.87.85,8.53,2.84,2.86,5.37,1,7.7-.56a71,71,0,0,0,6.49-5.27c2,2.12,4,5.8,6.78,6.61s6.3-1.32,9.94-2.28c-.11-.06.55.06.71.4,2.94,6.11,7,7.4,10.55,2.12,4.87-7.25,11.54-6.11,17.36-4.43,7.34,2.12,12,0,16.45-5.26,1.12-1.34,3-3.25,4.25-3.1,6.89.84,12.71-3,19.18-4,3.75-.57,7.69-3.12,10.49-5.86a131.84,131.84,0,0,1,15.68-12.6,40.36,40.36,0,0,1,20.58-7.5,5.13,5.13,0,0,0,3.42-1.64c3.38-4.67,7.69-7.29,13.56-7.41a5.49,5.49,0,0,0,3.43-1.66c10.63-11,23.85-18.27,36.61-26.29,11.25-7.08,18.33-17.42,21.85-30.22a4.05,4.05,0,0,1,.79-1.34c.13-.15.49-.11.74-.16C2080,406.47,2080.54,407,2080.46,407.21Z"></path><path class="cls-3" d="M1441.07,397.58c-3.44-2.83-5.67,1-8.34,2-1.37.53-2.34,2-3.59,3-3.54,2.64-7.15,5.18-10.69,7.82-7.91,5.9-16.1,11.47-23.59,17.87-5.49,4.68-10,10.47-15,15.74-4.29,4.54-8.93,8.79-12.89,13.59a326.17,326.17,0,0,0-38.68,59.52c-11.6,22.74-22.83,45.67-34.14,68.55a10.82,10.82,0,0,0-1.27,5.19c.08,1.21,1.49,2.34,2.52,3.82,1.75-1,3.36-1.53,4.25-2.62,2.65-3.21,5.74-6.33,7.34-10.06,15.52-36.31,31.94-75.63,57.64-106.06,7.05-8.35,14.47-16.36,21.42-24.79a159.7,159.7,0,0,1,34.13-30.57,224.19,224.19,0,0,0,18-13.61C1442.3,403.43,1443.29,399.42,1441.07,397.58Z"></path><path class="cls-3" d="M1368.29,420c13.06-12.06,27.67-22.2,41.57-33.11,2.55-2,10-6.21,9.81-10-.11-2.58-1.74-3.37-3.75-3.33a16.89,16.89,0,0,0-6,1.61c-8.85,4-14.23,12.91-21.94,18.38-14.69,10.42-28.06,22.31-40.91,34.88-12,11.73-21.92,25-31.3,38.86-12.57,18.56-24.81,37.29-34.87,57.36-4.88,9.74-9.75,19.5-14.38,29.36a25,25,0,0,0-2.41,8.92c-.19,3.29,2.61,4.53,5.33,2.69a8.22,8.22,0,0,0,2.64-2.77c18.4-34.82,35.61-70.28,59.43-101.9A306.77,306.77,0,0,1,1368.29,420Z"></path><path class="cls-3" d="M1277.24,512.66c12.34-21.48,25.32-42.49,41.61-61.36A439.42,439.42,0,0,1,1378,394.49c5.71-4.55,11.53-9,17.07-13.72,6.84-5.84-2.09-6.5-6.55-5.19-4.19,1.23-8.21,4.13-11.39,6.61-20.62,16.11-39.53,34.87-56.87,54.45-15.82,17.86-32,37-43.28,58.14-4.4,8.28-10.23,18.13-8.65,27.92C1273.51,522.44,1275.07,516.45,1277.24,512.66Z"></path><path class="cls-3" d="M943,1361.92c-2.14-.67-4.79-.39-6.52-1.55-3.66-2.47-6-1.33-8.85,1.37-7.42,7.1-10.23,16.77-14.48,25.61-.68,1.41,0,4.27,1.12,5.58a8.3,8.3,0,0,1,2,7.77c-.74,3.86,1.54,5.75,5.46,4.87a12.72,12.72,0,0,0,5.3-2.78,84.36,84.36,0,0,0,6.2-6.6l1.22,1a39.05,39.05,0,0,1-2,3.71c-1.47,2.13-3.12,4.15-4.62,6.27a52,52,0,0,0-4.68,7.12c-1.63,3.39-.27,6,3,7.72,4.71,2.46,8.13,1,11.7-5.36s7.11-12.7,10.54-19.11a82.85,82.85,0,0,0,3.94-8.5c3.54-9-1.48-16.65-4.08-24.6C947.77,1363.13,944.83,1362.51,943,1361.92Z"></path><path class="cls-3" d="M650.73,1398.9c-8-3.43-9.4-5.68-8.78-14,.36-4.7-1.32-6.61-5.79-5.61a12,12,0,0,0-6.41,3.83,76.07,76.07,0,0,0-8.06,12.39c-3.48,6.7-6.38,13.69-9.66,20.49-2.57,5.33-2.77,6.08,1.65,10,3.4,3,4.33,6.26,2.83,10.43a17,17,0,0,0-.81,3.82c-.61,5.15,1.84,7.24,6.86,5.76,3-.88,5.8-2.38,8.81-3,7.4-1.5,8.65-2.77,10.31-9.48a68.5,68.5,0,0,1,4.51-12.28c2.08-4.48,4.85-8.63,7-13.07C655.25,1403.92,654.14,1400.36,650.73,1398.9Z"></path><path class="cls-3" d="M785.6,1173.37c-6.67,2.89-13.34,5.8-20,8.84-7.56,3.48-8.32,8-2.09,15-2.1,3.49-5,6.81-1.57,10.73,3.3,3.73,7.43,3,11.57,1.81,1.49-.44,3-1,4.45-1.44a43.59,43.59,0,0,1,4.49-1.18c8-1.45,12.14-5,13.27-13,.7-5-.07-10.2-.45-15.29C794.88,1172.87,791.3,1170.9,785.6,1173.37Z"></path><path class="cls-3" d="M1024.83,1190.33c4.43,3.34,3.11,6.13,1,9.88-2.41,4.35-1.81,7.29,2.46,8.92s6.81,4.39,9,7.95c2,3.12,4.71,3.18,7.38,1.27,1.84-1.31,3.85-3,4.73-4.95,3.32-7.48,5.51-15.25,12.93-20.55,4.36-3.12,3.35-6.24-.25-11.34-1.08-1.52-1.36-3.7-1.75-5.62-1.13-5.6-9.85-13.78-16.77-14.27-1.53.78-5,1.52-6.8,3.67a121.69,121.69,0,0,0-12,17.19C1023.63,1184.54,1023.51,1189.34,1024.83,1190.33Z"></path><path class="cls-3" d="M1211.13,1349.39c-2.67-.63-4.93-.47-5.2-4.25-.09-1.34-2.54-3-4.24-3.61a23.69,23.69,0,0,0-9.64-1.17,22.9,22.9,0,0,0-12.8,5.46c-6.13,5.16-16.48,16.11-7.35,22.92,1,.75,2.65,1.43,2.79,2.33.69,4.57,4.61,6.09,7.54,8.51,5.68,4.67,9.28,5,14.32.2,6.38-6.09,12.48-12.58,18.27-19.25C1218.92,1355.79,1217.17,1350.82,1211.13,1349.39Z"></path><path class="cls-3" d="M1417,1364.17c.1-3.25-.86-6.2-4.06-6.51a11.69,11.69,0,0,0-7.68,2.37c-3.61,2.86-6.4,6.74-9.82,9.87s-3.89,6.68-2.6,10.61c1.45,4.43,5.7,3.68,9.44,4.47a25.45,25.45,0,0,0,15.51-7.44c2.81-2.7,4.5-5.75.69-9.27A5.93,5.93,0,0,1,1417,1364.17Z"></path><path class="cls-3" d="M1458.44,1338.4c-2.6,3.2-5.79,5.9-8.66,8.87-3,3.17-6.31,6.19-8.93,9.69-2.23,3-1,5.17,3.89,5.43,2-1.05,5.16-2.67,8.27-4.41a30.16,30.16,0,0,0,13-15.07c.79-1.84,0-5.54-1.4-6.86C1462.17,1333.82,1460.24,1336.17,1458.44,1338.4Z"></path><path class="cls-3" d="M1443.45,1413.77c3.08-.09,6.78-3.59,6.85-6.49.08-3.4-5.16-9.25-8.29-9.27-3.39,0-5.65,2.82-5.61,7C1436.46,1409.79,1439.75,1413.88,1443.45,1413.77Z"></path><path class="cls-3" d="M1307,1166.8c-1.43-5.62-8.16-9.23-12.75-6.38-7.62,4.73-12.66,11.52-13.09,20.82-.33,6.94,7.11,11.86,13.46,9.21,6-2.52,12.72-12.55,12.67-20.17A14.89,14.89,0,0,0,1307,1166.8Z"></path><path class="cls-3" d="M1097.34,1509.82c-7.49,0-17.32,7.92-17.74,13.37-.17,2.21,1,5.78,2.7,6.62,3,1.54,7,2.5,10.28,1.86,3.91-.79,7.61-3.22,11.08-5.44,4.27-2.72,5.4-7.34,2.23-10.57C1103.13,1512.85,1099.28,1511.1,1097.34,1509.82Z"></path><path class="cls-3" d="M1480,1042.3c-3.5-1-6.24.84-7.78,3.75a207.22,207.22,0,0,0-9.4,19.46c-1.69,4.19.6,9.23,4.06,11.58,3.29,2.23,8.66,1.92,12.29-1.42,4.72-4.34,6.5-10.37,7.62-16.36a80.79,80.79,0,0,0-.07-9.21A8.86,8.86,0,0,0,1480,1042.3Z"></path></svg> 