<svg xmlns="http://www.w3.org/2000/svg" viewBox="0 0 201 118.39"><defs><style>.cls-1{isolation:isolate;}.cls-2{opacity:0.75;mix-blend-mode:multiply;}.cls-3{fill:#10487a;}.cls-4{fill:#fff;}</style></defs><title>Asset 3</title><g class="cls-1"><g id="Layer_2" data-name="Layer 2"><g id="Layer_2-2" data-name="Layer 2"><g class="cls-2"><path class="cls-3" d="M189.5,118.39H15.5A11.5,11.5,0,0,1,4,106.89v-72a11.5,11.5,0,0,1,11.5-11.5H152.67C155.1,16.58,161.91,3.81,178.81,4c0,0-11,10.44-8.52,19.39H189.5A11.5,11.5,0,0,1,201,34.89v72A11.5,11.5,0,0,1,189.5,118.39Z"/></g><path class="cls-4" d="M185.5,114.39H11.5A11.5,11.5,0,0,1,0,102.89v-72a11.5,11.5,0,0,1,11.5-11.5H148.67C151.1,12.58,157.91-.19,174.81,0c0,0-11,10.44-8.52,19.39H185.5A11.5,11.5,0,0,1,197,30.89v72A11.5,11.5,0,0,1,185.5,114.39Z"/></g></g></g></svg>