<svg xmlns="http://www.w3.org/2000/svg" viewBox="0 0 201 118.39"><defs><style>.cls-1{isolation:isolate;}.cls-2{opacity:0.75;mix-blend-mode:multiply;}.cls-3{fill:#10487a;}.cls-4{fill:#fff;}</style></defs><title>Asset 5</title><g class="cls-1"><g id="Layer_2" data-name="Layer 2"><g id="Layer_2-2" data-name="Layer 2"><g class="cls-2"><path class="cls-3" d="M189.5,4H15.5A11.5,11.5,0,0,0,4,15.5v72A11.5,11.5,0,0,0,15.5,99H152.67c2.43,6.81,9.24,19.58,26.14,19.38,0,0-11-10.44-8.52-19.38H189.5A11.5,11.5,0,0,0,201,87.5v-72A11.5,11.5,0,0,0,189.5,4Z"/></g><path class="cls-4" d="M185.5,0H11.5A11.5,11.5,0,0,0,0,11.5v72A11.5,11.5,0,0,0,11.5,95H148.67c2.43,6.81,9.24,19.58,26.14,19.38,0,0-11-10.44-8.52-19.38H185.5A11.5,11.5,0,0,0,197,83.5v-72A11.5,11.5,0,0,0,185.5,0Z"/></g></g></g></svg>