<svg xmlns="http://www.w3.org/2000/svg" viewBox="0 0 201 118.39"><defs><style>.cls-1{isolation:isolate;}.cls-2{opacity:0.75;mix-blend-mode:multiply;}.cls-3{fill:#10487a;}.cls-4{fill:#fff;}</style></defs><title>Asset 4</title><g class="cls-1"><g id="Layer_2" data-name="Layer 2"><g id="Layer_2-2" data-name="Layer 2"><g class="cls-2"><path class="cls-3" d="M15.5,118.39h174a11.5,11.5,0,0,0,11.5-11.5v-72a11.5,11.5,0,0,0-11.5-11.5H52.33C49.9,16.58,43.09,3.81,26.19,4c0,0,11,10.44,8.52,19.39H15.5A11.5,11.5,0,0,0,4,34.89v72A11.5,11.5,0,0,0,15.5,118.39Z"/></g><path class="cls-4" d="M11.5,114.39h174a11.5,11.5,0,0,0,11.5-11.5v-72a11.5,11.5,0,0,0-11.5-11.5H48.33C45.9,12.58,39.09-.19,22.19,0c0,0,11,10.44,8.52,19.39H11.5A11.5,11.5,0,0,0,0,30.89v72A11.5,11.5,0,0,0,11.5,114.39Z"/></g></g></g></svg>