<?xml version="1.0" encoding="UTF-8"?> <svg xmlns="http://www.w3.org/2000/svg" id="Snorkfröken_5_Image" data-name="Snorkfröken 5 Image" viewBox="0 0 2400 2400"><defs><style>.cls-1{fill:#fff;}.cls-2{fill:#fef065;}.cls-3{fill:#0e5256;}</style></defs><title>ghost</title><path class="cls-1" d="M1101.87,619.34a33.69,33.69,0,0,0,.52,8.5c.36,2,2.49,2.63,4.14,1.48A6.18,6.18,0,0,0,1108,628c7.77-10.16,17.13-12.82,20.21-26.84,3.23-14.73,9.24-31.1-.23-44.72a29.63,29.63,0,0,1-5.33-21.22,46.48,46.48,0,0,0,0-5.28h.13c.11-2,.23-4,.34-5.93s.34-4,.3-5.94c-.13-6.08-2.7-8-8.47-6.08-8.61,2.85-19.21,4.55-24.31,12.86s-3.18,16.73,3.35,23.27a26,26,0,0,1,7.22,13.84,90.87,90.87,0,0,0,2.41,9.59,39.08,39.08,0,0,1,1.4,16.31C1103.82,598.33,1102.78,608.83,1101.87,619.34Z"></path><path class="cls-1" d="M1194.49,426.61a79.17,79.17,0,0,1-11,12.23,30.63,30.63,0,0,0-8.7,13.75c-4.35,13,12.13,10.06,16.49,19.6,1.82,4,2.07,8.48,2.22,12.85,1,31.52-1.92,69.62-25,93.5-3,3.07-4.79,7.3-6.92,11.11-1.49,2.67-2.47,5.62-3.94,8.3-3.51,6.4-6.71,12.72-4.86,20.19,1.34,5.38,4.34,10.17,7.08,15a179.21,179.21,0,0,1,20.17,55c3.2,16.73,8,41.34-1.65,56.63a36.13,36.13,0,0,0-5.39,20.82,45.31,45.31,0,0,1-.66,7.23,59.29,59.29,0,0,0,.81,19.07,20.72,20.72,0,0,0,7.08,12.31c17.18,14.92,23.19,48.29,20.08,69.82-1.67,11.64-6.39,22.64-12.06,32.94-5.17,9.39-15,18.76-18.27,28.7-4.51,13.54-2.73,37.67,6.51,48.84,5.1,6.15,11.56,11.21,15.76,18,3.37,5.45,5.1,11.73,6.78,17.92,3.64,13.33,7.3,26.8,7.86,40.6.49,12.15-1.57,24.83-7.88,35.39-6.41,10.73-12,18.91-12.64,32-.13,2.63-.53,5.26-.67,7.9-.27,5,.83,6.83,5.31,8.71,22.42,9.38,41.31,21,52.39,43.77a82.62,82.62,0,0,1,7.89,43.44c-.89,9.74-5.68,27.59,9.62,29.64,8.19,1.1,14.36-6.82,19.44-13.34,14.33-18.38,35.61-32.56,58.9-33.35,3.82-.13,8,0,11-2.48,5-4.22,2.76-12.2.82-18.48a79.38,79.38,0,0,1,2.13-52.33c2.63-6.57,6.23-13.48,4.53-20.35l-77.3,75c-2,2-4.14,4-6.84,4.7s-6.11-.31-7-3c-.76-2.22.44-4.6,1.67-6.6,10.7-17.25,26.84-29.86,42-42.9,16-13.71,28.51-31,45-43.92,3-2.32,5.67-3.09,8.9-.53,2.94,2.33,5.85,1.5,8.33-.88,11.24-10.8,29.45-19.75,28-37.64a11.07,11.07,0,0,0-3.89-8.09c-2.88-2.4-5.68-4.89-8.61-7.23a20.35,20.35,0,0,1-6.37-8.28c-3.56-8.72-5.39-15.49-4.49-25.14,2.38-25.51,8.75-55.23,24.14-76.26a32.46,32.46,0,0,0,6.07-16.43c2.07-19.38,6.3-38.15,15.82-55.49,5.32-9.71,6.22-19.71-1.17-29.14a6.49,6.49,0,0,1-.36-.55,27.38,27.38,0,0,1-4.89-12.63c-.61-4.55-3.88-10.33-9.28-9.27a18,18,0,0,0-5,1.6c-28.91,15.59-58.68,26.68-89.62,38.17-14.52,5.4-20.19,18.07-25.58,32-3.72,9.63-8.44,18.89-13.1,28.12-1.1,2.16-3.48,4-5.68,5.22-2.68,1.51-5.31-.09-6-3.09a8.28,8.28,0,0,1-.18-2.62c2.66-23.21,17.7-45.37,27.9-65.89q18.36-36.94,36.38-74c37.11-76.42,79.35-152.37,105.15-233.27,12.49-39.15,21.54-79.68,22.76-120.88.58-19.45-5-38.56-13.77-55.95-15.49-30.81-48.64-51.2-83-49.85-.92,0-1.84.09-2.75.15A160.87,160.87,0,0,0,1305,328.35c-27.34,11.07-53.46,25-79.49,38.69-4.4,2.3-7,5.9-6.75,11.19.27,4.85-1.61,9.09-4.1,13-2.22,3.54-4.65,7-7.19,10.29a47.63,47.63,0,0,0-7.31,14A40.61,40.61,0,0,1,1194.49,426.61Zm95.11,298.68c-5.34,9.9-15.76,18.72-26.58,22-5.37,1.63-11.45,1.6-16.34-1.17-5.29-3-8.52-8.81-9.79-14.76a55.09,55.09,0,0,1-1.14-9.38c-.2-6,.61-12.26,3.48-16.55,2.34-3.49,6.47-3.45,8.6.21a16.06,16.06,0,0,1,1.74,6.25c.52,5.1-.9,10.5.4,15.44,1,3.64,3.9,7,7.65,7.27a11.27,11.27,0,0,0,5.17-1.2c9.42-4.17,12-11.45,17.87-18.82,1.6-2,3.79-3.12,6.43-2.19a6,6,0,0,1,4.34,6A16,16,0,0,1,1289.6,725.29Zm4.9-48.3a202.58,202.58,0,0,1-53.3-25c-7-4.6-12-9.95-12.42-18.58-.06-1.09-.09-2.2-.06-3.3.13-6.38,1.9-12.7,8.5-15.33,5-2,10.48-1.57,15.82-1.64,9.86-.12,19.9-2.06,28.37-7.12a36.4,36.4,0,0,0,12.93-12.87c3.28-5.73,2.52-13.27,7.56-17.82,2.71-2.44,5.78-4.56,9.51-2.78s4.37,5.42,3.8,9.09c-1.65,10.52-4.44,20.76-6.27,31.22-1,6-1.14,12.37,1.47,17.86,2.07,4.35,5.67,7.77,8.44,11.72C1333.24,663,1318.2,684.12,1294.5,677Zm73-168.16c10.27-3.11,22-2.48,31,3.44,10.88,7.22,15.8,20.7,17.78,33.61,4.8,31.41-15.9,54.87-43.06,67.69-14.26,6.73-35.45,9-45-6.58-3.17-5.16-4.3-11.28-5.37-17.24A101.21,101.21,0,0,1,1321,571c.12-14.63,4.45-27.83,15.89-40.05C1345.91,521.32,1354.31,512.82,1367.49,508.83Zm-134.16-7.35c5-8,11.48-16.35,18.78-22.4,6.27-5.2,13.74-8.77,21.3-11.79,5.68-2.27,11.56-4.29,17.66-4.67,8.81-.53,17.29,3.41,23.31,9.75,9.11,9.59,11.09,21.93,11.08,34.73,0,.69,0,1.38,0,2.08-.13,11-1.33,22.14-5.62,32.25-8.63,20.37-31,36.14-53.17,36.94a56.47,56.47,0,0,1-19.47-3.08c-7.34-2.4-11.79-7.5-14.8-14.13a78.11,78.11,0,0,1-6.92-27.42A54.07,54.07,0,0,1,1233.33,501.48Z"></path><path class="cls-1" d="M1324.53,1253.74c-8-10.51-24.8,7.3-29.58,14.24a35.13,35.13,0,0,0-6,18.69,96.74,96.74,0,0,0,.79,15.72c1.7,15.58,27.07-5.53,30.86-10,5.65-6.74,25-21.59,14-29.15A43.06,43.06,0,0,1,1324.53,1253.74Z"></path><path class="cls-2" d="M1290.1,621.55c-5.4-6.72-31.82,6.64-39.37,8-6.41,1.12-3.06,7,.44,9.38a232.75,232.75,0,0,0,34.68,19.32c6.65,3,23.94,11,24.22-2.36.19-8.85-14.36-20.05-17.53-29A17.37,17.37,0,0,0,1290.1,621.55Z"></path><path class="cls-1" d="M1250.61,561.06c3.42,2.45,13.21,6.93,9.11,1.8-3.12-3.91-10.17-38.16,15.69-45.31,8.14-2.25,13.53-.55,17.72,3.91,6.83,7.28,4.78,18.69,1.85,25.44-1.2,2.77-.53,3.93,1.71,2,13.55-11.53,18.42-38.31,12.87-54.71-2.41-7.12-8.27-16.2-15.94-18.22-4.7-1.23-9.66.31-14.09,2.28-20.58,9.11-36.72,27.32-38.22,50.41a53.51,53.51,0,0,0,5.34,27A13.59,13.59,0,0,0,1250.61,561.06Z"></path><path class="cls-1" d="M1176.75,1213.74c3.3,8.37,8.72,15.72,14.56,22.56,3.2,3.74,11,13,15.62,6.64a14.21,14.21,0,0,0,1.6-2.88c2.17-5.3,5.57-9.45,10.89-11.87,4-1.81,5.2-5.12,5-9.21a16.58,16.58,0,0,0-3.65-9.74,53.25,53.25,0,0,1-4.1-5.18c-6.06-9.77-14.7-16.87-24-23.33-6.28-4.37-10.62-3.8-15.25,2.27-3.53,4.63-4.39,11.06-3.84,17.37A48.73,48.73,0,0,0,1176.75,1213.74Z"></path><path class="cls-1" d="M1143.61,847.94a71,71,0,0,0-10.42,21.22,33,33,0,0,0,.89,22c1.64,4.23,3.5,5.75,7.93,5.44a53.66,53.66,0,0,1,17,1.51c4.14,1,7.33-.69,9.54-4.19a28.74,28.74,0,0,0,2.33-4.72,71.74,71.74,0,0,0,5.39-26.46c-.67-5-.87-10.1-2.12-14.94-1.8-7-5.26-8.73-12.3-7.29a80.88,80.88,0,0,1-8.43,1.5C1149.14,842.44,1146.1,844.54,1143.61,847.94Z"></path><path class="cls-1" d="M1131.1,735.15a8,8,0,0,0,1.3,1.49c3.06,2.94,5.81,3.13,8.42-.15a26.59,26.59,0,0,1,10.44-7.82c5.3-2.35,7.57-6.42,7.3-12.08,0-1.1,0-2.2,0-3.3l.19,0c-.29-3.06-.27-6.2-1-9.17-2.29-10.06-4.68-20.1-7.36-30.06a24.51,24.51,0,0,0-4.16-8.13c-5.37-7.15-21.07,2.52-25.45,7.3-6.68,7.3-8.06,18.27-6,27.95C1117.48,713.26,1124.54,724.78,1131.1,735.15Z"></path><path class="cls-1" d="M1181.2,1056.64c-.48-2.8-.57-5.74-1.49-8.39-2.75-7.87-5.59-15.73-8.83-23.41-2.46-5.81-7.71-8.92-13.31-11.11-7.43-2.9-9.33,5.6-10.41,10.92-3,14.58,1.48,29.89,9.18,42.61C1164.71,1081.1,1180.9,1069.52,1181.2,1056.64Z"></path><path class="cls-1" d="M1149,540.49c3.49,18.17,13.89,7,16.86-6a144.6,144.6,0,0,0,3.56-27.72c0-1,.06-2.07.06-3.11,0-4.7-.15-9.48-1.6-13.95-1.71-5.28-5.79-11.75-12.08-10.9-5.09.69-8,4.2-10.28,8.41-3.8,6.9,2.18,17.17,2.3,24.66C1148,521.43,1147.2,531.09,1149,540.49Z"></path><path class="cls-1" d="M1346.57,602.84c.65-.19,1.16-1.74,1.26-2.73s-8.81-18.09,9.05-35.87c5.18-5.16,12.36-6.62,18.49-2.65,13.88,9,2.94,29.16,3.5,30,1,1.58,2.8,1,4.15.2a22.28,22.28,0,0,0,4.26-3.07c9.11-8.52,16.9-17.07,17-30.29,0-.77,0-1.53,0-2.29-.78-15.9-9.25-37.29-28.57-34.46-8.78,1.29-16.32,6.92-22.53,13.26-8.22,8.41-14.91,18.61-17.67,30a44.88,44.88,0,0,0,.43,23.15C1337,591.93,1340.8,604.49,1346.57,602.84Z"></path><path class="cls-1" d="M1532.23,1216.22c-4.32,1.8-6.87,6.32-8.18,10.82-3.53,12.15-.2,25.13,3.13,37.34.67,2.46,1.38,5,3,7,11.65,14.33,20.33-12.31,21.23-19.75a75.52,75.52,0,0,0,.73-9.25,30.09,30.09,0,0,0-.36-4.54C1550.53,1230.26,1542.53,1211.94,1532.23,1216.22Z"></path><path class="cls-1" d="M1412.37,1141.88c0-4.91-2.34-8.35-6.7-10.45-4.53-2.18-9.05-4.4-13.64-6.45-3.32-1.49-6.39-1.07-8.26,1.78-4.07,6.22-8.51,12.38-10.4,19.69a106.75,106.75,0,0,0-2.73,16.21,20.36,20.36,0,0,0,1.1,8.32c1.07,3.14,3.58,3.71,6.33,2a32.54,32.54,0,0,0,3.08-2.46c4-3.32,8.34-3.54,12.88-1.19,1.17.6,2.23,1.42,3.43,2,4.1,1.83,7.36.82,9.26-3.33,3.12-6.79,6-13.71,5.65-21.5Z"></path><path class="cls-1" d="M1553.37,1048.56a6,6,0,0,0-7.39-.25c-2.14,1.56-1.47,3.91-1,6.08a9.11,9.11,0,0,0,.33,1.27c2.47,6.79,4.87,13.61,7.48,20.35a18.49,18.49,0,0,0,3.14,5,2.17,2.17,0,0,0,4-1c.56-3,.66-6.08,1-9.12,0-5.8-.69-11.46-3.16-16.71A15.42,15.42,0,0,0,1553.37,1048.56Z"></path><path class="cls-1" d="M1552.58,1102.46a22,22,0,0,0-2.58-6.06,166.38,166.38,0,0,1-13.73-26.34,17.48,17.48,0,0,0-2.81-4.43,2.45,2.45,0,0,0-4,.17,11.33,11.33,0,0,0-2.1,4.06c-2.23,10.37-3.77,20.87-3.39,31.51.11,2.84.46,6,2.53,7.88a10.08,10.08,0,0,0,5.34,2.16,47.25,47.25,0,0,0,6.59.59C1545.8,1112.16,1554.83,1110.6,1552.58,1102.46Z"></path><path class="cls-1" d="M1536,863.2c4-3.29,2.25-15.38,1.72-14.76-9,10.42-19.08,30.56-19.6,32.14C1516.62,885,1531,867.27,1536,863.2Z"></path><path class="cls-1" d="M1503.83,912c0-.39-.32-1.08-.54-1.1a3.61,3.61,0,0,0-1.76.35,2.71,2.71,0,0,0-.9.94q-8.27,11.53-16.51,23.09a8.44,8.44,0,0,0-.68,9.34c.69,1.37,1.59,2.64,2.26,4,2.61,5.32,5.21,10.64,7.72,16,2.7,5.78,5.25,11.62,7.95,17.4,3.55,7.56,7.2,15.08,10.77,22.63,2.16,4.57,4.07,9.28,6.42,13.75,2.27,4.31,5.72,4.65,8.86.95a14.16,14.16,0,0,0,2.64-5.22,42.52,42.52,0,0,0,1.29-7.79c.88-9.86,1.62-19.73,2.45-29.59.57-6.74-1.24-9.26-6.73-11.15a20.2,20.2,0,0,1-9.55-6.81c-2.56-3.3-5.27-6.49-7.7-9.87a37.06,37.06,0,0,1-3.51-6.31c-2.89-6.41-3.23-13.19-2.45-20.45C1503.86,919.07,1503.88,915.55,1503.83,912Z"></path><path class="cls-1" d="M1468.37,884.75a37.73,37.73,0,0,1-5-3.22c-3.41-2.42-6.74-5-10.2-7.31-3-2.06-4.64-2-6.77.9a33.83,33.83,0,0,0-4.61,8.63c-2,5.6-3.45,11.37-5.07,17.08-1.2,4.24-2.48,8.47-3.4,12.77-1.36,6.36-.46,8.21,5.42,11a71.15,71.15,0,0,1,14.1,8.48c5.52,4.34,11.23,3.27,15.44-2.41,1.57-2.12,2.8-4.52,4.52-6.5,11.8-13.53,21-28.83,29.83-44.32,6.13-10.69,11.86-21.62,17.6-32.54,3.69-7,7.38-14,10.51-21.31a144.57,144.57,0,0,0,5.62-16.88c1.48-5.05,2.31-10.3,4-15.29a71.56,71.56,0,0,0,3.59-29.46,41.18,41.18,0,0,0-8.17-20.74c-4.89-6.49-9.51-9.44-17.8-8.57-1.59.16-7.33.91-6.54,3.29.44,1.3,13.87,18.81,14.33,42.15a67.28,67.28,0,0,1-.78,10.42,11.21,11.21,0,0,1-.71,2.53,1.81,1.81,0,0,1-3.17.68,7.41,7.41,0,0,1-1.45-2.18c-1.83-4.94-3.67-9.89-5.34-14.89-1.81-5.43-3-11.1-5.25-16.34-4.74-11.15-16.41-14.1-26.34-7-2.72,1.94-3.58,3.88-2.17,6.8a171.33,171.33,0,0,0,8.88,16.93c4.55,7.27,9.72,14.15,14.56,21.23a31.49,31.49,0,0,1,5.45,15.4c.27,3.31-1.75,4.91-5,4.33a12.18,12.18,0,0,1-7.65-4.81c-3.78-4.87-7.65-9.67-11.27-14.66-5.42-7.49-10.65-15.11-16-22.66a43.68,43.68,0,0,0-3.21-4.18,4.28,4.28,0,0,0-4.82-1.23c-6.68,2.2-10.49,10.27-7.33,16.61,2.13,4.29,5.07,8.19,7.79,12.17,1.37,2,3.21,3.65,4.55,5.65,8.18,12.27,16.24,24.61,24.42,36.87a17.61,17.61,0,0,1,3.22,9.89,13.18,13.18,0,0,1-.52,3.91c-1.35,4.29-5.19,5.66-8.8,3a17.25,17.25,0,0,1-4.11-4.24q-7.48-11.28-14.7-22.73c-3.74-6-7.22-12.1-10.88-18.12a19.08,19.08,0,0,0-11.79-9c-7-1.77-12.09,3.2-9.84,10.07a40,40,0,0,0,6,10.9c9.62,13.14,19.48,26.09,29.26,39.1,1.46,1.94,3.2,3.72,4.31,5.84,1.41,2.68,2.89,5.55,3.31,8.48C1477.09,884.46,1473.09,887.07,1468.37,884.75Z"></path><path class="cls-1" d="M1408.85,983.08a169.9,169.9,0,0,1-5.07,16.32c-1.28,3.84-1.92,7.66-.87,11.65,1.46,5.57,4.5,8.13,10.23,8.65,13.78,1.24,17.77,1.93,20.74-12.89,1.58-7.85,4.48-15.4,5.85-23.29a48.9,48.9,0,0,0,.67-5.93c.28-6.1-.74-12.25-4.09-17.27-1-1.49-2.35-3-4.13-3.23a6.61,6.61,0,0,0-3.35.56C1418.88,961.41,1411.12,973,1408.85,983.08Z"></path><path class="cls-1" d="M1457,757a12.74,12.74,0,0,0,2.85-3.55c2.25-4.2,5.63-7.2,9.48-9.9,5-3.53,9.89-7.36,14.76-11.13,4.3-3.34,6.21-7.87,6.26-13.24.07-7.65-4.48-7.11-11.67-4.3-6.18,2.4-10.06,3.09-13.33,9.15-4.52,8.38-9.51,25.25-9.55,27C1455.72,752.93,1455.47,758.22,1457,757Z"></path><path class="cls-1" d="M1531.25,929.78c.34,3.42.75,7,2.81,9.78,4.4,5.9,17.83,2,20.93-3.67,4.41-8.12,9.52-16,8.19-25.35.25-6.42-.32-12.11-2.65-17.48-4.19-9.67-16.79-8.78-23.36-2.06C1528,900.41,1530.07,918,1531.25,929.78Z"></path><path class="cls-1" d="M1374.22,1758.1a3,3,0,0,0-4.67.36,28.39,28.39,0,0,0-3.85,6.08c-2.45,5.47-.65,10,4.82,12.4,3.41,1.51,6.9,2.85,10.39,4.18a25.8,25.8,0,0,0,3.45.84,13.46,13.46,0,0,0,10.58-5.31c2.6-3.26,2.1-5.14-1.57-7.23C1386.93,1765.76,1379.44,1763.92,1374.22,1758.1Z"></path><path class="cls-1" d="M919,1094.94a71.65,71.65,0,0,0-7.89,0c-4.16,0-8.33-.13-12.48.1-4.8.27-9.61.67-14.36,1.39-4,.6-6.65,3.09-7.74,7.15a42.28,42.28,0,0,1-8.25,16.36,12.4,12.4,0,0,0-1.72,2.8c-1.56,3.49-.55,6.13,3.16,7.16a83.46,83.46,0,0,0,8.89,1.65,63.77,63.77,0,0,0,20.25-3.41c10.17-3.29,19.42-8.15,26.78-16.12a27.4,27.4,0,0,0,3-3.51c3.27-5,2.11-9.3-3.32-11.88A19.75,19.75,0,0,0,919,1094.94Z"></path><path class="cls-1" d="M1465.18,1636c2.43-5.12,5.36-10.29,6.34-15.76,1.42-7.94,1.31-16.16,1.85-24.27h-.31c0-2.64.14-5.28,0-7.9a17.5,17.5,0,0,0-3.73-9.71c-2-2.6-4.16-2.74-5.71.1-3,5.54-8,8.62-13.16,11.58-1.14.65-2.29,1.31-3.39,2a10.53,10.53,0,0,0-5,7.42c-1.25,8.45-2.42,16.92-3.36,25.41a21.05,21.05,0,0,0,.78,6.5,5.81,5.81,0,0,0,4.21,4.69c4.88,1.21,9.81,2.33,14.78,3.1A6.16,6.16,0,0,0,1465.18,1636Z"></path><path class="cls-1" d="M755.62,1156.29c5-6.15,9.83-12.44,14.52-18.81,1.39-1.9,2.14-4.27,3.31-6.69-1.06-2.28-1.76-4.65-3.13-6.54a55.94,55.94,0,0,1-8.26-16.46,14.29,14.29,0,0,0-1.28-3c-2.48-4.36-6.56-5.54-10.53-2.6a33.12,33.12,0,0,0-7.48,7.37c-6.4,9.21-12.75,18.48-18.51,28.09-2.9,4.84-4.61,10.43-6.6,15.78-.68,1.8-.94,4.1,1.12,5.39,1.88,1.16,3.28-.42,4.71-1.4a44.16,44.16,0,0,1,4.91-3.33c4.9-2.49,8-1.75,11.58,2.5.42.51.74,1.1,1.17,1.61,2.89,3.39,5.35,4.07,9.27,2.07A16,16,0,0,0,755.62,1156.29Z"></path><path class="cls-1" d="M1472.25,1347.3c-4.22-2.53-8-5.35-9.84-10.26-1.13-3.08-3.78-4.35-6.88-4a20,20,0,0,0-6.94,1.82c-4.69,2.41-9.27,5.09-13.7,8-4.91,3.17-14.69,10.85-10.81,17.48l5,8.46c1.49,2.53,3,5.13,5.34,6.94a10.2,10.2,0,0,0,6.91,1.9,24,24,0,0,0,8.32-2.1,104.38,104.38,0,0,0,15.19-7.94,85.37,85.37,0,0,0,11.59-9.78c2.94-2.79,2.71-5.25-.31-7.85A27.86,27.86,0,0,0,1472.25,1347.3Z"></path><path class="cls-1" d="M1348.77,1452c3.15-7.76,2.54-14.61-4.83-19.83-1.07-.76-1.9-1.93-3-2.51-2.31-1.19-4.76-2.11-7.4-3.25-2.35.85-4.84,1.24-6.76,2.51-11.82,7.83-18.74,19.43-24.14,32.13a4.54,4.54,0,0,0-.18.63c-1.52,5.93-.35,9.07,4.92,12.17,3.4,2,6.94,3.81,10.5,5.51,6.33,3,9.21,2.72,14.18-2.3A76.29,76.29,0,0,0,1348.77,1452Z"></path><path class="cls-1" d="M724.89,1289.75c-1.7,10.26-1,20.11,4.27,29.35,1.2,2.09,2.05,4.37,3.14,6.53a22.37,22.37,0,0,0,2.33,4c2.19,2.72,4.81,2.82,7.32.3a40.29,40.29,0,0,0,2.81-3.63c4.19-5.27,7.49-5.79,12.92-2,.9.62,1.69,1.42,2.63,2,2.89,1.7,5.27.9,6-2.39a78.51,78.51,0,0,0,1-9.12c-.07-5.79-.61-11.45-3-16.79-2.15-4.81-4.29-9.62-6.58-14.36-2.67-5.57-6.51-7-12.47-5.07-4.57,1.48-9.17,3-13.83,4.11C727.55,1283.55,725.54,1285.79,724.89,1289.75Z"></path><path class="cls-1" d="M1323.57,1578.31c-2.13.47-4.36.48-6.54.75-2,.25-4,.74-4.72,3-.81,2.58.8,4.37,2.73,5.42a24.07,24.07,0,0,0,7.88,3.07c6.94,1,14,1.37,20.94,2a71.11,71.11,0,0,0,21.63-1.86c6.41-1.66,8.09-4.37,6.09-10.61-1.83-5.69-2.32-10.83.82-16.41,2.44-4.32,0-9.49-4.72-11.35a27.72,27.72,0,0,0-7.06-1.4c-6.09-.71-12.32.07-18.29-1.86a5.62,5.62,0,0,0-2-.14c-4.23.18-6.44,2.65-6,6.86.15,1.52.65,3,.94,4.51C1337.1,1569.72,1332.92,1576.23,1323.57,1578.31Z"></path><path class="cls-1" d="M1408.67,1756.51c1.67-1.55,1.7-3.47.94-5.46-1-2.66-3.29-4-5.62-5.27-4.43-2.44-8.86-4.84-11.16-9.79-.48-1-1.85-1.66-2.59-2.28a7.25,7.25,0,0,0-1.72.29,11.08,11.08,0,0,0-5.61,7.72c-.7,3,.9,5.27,3.31,6.59,5.76,3.15,11.65,6.06,17.54,9A4.21,4.21,0,0,0,1408.67,1756.51Z"></path><path class="cls-1" d="M1064.33,642.21c4,4,5.63,3.45,8.18-1.64a27.58,27.58,0,0,0,1.76-4.25c1.9-6.31,4.14-12.56,5.45-19a173.49,173.49,0,0,0,2.72-20.86c1.18-14.41-8.32-16.58-20.14-20.17a10.22,10.22,0,0,0-4.46-.61c-7,1.14-11.77,16.85-13.75,22.27a90.49,90.49,0,0,0-5,41.94,18.83,18.83,0,0,0,.87,3.85c1.36,3.9,3.76,4.65,7,2.16,1.56-1.2,2.93-2.66,4.42-3.95C1056,638,1060.7,638.6,1064.33,642.21Z"></path><path class="cls-1" d="M1190.08,367.38a49.63,49.63,0,0,1,4.53,7.58c.37.75,3.14,8.39,3.31,8.39,7.8,0,5.1-13.92,4.49-15.78-1.9-5.8-3.76-8.92-8.74-12.34-1.59-1.09-4.81-1.11-6.64-1.25-3.06-.23-7.25-.32-9.19,2.53A39.46,39.46,0,0,1,1190.08,367.38Z"></path><path class="cls-1" d="M1427.55,1789.92c-8.69-11.2-18.6,17.42-17,24.25,2.88,12.38,11.77,23.17,8,37-1.7,6.31-7.78,10.78-14.24,9.83-15.6-2.28-4.5-30.9-17.42-39.58a30.12,30.12,0,0,1-16,1c-2.38-.41-4.62-.8-4.81,1.61-1.41,18.06-7.77,57.28,12.43,65.49,5.9,2.4,5.54,12.28,1.09,18.39-4.26,5.87-12.57,7.13-18.81,3.43-18.34-10.88-21.47-32.9-20.52-52.63.8-16.72,3.82-33.77-.32-50-3.33-13.09-11.28-26-8.09-39.16,1.69-7,6.51-13.55,5.33-20.65-.72-4.35-3.6-8-6.36-11.41-84.26-104.88-146.46-227.24-182.43-356.83a988,988,0,0,1-21.74-96.89q-4.31-25-7.3-50.15c-1.11-9.35-10-36.56,2-41.63,6.17-2.62,11.73,42.72,12.31,46.13,3.75,22,8.9,53.77,13.51,75.61,9,42.91,19.35,85.86,33,127.55,11,33.38,23.18,56.27,38,88.11,32.37,69.36,76.29,133.7,123.86,193.47,2.72,3.42,5.93,7.14,11.61,4.8a14.22,14.22,0,0,0,5.34-4.11c14.07-16.84,29.88-37,53.14-35.84a13.92,13.92,0,0,0,5.84-.76c12.8-5.06,7-17.17,2.62-26.08a81.69,81.69,0,0,1-6.22-54.83,6.11,6.11,0,0,0-1.89-6.26c-2-1.59-3.57-.73-5,.09-25.22,14.36-48.63,24.83-78.32,20.09-12.52-2-25.09-5.84-35-13.78-15.78-12.66-18.23-31.53-11.42-49.61a52.62,52.62,0,0,1,9.54-16.51c3.52-4,6.22-8.64,6-14.31-.32-7.86-2-15.2-7.22-21.52a52,52,0,0,1-5.88-9.51c-2.47-4.91-4.51-10-6.89-15a16.76,16.76,0,0,1-1.34-9c2.13-26.06,16.07-52.16,34.64-70.28,12.65-12.33,24-15.47,41-13.71,2.85.29,5.66.92,8.5,1.2a13.29,13.29,0,0,0,8.86-2c7.41-4.92,16.46-8.72,19-18,1.13-4.19,1.28-8.57,2.07-12.83,2.43-13.21,11-24.74,21.59-33,11.59-9,24.65-13,38.07-18.13,9.9-3.78,14.26-8.09,12.78-19.55A1381.34,1381.34,0,0,1,1452.87,1066a40.18,40.18,0,0,1,3-14.53c5.6-13.18,9.21,2.23,9.29,6.78,1.45,79.89.81,160.48,17.42,238.66a8.54,8.54,0,0,0,2.65,4.71c11.63,10.15,19-13,18.71-20.42-.32-7.59-2.69-14.91-4.13-22.37a92.86,92.86,0,0,1,4.26-49.41c2.93-7.94,6.89-16.18,12.24-22.79,5.07-6.27,11.46-9.46,11.1-18.58-.18-4.61-.76-9.21-.9-13.83-.46-15.67-21.58-18.37-26.33-32.91-1.53-4.68-1.49-9.71-1.44-14.64.14-12.65.31-25.51,3.07-37.92,2.35-10.59,13.66-23.79,6.78-34.08a90.51,90.51,0,0,1-11-23.53,42.12,42.12,0,0,0-2-5.27c-5.38-11.35-10.76-22.7-16.27-34-2.31-4.75-4.83-9.41-7.47-14-.68-1.18-2.15-2.61-3.3-2.65-2.11-.08-2.68,2-2.88,3.81-2,17.28.77,33.24-4.44,50.5-6.6,21.89-19.83,36.59-33.81,53.87a30.6,30.6,0,0,0-4.19,7.39c-1.1,2.62-1.49,5.53-2.47,8.21-4.43,12.09,5.85,19.73,10.42,30a78.05,78.05,0,0,1,6.44,36.5c-1.16,18.78-9.45,38.2-20.93,53a60.15,60.15,0,0,1-20.62,17.38c-5.91,2.89-21.19,2.41-24.49,8.13-1,1.75-1.06,3.87-1.08,5.89-.11,13.91,1.45,28.11-3.79,41.26-5.1,12.79-13.83,23.86-23.11,33.86-9.75,10.52-20.6,20.37-33.61,26.41s-28.5,7.9-41.72,2.34a36.64,36.64,0,0,1-20.14-21c-3.18-9.06,3.3-20.76-4.94-27.41a17.68,17.68,0,0,0-3.86-2.52c-5.9-2.59-11.87-4.28-18.57-3.3-29.1,4.25-58.55-24.46-69-49.2a85.51,85.51,0,0,1-5.62-45,82.66,82.66,0,0,1,6.19-22c2.69-6,8.66-11.72,8.45-18.6-.29-9.24-.66-18.49-1.06-27.73a13.89,13.89,0,0,0-5-10.42c-9.78-8.13-18.15-11.84-23.8-24.26-10.93-24-17.91-58.2-4-82.34,3.4-5.92,6.43-12,9.87-17.94,5.35-9.17,6.07-19.19,5.75-29.41-.4-12.52-10.43-13.28-17.86-20.66-8.88-8.83-13.58-21.48-15.76-33.57-5-27.67,1.33-75.63,30-88.91,5.36-2.48,8-6.51,7.83-12.56-.17-5.77,2.63-13.51,0-18.87-2.27-4.64-7.8-6.42-12.52-8.51-14.23-6.32-24.81-19.07-31.59-33.08-10-20.65-12.73-41-12.86-63.42,0-2.29.44-5.37-2.61-6.1-2.57-.61-3.77,2-4.95,3.72a118.06,118.06,0,0,1-14.06,16.63,32.13,32.13,0,0,0-4.59,6.42c-5.8,9.86-7,20.68-6.83,31.88.09,8.49,3.72,14.22,11.34,17.72,2,.9,4.23,1.94,5.45,3.58,16.13,21.72,20.74,48.19,15.56,74.88-6.74,34.78-33.2,60.43-41.36,93.94-1.14,4.66-.55,8.83,2.31,12.51,9.77,12.59,17,19.47,16.14,36.65a161.16,161.16,0,0,1-17.11,63.86c-7.68,15.23-22.19,46.56-43.35,39.13a25.32,25.32,0,0,0-2.54-.73c-5.25-1.17-7.07-.52-10,4-2.72,4.27-4.72,9.09-7.93,12.94-8.49,10.21-13,23-22,32.89-1.42,1.57-2.16,3.82-3,5.86-8.61,21.07-42.16,38.38-63,43.11-29.61,6.72-62.36-3.12-78.94-29.53a21.66,21.66,0,0,0-4.87-5.33c-5.47-4.37-10.77-3.48-14.61,2.34a57,57,0,0,0-3.16,5.8c-11.28,22.48-37.43,36.43-45.86,59.75-6.73,18.65-1.12,27.3,11.94,40.61,14.36,14.63,23.55,33.84,28,53.84,4.76,21.22,6.74,47.16-.57,67.92a21,21,0,0,0-1.19,5.8,11.37,11.37,0,0,0,15.56,11.33,50.94,50.94,0,0,0,7-3.68c18.86-11,45.79,1.12,54.66,19.72,4.88,10.21,5.4,21.9,5.4,33.21,0,16.85,3.47,47.32-7.34,61.15a13.05,13.05,0,0,1-14.81,4.29,7.42,7.42,0,0,1-4.9-5,19.82,19.82,0,0,1-1-5.84c.3-14.82,3.89-29.3,3.87-44.07,0-9.49-1.84-19.18-6.75-27.3-1.44-2.37-3.71-4.85-6.45-4.44-3.27.48-4.44,4.44-5.62,7.53a23.12,23.12,0,0,1-6.45,9.19c-2.08,1.81-4.51,3.25-6.24,5.4-6.32,7.87-2.45,25.1,1,33.53,2.41,5.92,5,11.77,7.53,17.63q4,9.14-2.63,16.56c-15.4,17.3-34.07-30-35.81-39.85-4.86-27.62,1.58-61.33-27-78-5.37-3.13-11.43-4.85-17.09-7.42-18.41-8.34-31.94-25.65-38.06-44.92-7.18-22.57-7.38-56.64,7.12-76.66,2.84-3.93,5.66-7.9,8.12-12.06,3.25-5.52,4.48-11.45,2.31-17.77a21.54,21.54,0,0,1-.94-4,10.15,10.15,0,0,0-7.16-8.55c-8-2.82-13.78-8.51-19.54-14.32a13.83,13.83,0,0,1-3.94-10.26c.15-4.14.22-8.3.17-12.45-.32-30.24,25.12-62.9,45.13-83.4,5.77-5.91,12-11.53,19.45-15.15,11.55-5.62,24.75-5.36,33.35,5,.92,1.11,1.81,2.25,2.83,3.27,3.76,3.78,7.75,7.33,11.5,11.12a15.6,15.6,0,0,0,10.89,4.8c11.65,0,19.33-9,29-14.32a135.89,135.89,0,0,1,34.93-13.41c23.91-5.58,44.6-2.23,68.23,1.52,21.88,3.47,19.83-14.56,13.45-29.4-8.25-19.19-4.48-41.93,5.45-60.31,11.91-22,31.08-38,50.12-53.63a22.09,22.09,0,0,0,7.47-10.65c1.51-4.84,2.84-9.73,4.22-14.61a15.16,15.16,0,0,0-1.52-11.49,27.13,27.13,0,0,0-9.39-10c-10.58-7.19-16.18-14.41-18.5-27.32-6.41-35.53,1.11-86,29.43-111.59a16.56,16.56,0,0,0,5.2-11.51c.21-4,.77-7.94,1.09-11.91.56-7,1.06-14.05,1.55-21.08.47-6.82-2.23-12.36-6.64-17.4-23.94-27.31-17.4-63.48-2.86-93.64,10.87-22.56,30.35-41.37,39-64.52,7.65-20.48,23.74-35.78,31.58-55.53a3.67,3.67,0,0,0-1.69-4.6,4,4,0,0,0-4.93.44c-3.64,3.08-6.07,7.95-10,10.54-9,5.95-10.45-6.7-6-11.87,7.32-8.46,14-17.53,23.25-24.15,11.74-8.37,14.25,7.65,14.46,16a249.9,249.9,0,0,0,3.69,37,6.7,6.7,0,0,0,1.16,3.21c1.41,1.71,4.2,1.6,6,.38,4.79-3.17,6.93-10.16,9.61-14.87,8-14,9.2-37.48,3.33-52.4-4-10.12-14.38-18.61-25.08-16.65-4.78.87-9,3.64-13.3,5.85a6,6,0,0,1-3.73.92c-1.85-.35-3-2.37-3-4.26a9.51,9.51,0,0,1,2.09-5.16c11-15.55,35.92-16,47.8-1.23,9.48,11.79,10.59,27.91,14.25,42.06.59,2.29,1.18,5.15,4.17,5.29,6,.29,8-17,8.38-20.95a55,55,0,0,0-5.13-29.11c-8.64-17.81-32.4-36.63-52.79-26.92-18.75,8.92-30.63,30.79-41.51,47.45-19.41,29.7-29.74,62.75-38.27,97-2.29,9.19-4.22,18.47-6.09,27.76-1.92,9.59-4.21,19.28-7.08,28.62a5.14,5.14,0,0,1-1.09,2.19c-1,1-2.54,1-3.91.83a7.67,7.67,0,0,1-4.87-2.2,7.53,7.53,0,0,1-1.5-5.19c.05-1.85.4-3.68.33-5.53a1.27,1.27,0,0,0-.17-.69c-.5-.69-1.55.09-2,.83A324.63,324.63,0,0,1,981,594.82c-7.12,9.36-14.61,18.44-21.89,27.69-13.22,16.8-26.46,33.58-40.22,49.94-11.66,13.87-23.69,27.43-36.37,40.38-4.52,4.61-8.71,9.55-12.79,14.55s-7.93,10.06-11.69,15.25c-2,2.71-4.25,4.8-7.66,5.36-17.23,2.87,16.8-38.83,20.8-43,46.56-48.61,92.1-100.84,127.34-158.38,4-6.57,8.19-13.19,10.86-20.32,4.4-11.74,7.67-23.9,11.33-35.91a24.74,24.74,0,0,0,1.17-6.47c.07-3.62-2.2-5.4-5.65-4.12a35.14,35.14,0,0,0-8.58,4.75c-121.22,90.7-211.88,200-287.51,330.15q-11.91,20.49-23.37,41.23C674.18,896.66,653,946.38,636.52,990c-27.36,72.42-42.21,155.36-50.7,232a1270.08,1270.08,0,0,0-4.53,239.81c4.86,66.56,24,137.07,43.16,200.77,10.31,34.26,18.84,69,29.64,103.16,12.12,38.29,25.35,71.25,42.28,112.66,3.62,2.43,6.15-13.84,6.49-15.73,1.81-10,.74-20.06,1.68-30.15.41-4.33,3-9.59,8.34-8.09,11.86,3.3,2.34,48.57,1.24,56.68a493.35,493.35,0,0,1-20.9,91.18c-3.19,9.47-6.06,19-8.49,28.72a1,1,0,0,0,.11.89c1.38,1.72,7.66,2.13,9.6,2.53,24.53,5.1,49.69,5.42,74.64,5.78l2.92,0c23,.21,46-1.1,68.34-7.4,4-1.13,8.53-2.82,8.35-8.36a11.92,11.92,0,0,0-1.88-5.73c-44.6-73.5-90.64-146.29-132.36-221.47-20.88-37.63-40.7-75.88-58.66-115q-13.15-28.66-24.89-58c-2-4.92-12-22.38-9.09-27.37,5-8.47,11.87,0,14.41,6.06a1978.86,1978.86,0,0,0,152.23,294.43c40.95,65.15,83.11,128.14,108.21,201.47,2.72,7.94,7,6.87,14.71,7,39.25.69,78.06-4.05,115.13-17,14.12-4.92-11.37-109.83-14.87-126.12-11-51.16-30.7-99.95-47.81-149.4a1532.39,1532.39,0,0,1-82.93-439.87,6.38,6.38,0,0,1,5.71-6.74c4.72-.28,6.18,5.43,6.45,9.8a1658.57,1658.57,0,0,0,43,286.73c17.18,71.33,42.62,140.23,66.36,209.54,10.93,31.91,23.12,63.76,28.47,97.19,6.75,42.2,14,84.24,20.48,126.3.34,2.18.7,4.36,1.25,6.5,4.84,18.94,107.13-18.38,122.48-25.14,39.8-17.53,76.1-42.19,119.84-49.28,16.31-2.64,32.65-5.1,49.29-4.57,20.81.65,44.48-2.84,58.63-19.58,8.65-10.23,12.89-23.38,16.9-36.16,7-22.21,13.9-44.57,23.8-65.68,9.78-20.83,25.36-37,36.18-56.92,3.34-6.17,3.24-7.31-3.84-8.35-7.63-1.11-15.33-2-22.62-4.61-5.37-2-10.57-4.41-15.92-6.41C1433.59,1794.8,1430.15,1793.27,1427.55,1789.92Zm-396.88-650.53c.08-.69.18-1.39.29-2.08.88-5.51,6.34-41.77,15.57-38.64,5.15,1.74,2.09,15,1.52,18.81-1,7-1.21,14.65-3.75,21.35-1.77,4.71-10.23,17.74-13.42,5.78A14.08,14.08,0,0,1,1030.67,1139.39Zm-12.7,78.3c-.28-10.36,1-23.47,8.86-27.11,8.58-4,1.73,34.48.82,38.8-2.34,11.16-8,6.91-9-2.15C1018.37,1224.79,1018.07,1221.42,1018,1217.69Zm274.94,737.16c-.75,4-3.27,5.85-7.11,4.76-16-4.56-27.7-23.14-37.86-35.55-73.92-90.26-127.46-200.79-165-310.66a1176.24,1176.24,0,0,1-46.65-182.58,1303.13,1303.13,0,0,1-16-132.5c-.49-7.52-.92-15.1.07-22.57.23-1.71.59-3.54,1.86-4.71,2.38-2.2,6.59-.54,8.08,2.34s1.71,7.26,1.69,11.58c0,3.79,0,7.58.23,10.48,9.87,107.24,30.83,211.68,63.11,309.32,31.37,94.87,73.43,176,127.38,260.12,6,9.34,13.36,17.15,19.75,26.27,4.66,6.67,9.59,13.16,14.47,19.68,1.31,1.76,5.76,8.39,7.34,9.9,2.17,2.07,5,7,8,7.58.73-9-4.5-18.2-5.76-27.08-.78-5.5.47-11.71,6.14-14a5.26,5.26,0,0,1,7.3,3,18.9,18.9,0,0,1,1.29,5.28c1.53,10.13,4.27,20,6.76,30,1.27,5.08,2.49,10.17,3.44,15.32C1292.26,1945.14,1293.74,1950.42,1292.91,1954.85Z"></path><path class="cls-1" d="M1144.15,365.77c5,3.63,9.95,7.25,15,10.75,6.66,4.6,12.13,10.05,14.63,18.09a120,120,0,0,0,5.29,13.51,5,5,0,0,0,3.36,2.55c2.1.22,2.82-1.71,3.18-3.53a21.81,21.81,0,0,0,.2-2.35c-.54-3.32-1.45-7-1.7-10.7-.48-7.27-3.4-13.28-7.27-19.44-7.93-12.59-19.92-14.81-33.12-15a4.52,4.52,0,0,0-1.29.28,2,2,0,0,0-1.12,3.13A14.94,14.94,0,0,0,1144.15,365.77Z"></path><path class="cls-1" d="M1044.87,841.6c1.12,1,2.08,2.27,3.19,3.33,3,2.92,4.85,2.89,7.64-.44,3.59-4.28,6.22-9,6.4-14.83.2-6.37.71-12.73,1.16-20.39a34.53,34.53,0,0,0-.37-5.27c-1.4-7.4-4.78-13-12.84-15a43.72,43.72,0,0,1-9.65-4.13c-8.84-4.62-12.58-3.23-15.85,6.2-4.24,12.18-5.34,24.89-6,37.62a37,37,0,0,0,1.54,11c1.08,4.18,3.77,5,7.53,2.63.93-.57,1.74-1.35,2.64-2C1036,836.42,1039.68,836.7,1044.87,841.6Z"></path><path class="cls-1" d="M1803.94,1496.68c-14-22.2-32.29-42.09-46.75-64.31-15.48-23.78-29.78-48.3-43.87-72.92-21-36.78-43.34-72.84-65.63-108.88-21.81-35.28-41.92-72-64.91-106.54a111.88,111.88,0,0,0-9-11.27c-4.89-5.59-16.48,2.44-20,6.39-6.79,7.67-2.16,18.35-1.79,28.65.48,13.28,15.74,21.44,21.07,33.49,6,13.47,7.29,28.92,5.38,43.43-2.32,17.58-11.11,51.53-29.38,59.24-7.45,3.15-14.5,7.07-22.88,8.15-11,1.42-16,10.09-13.4,20.74A27.15,27.15,0,0,1,1514,1340c-.41,11.42-2.93,22.32-9.6,31.81a10.61,10.61,0,0,0-1.76,9.9c2.18,7.39,4.22,14.82,6.3,22.24,7.59,27.18,14.94,54.13,24.35,80.78,2.21,6.27,4.32,19.28,9.54,23,4.18-4,5.65-13.48,5.73-19.27.09-7.15-3.89-25.85,2.36-31.18,7.18-6.11,10.6,2.74,10.84,9.13q.3,8,.22,16c-.09,9.79,3.42,55.06-14,52.35-5.48-.85-9.63-5.32-12.88-9.81-9.79-13.55-15.49-29.55-20.74-45.42q-12.32-37.28-22.18-75.3c-1.06-4.1-2.45-8.67-6.18-10.68-5.56-3-12,1.51-17.25,5a61.35,61.35,0,0,1-39.12,9.85c-11.13-1-22.81-5-33.09-.64-8.45,3.62-13.77,12.22-16.5,21s-3.42,18-5.64,27a80.61,80.61,0,0,1-37.87,49.89c-4.44,2.52-9.85,5.8-9.51,10.89.39,6,8,8,14,8.39,21.2,1.22,44.73,1.34,60.24,15.84,6.5,6.07,11.71,14.69,20.43,16.46,10.49,2.13,19.63-6.77,29.55-10.81,14.58-5.93,33-.06,41.44,13.22,5.73,9,6.9,20.13,7.17,30.8.72,27.66-4.7,57.74-25.11,76.42-8.45,7.72-19.34,13.44-24.54,23.63-4.69,9.2-3.73,20.19-1.91,30.35a9.12,9.12,0,0,0,1.88,4.82c1.62,1.72,4.22,2,6.58,2.09,9.32.53,19.27.9,27.3-3.87,7.72-4.59,12.16-13.1,15.54-21.43,11.18-27.62,11.55-57.83,19-86.55,3.93-15.19,9.12-28.88,19.69-40.67,6.41-7.15,13.56-9.5,23-7.9,27.11,4.62,57.43,18.29,84.35,7.38,21.78-8.82,36.79-29,56.74-41.38,31.73-19.73,68.48-13.89,102.1-25.88,3.45-1.24,4-3,2.4-6.16C1805.93,1499.6,1804.88,1498.17,1803.94,1496.68Z"></path><path class="cls-1" d="M1003.88,965.12a38.85,38.85,0,0,0-9.28,13.52c-1.38,3.47-3.13,6.8-4.76,10.16-2.68,5.54-5.44,11.05-8.09,16.6a13.9,13.9,0,0,0-1.12,3.79c-.7,4.54,1.3,6.74,5.86,6.36,2.63-.23,5.21-1,7.84-1.14,8-.45,15.58.21,20,8.38a3.35,3.35,0,0,0,.4.53c2.5,2.86,4.87,2.81,7-.22a20.18,20.18,0,0,0,1.54-2.91c6.29-13.16,8-27.4,10.06-42.62-.65-2.52-.8-6.3-2.5-9.15C1025.18,959,1011.77,957.49,1003.88,965.12Z"></path><path class="cls-3" d="M1718.65,1338.31l-67.37-113.65-33.69-56.83c-8.84-14.9-16.61-33.19-28.14-46.26-5.37-6.09-7.34-12.83-5.65-20.79a98.83,98.83,0,0,0,1.7-11.76c.66-7.24.39-14.63,1.79-21.71,2.7-13.6-1.13-25.63-6.87-37.58-3.45-7.19-8.21-13.14-15.05-17.08-7.86-4.52-10.89-11.13-10.09-19.87.16-1.75.2-3.52.34-5.27,1.14-13.47,9.48-19.35,15.62-30.21,6.59-11.68,11.79-24.36,14.15-37.61,3-17.06,1.53-28.55-7.49-43.35-4-6.49-10.67-8.89-14.51-15.44-7.17-12.28-6.3-31-7-47-.3-7.29-1.93-13.33.83-19.92,6-14.39,4.67-32.19-1.49-46.3-6.7-15.36-22-24.44-38.71-23.68-2.8.12-12.28,2.33-14.46.25s1.08-11.13.86-13.31c-.81-7.94-6.17-12.44-14.06-11.2A58.1,58.1,0,0,0,1463.88,710a26.19,26.19,0,0,0-7.22,8.43c-6.71,12.38-13.34,24.79-15.54,38.87-1.71,11-1.12,23.49-10,31.73-4,3.64-9.11,5.61-14.1,7.59-35.25,14-67.72,37-105,45.58-7.28,1.68.86-12.82,1.69-14.46L1327,801.38c8.73-17.27,17.53-34.51,26.19-51.82,13.51-26.72,28.12-52.63,40.84-79.79s24.32-54.85,35.31-82.76c20.36-51.75,41.15-112.24,38.59-168.61-1.85-40.85-20.53-83.37-56.56-102.7-20.33-10.91-44.37-13.53-67.27-10.72-32.59,4-59,18.64-88.11,32-9.41,4.31-19.06,8.09-28.67,11.94a22.29,22.29,0,0,1-18.55-.68,49.8,49.8,0,0,0-23.77-4.75c-2.66.13-5.29.28-7.91.45-32.11,2.11-60.87,7.6-88.31,27.26-27,19.31-36.23,43.68-57.69,82-1.54,2.76-2.53,5.65-5.31,7.34-4.7,2.87-9.2,6.18-14.2,8.4-9,4-19.17,9.32-26.74,15.53-36.56,29.95-57.93,51.61-83.91,77.74-27.05,27.21-51.72,49.92-76.4,79.3-49.27,58.69-94.72,127.36-131.82,194.45q-8.73,15.75-16.91,31.81c-36.35,71.33-64.68,146.87-83,224.84a815.79,815.79,0,0,0-14.73,83.14c-13.23,103.51-21,211.68-7.06,315.4,18.76,139.89,68.7,271.78,116,403.16,1.71,4.76,3.32,9.59,4.58,14.49a20.12,20.12,0,0,1,.75,8.44c-1.62,8.65-3.54,17.26-5.79,25.77-1.74,6.6-4,13.07-6.28,19.5-5,14.09-8.47,28.78-16.53,41.69-2.37,3.8-1.47,6.74,2.56,8.69a36.39,36.39,0,0,0,9.4,3c44.34,7.89,91.29,15,136.1,6.61,9.71-1.82,44.22-14.76,50.1-1.68q9.95,22.14,19.45,44.45c3.42,8,5.11,18.4,12,24.08,10.5,8.67,29.69,6.86,42.15,6,31.15-2.3,62.18-10.56,91.94-19.75,5.07-1.56,6.92-.47,7.74,4.78.41,2.61.35,5.29.8,7.89.66,3.82,2.25,5.42,6.06,5.92,2.82.36,5.71.22,8.57.35,94.49,4.39,173.64-72.24,266.23-80.63,30.69-2.78,65.26.8,88.58-19.35,13.17-11.37,19.92-28.28,26.2-44.51,12.52-32.35,22.16-67.94,42.87-96.18,9-12.25,18.35-24.23,27.47-36.39a21.23,21.23,0,0,0,3.15-5.75c2.19-6.43-.5-11.93-6.86-14.25-2.9-1.05-5.93-1.73-8.86-2.69-12.15-4-24.31-7.87-36.42-12a58.92,58.92,0,0,1-9-4.1c-5.38-2.94-7.13-6.82-5.53-12.67a44.56,44.56,0,0,1,3.38-7.86c1-2,2.52-3.66,3.37-5.67,2.07-4.86,5.72-6.92,10.85-7.15q11.88-.54,23.74-1.46c3.5-.26,7-.91,10.45-1.48,6.08-1,10.45-4.42,13.46-9.69,4.27-7.47,8.4-15,10.42-23.48.77-3.2,2-6.29,3-9.43,5-14.88,9-30,10.12-45.71a175.31,175.31,0,0,1,6.47-37.71,159.59,159.59,0,0,1,7.21-19.15c3.32-7.51,9.37-11.43,17.65-11.82a49.86,49.86,0,0,1,16.34,1.92c6.35,1.84,12.71,3.64,19.1,5.33a36,36,0,0,0,7.79,1.41c9,.29,18.06.49,27.09.41a53.46,53.46,0,0,0,24.25-5.83c11.55-6,22.56-12.86,32.3-21.65,7-6.35,14.38-12.34,21.62-18.45a39,39,0,0,1,15.74-8.09c12.38-3.15,24.7-6.54,37.12-9.48a89.22,89.22,0,0,1,16.33-2.38c19-.88,36.89-6,54.28-13.24,7.22-3,7.41-4.69,2.2-10.27C1786.79,1455.82,1752.88,1396,1718.65,1338.31Zm-161-284.18c2.47,5.25,3.16,10.91,3.16,16.71-.3,3-.4,6.12-1,9.12a2.17,2.17,0,0,1-4,1,18.49,18.49,0,0,1-3.14-5c-2.61-6.74-5-13.56-7.48-20.35a9.11,9.11,0,0,1-.33-1.27c-.44-2.17-1.11-4.52,1-6.08a6,6,0,0,1,7.39.25A15.42,15.42,0,0,1,1557.67,1054.13ZM1538.43,1112a47.25,47.25,0,0,1-6.59-.59,10.08,10.08,0,0,1-5.34-2.16c-2.07-1.93-2.42-5-2.53-7.88-.38-10.64,1.16-21.14,3.39-31.51a11.33,11.33,0,0,1,2.1-4.06,2.45,2.45,0,0,1,4-.17,17.48,17.48,0,0,1,2.81,4.43A166.38,166.38,0,0,0,1550,1096.4a22,22,0,0,1,2.58,6.06C1554.83,1110.6,1545.8,1112.16,1538.43,1112Zm13.33,125.81a30.09,30.09,0,0,1,.36,4.54,75.52,75.52,0,0,1-.73,9.25c-.9,7.44-9.58,34.08-21.23,19.75-1.6-2-2.31-4.51-3-7-3.33-12.21-6.66-25.19-3.13-37.34,1.31-4.5,3.86-9,8.18-10.82C1542.53,1211.94,1550.53,1230.26,1551.76,1237.81Zm-45.45-295.14a37.06,37.06,0,0,0,3.51,6.31c2.43,3.38,5.14,6.57,7.7,9.87a20.2,20.2,0,0,0,9.55,6.81c5.49,1.89,7.3,4.41,6.73,11.15-.83,9.86-1.57,19.73-2.45,29.59a42.52,42.52,0,0,1-1.29,7.79,14.16,14.16,0,0,1-2.64,5.22c-3.14,3.7-6.59,3.36-8.86-.95-2.35-4.47-4.26-9.18-6.42-13.75-3.57-7.55-7.22-15.07-10.77-22.63-2.7-5.78-5.25-11.62-7.95-17.4-2.51-5.37-5.11-10.69-7.72-16-.67-1.38-1.57-2.65-2.26-4a8.44,8.44,0,0,1,.68-9.34q8.24-11.56,16.51-23.09a2.71,2.71,0,0,1,.9-.94,3.61,3.61,0,0,1,1.76-.35c.22,0,.54.71.54,1.1.05,3.52,0,7,0,10.19C1503.08,929.48,1503.42,936.26,1506.31,942.67Zm11.77-62.09c.52-1.58,10.58-21.72,19.6-32.14.53-.62,2.29,11.47-1.72,14.76C1531,867.27,1516.62,885,1518.08,880.58Zm42.45,12.48c2.33,5.37,2.9,11.06,2.65,17.48,1.33,9.3-3.78,17.23-8.19,25.35-3.1,5.7-16.53,9.57-20.93,3.67-2.06-2.75-2.47-6.36-2.81-9.78-1.18-11.76-3.26-29.37,5.92-38.78C1543.74,884.28,1556.34,883.39,1560.53,893.06ZM1455.77,751c0-1.72,5-18.59,9.55-27,3.27-6.06,7.15-6.75,13.33-9.15,7.19-2.81,11.74-3.35,11.67,4.3,0,5.37-2,9.9-6.26,13.24-4.87,3.77-9.71,7.6-14.76,11.13-3.85,2.7-7.23,5.7-9.48,9.9A12.74,12.74,0,0,1,1457,757C1455.47,758.22,1455.72,752.93,1455.77,751Zm20.58,128.3c-.42-2.93-1.9-5.8-3.31-8.48-1.11-2.12-2.85-3.9-4.31-5.84-9.78-13-19.64-26-29.26-39.1a40,40,0,0,1-6-10.9c-2.25-6.87,2.79-11.84,9.84-10.07a19.08,19.08,0,0,1,11.79,9c3.66,6,7.14,12.15,10.88,18.12q7.2,11.46,14.7,22.73a17.25,17.25,0,0,0,4.11,4.24c3.61,2.62,7.45,1.25,8.8-3a13.18,13.18,0,0,0,.52-3.91,17.61,17.61,0,0,0-3.22-9.89c-8.18-12.26-16.24-24.6-24.42-36.87-1.34-2-3.18-3.66-4.55-5.65-2.72-4-5.66-7.88-7.79-12.17-3.16-6.34.65-14.41,7.33-16.61a4.28,4.28,0,0,1,4.82,1.23,43.68,43.68,0,0,1,3.21,4.18c5.34,7.55,10.57,15.17,16,22.66,3.62,5,7.49,9.79,11.27,14.66a12.18,12.18,0,0,0,7.65,4.81c3.25.58,5.27-1,5-4.33a31.49,31.49,0,0,0-5.45-15.4c-4.84-7.08-10-14-14.56-21.23a171.33,171.33,0,0,1-8.88-16.93c-1.41-2.92-.55-4.86,2.17-6.8,9.93-7.06,21.6-4.11,26.34,7,2.23,5.24,3.44,10.91,5.25,16.34,1.67,5,3.51,10,5.34,14.89a7.41,7.41,0,0,0,1.45,2.18,1.81,1.81,0,0,0,3.17-.68,11.21,11.21,0,0,0,.71-2.53,67.28,67.28,0,0,0,.78-10.42c-.46-23.34-13.89-40.85-14.33-42.15-.79-2.38,5-3.13,6.54-3.29,8.29-.87,12.91,2.08,17.8,8.57a41.18,41.18,0,0,1,8.17,20.74,71.56,71.56,0,0,1-3.59,29.46c-1.66,5-2.49,10.24-4,15.29a144.57,144.57,0,0,1-5.62,16.88c-3.13,7.27-6.82,14.3-10.51,21.31-5.74,10.92-11.47,21.85-17.6,32.54-8.86,15.49-18,30.79-29.83,44.32-1.72,2-3,4.38-4.52,6.5-4.21,5.68-9.92,6.75-15.44,2.41a71.15,71.15,0,0,0-14.1-8.48c-5.88-2.77-6.78-4.62-5.42-11,.92-4.3,2.2-8.53,3.4-12.77,1.62-5.71,3.11-11.48,5.07-17.08a33.83,33.83,0,0,1,4.61-8.63c2.13-2.91,3.75-3,6.77-.9,3.46,2.35,6.79,4.89,10.2,7.31a37.73,37.73,0,0,0,5,3.22C1473.09,887.07,1477.09,884.46,1476.35,879.25Zm-44.17,77.84c1.78.27,3.13,1.74,4.13,3.23,3.35,5,4.37,11.17,4.09,17.27a48.9,48.9,0,0,1-.67,5.93c-1.37,7.89-4.27,15.44-5.85,23.29-3,14.82-7,14.13-20.74,12.89-5.73-.52-8.77-3.08-10.23-8.65-1.05-4-.41-7.81.87-11.65a169.9,169.9,0,0,0,5.07-16.32c2.27-10.06,10-21.67,20-25.43A6.61,6.61,0,0,1,1432.18,957.09Zm-25.46,210.83c-1.9,4.15-5.16,5.16-9.26,3.33-1.2-.53-2.26-1.35-3.43-2-4.54-2.35-8.86-2.13-12.88,1.19a32.54,32.54,0,0,1-3.08,2.46c-2.75,1.74-5.26,1.17-6.33-2a20.36,20.36,0,0,1-1.1-8.32,106.75,106.75,0,0,1,2.73-16.21c1.89-7.31,6.33-13.47,10.4-19.69,1.87-2.85,4.94-3.27,8.26-1.78,4.59,2,9.11,4.27,13.64,6.45,4.36,2.1,6.68,5.54,6.7,10.45v4.54C1412.71,1154.21,1409.84,1161.13,1406.72,1167.92ZM1214.66,391.28c2.49-4,4.37-8.2,4.1-13-.29-5.29,2.35-8.89,6.75-11.19,26-13.65,52.15-27.62,79.49-38.69a160.87,160.87,0,0,1,49.89-11.42c.91-.06,1.83-.12,2.75-.15,34.38-1.35,67.53,19,83,49.85,8.73,17.39,14.35,36.5,13.77,55.95-1.22,41.2-10.27,81.73-22.76,120.88-25.8,80.9-68,156.85-105.15,233.27q-18,37.11-36.38,74c-10.2,20.52-25.24,42.68-27.9,65.89a8.28,8.28,0,0,0,.18,2.62c.67,3,3.3,4.6,6,3.09,2.2-1.25,4.58-3.06,5.68-5.22,4.66-9.23,9.38-18.49,13.1-28.12,5.39-13.95,11.06-26.62,25.58-32,30.94-11.49,60.71-22.58,89.62-38.17a18,18,0,0,1,5-1.6c5.4-1.06,8.67,4.72,9.28,9.27a27.38,27.38,0,0,0,4.89,12.63,6.49,6.49,0,0,0,.36.55c7.39,9.43,6.49,19.43,1.17,29.14-9.52,17.34-13.75,36.11-15.82,55.49a32.46,32.46,0,0,1-6.07,16.43c-15.39,21-21.76,50.75-24.14,76.26-.9,9.65.93,16.42,4.49,25.14a20.35,20.35,0,0,0,6.37,8.28c2.93,2.34,5.73,4.83,8.61,7.23a11.07,11.07,0,0,1,3.89,8.09c1.43,17.89-16.78,26.84-28,37.64-2.48,2.38-5.39,3.21-8.33.88-3.23-2.56-5.95-1.79-8.9.53-16.48,13-29,30.21-45,43.92-15.19,13-31.33,25.65-42,42.9-1.23,2-2.43,4.38-1.67,6.6.91,2.65,4.32,3.7,7,3s4.83-2.75,6.84-4.7l77.3-75c1.7,6.87-1.9,13.78-4.53,20.35a79.38,79.38,0,0,0-2.13,52.33c1.94,6.28,4.22,14.26-.82,18.48-2.93,2.45-7.14,2.35-11,2.48-23.29.79-44.57,15-58.9,33.35-5.08,6.52-11.25,14.44-19.44,13.34-15.3-2-10.51-19.9-9.62-29.64a82.62,82.62,0,0,0-7.89-43.44c-11.08-22.72-30-34.39-52.39-43.77-4.48-1.88-5.58-3.71-5.31-8.71.14-2.64.54-5.27.67-7.9.64-13.09,6.23-21.27,12.64-32,6.31-10.56,8.37-23.24,7.88-35.39-.56-13.8-4.22-27.27-7.86-40.6-1.68-6.19-3.41-12.47-6.78-17.92-4.2-6.8-10.66-11.86-15.76-18-9.24-11.17-11-35.3-6.51-48.84,3.31-9.94,13.1-19.31,18.27-28.7,5.67-10.3,10.39-21.3,12.06-32.94,3.11-21.53-2.9-54.9-20.08-69.82a20.72,20.72,0,0,1-7.08-12.31,59.29,59.29,0,0,1-.81-19.07,45.31,45.31,0,0,0,.66-7.23,36.13,36.13,0,0,1,5.39-20.82c9.64-15.29,4.85-39.9,1.65-56.63a179.21,179.21,0,0,0-20.17-55c-2.74-4.82-5.74-9.61-7.08-15-1.85-7.47,1.35-13.79,4.86-20.19,1.47-2.68,2.45-5.63,3.94-8.3,2.13-3.81,4-8,6.92-11.11,23.06-23.88,26-62,25-93.5-.15-4.37-.4-8.87-2.22-12.85-4.36-9.54-20.84-6.59-16.49-19.6a30.63,30.63,0,0,1,8.7-13.75,79.17,79.17,0,0,0,11-12.23,40.61,40.61,0,0,0,5.67-11.08,47.63,47.63,0,0,1,7.31-14C1210,398.25,1212.44,394.82,1214.66,391.28Zm105.91,901.07c-3.79,4.51-29.16,25.62-30.86,10a96.74,96.74,0,0,1-.79-15.72,35.13,35.13,0,0,1,6-18.69c4.78-6.94,21.55-24.75,29.58-14.24a43.06,43.06,0,0,0,10,9.46C1345.56,1270.76,1326.22,1285.61,1320.57,1292.35Zm-216.92-720.8a90.87,90.87,0,0,1-2.41-9.59,26,26,0,0,0-7.22-13.84c-6.53-6.54-8.54-14.82-3.35-23.27s15.7-10,24.31-12.86c5.77-1.9,8.34,0,8.47,6.08,0,2-.19,4-.3,5.94s-.23,4-.34,5.93h-.13a46.48,46.48,0,0,1,0,5.28,29.63,29.63,0,0,0,5.33,21.22c9.47,13.62,3.46,30,.23,44.72-3.08,14-12.44,16.68-20.21,26.84a6.18,6.18,0,0,1-1.47,1.32c-1.65,1.15-3.78.56-4.14-1.48a33.69,33.69,0,0,1-.52-8.5c.91-10.51,2-21,3.18-31.48A39.08,39.08,0,0,0,1103.65,571.55Zm17.18,101.66c4.38-4.78,20.08-14.45,25.45-7.3a24.51,24.51,0,0,1,4.16,8.13c2.68,10,5.07,20,7.36,30.06.68,3,.66,6.11,1,9.17l-.19,0c0,1.1,0,2.2,0,3.3.27,5.66-2,9.73-7.3,12.08a26.59,26.59,0,0,0-10.44,7.82c-2.61,3.28-5.36,3.09-8.42.15a8,8,0,0,1-1.3-1.49c-6.56-10.37-13.62-21.89-16.24-34C1112.77,691.48,1114.15,680.51,1120.83,673.21Zm27-161.28c-.12-7.49-6.1-17.76-2.3-24.66,2.32-4.21,5.19-7.72,10.28-8.41,6.29-.85,10.37,5.62,12.08,10.9,1.45,4.47,1.65,9.25,1.6,13.95,0,1,0,2.08-.06,3.11a144.6,144.6,0,0,1-3.56,27.72c-3,12.94-13.37,24.12-16.86,6C1147.2,531.09,1148,521.43,1147.82,511.93ZM1153.41,842a80.88,80.88,0,0,0,8.43-1.5c7-1.44,10.5.29,12.3,7.29,1.25,4.84,1.45,10,2.12,14.94a71.74,71.74,0,0,1-5.39,26.46,28.74,28.74,0,0,1-2.33,4.72c-2.21,3.5-5.4,5.24-9.54,4.19a53.66,53.66,0,0,0-17-1.51c-4.43.31-6.29-1.21-7.93-5.44a33,33,0,0,1-.89-22,71,71,0,0,1,10.42-21.22C1146.1,844.54,1149.14,842.44,1153.41,842Zm-6.25,182.63c1.08-5.32,3-13.82,10.41-10.92,5.6,2.19,10.85,5.3,13.31,11.11,3.24,7.68,6.08,15.54,8.83,23.41.92,2.65,1,5.59,1.49,8.39-.3,12.88-16.49,24.46-24.86,10.62C1148.64,1054.54,1144.2,1039.23,1147.16,1024.65ZM1177.42,1183c4.63-6.07,9-6.64,15.25-2.27,9.27,6.46,17.91,13.56,24,23.33a53.25,53.25,0,0,0,4.1,5.18,16.58,16.58,0,0,1,3.65,9.74c.23,4.09-1,7.4-5,9.21-5.32,2.42-8.72,6.57-10.89,11.87a14.21,14.21,0,0,1-1.6,2.88c-4.67,6.37-12.42-2.9-15.62-6.64-5.84-6.84-11.26-14.19-14.56-22.56a48.73,48.73,0,0,1-3.17-13.37C1173,1194.06,1173.89,1187.63,1177.42,1183ZM1187,354c1.83.14,5,.16,6.64,1.25,5,3.42,6.84,6.54,8.74,12.34.61,1.86,3.31,15.79-4.49,15.78-.17,0-2.94-7.64-3.31-8.39a49.63,49.63,0,0,0-4.53-7.58,39.46,39.46,0,0,0-12.24-10.87C1179.78,353.66,1184,353.75,1187,354Zm-44.58,5.92a4.52,4.52,0,0,1,1.29-.28c13.2.22,25.19,2.44,33.12,15,3.87,6.16,6.79,12.17,7.27,19.44.25,3.71,1.16,7.38,1.7,10.7a21.81,21.81,0,0,1-.2,2.35c-.36,1.82-1.08,3.75-3.18,3.53a5,5,0,0,1-3.36-2.55,120,120,0,0,1-5.29-13.51c-2.5-8-8-13.49-14.63-18.09-5.07-3.5-10.05-7.12-15-10.75a14.94,14.94,0,0,1-2.82-2.74A2,2,0,0,1,1142.45,359.9Zm310.82,1442.72c7.29,2.66,15,3.5,22.62,4.61,7.08,1,7.18,2.18,3.84,8.35-10.82,19.91-26.4,36.09-36.18,56.92-9.9,21.11-16.83,43.47-23.8,65.68-4,12.78-8.25,25.93-16.9,36.16-14.15,16.74-37.82,20.23-58.63,19.58-16.64-.53-33,1.93-49.29,4.57-43.74,7.09-80,31.75-119.84,49.28-15.35,6.76-117.64,44.08-122.48,25.14-.55-2.14-.91-4.32-1.25-6.5-6.49-42.06-13.73-84.1-20.48-126.3-5.35-33.43-17.54-65.28-28.47-97.19-23.74-69.31-49.18-138.21-66.36-209.54a1658.57,1658.57,0,0,1-43-286.73c-.27-4.37-1.73-10.08-6.45-9.8a6.38,6.38,0,0,0-5.71,6.74,1532.39,1532.39,0,0,0,82.93,439.87c17.11,49.45,36.82,98.24,47.81,149.4,3.5,16.29,29,121.2,14.87,126.12-37.07,12.93-75.88,17.67-115.13,17-7.72-.13-12,.94-14.71-7-25.1-73.33-67.26-136.32-108.21-201.47a1978.86,1978.86,0,0,1-152.23-294.43c-2.54-6.11-9.42-14.53-14.41-6.06-2.95,5,7.13,22.45,9.09,27.37q11.69,29.31,24.89,58c18,39.13,37.78,77.38,58.66,115,41.72,75.18,87.76,148,132.36,221.47a11.92,11.92,0,0,1,1.88,5.73c.18,5.54-4.33,7.23-8.35,8.36-22.33,6.3-45.29,7.61-68.34,7.4l-2.92,0c-25-.36-50.11-.68-74.64-5.78-1.94-.4-8.22-.81-9.6-2.53a1,1,0,0,1-.11-.89c2.43-9.68,5.3-19.25,8.49-28.72a493.35,493.35,0,0,0,20.9-91.18c1.1-8.11,10.62-53.38-1.24-56.68-5.39-1.5-7.93,3.76-8.34,8.09-.94,10.09.13,20.12-1.68,30.15-.34,1.89-2.87,18.16-6.49,15.73-16.93-41.41-30.16-74.37-42.28-112.66-10.8-34.12-19.33-68.9-29.64-103.16-19.17-63.7-38.3-134.21-43.16-200.77a1270.08,1270.08,0,0,1,4.53-239.81c8.49-76.69,23.34-159.63,50.7-232,16.48-43.63,37.66-93.35,60.23-134.09q11.47-20.73,23.37-41.23c75.63-130.16,166.29-239.45,287.51-330.15a35.14,35.14,0,0,1,8.58-4.75c3.45-1.28,5.72.5,5.65,4.12a24.74,24.74,0,0,1-1.17,6.47c-3.66,12-6.93,24.17-11.33,35.91-2.67,7.13-6.88,13.75-10.86,20.32C963.26,604.15,917.72,656.38,871.16,705c-4,4.17-38,45.87-20.8,43,3.41-.56,5.69-2.65,7.66-5.36,3.76-5.19,7.64-10.29,11.69-15.25s8.27-9.94,12.79-14.55c12.68-13,24.71-26.51,36.37-40.38,13.76-16.36,27-33.14,40.22-49.94,7.28-9.25,14.77-18.33,21.89-27.69a324.63,324.63,0,0,0,19.47-29.23c.44-.74,1.49-1.52,2-.83a1.27,1.27,0,0,1,.17.69c.07,1.85-.28,3.68-.33,5.53a7.53,7.53,0,0,0,1.5,5.19,7.67,7.67,0,0,0,4.87,2.2c1.37.18,2.93.14,3.91-.83a5.14,5.14,0,0,0,1.09-2.19c2.87-9.34,5.16-19,7.08-28.62,1.87-9.29,3.8-18.57,6.09-27.76,8.53-34.2,18.86-67.25,38.27-97,10.88-16.66,22.76-38.53,41.51-47.45,20.39-9.71,44.15,9.11,52.79,26.92a55,55,0,0,1,5.13,29.11c-.38,4-2.39,21.24-8.38,20.95-3-.14-3.58-3-4.17-5.29-3.66-14.15-4.77-30.27-14.25-42.06-11.88-14.78-36.78-14.32-47.8,1.23a9.51,9.51,0,0,0-2.09,5.16c0,1.89,1.14,3.91,3,4.26a6,6,0,0,0,3.73-.92c4.34-2.21,8.52-5,13.3-5.85,10.7-2,21.09,6.53,25.08,16.65,5.87,14.92,4.64,38.41-3.33,52.4-2.68,4.71-4.82,11.7-9.61,14.87-1.84,1.22-4.63,1.33-6-.38a6.7,6.7,0,0,1-1.16-3.21,249.9,249.9,0,0,1-3.69-37c-.21-8.35-2.72-24.37-14.46-16-9.29,6.62-15.93,15.69-23.25,24.15-4.46,5.17-3,17.82,6,11.87,3.92-2.59,6.35-7.46,10-10.54a4,4,0,0,1,4.93-.44A3.67,3.67,0,0,1,1094,465c-7.84,19.75-23.93,35.05-31.58,55.53-8.65,23.15-28.13,42-39,64.52-14.54,30.16-21.08,66.33,2.86,93.64,4.41,5,7.11,10.58,6.64,17.4-.49,7-1,14-1.55,21.08-.32,4-.88,7.93-1.09,11.91a16.56,16.56,0,0,1-5.2,11.51c-28.32,25.56-35.84,76.06-29.43,111.59,2.32,12.91,7.92,20.13,18.5,27.32a27.13,27.13,0,0,1,9.39,10,15.16,15.16,0,0,1,1.52,11.49c-1.38,4.88-2.71,9.77-4.22,14.61a22.09,22.09,0,0,1-7.47,10.65c-19,15.58-38.21,31.59-50.12,53.63-9.93,18.38-13.7,41.12-5.45,60.31,6.38,14.84,8.43,32.87-13.45,29.4-23.63-3.75-44.32-7.1-68.23-1.52a135.89,135.89,0,0,0-34.93,13.41c-9.66,5.37-17.34,14.37-29,14.32a15.6,15.6,0,0,1-10.89-4.8c-3.75-3.79-7.74-7.34-11.5-11.12-1-1-1.91-2.16-2.83-3.27-8.6-10.35-21.8-10.61-33.35-5-7.42,3.62-13.68,9.24-19.45,15.15-20,20.5-45.45,53.16-45.13,83.4.05,4.15,0,8.31-.17,12.45a13.83,13.83,0,0,0,3.94,10.26c5.76,5.81,11.59,11.5,19.54,14.32a10.15,10.15,0,0,1,7.16,8.55,21.54,21.54,0,0,0,.94,4c2.17,6.32.94,12.25-2.31,17.77-2.46,4.16-5.28,8.13-8.12,12.06-14.5,20-14.3,54.09-7.12,76.66,6.12,19.27,19.65,36.58,38.06,44.92,5.66,2.57,11.72,4.29,17.09,7.42,28.61,16.69,22.17,50.4,27,78,1.74,9.89,20.41,57.15,35.81,39.85q6.58-7.41,2.63-16.56c-2.54-5.86-5.12-11.71-7.53-17.63-3.43-8.43-7.3-25.66-1-33.53,1.73-2.15,4.16-3.59,6.24-5.4a23.12,23.12,0,0,0,6.45-9.19c1.18-3.09,2.35-7,5.62-7.53,2.74-.41,5,2.07,6.45,4.44,4.91,8.12,6.74,17.81,6.75,27.3,0,14.77-3.57,29.25-3.87,44.07a19.82,19.82,0,0,0,1,5.84,7.42,7.42,0,0,0,4.9,5,13.05,13.05,0,0,0,14.81-4.29c10.81-13.83,7.34-44.3,7.34-61.15,0-11.31-.52-23-5.4-33.21-8.87-18.6-35.8-30.74-54.66-19.72a50.94,50.94,0,0,1-7,3.68A11.37,11.37,0,0,1,788,1367.21a21,21,0,0,1,1.19-5.8c7.31-20.76,5.33-46.7.57-67.92-4.49-20-13.68-39.21-28-53.84-13.06-13.31-18.67-22-11.94-40.61,8.43-23.32,34.58-37.27,45.86-59.75a57,57,0,0,1,3.16-5.8c3.84-5.82,9.14-6.71,14.61-2.34a21.66,21.66,0,0,1,4.87,5.33c16.58,26.41,49.33,36.25,78.94,29.53,20.81-4.73,54.36-22,63-43.11.83-2,1.57-4.29,3-5.86,8.94-9.89,13.49-22.68,22-32.89,3.21-3.85,5.21-8.67,7.93-12.94,2.91-4.57,4.73-5.22,10-4a25.32,25.32,0,0,1,2.54.73c21.16,7.43,35.67-23.9,43.35-39.13a161.16,161.16,0,0,0,17.11-63.86c.91-17.18-6.37-24.06-16.14-36.65-2.86-3.68-3.45-7.85-2.31-12.51,8.16-33.51,34.62-59.16,41.36-93.94,5.18-26.69.57-53.16-15.56-74.88-1.22-1.64-3.48-2.68-5.45-3.58-7.62-3.5-11.25-9.23-11.34-17.72-.13-11.2,1-22,6.83-31.88a32.13,32.13,0,0,1,4.59-6.42,118.06,118.06,0,0,0,14.06-16.63c1.18-1.74,2.38-4.33,4.95-3.72,3.05.73,2.6,3.81,2.61,6.1.13,22.45,2.86,42.77,12.86,63.42,6.78,14,17.36,26.76,31.59,33.08,4.72,2.09,10.25,3.87,12.52,8.51,2.63,5.36-.17,13.1,0,18.87.18,6-2.47,10.08-7.83,12.56-28.63,13.28-34.95,61.24-30,88.91,2.18,12.09,6.88,24.74,15.76,33.57,7.43,7.38,17.46,8.14,17.86,20.66.32,10.22-.4,20.24-5.75,29.41-3.44,5.89-6.47,12-9.87,17.94-13.89,24.14-6.91,58.33,4,82.34,5.65,12.42,14,16.13,23.8,24.26a13.89,13.89,0,0,1,5,10.42c.4,9.24.77,18.49,1.06,27.73.21,6.88-5.76,12.57-8.45,18.6a82.66,82.66,0,0,0-6.19,22,85.51,85.51,0,0,0,5.62,45c10.41,24.74,39.86,53.45,69,49.2,6.7-1,12.67.71,18.57,3.3a17.68,17.68,0,0,1,3.86,2.52c8.24,6.65,1.76,18.35,4.94,27.41a36.64,36.64,0,0,0,20.14,21c13.22,5.56,28.71,3.7,41.72-2.34s23.86-15.89,33.61-26.41c9.28-10,18-21.07,23.11-33.86,5.24-13.15,3.68-27.35,3.79-41.26,0-2,.07-4.14,1.08-5.89,3.3-5.72,18.58-5.24,24.49-8.13a60.15,60.15,0,0,0,20.62-17.38c11.48-14.81,19.77-34.23,20.93-53a78.05,78.05,0,0,0-6.44-36.5c-4.57-10.24-14.85-17.88-10.42-30,1-2.68,1.37-5.59,2.47-8.21a30.6,30.6,0,0,1,4.19-7.39c14-17.28,27.21-32,33.81-53.87,5.21-17.26,2.46-33.22,4.44-50.5.2-1.77.77-3.89,2.88-3.81,1.15,0,2.62,1.47,3.3,2.65,2.64,4.57,5.16,9.23,7.47,14,5.51,11.29,10.89,22.64,16.27,34a42.12,42.12,0,0,1,2,5.27,90.51,90.51,0,0,0,11,23.53c6.88,10.29-4.43,23.49-6.78,34.08-2.76,12.41-2.93,25.27-3.07,37.92,0,4.93-.09,10,1.44,14.64,4.75,14.54,25.87,17.24,26.33,32.91.14,4.62.72,9.22.9,13.83.36,9.12-6,12.31-11.1,18.58-5.35,6.61-9.31,14.85-12.24,22.79a92.86,92.86,0,0,0-4.26,49.41c1.44,7.46,3.81,14.78,4.13,22.37.3,7.37-7.08,30.57-18.71,20.42a8.54,8.54,0,0,1-2.65-4.71c-16.61-78.18-16-158.77-17.42-238.66-.08-4.55-3.69-20-9.29-6.78a40.18,40.18,0,0,0-3,14.53,1381.34,1381.34,0,0,0,10.72,218.57c1.48,11.46-2.88,15.77-12.78,19.55-13.42,5.11-26.48,9.15-38.07,18.13-10.62,8.22-19.16,19.75-21.59,33-.79,4.26-.94,8.64-2.07,12.83-2.51,9.27-11.56,13.07-19,18a13.29,13.29,0,0,1-8.86,2c-2.84-.28-5.65-.91-8.5-1.2-17.1-1.76-28.4,1.38-41,13.71-18.57,18.12-32.51,44.22-34.64,70.28a16.76,16.76,0,0,0,1.34,9c2.38,5,4.42,10.08,6.89,15a52,52,0,0,0,5.88,9.51c5.18,6.32,6.9,13.66,7.22,21.52.23,5.67-2.47,10.31-6,14.31a52.62,52.62,0,0,0-9.54,16.51c-6.81,18.08-4.36,36.95,11.42,49.61,9.88,7.94,22.45,11.79,35,13.78,29.69,4.74,53.1-5.73,78.32-20.09,1.45-.82,3-1.68,5-.09a6.11,6.11,0,0,1,1.89,6.26,81.69,81.69,0,0,0,6.22,54.83c4.42,8.91,10.18,21-2.62,26.08a13.92,13.92,0,0,1-5.84.76c-23.26-1.19-39.07,19-53.14,35.84a14.22,14.22,0,0,1-5.34,4.11c-5.68,2.34-8.89-1.38-11.61-4.8-47.57-59.77-91.49-124.11-123.86-193.47-14.87-31.84-27.07-54.73-38-88.11-13.7-41.69-24-84.64-33-127.55-4.61-21.84-9.76-53.61-13.51-75.61-.58-3.41-6.14-48.75-12.31-46.13-12,5.07-3.1,32.28-2,41.63q3,25.15,7.3,50.15a988,988,0,0,0,21.74,96.89c36,129.59,98.17,252,182.43,356.83,2.76,3.44,5.64,7.06,6.36,11.41,1.18,7.1-3.64,13.67-5.33,20.65-3.19,13.14,4.76,26.07,8.09,39.16,4.14,16.22,1.12,33.27.32,50-1,19.73,2.18,41.75,20.52,52.63,6.24,3.7,14.55,2.44,18.81-3.43,4.45-6.11,4.81-16-1.09-18.39-20.2-8.21-13.84-47.43-12.43-65.49.19-2.41,2.43-2,4.81-1.61a30.12,30.12,0,0,0,16-1c12.92,8.68,1.82,37.3,17.42,39.58,6.46,1,12.54-3.52,14.24-9.83,3.73-13.86-5.16-24.65-8-37-1.6-6.83,8.31-35.45,17-24.25,2.6,3.35,6,4.88,9.8,6.29C1442.7,1798.21,1447.9,1800.66,1453.27,1802.62Zm-423.06-962.2c-.9.62-1.71,1.4-2.64,2-3.76,2.32-6.45,1.55-7.53-2.63a37,37,0,0,1-1.54-11c.71-12.73,1.81-25.44,6-37.62,3.27-9.43,7-10.82,15.85-6.2a43.72,43.72,0,0,0,9.65,4.13c8.06,1.94,11.44,7.58,12.84,15a34.53,34.53,0,0,1,.37,5.27c-.45,7.66-1,14-1.16,20.39-.18,5.85-2.81,10.55-6.4,14.83-2.79,3.33-4.59,3.36-7.64.44-1.11-1.06-2.07-2.28-3.19-3.33C1039.68,836.7,1036,836.42,1030.21,840.42Zm3.08,137.15c-2.11,15.22-3.77,29.46-10.06,42.62a20.18,20.18,0,0,1-1.54,2.91c-2.11,3-4.48,3.08-7,.22a3.35,3.35,0,0,1-.4-.53c-4.4-8.17-12-8.83-20-8.38-2.63.15-5.21.91-7.84,1.14-4.56.38-6.56-1.82-5.86-6.36a13.9,13.9,0,0,1,1.12-3.79c2.65-5.55,5.41-11.06,8.09-16.6,1.63-3.36,3.38-6.69,4.76-10.16a38.85,38.85,0,0,1,9.28-13.52c7.89-7.63,21.3-6.12,26.91,3.3C1032.49,971.27,1032.64,975.05,1033.29,977.57ZM1047,645.91c-3.24,2.49-5.64,1.74-7-2.16a18.83,18.83,0,0,1-.87-3.85,90.49,90.49,0,0,1,5-41.94c2-5.42,6.78-21.13,13.75-22.27a10.22,10.22,0,0,1,4.46.61c11.82,3.59,21.32,5.76,20.14,20.17a173.49,173.49,0,0,1-2.72,20.86c-1.31,6.43-3.55,12.68-5.45,19a27.58,27.58,0,0,1-1.76,4.25c-2.55,5.09-4.2,5.6-8.18,1.64-3.63-3.61-8.31-4.2-12.91-.25C1049.93,643.25,1048.56,644.71,1047,645.91ZM928.59,1108.55a27.4,27.4,0,0,1-3,3.51c-7.36,8-16.61,12.83-26.78,16.12a63.77,63.77,0,0,1-20.25,3.41,83.46,83.46,0,0,1-8.89-1.65c-3.71-1-4.72-3.67-3.16-7.16a12.4,12.4,0,0,1,1.72-2.8,42.28,42.28,0,0,0,8.25-16.36c1.09-4.06,3.71-6.55,7.74-7.15,4.75-.72,9.56-1.12,14.36-1.39,4.15-.23,8.32-.07,12.48-.1a71.65,71.65,0,0,1,7.89,0,19.75,19.75,0,0,1,6.3,1.73C930.7,1099.25,931.86,1103.58,928.59,1108.55Zm-187.44,49.61c-.43-.51-.75-1.1-1.17-1.61-3.54-4.25-6.68-5-11.58-2.5a44.16,44.16,0,0,0-4.91,3.33c-1.43,1-2.83,2.56-4.71,1.4-2.06-1.29-1.8-3.59-1.12-5.39,2-5.35,3.7-10.94,6.6-15.78,5.76-9.61,12.11-18.88,18.51-28.09a33.12,33.12,0,0,1,7.48-7.37c4-2.94,8-1.76,10.53,2.6a14.29,14.29,0,0,1,1.28,3,55.94,55.94,0,0,0,8.26,16.46c1.37,1.89,2.07,4.26,3.13,6.54-1.17,2.42-1.92,4.79-3.31,6.69-4.69,6.37-9.53,12.66-14.52,18.81a16,16,0,0,1-5.2,3.94C746.5,1162.23,744,1161.55,741.15,1158.16Zm16.62,125.37c2.29,4.74,4.43,9.55,6.58,14.36,2.37,5.34,2.91,11,3,16.79a78.51,78.51,0,0,1-1,9.12c-.74,3.29-3.12,4.09-6,2.39-.94-.55-1.73-1.35-2.63-2-5.43-3.75-8.73-3.23-12.92,2a40.29,40.29,0,0,1-2.81,3.63c-2.51,2.52-5.13,2.42-7.32-.3a22.37,22.37,0,0,1-2.33-4c-1.09-2.16-1.94-4.44-3.14-6.53-5.3-9.24-6-19.09-4.27-29.35.65-4,2.66-6.2,6.58-7.18,4.66-1.16,9.26-2.63,13.83-4.11C751.26,1276.52,755.1,1278,757.77,1283.53Zm718.61,74.21a85.37,85.37,0,0,1-11.59,9.78,104.38,104.38,0,0,1-15.19,7.94,24,24,0,0,1-8.32,2.1,10.2,10.2,0,0,1-6.91-1.9c-2.31-1.81-3.85-4.41-5.34-6.94l-5-8.46c-3.88-6.63,5.9-14.31,10.81-17.48,4.43-2.86,9-5.54,13.7-8a20,20,0,0,1,6.94-1.82c3.1-.32,5.75,1,6.88,4,1.8,4.91,5.62,7.73,9.84,10.26a27.86,27.86,0,0,1,3.82,2.59C1479.09,1352.49,1479.32,1355,1476.38,1357.74ZM1335.3,1560.25c-.29-1.51-.79-3-.94-4.51-.44-4.21,1.77-6.68,6-6.86a5.62,5.62,0,0,1,2,.14c6,1.93,12.2,1.15,18.29,1.86a27.72,27.72,0,0,1,7.06,1.4c4.69,1.86,7.16,7,4.72,11.35-3.14,5.58-2.65,10.72-.82,16.41,2,6.24.32,9-6.09,10.61a71.11,71.11,0,0,1-21.63,1.86c-7-.63-14-1-20.94-2a24.07,24.07,0,0,1-7.88-3.07c-1.93-1-3.54-2.84-2.73-5.42.7-2.22,2.7-2.71,4.72-3,2.18-.27,4.41-.28,6.54-.75C1332.92,1576.23,1337.1,1569.72,1335.3,1560.25Zm-17.45-80.93c-3.56-1.7-7.1-3.51-10.5-5.51-5.27-3.1-6.44-6.24-4.92-12.17a4.54,4.54,0,0,1,.18-.63c5.4-12.7,12.32-24.3,24.14-32.13,1.92-1.27,4.41-1.66,6.76-2.51,2.64,1.14,5.09,2.06,7.4,3.25,1.13.58,2,1.75,3,2.51,7.37,5.22,8,12.07,4.83,19.83A76.29,76.29,0,0,1,1332,1477C1327.06,1482,1324.18,1482.34,1317.85,1479.32Zm68.37,269c-2.41-1.32-4-3.6-3.31-6.59a11.08,11.08,0,0,1,5.61-7.72,7.25,7.25,0,0,1,1.72-.29c.74.62,2.11,1.24,2.59,2.28,2.3,5,6.73,7.35,11.16,9.79,2.33,1.29,4.61,2.61,5.62,5.27.76,2,.73,3.91-.94,5.46a4.21,4.21,0,0,1-4.91.76C1397.87,1754.37,1392,1751.46,1386.22,1748.31Zm8.72,28.34a13.46,13.46,0,0,1-10.58,5.31,25.8,25.8,0,0,1-3.45-.84c-3.49-1.33-7-2.67-10.39-4.18-5.47-2.43-7.27-6.93-4.82-12.4a28.39,28.39,0,0,1,3.85-6.08,3,3,0,0,1,4.67-.36c5.22,5.82,12.71,7.66,19.15,11.32C1397,1771.51,1397.54,1773.39,1394.94,1776.65Zm48.69-140.55a5.81,5.81,0,0,1-4.21-4.69,21.05,21.05,0,0,1-.78-6.5c.94-8.49,2.11-17,3.36-25.41a10.53,10.53,0,0,1,5-7.42c1.1-.71,2.25-1.37,3.39-2,5.17-3,10.14-6,13.16-11.58,1.55-2.84,3.69-2.7,5.71-.1a17.5,17.5,0,0,1,3.73,9.71c.17,2.62,0,5.26,0,7.9h.31c-.54,8.11-.43,16.33-1.85,24.27-1,5.47-3.91,10.64-6.34,15.76a6.16,6.16,0,0,1-6.77,3.18C1453.44,1638.43,1448.51,1637.31,1443.63,1636.1Zm360.69-128.77c-33.62,12-70.37,6.15-102.1,25.88-20,12.41-35,32.56-56.74,41.38-26.92,10.91-57.24-2.76-84.35-7.38-9.41-1.6-16.56.75-23,7.9-10.57,11.79-15.76,25.48-19.69,40.67-7.43,28.72-7.8,58.93-19,86.55-3.38,8.33-7.82,16.84-15.54,21.43-8,4.77-18,4.4-27.3,3.87-2.36-.13-5-.37-6.58-2.09a9.12,9.12,0,0,1-1.88-4.82c-1.82-10.16-2.78-21.15,1.91-30.35,5.2-10.19,16.09-15.91,24.54-23.63,20.41-18.68,25.83-48.76,25.11-76.42-.27-10.67-1.44-21.79-7.17-30.8-8.44-13.28-26.86-19.15-41.44-13.22-9.92,4-19.06,12.94-29.55,10.81-8.72-1.77-13.93-10.39-20.43-16.46-15.51-14.5-39-14.62-60.24-15.84-6-.34-13.6-2.42-14-8.39-.34-5.09,5.07-8.37,9.51-10.89a80.61,80.61,0,0,0,37.87-49.89c2.22-8.91,2.9-18.19,5.64-27s8-17.38,16.5-21c10.28-4.39,22-.39,33.09.64a61.35,61.35,0,0,0,39.12-9.85c5.27-3.48,11.69-8,17.25-5,3.73,2,5.12,6.58,6.18,10.68q9.86,38,22.18,75.3c5.25,15.87,11,31.87,20.74,45.42,3.25,4.49,7.4,9,12.88,9.81,17.46,2.71,13.95-42.56,14-52.35q.08-8-.22-16c-.24-6.39-3.66-15.24-10.84-9.13-6.25,5.33-2.27,24-2.36,31.18-.08,5.79-1.55,15.31-5.73,19.27-5.22-3.7-7.33-16.71-9.54-23-9.41-26.65-16.76-53.6-24.35-80.78-2.08-7.42-4.12-14.85-6.3-22.24a10.61,10.61,0,0,1,1.76-9.9c6.67-9.49,9.19-20.39,9.6-31.81a27.15,27.15,0,0,0-1.19-7.13c-2.59-10.65,2.45-19.32,13.4-20.74,8.38-1.08,15.43-5,22.88-8.15,18.27-7.71,27.06-41.66,29.38-59.24,1.91-14.51.59-30-5.38-43.43-5.33-12-20.59-20.21-21.07-33.49-.37-10.3-5-21,1.79-28.65,3.49-4,15.08-12,20-6.39a111.88,111.88,0,0,1,9,11.27c23,34.49,43.1,71.26,64.91,106.54,22.29,36,44.58,72.1,65.63,108.88,14.09,24.62,28.39,49.14,43.87,72.92,14.46,22.22,32.75,42.11,46.75,64.31.94,1.49,2,2.92,2.78,4.49C1808.33,1504.36,1807.77,1506.09,1804.32,1507.33Z"></path><path class="cls-3" d="M1288,1925.44c-2.49-9.93-5.23-19.82-6.76-30a18.9,18.9,0,0,0-1.29-5.28,5.26,5.26,0,0,0-7.3-3c-5.67,2.33-6.92,8.54-6.14,14,1.26,8.88,6.49,18,5.76,27.08-3-.59-5.85-5.51-8-7.58-1.58-1.51-6-8.14-7.34-9.9-4.88-6.52-9.81-13-14.47-19.68-6.39-9.12-13.77-16.93-19.75-26.27-54-84.12-96-165.25-127.38-260.12-32.28-97.64-53.24-202.08-63.11-309.32-.27-2.9-.25-6.69-.23-10.48,0-4.32-.16-8.63-1.69-11.58s-5.7-4.54-8.08-2.34c-1.27,1.17-1.63,3-1.86,4.71-1,7.47-.56,15-.07,22.57a1303.13,1303.13,0,0,0,16,132.5A1176.24,1176.24,0,0,0,1083,1613.4c37.5,109.87,91,220.4,165,310.66,10.16,12.41,21.88,31,37.86,35.55,3.84,1.09,6.36-.72,7.11-4.76.83-4.43-.65-9.71-1.46-14.09C1290.5,1935.61,1289.28,1930.52,1288,1925.44Z"></path><path class="cls-3" d="M1044.3,1138.83c2.54-6.7,2.72-14.33,3.75-21.35.57-3.85,3.63-17.07-1.52-18.81-9.23-3.13-14.69,33.13-15.57,38.64-.11.69-.21,1.39-.29,2.08a14.08,14.08,0,0,0,.21,5.22C1034.07,1156.57,1042.53,1143.54,1044.3,1138.83Z"></path><path class="cls-3" d="M1027.65,1229.38c.91-4.32,7.76-42.78-.82-38.8-7.84,3.64-9.14,16.75-8.86,27.11.1,3.73.4,7.1.68,9.54C1019.7,1236.29,1025.31,1240.54,1027.65,1229.38Z"></path><path class="cls-3" d="M1232.39,561.16c3,6.63,7.46,11.73,14.8,14.13a56.47,56.47,0,0,0,19.47,3.08c22.2-.8,44.54-16.57,53.17-36.94,4.29-10.11,5.49-21.25,5.62-32.25,0-.7,0-1.39,0-2.08,0-12.8-2-25.14-11.08-34.73-6-6.34-14.5-10.28-23.31-9.75-6.1.38-12,2.4-17.66,4.67-7.56,3-15,6.59-21.3,11.79-7.3,6.05-13.79,14.36-18.78,22.4a54.07,54.07,0,0,0-7.86,32.26A78.11,78.11,0,0,0,1232.39,561.16Zm8.92-32.47c1.5-23.09,17.64-41.3,38.22-50.41,4.43-2,9.39-3.51,14.09-2.28,7.67,2,13.53,11.1,15.94,18.22,5.55,16.4.68,43.18-12.87,54.71-2.24,1.9-2.91.74-1.71-2,2.93-6.75,5-18.16-1.85-25.44-4.19-4.46-9.58-6.16-17.72-3.91-25.86,7.15-18.81,41.4-15.69,45.31,4.1,5.13-5.69.65-9.11-1.8a13.59,13.59,0,0,1-4-5.33A53.51,53.51,0,0,1,1241.31,528.69Z"></path><path class="cls-3" d="M1322.83,589.75c1.07,6,2.2,12.08,5.37,17.24,9.53,15.56,30.72,13.31,45,6.58,27.16-12.82,47.86-36.28,43.06-67.69-2-12.91-6.9-26.39-17.78-33.61-9-5.92-20.7-6.55-31-3.44-13.18,4-21.58,12.49-30.56,22.08-11.44,12.22-15.77,25.42-15.89,40.05A101.21,101.21,0,0,0,1322.83,589.75ZM1335.48,565c2.76-11.44,9.45-21.64,17.67-30,6.21-6.34,13.75-12,22.53-13.26,19.32-2.83,27.79,18.56,28.57,34.46,0,.76,0,1.52,0,2.29-.11,13.22-7.9,21.77-17,30.29a22.28,22.28,0,0,1-4.26,3.07c-1.35.76-3.14,1.38-4.15-.2-.56-.87,10.38-21-3.5-30-6.13-4-13.31-2.51-18.49,2.65-17.86,17.78-8.94,34.82-9.05,35.87s-.61,2.54-1.26,2.73c-5.77,1.65-9.53-10.91-10.66-14.67A44.88,44.88,0,0,1,1335.48,565Z"></path><path class="cls-3" d="M1310.41,630.75c-2.61-5.49-2.51-11.88-1.47-17.86,1.83-10.46,4.62-20.7,6.27-31.22.57-3.67-.09-7.32-3.8-9.09s-6.8.34-9.51,2.78c-5,4.55-4.28,12.09-7.56,17.82a36.4,36.4,0,0,1-12.93,12.87c-8.47,5.06-18.51,7-28.37,7.12-5.34.07-10.87-.34-15.82,1.64-6.6,2.63-8.37,9-8.5,15.33,0,1.1,0,2.21.06,3.3.47,8.63,5.46,14,12.42,18.58a202.58,202.58,0,0,0,53.3,25c23.7,7.13,38.74-14,24.35-34.52C1316.08,638.52,1312.48,635.1,1310.41,630.75Zm-24.56,27.46a232.75,232.75,0,0,1-34.68-19.32c-3.5-2.37-6.85-8.26-.44-9.38,7.55-1.32,34-14.68,39.37-8a17.37,17.37,0,0,1,2.44,5.27c3.17,9,17.72,20.18,17.53,29C1309.79,669.18,1292.5,661.21,1285.85,658.21Z"></path><path class="cls-3" d="M1287.09,712.4c-2.64-.93-4.83.19-6.43,2.19-5.88,7.37-8.45,14.65-17.87,18.82a11.27,11.27,0,0,1-5.17,1.2c-3.75-.24-6.69-3.63-7.65-7.27-1.3-4.94.12-10.34-.4-15.44a16.06,16.06,0,0,0-1.74-6.25c-2.13-3.66-6.26-3.7-8.6-.21-2.87,4.29-3.68,10.6-3.48,16.55a55.09,55.09,0,0,0,1.14,9.38c1.27,6,4.5,11.77,9.79,14.76,4.89,2.77,11,2.8,16.34,1.17,10.82-3.29,21.24-12.11,26.58-22a16,16,0,0,0,1.83-6.87A6,6,0,0,0,1287.09,712.4Z"></path></svg> 