<?xml version="1.0" encoding="UTF-8"?> <svg xmlns="http://www.w3.org/2000/svg" id="Snorkfröken_5_Image" data-name="Snorkfröken 5 Image" viewBox="0 0 2400 2400"><defs><style>.cls-1{fill:#fff;}.cls-2{fill:#fef065;}.cls-3{fill:#0e5256;}</style></defs><title>lady_of_cold</title><path class="cls-1" d="M1869.85,1378.36c-14.68,37.15-46.32,66.17-80.55,84.73a11.83,11.83,0,0,1-4.09,1.58c-2.54.32-5-1-7.28-2.08a79.29,79.29,0,0,0-28.13-7.83c-1.68-.15-3.53-.19-4.87.83-3,2.28-.51,7.41,3,8.67,8.71,3.1,17.65,1.33,26.51,6a58.81,58.81,0,0,1,20.74,18.79c8.78,12.73,13.19,28,16.14,43.15.75,3.86,1.42,7.74,1.86,11.64,7.69,68-60,124.11-121.48,135.7-26.86,5-55.87.12-77.87-16.71-7-5.36-12.93-12.58-15.11-21.12-2.48-9.71-.64-25,5.69-33.19a27.94,27.94,0,0,1,4.71-4.44c22.09-17.77,44.79-37.47,53.66-64.4a112.13,112.13,0,0,0,4.16-18.38c2.33-15.2,3-31-1.08-45.78s-13.38-28.71-27.09-35.68c-2.88-1.47-6.18-2.64-9.32-1.83s-5.69,4.36-4.38,7.32c1,2.23,3.53,3.19,5.77,4.16,13,5.6,22.3,18.14,26.09,31.8s2.57,28.33-1.1,42a122.61,122.61,0,0,1-54.56,72.49c-13.72,8.27-30.85,13.78-45.67,7.68-3.78-1.56-7.54-3.87-11.6-3.45s-7.62,5.65-4.8,8.59a7.47,7.47,0,0,0,2.71,1.59,79.08,79.08,0,0,0,44.47,4.36c-2.77.53,3.83,31.89,5.14,34.76,6.91,15.22,24.35,28.44,39.38,35,6.26,2.75,12.35,3.79,19,4.89,9.16,1.51,9.74,5.84,10.57,14.9a85.31,85.31,0,0,1-1.78,24.63c-2.45,12.08-7.12,23.6-12.23,34.81-3.91,8.59-8.12,17.09-13.51,24.84a125.24,125.24,0,0,1-23.35,24.67c-10.94,9-23,16.87-36.37,21.74-21.17,7.74-44.83,6.85-65.8-1.08-18.66-7.06-39.54-20-45-40-1.05-3.83-2.45-7.56-3.38-11.41a49.32,49.32,0,0,1-1.22-15.36c.61-8,14.93-22.41,9-29.92-5.59-7-15.94,12.38-18.87,16.2-17.43,22.77-32.53,49.8-58.66,63.45-15.43,8-32.46,12.48-49.42,16.39-17.42,4-35.18,7.57-53,6.71-35.84-1.71-73.09-19.51-101.72-40.41a184.1,184.1,0,0,1-31.17-28.44c-16.33-19-27.89-40.2-29.24-65.61-.6-11.16.34-22.32,1.69-33.4,1.1-9,5-17.85,5.73-26.67,0-2.49-1.65-8.49-5.27-8.06-3,.35-5,9.06-5.82,11.54a109.74,109.74,0,0,0-5.78,27.8c-.43,5.82,2.84,20.44-1.11,24.84-3.79,4.23-5.32,7.77-10.81,10.24-9.32,4.22-18.49,7.77-28.12,11.18-11.69,4.13-23.14,8.61-35.36,11-20.14,3.91-40.36.37-59.4-6.76-12.12-4.53-23.5-10.85-34.49-17.67-7.22-4.48-14.34-9.23-20.45-15.13-8.06-7.79-14.14-17.36-19.78-27-17.91-30.72-25.66-64.19-25.24-99.54.21-17.31,1.81-34.87,6.85-51.5a101,101,0,0,1,10.73-24.26c1.71-2.75,4.88-9.21,7.87-10.62,6.37-3,20.72,1.48,27.57,1.79a176.37,176.37,0,0,0,31.58-1.26c7-.94,16.41-4.88,23.25-3.64,1.29.24,1.57,14.23,1.93,16a69.2,69.2,0,0,0,5.64,16.2,150.17,150.17,0,0,0,25.71,37.09c14.25,14.94,32.7,26.35,53,30a122.18,122.18,0,0,0,20.13,1.6c16.56.16,33.31-1.43,48.92-6.93,13.38-4.71,24.16-12.26,34.16-22.14,6.76-6.66,6.68-1.72,6.86,5.12.24,9.58-1.28,17.87,1.92,27.31a59,59,0,0,0,14.42,22.82c15.26,15.06,33.71,18.95,53.68,18.55q3.84-.07,7.75-.35l6.31-.42c1.85-.13,3.71-.26,5.56-.43a104.82,104.82,0,0,0,48-17,76.44,76.44,0,0,0,12-9.68,60.4,60.4,0,0,0,13.13-19.91c3.6-9,4.74-18.5,4.48-28a4.66,4.66,0,0,0-4.1-4.16c-3.64-.29-5.36,1.36-5.47,5.24a61.14,61.14,0,0,1-15.8,38.86c-14.28,15.31-38.12,23.79-58.48,26.2-21.22,2.53-43.56-2.07-59.45-17.08-6.61-6.25-12-14.09-13.83-23-1.5-7.47-.53-15.23-.44-22.77.06-5.65.08-12,1.89-17.4,1.17-3.5,3.13-6.6.5-10-2.17-2.83-5.87-3.33-8.48-.77-6.48,6.35-12.09,12.89-18,19.67-10.38,11.83-25.89,18.51-40.79,22.46a128.16,128.16,0,0,1-13.43,2.83,112.46,112.46,0,0,1-31.89.44c-29.66-4-53.32-22.71-69.93-46.92a86.54,86.54,0,0,1-15.16-39.62c-3.52-33,4.93-65.74,20.32-94.87,3.59-6.79,7.41-13.54,11.39-20.11,3.55-5.86,8.16-13.07,15.29-14.81,2.58-.64,3.66-.11,5.38-2.89,1.93-3.12,0-7.35-3.62-7.58-11.58-.71-17.07,7.48-23.16,16a204.13,204.13,0,0,0-18.46,31.17c-10.35,21.71-16.86,45.56-16.86,69.71,0,11.28-22.91,13.57-31.81,14.11s-18.09-1.58-27-2.28a202.7,202.7,0,0,1-50-10.23c-31.2-10.71-60.7-30.41-75.92-60.51-17-33.66-32.24-73-31.21-111.38.41-15.18,4.24-30,9.82-44.12,4.45-11.21,16.23-25.12,16.73-37.17.35-8.29,4.71-10.29,12-8,15.22,4.76,31.64,1.82,47.06-.29,3.35-.46,7.71-.93,10.22-3.5,2-2.08,4.78-10.14-.36-9.4-18.15,2.61-36.48,5.24-54.85,3.85-19-1.44-38.29-7.48-52.42-20.31-19.25-17.5-26.28-44.95-27.08-70.95-.81-26.4,4.09-53.55,18-76s37.76-39.51,64.1-41.43c5.1-.37,10.7,0,14.57,3.31a25.56,25.56,0,0,1,4.24,5.34A109.15,109.15,0,0,0,870,1022.2c2.51,1.49,5.2,2.92,8.11,3s6.08-1.6,6.75-4.44l-18-14.77c-6.38-5.24-12.78-10.5-18.23-16.7-12.25-13.92-20-33.87-20.82-52.35-.58-13.06,1.65-34.7,8.76-49,57.42-98.4,154.61-49.35,167.71-36.9a98,98,0,0,1,26,43.17c.11.38.73.53.91.12,11.8-25.45,29.22-48.56,51.62-65.62,23.59-18,52.46-28.41,82.24-28.22a116.15,116.15,0,0,1,44.65,9l0,0c34.8,20.66,53.66,62,55.23,102.48s-12,80-29.77,116.39c-1.44,3-3,6.13-2.47,9.39s4,6.22,7,4.85a7.41,7.41,0,0,0,3.08-3.41c5.64-10.13,7.54-22.07,13.66-31.92,14.78-23.76,51.5-26.61,74.07-10.08s31.79,46.75,29.85,74.66c8.23,1.57,14.23-7.24,18.4-14.5,11.22-19.52,26.71-37.1,46.54-47.77s44.33-13.76,65.19-5.28c19.2,7.82,33.65,24.5,43.29,42.85,4.39,8.34,7.75,19.11,2.12,26.67-3.26,4.39-8.82,6.49-12.43,10.59s-3.49,12.4,1.9,13.3a153.56,153.56,0,0,1,110.06-48.49c50.56-.36,101.75,25.8,127.38,70,17,29.25,22.49,64.75,16.2,98s-24.15,64-49.21,86.67c-2.94,2.67-6.22,5.71-6.32,9.68-.35,13.53,16-5.58,18.93-8.36.67-.65,1.35-1.29,2-2s1.47-1.56,2.17-2.36c9.88-11.31,20.33-24.87,26.5-38.59,2-4.41,3.43-9.46,6.43-13.34,2.19-2.83,7.25-7.85,10.57-6.57,17.2,6.62,34.32,12.94,49.33,23.92,19.9,14.56,34.33,28.7,37.73,53.73A116.29,116.29,0,0,1,1869.85,1378.36Z"></path><path class="cls-2" d="M1021.76,1086.88a126.33,126.33,0,0,1-10.39-7.76c-.59-.49-1.17-1-1.75-1.5a7.67,7.67,0,0,0,5.23-5.43c1.15-4.16-1.4-9.18-5.78-10.17-2.15-.49-5-.93-6.82-2.41a8.89,8.89,0,0,1,2.24-2,18.91,18.91,0,0,0,2.53-1.89c5.18-4.54,1.34-12.63-4.11-14.2l.47-.63c2.44-3.25,5.16-6.48,7.8-9.66,4.23-5.1,2-15-6-14.43-6.83.49-12.73,7-17.65,11.18-2,1.75-4.07,3.51-6,5.33-1.15-6.79-12.52-10.42-15.81-2.88-.3.68-.57,1.36-.82,2l0,0c-.06.16-.09.31-.14.47a37.11,37.11,0,0,0-1.36,4.53,27.25,27.25,0,0,0-3.1.57l-.09-.14c-1.9-5.77-4.26-11.44-5-16.22-1.1-7.13-12.41-8.25-15.47-2-3.75,7.63.13,16.81,4.08,23.83a3.58,3.58,0,0,0,.11.35c.36,1.22.59,3.06,1.06,4.48-.12.16-.23.33-.34.49-1.75-.24-4-.42-4.6-.56s-1.53-.58-.39-.13c-.85-.34-1.68-.71-2.52-1.06-2.27-1-4.54-2-6.88-2.78-4.76-1.62-10.29-1.71-13.22,3.24-3.33,5.62.53,10.26,4.86,13.41,3.77,2.75,7.72,5.5,11.82,7.95a121.79,121.79,0,0,0-3,17.1c-.62,5.91,7.51,10.54,12.29,7.06l3.07-2.24c-.46,6.74-1.36,13.5-1.84,20.06-.3,4.06,3.38,7.7,7.2,8.15,4.44.53,7.45-2,9.11-6,1.46-3.47,2.7-7,4.12-10.53.4.85.81,1.69,1.2,2.55,1.32,3,5.39,4.43,8.33,4,3.57-.53,5.61-2.77,7-6s2.5-6.9,4.19-10.06c1-1.79,1.16-2.12,3-1.86s4.85,1.82,6.7,2.62c6.46,2.8,13.42,7.07,20.38,8.34C1024.57,1103.77,1029.84,1092.29,1021.76,1086.88Zm-17.21-8.62a.22.22,0,0,0,0,.09A.1.1,0,0,1,1004.55,1078.26Zm3.13-44.88c1.23-.85,2-.41,0,0Z"></path><path class="cls-2" d="M1207.65,922.24c-7.11-9.24-19.5-7.73-30-8.22-2.92-.14-6.16.1-9-.66-2.31-.62-2.87-.65-.63-2.29,4.6-3.39,10.66-5.4,16-7.12,7.69-2.45,4.52-13.55-3.31-12-5.71,1.13-11.67,2.69-17.5,1.46-2.68-.58-4.41-.82-3.86-3.76s2.24-5.46,2.79-8.39c.72-3.75-2.35-7.64-6.42-6.43A72.82,72.82,0,0,0,1145,879a26.29,26.29,0,0,1,.68-6.39,4.93,4.93,0,0,0-3.38-6c-3.9-1-7.21.29-9.86,3.24a25.27,25.27,0,0,0-3.15,4.88,4.36,4.36,0,0,1-.41.58,10.91,10.91,0,0,1-.06-3.15c.52-11,3.72-22.14,8.18-32.14,2.4-5.35-5.27-10.1-8-4.69q-8.51,16.77-17,33.53-2.25-13-5.5-25.88c-1.83-7.19-14.07-6-13.28,1.79a183.94,183.94,0,0,1,.73,28.55c-.06,1.1-.11,2.21-.18,3.32-.58-.29-1.15-.55-1.68-.77-4-1.62-8.86,2.5-8.6,6.55.24,3.75.39,7.51.4,11.27,0,1.26-.58,3.68-.07,4.71,0,.05,0,.08,0,.13l-1.59.6-20.56,7.77c-7.14,2.7-6.13,12.9,1.81,13.4,2.09.13,4.17.22,6.25.29a88.62,88.62,0,0,1-15.27,12.76c-5.25,3.46-3.77,13.27,3.46,12.76q3.84-.27,7.68-.5c.63,0,1.48,0,2.41,0-.82.78-1.64,1.58-2.44,2.4-5,5.15-.17,11.7,5.4,11.43q-4.15,12.49-8.33,25c-2.52,7.55,8.69,11.93,12.62,5.32,4.92-8.27,9.85-16.68,16.78-23.46a35.35,35.35,0,0,1,4.65-4,11.5,11.5,0,0,1,1.76-1.13,5.8,5.8,0,0,1,.06.68c.16,5.33.17,10.65,0,16-.24,6.7,9.93,9.76,13,3.51l4.19-8.57c.15-.3.8-1.41,1.54-2.71a38.81,38.81,0,0,1,3,8.76c1.92,8.12,13.28,5.71,13.85-1.87,0-.57.08-1.13.14-1.68,1.63,2.16,3.12,4.43,4.54,6.75,4.23,6.91,14.93,2.4,13-5.49-.13-.55-.25-1.1-.38-1.66q10.15,7.22,20.88,13.61c6.21,3.69,14.58-3.9,10.27-10.27-4.51-6.66-8.81-13.39-14.19-19.38-2.24-2.5-4.56-4.94-6.64-7.56a22.52,22.52,0,0,1-2.09-3.37c2.91.65,5.79,1.41,8.66,2.22,6.81,1.91,13.54,4.08,20.28,6.2,8,2.53,13.58-10,5.8-13.77q-7-3.36-14-6.72l-2.35-1.12c1.85-.28,3.7-.53,5.56-.73,6-.66,12.07-1.13,18.11-1.38C1206.33,932.45,1211.06,926.68,1207.65,922.24Zm-52.52,24.82.12,0C1155.19,947.11,1155.14,947.11,1155.13,947.06Zm2.47-3c.1,0,.07.15,0,.36C1157.49,944.19,1157.45,944,1157.6,944Z"></path><path class="cls-3" d="M1254.73,1623.74c-20,.39-38.42-3.5-53.68-18.56a58.83,58.83,0,0,1-14.43-22.81c-3.2-9.44-1.67-17.73-1.92-27.31-.17-6.84-.1-11.78-6.85-5.12-10,9.88-20.78,17.43-34.16,22.14-15.62,5.5-32.37,7.09-48.92,6.93a122.3,122.3,0,0,1-20.14-1.6c-20.32-3.62-38.78-15-53-30a149.8,149.8,0,0,1-25.71-37.09,68.91,68.91,0,0,1-5.65-16.2c-.36-1.75-.63-15.73-1.93-16-6.84-1.24-16.23,2.7-23.25,3.64a176.37,176.37,0,0,1-31.58,1.26c-6.85-.31-21.19-4.79-27.57-1.79-3,1.41-6.16,7.87-7.87,10.61a101,101,0,0,0-10.72,24.27c-5,16.63-6.65,34.19-6.85,51.5-.42,35.34,7.32,68.82,25.23,99.54,5.64,9.68,11.72,19.25,19.78,27,6.11,5.9,13.24,10.65,20.46,15.13,11,6.82,22.37,13.14,34.48,17.67,19,7.13,39.26,10.67,59.41,6.75,12.22-2.37,23.67-6.85,35.35-11,9.64-3.41,18.8-7,28.13-11.18,5.48-2.48,7-6,10.81-10.24,3.95-4.4.67-19,1.11-24.84a109.63,109.63,0,0,1,5.77-27.8c.86-2.48,2.85-11.19,5.82-11.54,3.63-.43,5.28,5.56,5.28,8.06-.74,8.82-4.64,17.65-5.74,26.67-1.35,11.08-2.28,22.24-1.69,33.4,1.35,25.41,12.91,46.59,29.25,65.61a183.34,183.34,0,0,0,31.17,28.44c28.62,20.89,65.87,38.7,101.71,40.41,17.86.86,35.62-2.7,53-6.71,17-3.91,34-8.34,49.42-16.4,26.12-13.64,41.22-40.67,58.66-63.44,2.93-3.83,13.28-23.25,18.86-16.2,5.94,7.5-8.38,22-9,29.91a49.28,49.28,0,0,0,1.23,15.36c.93,3.86,2.32,7.59,3.38,11.42,5.5,20,26.38,33,45,40,21,7.94,44.64,8.82,65.8,1.09,13.33-4.88,25.44-12.7,36.37-21.75a125.53,125.53,0,0,0,23.36-24.66c5.39-7.75,9.59-16.25,13.5-24.84,5.11-11.22,9.78-22.73,12.24-34.81a85.66,85.66,0,0,0,1.77-24.63c-.82-9.06-1.4-13.39-10.57-14.9-6.66-1.1-12.74-2.14-19-4.89-15-6.6-32.48-19.82-39.39-35-1.3-2.87-7.9-34.23-5.13-34.77a79,79,0,0,1-44.48-4.35,7.43,7.43,0,0,1-2.7-1.59c-2.83-3,.74-8.17,4.8-8.59s7.82,1.89,11.59,3.44c14.82,6.1,32,.6,45.68-7.67a122.68,122.68,0,0,0,54.56-72.49c3.67-13.7,4.88-28.36,1.09-42s-13.06-26.2-26.09-31.81c-2.23-1-4.79-1.92-5.77-4.15-1.31-3,1.25-6.51,4.39-7.32s6.43.36,9.32,1.83c13.7,7,23,20.85,27.09,35.68s3.41,30.57,1.07,45.77a113,113,0,0,1-4.15,18.39c-8.88,26.93-31.57,46.63-53.66,64.4a27.21,27.21,0,0,0-4.72,4.44c-6.32,8.16-8.17,23.48-5.69,33.19,2.19,8.54,8.11,15.75,15.12,21.11,22,16.84,51,21.77,77.87,16.71,61.52-11.58,129.17-67.64,121.47-135.69-.44-3.9-1.1-7.78-1.85-11.64-3-15.18-7.36-30.42-16.14-43.15a58.76,58.76,0,0,0-20.75-18.79c-8.86-4.62-17.79-2.86-26.5-6-3.53-1.25-6-6.38-3-8.66,1.34-1,3.19-1,4.87-.83a79.6,79.6,0,0,1,28.13,7.82c2.3,1.13,4.73,2.41,7.28,2.09a11.86,11.86,0,0,0,4.08-1.58c34.24-18.56,65.88-47.58,80.55-84.73a116.07,116.07,0,0,0,7.25-58.27c-3.4-25-17.83-39.18-37.73-53.73-15-11-32.13-17.31-49.32-23.93-3.32-1.27-8.38,3.74-10.58,6.58-3,3.88-4.44,8.92-6.43,13.34-6.16,13.72-16.61,27.28-26.49,38.58-.71.81-1.43,1.6-2.17,2.37s-1.33,1.31-2,2c-2.91,2.79-19.29,21.9-18.94,8.36.1-4,3.38-7,6.32-9.67,25.07-22.7,42.93-53.45,49.22-86.68s.76-68.72-16.21-98c-25.62-44.17-76.82-70.33-127.37-70a153.51,153.51,0,0,0-110.06,48.49c-5.39-.9-5.52-9.2-1.91-13.3s9.17-6.21,12.44-10.59c5.63-7.56,2.27-18.33-2.12-26.67-9.65-18.35-24.1-35-43.3-42.85-20.86-8.49-45.35-5.38-65.18,5.28s-35.32,28.25-46.54,47.77c-4.17,7.26-10.18,16.07-18.4,14.5,1.94-27.91-7.29-58.13-29.86-74.66s-59.29-13.68-74.06,10.08c-6.13,9.84-8,21.79-13.66,31.92a7.47,7.47,0,0,1-3.08,3.41c-3,1.36-6.5-1.6-7-4.86s1-6.43,2.48-9.38c17.79-36.34,31.33-76,29.76-116.39s-20.43-81.83-55.22-102.48c5.92-5.37,15.37-.91,21.43,4.31,22.5,19.36,36.06,47.67,41.59,76.83s3.57,59.28-1,88.6a78,78,0,0,1,100.65,68.09c17.81-34.5,55.4-59,94.19-57.48s75.78,31.22,82.11,69.53c52.41-26.36,118.21-27.25,168.75,2.53,26.16,15.42,47.18,39.21,60,66.66a145.79,145.79,0,0,1,12.82,44.25c1.82,15.09.35,30.45-2.78,45.26-1.27,6-5,11.42,1,15.06,3.7,2.23,9.33,1.32,13.43,2.44a109.78,109.78,0,0,1,25.49,11c15.88,9.16,30,21.38,42.26,35,23.46,26.11,21,64.55,10.52,95.7-13.35,39.63-49.18,76.4-87,93.83,9.88-4.55,27.69,61.68,28.22,65.69,5.55,42.16-8.89,75.31-39.06,104-25.52,24.29-68,52.9-104.77,50.63-2.08-.12-4.23-.26-6.2-.49-1,3.66-.28,7.71-.17,11.47.66,21.73-8,46.89-16.12,66.79-9.77,23.86-25.67,45.44-46.68,60.38s-47.24,22.92-72.9,20.41c-10.62-1-21-3.82-31.16-7.1-12-3.87-23.86-8.58-33.73-16.35a65,65,0,0,1-20.86-29.39c-2.21-6.3-2.1-30.7-11.58-13.6-13.87,25-43.78,44.57-70.47,52.85-39.09,12.13-74.26,21-113.87,9.49-33-9.59-73.53-32.9-98.21-57-16.69-16.3-42.82-44.4-40.18-69.72-.13,1.23-18.86,9.36-20.75,10.28a155.33,155.33,0,0,1-29,10.59c-51.93,13.33-110.24-2.44-149.74-38.53-6.08-5.56-11.24-13.64-15.88-20.45-15.88-23.33-27.75-49.63-32.75-77.41-7.23-40.16,2.78-83.41,21.31-119.46,2.83-5.49,5.37-13.17-3-14.38s-16.32-2-24.12-5.25A125.12,125.12,0,0,1,834.78,1449c-14.69-11-21.38-18-31.81-33.07-24.4-35.2-41.37-88.53-38.32-131.73,1-14.62,4.83-28.88,9.86-42.6,2.94-8,7.21-15.51,10.69-23.32,1.85-4.13,3.09-8.35,4.57-12.6,2.72-7.8-4-6.79-10-9.24a72.34,72.34,0,0,1-17-10,88.28,88.28,0,0,1-24.81-31.07c-10.37-21.39-13-45.8-12-69.55,1.13-29,7.71-58.76,25.2-81.91S798.6,965.7,827,971.84a71,71,0,0,1-5.46-15.9c-5-23.33.62-49.17,7.83-71.45a2.77,2.77,0,0,1,.74-1.34,2.24,2.24,0,0,1,2.08-.21c2.83.86,4.54,3.91,4.77,6.85s-.72,5.85-1.64,8.66c-4,12.28-8,25.48-7.45,38.54.82,18.48,8.56,38.42,20.81,52.35,5.45,6.2,11.86,11.46,18.23,16.7l18,14.77c-.67,2.83-3.83,4.52-6.75,4.43s-5.6-1.5-8.1-3a109,109,0,0,1-34.6-32.79,25.63,25.63,0,0,0-4.24-5.34c-3.88-3.34-9.47-3.68-14.57-3.31-26.34,1.92-50.16,19-64.11,41.42s-18.83,49.59-18,76c.8,26,7.82,53.45,27.08,71C775.66,1182,794.92,1188,814,1189.48c18.38,1.39,36.71-1.24,54.86-3.85,5.13-.74,2.4,7.32.36,9.4-2.52,2.57-6.87,3-10.22,3.5-15.43,2.11-31.84,5-47.07.28-7.31-2.29-11.66-.28-12,8-.51,12-12.28,26-16.73,37.17-5.58,14.07-9.41,28.93-9.82,44.12-1,38.37,14.19,77.72,31.21,111.38,15.21,30.09,44.72,49.8,75.91,60.51a202.87,202.87,0,0,0,50.06,10.23c8.92.69,18,2.83,27,2.28s31.81-2.83,31.81-14.11c0-24.15,6.51-48,16.86-69.71a205.59,205.59,0,0,1,18.47-31.18c6.08-8.48,11.58-16.67,23.16-16,3.6.22,5.55,4.46,3.62,7.58-1.73,2.78-2.8,2.25-5.39,2.89-7.12,1.74-11.73,9-15.28,14.8-4,6.58-7.8,13.32-11.39,20.11-15.4,29.14-23.84,61.85-20.33,94.88a86.67,86.67,0,0,0,15.17,39.62c16.6,24.21,40.26,42.92,69.93,46.91a112,112,0,0,0,31.88-.43,131,131,0,0,0,13.44-2.83c14.9-3.95,30.41-10.63,40.78-22.46,5.94-6.78,11.55-13.32,18-19.67,2.62-2.57,6.31-2.06,8.48.77,2.63,3.43.68,6.53-.49,10-1.81,5.4-1.84,11.74-1.9,17.39-.08,7.55-1.06,15.31.45,22.78,1.79,8.91,7.22,16.75,13.83,23,15.89,15,38.22,19.6,59.44,17.08,20.36-2.42,44.2-10.89,58.48-26.2a61.09,61.09,0,0,0,15.8-38.86c.12-3.88,1.84-5.53,5.48-5.24a4.64,4.64,0,0,1,4.09,4.16c.26,9.55-.87,19.08-4.48,28a60,60,0,0,1-13.13,19.92,76.37,76.37,0,0,1-12,9.68,104.9,104.9,0,0,1-48,17c-1.85.17-3.7.3-5.56.42l-6.31.43C1259.87,1623.57,1257.28,1623.69,1254.73,1623.74Z"></path><path class="cls-3" d="M1077.13,621.22c.29-4.21.33-8.38-2.74-10.4s-7.22-.07-10.93-.35a9,9,0,0,1-6.6-3.73,3.45,3.45,0,0,1-.78-2.58,3.24,3.24,0,0,1,1.49-1.92c3.38-2.2,8-.74,11.78-2.19,3-1.15,5-4,5.93-7,1.35-4.27.62-8.76,2.09-13,1.87-5.41,6.85-12,6.51-17.88-.64-10.93-15,1.76-20.43,4.54-13,6.7-30.11,6.79-39.4,18.11-1.43,1.73-2.65,3.72-4.58,4.87s-4.87,1-5.93-1c-1.65-3.08,2.55-6,3.43-9.43,2.09-8-13-14.11-11.94-24.36.21-2,1.2-4.42,3.24-4.75a4.92,4.92,0,0,1,3.12.83c6.1,3.39,10.29,9.72,16.69,12.51,6.9,3,15,1.24,21.78-1.93,4.92-2.29,23.28-9.08,24.78-14.71.53-2-1.14-3.88-2.78-5.16a37,37,0,0,0-17.72-7.35c-5.47-.76-13.5,1.49-17.55-3.52-2.15-2.66-1.15-7.6,2.78-7.64,4.19,0,10.33-.54,6.38-6.93-1.56-2.54-4.29-4.17-6-6.63s-1.69-6.65,1.12-7.66c1.88-.67,3.93.5,5.32,1.93,3.24,3.34,4.64,8.14,7.9,11.47a4.17,4.17,0,0,0,1.82,1.21c2,.5,3.61-1.54,4.64-3.32,2-3.45,3.11-7,6.4-9.56,6-4.65,3.74,2.87,2.58,6.2-2.49,7.15-2.43,13.22,2.3,19.71a30.79,30.79,0,0,0,15.25,11.07s-3.14-33-3.25-35.94c-.14-3.78-.36-8-3.06-10.61-6.22-6.09-20-4.62-17.86-17.77,1.08-6.45,7.1-7.31,10.93-2.38,2.52,3.24,4.94,8,9.85,7.29,3-.46,5.15-3.36,6.2-6.26.89-2.46,14.21-29.78,18.56-20.52a5.67,5.67,0,0,1,.17,3.37c-1.53,8.57-7.39,15.18-11.24,22.72-4.59,9-2.26,19-.67,28.58l1.51,9.19c1.19,7.17,2.4,14.44,5.47,21-.21-.45,9.22-13.62,10.11-15.27,1.85-3.4,8.33-11.55,7.52-15.48-.87-4.21-13.24-15.67-9.63-19.38,3.46-3.54,13.42,3.64,17.38,3.66a9.33,9.33,0,0,0,4.17-.63c2.33-1.13,5.28-6.74,7.62-8.79,1.36-1.2,3-.23,3.37,1.53.89,4.91-4.72,8.3-4,13.59a7.84,7.84,0,0,0,5.84,6.61c2.87.57,13.12,4,4.75,7.29-2.36.92-5,.26-7.54.12-12.19-.68-17.4,10.1-23.26,18.73-1.23,1.82-2.45,3.65-3.59,5.52-.13.21.24,1,.44,1.06,17.47,1.64,43-9.69,51.31-25.53,1.26-2.41,2.39-5.11,4.72-6.5a4.61,4.61,0,0,1,6.34,1.79c2,3.49-1.58,7.36-3.78,9.77-2.35,2.59-4.57,6.49-2.53,9.33,1.65,2.3,6.29,3.8,8.9,4.2,2,.31,4,.51,5.67,1.61,6.76,4.51-4.46,11.51-9.14,10.46-6.75-1.53-10.16-9.33-17.15-4.09-8.63,6.47-24.61,6.62-35.09,6.95-.71,0-2,.44-2,.8-.85,6.08,11.44,10,15.47,11.33,8.1,2.75,19.56,6.46,26.45,0,2.37-2.25,8.77-8.64,11.17-2a4.78,4.78,0,0,1-.9,4.18c-.85,1.21-2,2.21-2.82,3.42-2.61,3.7-2.28,8.67-1.47,13.12s2,9.07.69,13.41c-.87,3-3.78,5.88-6.71,4.86-1.85-.64-2.89-2.6-3.47-4.47a19.61,19.61,0,0,1-.82-7.22c.11-1.53.38-3.14-.2-4.56-2.18-5.3-51.78-20.08-50.36-23.47-1,2.33,3,14.21,3.87,17.87,3,12.93,6.25,31.16,19.5,37.47,7.51,3.58,16.23,3.13,24.42,4.61,3.51.63,7.83,3,7,6.43a5.41,5.41,0,0,1-2.39,3.08c-6.79,4.62-15.74.12-23.84-1.23-1.91-.31-4.19-.31-5.42,1.19-1.09,1.33-.87,3.27-.51,5,2,9.06,6.68,18,4.88,27.12-.67,3.4-4.23,7.21-7,5.12a5.52,5.52,0,0,1-1.56-2.31,42.29,42.29,0,0,1-3.48-14.59c-.18-3.2,0-6.46-.8-9.57s-2.85-6.15-5.94-7-6.3.59-8.75,2.6-4.41,4.55-6.91,6.49-5.86,3.24-8.83,2.16-4.69-5.32-2.49-7.6a7.83,7.83,0,0,1,3.53-1.74c7.85-2.29,6.87-5,12.22-10.38,2.93-3.33,7.42-5,8.09-9.92s-1.06-10.68-2.42-15.43c-2.87-10.07-7.21-19.62-11.38-29.2-.63-1.44-1.45-3-3-3.46-1.86-.52-3.62,1-4.85,2.51-7.55,9.26-9.82,21.29-9.89,32.95-.07,10.24,4.86,23.76-1.36,32.93-1,1.52-2.83,3-4.56,2.32a4.05,4.05,0,0,1-2.11-2.66C1076.53,627.71,1076.91,624.45,1077.13,621.22Z"></path><path class="cls-3" d="M2007.59,1566.65c-.63-7.15-.85-13.76-1-15.25-1.23-9.47-6.26-29.18-16.66-33-17.87-6.62-15.17,27.58-10.06,36.06a47,47,0,0,0,10.23,11.39c2,1.72,4.4,4,3.64,6.6-.66,2.24-3.43,3.14-5.76,2.93-6.15-.55-10.56-5.89-14.94-10.25-1.42-1.41-3-2.82-5-3.13-3.54-.53-6.46,2.53-8.89,5.16s-6,5.31-9.25,3.86c-2.19-1-3.3-3.62-3-6a10.72,10.72,0,0,1,3.47-6.16c4.54-4.38,11.22-6.5,14.64-11.8,2.46-3.8,5.77-26.27-2.75-26-2.45.08-4.42,2-6.12,3.73l-23.38,24.19a4.24,4.24,0,0,0-1.29,2,4.48,4.48,0,0,0,.54,2.63,49.42,49.42,0,0,1,3.13,27.32,5.15,5.15,0,0,1-.76,2.23,3.66,3.66,0,0,1-4.63.69,8,8,0,0,1-3.13-4c-3.7-8.36-1.79-18-2.47-27.12-.16-2.06-.67-4.43-2.53-5.33a5.67,5.67,0,0,0-4.09.08c-3,.93-5.76,2.44-8.81,3.09-5.69,1.22-12.73-4.78-9.32-10.56,4.27-7.25,19.54-1.86,26.29-2.87,10.7-1.6,18.49-10.66,25.26-19.11a6.15,6.15,0,0,0,1.6-3c1-9.7-11.06-16.42-19.32-15.07a17.54,17.54,0,0,0-14,13.28c-.45,2.08-.53,4.3-1.64,6.11s-3.82,2.87-5.38,1.43a4.5,4.5,0,0,1-1.12-2.24c-1.14-4.46-.88-10.14-4.89-12.42-1.09-.63-2.48-1-3.07-2.08-1.22-2.28,2.21-4.33,4.78-4.11s5.65,1.06,7.37-.86c3.94-4.39-7.31-11.63-3.18-15.83,2.17-2.22,5.85-.21,8.18,1.84,4.38,3.85,8.86,7.92,14.44,9.64s12.6.27,15.41-4.84c5.06-9.19-4.89-20.51-12.82-24-5.42-2.36-11.62-2.69-16.83-5.49-3.06-1.64-5.85-4.49-5.9-8-.16-11.29,12.64-1,16.19.12,3,.91,6.92,0,7.94-3a9.25,9.25,0,0,0,.1-4.06c-.41-3.61-2.16-17.1,2.72-18.91,1.86-.69,4,.55,5,2.29a11.08,11.08,0,0,1,.92,5.82c-.41,9.71-3.11,20.29,2,28.54,1.88,3,4.7,5.45,6.3,8.64,1.82,3.62,8,10.45,12.5,10.34,7.27-.17,9.6-7.22,8.46-13.61a33.47,33.47,0,0,0-13.81-21.45c-1.41-1-2.95-1.89-3.75-3.4s-.44-3.79,1.18-4.33,3.3,1,5,1.73c3.7,1.49,7.68-2,9.06-5.7s1.29-7.92,2.89-11.58,6.11-6.64,9.49-4.53c2.7,1.69,3,5.65,1.81,8.61s-3.39,5.39-4.83,8.23-1.93,6.62.2,9c1,1.15,2.92,1.76,4.15.81a5.2,5.2,0,0,0,1.41-2.62,17.55,17.55,0,0,1,13.09-11.4c1.43-.27,3.09-.29,4.11.74,1.8,1.82.09,4.85-1.69,6.68-4.36,4.47-9.28,8.46-12.79,13.61-4.71,6.92-6.51,15.35-8.2,23.55-.31,1.5-.61,3.14,0,4.52.93,1.94,3.48,2.63,5.56,2.11a13.66,13.66,0,0,0,5.4-3.38,229,229,0,0,0,35.27-39.11c1.42-2,4.08-4.25,6-2.65a3.31,3.31,0,0,1,.87,1.36c1.14,3-.1,6.42-2,9s-4.45,4.62-6.42,7.16a5,5,0,0,0-1.34,3.33c.27,3.2,4.85,3.43,8,2.69l10.21-2.42c3-.7,7.31-.56,7.72,2.48.25,1.88-1.42,3.44-3,4.44a25.77,25.77,0,0,1-13.31,3.87c-3.92,0-7.93-.83-11.7.22-8.85,2.46-12.32,13.92-20.78,17.51-1.72.73-3.64,1.13-5.07,2.33-2.74,2.3-.88,7.45,1.26,9.6,2.78,2.8,7,2.65,10.52,1.63,9.71-2.79,12.58-10.6,18.36-17.69,1.66-2,4.8-4,6.62-2.06,1.42,1.48.55,3.87,0,5.83-1.82,6.2,10.38,24,2.63,25.74-2.38.54-4.22-1.9-6-3.59-8.5-8.21-17,1.41-26.15.77-14.18-1-5.18,10.9.75,14.77,8.83,5.77,18.46,9.94,28.12,14.09,2.41,1,5.1,2.37,5.77,4.9,1,3.87-3.72,7.11-7.71,6.74s-7.48-2.79-11.3-4c-1.84-.58-4-.81-5.53.41-4.84,3.95.88,27.6.7,33.85,0,1.77-.2,3.69-1.38,5C2009.93,1592.83,2007.78,1568.81,2007.59,1566.65Zm-35.23-75.35c-4.22.12-8.39,1.94-10.63,5.69-3,5.07-.23,10.57,3.8,14.1a12.72,12.72,0,0,0,13.44,2.1c3.38-1.59,5.48-6,6.11-9.47C1986.54,1495.6,1979.38,1491.1,1972.36,1491.3Z"></path><path class="cls-3" d="M457.24,1740.28c0-2.9,0-5.81.11-8.6a6.47,6.47,0,0,1,.77-3.2c1.34-2.07,4.31-2.07,6.76-1.84a2.37,2.37,0,0,1,1.61.58,2.28,2.28,0,0,1,.38,1.47,60.68,60.68,0,0,1-.69,10.43c-.34,2.21-.69,4.77.84,6.39,1.78,1.86,4.83,1.23,7.31.54s5.67-1,7.13,1.09c1.35,2,.07,4.84-2,6.06s-4.55,1.26-6.93,1.38-4.93.41-6.73,2a2.5,2.5,0,0,0-1,2.06,3.15,3.15,0,0,0,1.34,1.83c3.1,2.56,22.32,15.21,11.36,18.85-4.76,1.58-8.83-5.53-11.75-8.09-5.47-4.79-10.83-1.69-16.19,2.2-5.55,4-10.22,9.06-15.56,13.34-1.93,1.55-4,4.23-2.48,6.16a4.8,4.8,0,0,0,2.05,1.25c5.71,2.26,11.19,6,17.41,6.75,6.48.78,14.08-2.82,20.36-4.44a5.72,5.72,0,0,1,2.89-.23c2.68.74,2.1,5.24,1.3,7.06a10,10,0,0,1-7.28,5.41c-2.14.44-4.77.58-5.82,2.5-1,1.77.11,4,1.61,5.38s3.41,2.22,4.78,3.72,2,4,.52,5.45c-1.7,1.65-4.51.47-6.52-.79q-7.74-4.9-15.14-10.33a38.93,38.93,0,0,1,1.59,24.78,9.1,9.1,0,0,1-2.22,4.39,3.7,3.7,0,0,1-4.54.61,5.1,5.1,0,0,1-1.62-3.09c-1.41-6-1-12.3-1.31-18.48-.75-13.13-8.71-24.87-23.07-24.62-.27,0-.76,1-.77,1.55-.21,12.7,6.11,22.33,7.54,34.52a29.05,29.05,0,0,0,.52,3.84c.26,1,.68,2,1,2.95a26.22,26.22,0,0,1,.74,7.86c0,3.09-.16,11.77-5.38,11-1.55-.23-2.43-1.87-2.93-3.35-1.74-5,0-11.49-3.08-16.11-5.54-8.32-15.37,3.76-18.63,8.69-2.47,3.73-6.29,7.23-10.64,3.57-9-7.56,15-21.56,18.57-26.89,5.9-8.87,4.16-20.58,2.19-31a2.13,2.13,0,0,0-.85-1.61c-.74-.39-1.6.21-2.23.77a162.61,162.61,0,0,0-21.44,23.52c-1.75,2.34-3.49,4.88-3.74,7.79-.19,2.12.44,4.22.56,6.34s-.45,4.54-2.3,5.6-4.41.23-5.76-1.45c-4.12-5.15,1.39-12.77-3.25-17.75-1.86-2-4.84-2.42-7.56-2.47s-5.58.13-8-1-4.24-4.32-2.87-6.67,4.54-2.41,7-1.51,4.52,2.59,7,3.25c5.5,1.46,10.9-2.32,15.34-5.87,6.28-5,12.63-10.12,17.41-16.58q-12.09-1.12-24.1-3.09c-2.63-.43-5.45-1-7.32-2.9s-2-5.65.33-6.9a6.12,6.12,0,0,1,3.48-.37c7,.72,14.94,2.94,20.46-1.43-3.58-6.27-8.15-13.23-15.31-14.13-8.64-1.08-16.72,7.43-25.15,5.27a4,4,0,0,1-2.18-1.21c-1.49-1.91.62-4.64,2.83-5.65,3.67-1.67,7.87-1.66,11.77-2.7s7.92-3.84,8.12-7.87c.12-2.59-1.37-5-2.93-7s-3.29-4.18-3.75-6.73.92-5.67,3.49-6c2.75-.38,4.87,2.41,5.87,5s1.8,5.62,4.22,7c3.85,2.18,8.56-1.65,10.14-5.79.92-2.42,1.89-5.56,4.47-5.84,2.13-.23,3.86,1.92,4.15,4,.69,5-3.86,9-5.84,13.61-2.14,5-1.17,10.9,1.36,15.71s6.47,8.72,10.46,12.41c1.29,1.19,3,2.46,4.63,1.86a4.72,4.72,0,0,0,2.33-2.69,60.36,60.36,0,0,0,5.6-20.53,7.92,7.92,0,0,0-.52-4.48c-1-1.87-3.15-2.72-5-3.68-3.35-1.71-6.48-4.63-6.78-8.38s3.73-7.61,7.12-6c2.51,1.2,3.36,4.53,5.76,5.94s5.87.26,8.12-1.63,4-4.42,6.38-6.09c2-1.42,5.23-2,6.8,0s.33,4.92-.91,7.16a161.74,161.74,0,0,0-13.39,31.45c-.94,3.08-5.08,12.24-3.17,15.21,2.52,3.92,7.79-.23,10.38-1.95,5.66-3.76,10-9.14,15.54-13,3.17-2.22,6.51-4.26,9.23-7C456.49,1753.63,457.14,1747,457.24,1740.28Z"></path><path class="cls-3" d="M850.29,1414.77c-7.26-11.71-11.95-28.31-15.59-37.72-5.19-13.39-9.12-27.33-10-41.72-.16-2.51-.22-5.14.83-7.42s3.5-4.13,6-3.64c3.66.73,4.69,5.37,5.06,9.08,3,29.92,13.34,67.51,35,89.58a14.25,14.25,0,0,1,3.5,4.58c.69,1.81.32,4.2-1.37,5.15a5.51,5.51,0,0,1-2.67.52c-7.63,0-16.51-3.22-23.17-6.81-13.6-7.33-24.4-19.27-32-32.58a168,168,0,0,1-17.31-44c-1.79-7.46-3.82-14.84-5.05-22.41-1.19-7.28-3.45-16.47,1.78-22.76a3.7,3.7,0,0,1,1.2-1,3.53,3.53,0,0,1,2.81.12c3.45,1.35,5.12,2.34,5.85,6.15.56,2.93.33,5.92.62,8.88,1.68,17.19,5.1,34.4,11.1,50.63C821.21,1381.34,835.46,1405.45,850.29,1414.77Z"></path><path class="cls-3" d="M965.84,1691.37c-4.72-2.06-6.44-8.33-7.93-12.77a158.57,158.57,0,0,1-4.16-16.25l-2.23-10.06c-.73-3.33-.72-7.69,1.31-10.6s8.17-2.61,9.52.72c.48,1.18.12,2.5-.07,3.76-1,6.75,2.32,14.57,5,20.64a85.22,85.22,0,0,0,10.78,18c5.76,7.42,22.17,16.85,23.62,26.35,1.34,8.74-14.62.07-16.14-4.11-.37-1.3-.71-2.2-2.08-1.85-1.85.46-1.55,2.77-3.07,3.46a2.6,2.6,0,0,1-1.33.13c-16.28-1.24-30-12.44-40.49-24.14-1.07-1.2-2.11-2.42-3.11-3.68-15.14-19-26.09-40.42-27.1-65.08-.16-3.8.74-8.65,4.45-9.46,2.57-.55,5.14,1.41,6.18,3.81,2.9,6.69,1.66,15.61,3.85,22.71,3,9.7,8.11,18.62,13.13,27.38C943.09,1672.81,952.31,1685.46,965.84,1691.37Z"></path><path class="cls-3" d="M1645.18,636.68c-21.89-3.48-41.65-20.09-60.51-31-22.52-13-45.85-29-70.32-37.65-6.15-2.16-15.76-2.55-20.56-6.92-3.48-3.16-3.61-10.1.81-11.74,1.91-.71,4-.23,6,.31,17.16,4.68,32.83,13.57,48.28,22.38l46.22,26.35c14.65,8.34,29.22,18.46,45,24.61,3.12,1.22,6.41.84,8.85,3.67a2.9,2.9,0,0,0,1,.88c.84.33,2.36.34,2.5.82a11.68,11.68,0,0,1,.3,4.26C1652.4,636.54,1649.24,637.32,1645.18,636.68Z"></path><path class="cls-3" d="M1685.65,916.52a10,10,0,0,1-1.8-1.95c-1.68-2.28-1.22-5.42-.67-8.2q10.44-52.83,25.93-104.49c5.1-17,9.8-34.75,16.68-51.11,1.6-3.8,12.33-24.43,14.83-11.8a7.9,7.9,0,0,1-.61,4c-15.49,46-30.12,92.22-41.75,139.42a92.83,92.83,0,0,1-2.6,9.26C1694.46,895.05,1690.43,920.21,1685.65,916.52Z"></path><path class="cls-3" d="M968.31,2031.49a21.56,21.56,0,0,1-.7,4.3c-1.86,6.77-6.42-1-7.45-3.68a461,461,0,0,0-44.76-87.95c-2.57-3.93-6.81-11.58-2.91-16.12,4.53-5.29,7.49,6.65,10.08,8,3.84,2,5-1.68,9.16-2,6.26-.45,10.45,5.77,14,10,5.51,6.61,12.53,11.74,19.38,17,2.52,1.91,5.15,4,6.19,7s-.35,7-3.46,7.61c-2.56.46-4.87-1.48-6.75-3.29l-22.94-22c-1.7-1.63-5.28-6.64-7.65-7-7.39-1.11,1.88,8,2.93,9.36,10.68,13.77,17.89,33.22,25.44,49C962.91,2010.2,968.92,2021.33,968.31,2031.49Z"></path><path class="cls-3" d="M1781.9,752.62a22.44,22.44,0,0,1,1.24-7.27,4,4,0,0,1,2.18-2.68c4.57-1.36,7.75,16.63,8.51,19.23,14.69,50.19,24.53,101.69,37.84,152.25.39,1.48.77,3.09.16,4.49-1,2.35-4.09,2.8-6.64,2.92-2.84-6.9-6.33-13.68-8.78-20.72-2.15-6.17-1.9-13.18-3.32-19.58l-2.7-12.17-4.48-20.2c-3.44-15.49-6.88-31-11.07-46.3-2.72-9.92-4.8-19.55-8.17-29.34l-.73-2.1C1783.88,765.18,1781.82,758.81,1781.9,752.62Z"></path><path class="cls-3" d="M1834.68,442.05a2.62,2.62,0,0,1,.79,0c2.84.52,4.74,3.43,5.07,6.3s-.58,5.73-1.45,8.48c-13.77,43.59-24.06,88.49-32,133.48-.61,3.43-2.47,7.83-5.91,7.27-9.55-1.57-1.18-28.7,0-34.15,1.8-8.55,4.29-16.93,6.19-25.45,3.86-17.26,8.68-34.28,13.21-51.37C1822.45,479.18,1825.19,443.7,1834.68,442.05Z"></path><path class="cls-3" d="M1663.85,730.6c2.8.08,10.19,4.68,4.22,6.53-7,2.17-11.37,5.94-17,10.56q-9.08,7.38-17.91,15c-11.48,9.91-22.72,20.11-33.83,30.44Q1585,806.4,1571,819.85c-8.2,7.81-16.12,16.6-26.18,22.07-1.51.82-3.77.46-5.68.3-8.62-.92,8.66-16.78,10.7-18.68,19.78-18.45,40.48-35.87,60.78-53.74,11.67-10.28,23.18-20.75,34.8-31.09,3.36-3,6.89-6.07,11.22-7.27A27.29,27.29,0,0,1,1663.85,730.6Z"></path><path class="cls-3" d="M844.62,702.82a2,2,0,0,1,1,.76c3.1,3.73-.1,7.38-3.71,9.1-5.13,2.45-11.42,1-16.47-.89-14.62-5.53-29.23-10.74-44.2-15.42-16.37-5.12-32.79-10.06-49.09-15.42-4.52-1.48-9.08-3-13.16-5.44a11.22,11.22,0,0,1-4.55-4.35c-.94-1.91-.78-4.49.84-5.86,1.88-1.58,4.69-1,7-.28,14.36,4.34,28.37,9.42,42.75,13.77,12.39,3.74,24.78,7.47,37.07,11.55,6.27,2.09,12.52,4.26,18.72,6.57,6.41,2.39,15.29,8.63,22.41,6.15A2.54,2.54,0,0,1,844.62,702.82Z"></path><path class="cls-3" d="M1103.39,1555.42c-26.83-1.35-51-9.92-67.5-32.09-5.49-7.36-12.11-15-14.57-24.08-1.76-6.49-9.06-37,2.55-36.81,3.44,0,5,1.59,5,5.18.28,22.82,6.6,44.55,24.34,60,17.12,14.92,38.7,17.78,60.6,18,3.11,0,5.46,2.11,5,5.39-.51,3.7-4.4,4.35-7.72,4.47C1108.54,1555.59,1106,1555.55,1103.39,1555.42Z"></path><path class="cls-3" d="M1832,643.62c-1.76-.9-2.36-3.16-.7-5.47,7-9.85,22.4-18.3,32-25.73q17.91-13.86,36.44-26.88c12.13-8.52,25-17.59,38.17-25.08,10.18-5.79,20.88-11.2,32.28-14.13a4.35,4.35,0,0,1,3.29,0c1.34.8,1.43,2.83.61,4.16a9,9,0,0,1-3.66,2.83c-24.84,13.16-48.12,29-70.94,45.35-11.57,8.3-23,16.74-34.58,25-9,6.47-18.4,16.81-29.63,20A4.49,4.49,0,0,1,1832,643.62Z"></path><path class="cls-3" d="M1882.37,832.93c.41,3.06-.82,5.51-5.74,4-2.25-.69-4-2.52-5.47-4.34-12.59-15.09-20.58-33.56-29.52-50.89l-30.48-59.08c-7.36-14.26-.09-25.42,7.68-7.9,15.08,34,35.36,66.62,52.82,99.52,2.23,4.2,4.5,8.45,7.68,12A13.88,13.88,0,0,1,1882.37,832.93Z"></path><path class="cls-3" d="M1167.82,1703.18c8.38,3,10.54,27.1,12.25,33,5.06,17.39,19.45,33.86,33.34,44.87a108.12,108.12,0,0,0,16.44,10.76c5.54,2.93,11.55,3.54,16.94,6.11a5.82,5.82,0,0,1,3.52,4.56c.56,8.15-13.63,2.78-17,1.7a88.66,88.66,0,0,1-16.55-7.27l-7.85-5.54c-4.09-2.08-7.48-5.3-10.68-8.6-17.78-18.32-30.64-39.83-36.56-64.87C1160.55,1713.2,1159.13,1700.09,1167.82,1703.18Z"></path><path class="cls-3" d="M1966.73,719c-4-.24-7.86-1.75-11.61-3.24-32.57-12.93-65.1-25.94-97.72-38.71-1.31-.52-2.75-1.16-3.25-2.47-1.57-4.14,11.79-4.57,14-4.44,9.18.55,16.89,3.55,25.19,7.36q28.37,13,57.9,23.27c5.43,1.88,22.72,4.31,25.68,9.8,2.8,5.21-5.43,8.66-10,8.44Z"></path><path class="cls-3" d="M1609.48,583.74a5.52,5.52,0,0,1-.43,3.1c-4.53,9.62-32.49-20.25-36.24-23.88q-13.29-12.88-25.66-26.69c-7.32-8.18-13.76-17.92-23.21-23.83-3.22-2-12.26-6.57-9.9-11.58,1.88-4,11.26-3.11,14.3-1.5,12.38,6.56,20.58,21.43,29.69,31.66a306.43,306.43,0,0,0,35.48,34c5.24,4.28,10.75,8.51,14.25,14.29A11.76,11.76,0,0,1,1609.48,583.74Z"></path><path class="cls-3" d="M1715.12,732.2a13,13,0,0,1-.4,5.41c-9.61,41.6-30,81.21-50.52,118.39-1.15,2.09-2.48,4.32-4.71,5.16s-5.38-.77-5-3.12a5.36,5.36,0,0,1,.39-1.17q14.33-34.08,28.64-68.18,7.5-17.9,15-35.81c1.21-2.88,10.28-29.94,15.69-22.76A5.1,5.1,0,0,1,1715.12,732.2Z"></path><path class="cls-3" d="M1798.49,730.93c2.68,1.19,6.51,6,7.47,7.94,5.09,10.45,9.83,21.09,14.74,31.62l15.37,33c1.1,2.37,2.21,4.73,3.28,7.11,4.12,9.12,8.1,18.3,12.41,27.33,3.72,7.8,11.58,17.36,11.72,26.25,0,1.58-1,3.29-2.53,3.52-11.89,1.74-17.22-16.56-20.29-24.8-5.89-15.84-11.11-31.92-18.41-47.21-9.17-19.22-23.79-38.34-26.35-60.06C1795.35,731,1796.65,730.11,1798.49,730.93Z"></path><path class="cls-3" d="M1683.77,697.09c-1.57,3.23-6.14,7.45-7.36,8.24-6.71,4.32-14.52,6.62-21.75,9.89-11.88,5.37-22.36,13.35-32.72,21.27-8.37,6.39-16.15,13.76-24.88,19.81-5.43,3.77-11.36,7-17.87,8.4-4.54,1-6.76-1.55-6.2-5.89.39-3,5.34-6.23,7.49-7.93,8.85-7,19-12.21,28.23-18.62,9.72-6.71,18.5-14.76,28.73-20.75,6-3.54,12.8-5.5,19.24-8.17s11.64-7.73,18-10.34C1677.43,691.86,1686.22,692.08,1683.77,697.09Z"></path><path class="cls-3" d="M917.65,677.58c-2.81,3.82-6,7.8-6.57,8.61-5.81,8.09-6.62-9.24-4.9-12.9C913.84,657,918,640,923.11,622.91c4.86-16.19,11.62-31.69,18-47.31a16.75,16.75,0,0,0,1.43-4.86,19.31,19.31,0,0,1,.19-2.85c1-4.41,10.35-5.08,11.12-.12.35,2.2-.39,4.42-1.12,6.53L938.41,616q-1.75,5.09-3.48,10.16C930.65,638.81,920.29,674,917.65,677.58Z"></path><path class="cls-3" d="M2000.43,600.88c3.89-.19,6.61.35,7,2.14.87,4.42-13.16,10.16-16.61,10.16-15.71,3.14-31.4,6.38-46.89,10.46a446.88,446.88,0,0,0-74.49,26.9c-9.54,4.44-12.53-2.72-3.56-7.12,21.54-10.58,44.13-18.84,67.07-25.79C1954.16,611.19,1978.13,602,2000.43,600.88Z"></path><path class="cls-3" d="M967.8,888.39a8.68,8.68,0,0,1-4-3.14c-3-4.23-4.11-10.1-6.6-14.72a154,154,0,0,0-9.39-14.59c-13.79-20-25-41.85-39.11-61.47-3-4.1-6.46-9.77-4.7-15a4.12,4.12,0,0,1,1.09-1.82,35.76,35.76,0,0,1,3.29-2.29c3.24-2.19,6.11-1.12,6,2.66-.18,6.19,5.48,13.75,8.69,18.6q7.17,10.81,14.11,21.81,14.1,22.32,27.18,45.27a105.68,105.68,0,0,0,7.54,12c1.7,2.22,3.68,4.57,3.68,7.37a6,6,0,0,1-5.6,5.72A6,6,0,0,1,967.8,888.39Z"></path><path class="cls-3" d="M1737.15,882.88c-2.27-15.61,2-31.5,4.53-46.84,3.16-19,7.36-37.93,9.75-57,.71-4.54.68-11.33,3.36-15.23,5.31-7.72,7.28,4.91,6.92,8.73-3.61,37.66-10.39,74.79-13,112.55-.13,1.84-.29,3.79-1.39,5.26C1742.57,896.76,1737.67,886.41,1737.15,882.88Z"></path><path class="cls-3" d="M960.69,1925.27c14.52,1.68,39.2,15.23,44.14,17.56l37.94,17.84c4.63,2.18,13.33,4.37,16.59,8.32,5.79,7-1.66,10.71-7.95,9.73-8.44-1.31-16.76-7.39-24-11.56a336.22,336.22,0,0,0-68-29.7c-3.48-1.08-10.16-2.67-9.28-7.39C950.92,1925.75,955,1924.61,960.69,1925.27Z"></path><path class="cls-3" d="M876.75,798.2c.43,7.23-2.83,16.28-4.19,22.94-1.8,8.81-3.66,17.61-4.94,26.51-1.4,9.78-1.86,19.65-2.42,29.49-.48,8.36,3.2,21.89-5.59,27.29-11.44,7-5.91-21.39-5.44-25.54,1-8.47,1.11-17,1.75-25.49a331.2,331.2,0,0,1,6.57-42.82c1.42-6.79,2.86-13.64,4.21-20.4.88-4.45,2.8-7.06,6.64-2.48,1.85,2.2,2.5,5.14,3.08,7.95A17.41,17.41,0,0,1,876.75,798.2Z"></path><path class="cls-3" d="M1909.41,657.1c0-3.39,2.56-7.15,6-7.12,5.34.06,10.35,1.61,16,2.48,9.4,1.44,18.78,3.1,28.17,4.64l56.33,9.29c3.15.51,6.43,1.09,9,3,8.3,6.25-1.13,8.86-6.88,8.5-17.18-1.07-34.22-3.67-51.15-6.74-16.43-3-32.41-8.14-49.23-8.46a13.38,13.38,0,0,1-5.53-.85A4.87,4.87,0,0,1,1909.41,657.1Z"></path><path class="cls-3" d="M766,1067.38a4.66,4.66,0,0,1,2.16.84c2.55,1.75,1.93,4.44,1.89,7.21a132.88,132.88,0,0,0,3.74,32.39c1.82,7.62,4.63,19.06,10.38,24.8a108.32,108.32,0,0,0,18.36,20.82c6,5.32,14.34,8.25,17.63,16.1,1.9,4.55-6.48,3.65-8.73,3-18.06-5.69-33.71-26.39-42.32-42.39-9.75-18.09-13.22-39-7.51-59C762.22,1068.83,763.9,1067.18,766,1067.38Z"></path><path class="cls-3" d="M1210.92,1560.18c-.37-5.3.34-12.43,5.8-12.62,1,0,1.93,0,2.9,0,5.29.25,4.32,4.12,3.69,7.61a19.47,19.47,0,0,0,11.61,22.31c1.65.74,10,1.75,10.48,2.46a31.9,31.9,0,0,0-2.25-3.22c-3.87-4.32-7.42-7.63-9.82-13.16a13,13,0,0,1-1.25-4.66c-.08-2.27,1.16-5.13,3.67-5.53,2.28-.36,5.31.81,5.81,2.82,2,8.21,8,14,15.55,17.29,7,3.07,16.27,2.22,22.58,6.14,5.75,3.57-1.21,8.57-5.15,8.54l-8.72-.07a4.26,4.26,0,0,1-1.74-.25,11.65,11.65,0,0,1-1.8-1.36c-1.82-1.27-4.49.92-4.92,2.73-1.18,4.94-14.07,2.37-17.15,1.62A43.14,43.14,0,0,1,1221,1581a31.59,31.59,0,0,1-9.61-17A32.77,32.77,0,0,1,1210.92,1560.18Z"></path><path class="cls-3" d="M1829.73,578.52c-1.55.27-3.19-1.54-4.35-4.46-2.27-5.75.08-12.86,1.95-18.37,4.92-14.44,10-28.83,14.79-43.32,4.45-13.51,6.86-29.31,13.88-41.74,2.07-3.66,5.21-8.68,10-8.57,15.31.33-7.41,38.11-9.75,43.71q-7.86,18.84-14.37,38.19C1840.19,549.11,1834.94,577.62,1829.73,578.52Z"></path><path class="cls-3" d="M927.44,1854.21a10.22,10.22,0,0,1,.72-2.4c2.55-6,8.71-11.36,12.18-17.09,4.36-7.18,8.18-14.67,12.17-22.06,9-16.58,19.51-32.68,34.29-44.6,4.52-3.64,6.85-2.79,9.21,2.16,3.84,8-11.09,16.24-16.34,21.51-12,12.06-18.52,28.06-26.72,42.66-4,7.18-8.53,15.4-14.76,20.95C934.76,1858.4,926.07,1863,927.44,1854.21Z"></path><path class="cls-3" d="M849.74,763.5c-1.09,10-6.4,19.45-11.08,28.14-8.25,15.34-18.8,29.34-28.72,43.61-3.5,5-6.94,11.59-11.42,15.82-2.2,2.08-6.2,2.89-8,.48-1.52-2-.68-4.84.29-7.15,6.31-15.11,16.36-26.86,25.8-39.95a194.72,194.72,0,0,0,23.77-43.8c1.07-2.78,3.17-6.2,6-5.41C849.43,756.07,850.19,759.31,849.74,763.5Z"></path><path class="cls-3" d="M843,1892.49c-7.34-.38-15.64-2.57-19.56-3.29l-42.48-7.72a191.42,191.42,0,0,1-20.68-4.52c-3.9-1.17-9.34-2.49-10.81-6.94-3-9.2,19.16-2.61,22.59-2.18q14,1.76,27.91,4,16.42,2.69,32.72,6.07c5.09,1.06,28,2.17,23,11.56C853.64,1893.32,846.5,1892.67,843,1892.49Z"></path><path class="cls-3" d="M1164.83,937.61c4.56.72,8.55,2.85,12.69,4.91,8,4,16.71,6,25.1,8.89,3.08,1.08,8.1,3.07,7.66,7.05s-6.55,5.92-9.85,4.78c-4.83-1.66-35.32-16.94-38.67-12.26-.45.63,12,11.68,13.65,13.75,2.93,3.72,6.87,6.59,9.61,10.46,5.42,7.66,1.39,19.12-7.61,9.45-8.06-8.66-21.71-17.3-24.52-29.56-1.45-6.33,4.22-8.94,4.86-14.45.26-2.2,2.86-3.36,5.07-3.23Q1163.84,937.46,1164.83,937.61Z"></path><path class="cls-3" d="M908.49,1437.32a1.69,1.69,0,0,1,0,.23c-.38,6.22-6.47,3.94-10.43,2a34.71,34.71,0,0,1-8.55-6.48c-21.9-21.16-31.85-50.3-33.2-80.19-.08-1.82,0-3.89,1.32-5.1,2.21-2,6.86-.93,8.35,1.52,1.28,2.13,1.25,4.76,1.34,7.24.9,26.42,13.59,53.22,32.87,71.13C902.62,1429.91,908.48,1433.58,908.49,1437.32Z"></path><path class="cls-3" d="M1875.31,766.16c0-8.92,7.86-3.6,11.4.67,17,20.44,32.5,42.1,50.42,61.71,11.12,12.18.91,22.31-8.93,9.57l-28.54-36.93-14.72-19.06C1881.72,778,1875.31,771.88,1875.31,766.16Z"></path><path class="cls-3" d="M1646.51,663.29c-1.09.07-2.25.1-3.51.11a85.75,85.75,0,0,1-13.69-.7c-3.81-.6-7.52-1.71-11.3-2.46-18.46-3.66-39.71-.77-58.09,2.39-2.88.5-5.88,1-8.68.2-9.21-2.74-1.14-8.21,3.61-9.6,10.51-3.06,23.08-3.12,34-3.66a294.49,294.49,0,0,1,39.07.68c7.62.64,30.16-.26,34.44,6.74,1.12,1.84-1.28,3.47-1.94,3.64C1655.16,662,1651.55,663,1646.51,663.29Z"></path><path class="cls-3" d="M1110.46,1545.32c-6.46-.72-13.12-3.15-18-5.18-15.76-6.56-31-15.69-41.86-29.14-3-3.71-15.89-27.2-3.36-27.28a4.76,4.76,0,0,1,4.85,3.91,16.52,16.52,0,0,1,0,2.9c-.78,10.16,10.9,19.38,18,25,12.22,9.71,31.68,21.32,48,16.71,2.89-.82,5.49-2,8.06.59a6.45,6.45,0,0,1-.45,9.13C1121.58,1545.29,1116.09,1546,1110.46,1545.32Z"></path><path class="cls-3" d="M856.76,1855.81a7.11,7.11,0,0,1-2.41-.56c-4.16-1.89-5.78-8.57-7.08-12.46-6.33-18.88-17.73-33.4-28.48-49.76-3.59-5.47-14.06-19.91-10.84-27,2.41-5.31,7.42-3.32,10,.92,10.15,16.73,19.35,34,28.48,51.31C849.77,1824.62,872.78,1857,856.76,1855.81Z"></path><path class="cls-3" d="M1837.71,685.42a7.36,7.36,0,0,1,1.69.37,18.35,18.35,0,0,1,5.67,3.63c19.35,16,40.69,31,58,49.24,2,2.13,4,4.44,4.77,7.28,1.38,5.36-3.46,10.49-8.43,6.67-2.18-1.68-3.3-4.35-5-6.54-3.55-4.66-9.4-6.85-14.1-10.35-6.39-4.78-10.54-11.84-16.68-16.89-7-5.78-14.82-10.92-22.1-16.44C1838.3,699.92,1823.84,684.08,1837.71,685.42Z"></path><path class="cls-3" d="M874.05,569.66h1c5.56.09,4.45,10.29,4.36,13.73-.23,9.28-.15,18.57-.14,27.85q.07,30.88.81,61.78c.07,2.65.1,5.45-1.23,7.75-1.59,2.77-7.6,4.61-8.13.22-2.6-21.69-2.06-43.58-1.87-65.37,0-4.43-3.08-46.81,3.31-46A13.8,13.8,0,0,0,874.05,569.66Z"></path><path class="cls-3" d="M1923.16,728.19c3,.58,5.6,3.8,8.3,5,20.56,8.87,38.26,21.5,56.81,33.68,3.14,2.06,10.24,8.18,7.14,12.56a12.62,12.62,0,0,0-1.12,1.34c-.4.8-.53,2.29-1,2.38-1.36.27-3.58.54-4.12-.19-1.42-1.92-3.82-1-5.66-2-2.6-1.43-5-3.91-7.33-5.71a348.25,348.25,0,0,0-50.3-31.93c-4-2.1-14.37-10.77-5.65-14.78A4.66,4.66,0,0,1,1923.16,728.19Z"></path><path class="cls-3" d="M1038.65,761.17c-26.12-1-51.48-4.91-77.26-9a16.88,16.88,0,0,1-5.73-1.6c-4.56-2.54-3.14-7.48.9-9.59,3.15-1.65,7.7-1.4,11-.52,25.8,6.76,51.64,9.15,78.21,10.61a26.17,26.17,0,0,0,6-.13c1.79-.32,3.72-1,5.33-.15a4.19,4.19,0,0,1,1.88,4.48c-.48,2.58-2.77,4.54-5.26,5.39a22.14,22.14,0,0,1-7.83.71Z"></path><path class="cls-3" d="M1039,669.59c-3.43,11.37-59.11,33.6-73.34,41.37-4.66,2.55-32.95,9.55-19.54-.81,13.7-10.58,29.62-17.57,45.4-24.42,7.41-3.22,39.27-23.74,45.55-20.4C1039,666.38,1039.54,667.85,1039,669.59Z"></path><path class="cls-3" d="M1004.34,632.72c8.45.3,6.15,5.64,1.31,10l-50,44.87c-3.08,2.77-11.87,12.77-16.25,12.56-4.63-.22,1.51-17,5.44-19.92a349.83,349.83,0,0,0,41-36.43C990.86,638.48,996.38,632.45,1004.34,632.72Z"></path><path class="cls-3" d="M1646.11,587.69c.49,2.94-1.88,10.86-6.43,8.71a5.6,5.6,0,0,1-2.27-2.51c-8.93-15.69-15.68-33.37-23.64-49.9a194,194,0,0,0-14.21-25.11c-4.54-6.67-6-10.4,3.23-13.32,5.24-1.66,17.07,27.63,19.89,33.09q6.71,13,13.13,26.18C1639.24,571.86,1644.81,579.9,1646.11,587.69Z"></path><path class="cls-3" d="M1916.87,536.63a7.78,7.78,0,0,1-2.16,2.81c-17.49,16.12-35.67,32.43-50.51,51.09-4.23,5.31-8.49,11.12-14.2,15-7.64,5.14-21.43,2.65-10.12-6.26a241.86,241.86,0,0,0,39-39c8-10,19.32-26.66,33.38-27.64,1.91-.13,4.24.55,4.68,2.41A2.73,2.73,0,0,1,1916.87,536.63Z"></path><path class="cls-3" d="M985.8,839.45c-.61,3.59-3.41,7.1-7.08,6.1-5.15-1.42-9.22-9-12.48-12.9-7.66-9.14-15.36-18.25-22.65-27.7-3.72-4.82-7.34-9.73-10.77-14.77-2.84-4.15-8-9.76-6.66-15.27.72-3.6,2-3.11,5.37-3.09,7.86,0,9.62,9.83,12.34,15.37,3.94,8,10.64,14.11,16.89,20.34,4.41,4.39,8,9.52,11.85,14.34,3.65,4.52,9.44,8.15,12.49,13A6.56,6.56,0,0,1,985.8,839.45Z"></path><path class="cls-3" d="M924.15,671.51,940,638.07c4.19-8.86,8.63-26.91,18.16-31.69,20.82-10.45-6.48,35.22-8.26,38.69-5.36,10.49-9.85,23.54-16.86,33-3.07,4.12-17.69,11.54-12.38.9Z"></path><path class="cls-3" d="M861.41,1739.42c1.62,0,3.15,1.41,4,5.76q6.71,34.68,13.42,69.36c.71,3.65,9.94,43.68-1.31,35.69-2.56-1.82-3.21-10.36-3.8-13.24-3.55-17.54-7.15-35.07-10.57-52.63C861.8,1777.49,850,1739.37,861.41,1739.42Z"></path><path class="cls-3" d="M879.53,1956.91a29.52,29.52,0,0,1-1.09,5.68c-4.82,16.77-11.72,32.82-18.3,48.94-3.19,7.81-6.58,15.62-9.2,23.64-1.33,4-2,12.5-5.55,15.22-8.77,6.74-6.49-11.92-4.84-16.56q10.08-28.35,21.71-56.12c2.85-6.79,5.81-20.47,10.89-25.64C876.83,1948.33,880,1950.62,879.53,1956.91Z"></path><path class="cls-3" d="M909.29,590.8a21.81,21.81,0,0,1-.73,4.37,431,431,0,0,0-10.62,69.18c-.25,3.54.26,9.07-2.39,11.89-4.77,5.06-10-1.29-9.53-6.61,1.07-11.61,2.21-23.73,4-35.48s4.79-23.23,5.42-35.18c.15-3,.22-6,1.29-8.73,1.88-4.88,10.6-8.86,12.37-1.6A8.25,8.25,0,0,1,909.29,590.8Z"></path><path class="cls-3" d="M1596.45,836.15c-13.83-1,4.57-20.69,8.09-24.49,10.26-11,23-19.48,33.44-30.3,4.89-5,9.74-10.86,16.58-12.45,10.22-2.37-3.86,15.41-6,17.41-12.56,11.93-27.4,23.22-36.91,37.8-2.45,3.76-4.82,7.78-8.57,10.24A10.7,10.7,0,0,1,1596.45,836.15Z"></path><path class="cls-3" d="M763.7,789.86a9.58,9.58,0,0,1,3.89-5.68,32.72,32.72,0,0,1,8.08-3.82A150.9,150.9,0,0,0,809,762.72c5.29-3.71,10.11-7.89,15-12.05,3.68-3.11,9.69-8.91,14.92-8.4,8,.78,1.2,8.07-1.61,10.86A162.54,162.54,0,0,1,819,768.87a214.55,214.55,0,0,1-30.8,18.84C784.17,789.72,761.58,802.71,763.7,789.86Z"></path><path class="cls-3" d="M1709.2,528c-1.44-21.51-2.14-43.09-3.13-64.64-.25-5.45,2.94-11.66,7.91-6.46,3,3.08,2.48,10.75,2.8,14.72,2,25.32,1.34,50.56,1.66,76,0,2.19.48,8.16-1.92,9.47s-4.89-.53-5.15-3.13C1710.48,545.34,1709.78,536.69,1709.2,528Z"></path><path class="cls-3" d="M863.78,694a7.25,7.25,0,0,1-5.72-1.76c-2.79-2.57-3.67-6.54-4.62-10.21-4.17-16.08-12-30.84-18.48-46a151.22,151.22,0,0,1-8.36-24c-.87-3.65-2.55-16,5-12.25,2.4,1.18,2.1,5.71,2.84,8.11,3.72,12.22,10.09,24.16,15,36L866,683.43c1,2.4,2,5,1.28,7.51A4.13,4.13,0,0,1,863.78,694Z"></path><path class="cls-3" d="M821.52,859.43c.06-4.3,1.87-9.78,2.66-12.36a102.36,102.36,0,0,1,7.75-17.7c7-13.28,13.75-26.66,16.58-41.52.63-3.3,1.09-6.7,2.56-9.73,1.25-2.58,3.67-5.4,6.67-5.91,3.69-.62,6.36,1.75,5.08,5.16-.67,1.8-2.83,3.57-3.59,5.8-3.72,10.83-5.9,22.27-9.72,33.16-4.41,12.55-10.67,24.41-15.08,36.88-1.46,4.13-4.95,17.28-11.42,11.23C821.87,863.38,821.48,861.55,821.52,859.43Z"></path><path class="cls-3" d="M1981.57,1151.94c5.41,0,6.75,3.65,9.29,7.71,3.43,5.48,8.54,8.33,13.68,12.16a318.71,318.71,0,0,1,34.76,30.06c3.07,3.08,14,14.88,5.55,17.61-3.26,1-6.43-1.64-8.81-4.11l-10.76-11.16c-11.66-12.1-24-22.23-36.81-32.87-2.71-2.24-19.65-19.12-9.25-19.39C1979.86,1151.93,1980.5,1151.94,1981.57,1151.94Z"></path><path class="cls-3" d="M773.87,1978.53a4.41,4.41,0,0,1-4.27-2.61,7.11,7.11,0,0,1,.48-6.67,19.44,19.44,0,0,1,4.71-5.08c14.11-11.78,29.85-20.44,46.56-27.88,2.44-1.08,28.42-14.27,29.33-9.42,2,10.51-43.09,27.29-51.6,33.54C795.45,1963.08,781.71,1978.36,773.87,1978.53Z"></path><path class="cls-3" d="M1753.56,459.68c0,3.82-.93,8.18-.77,10.15a189.82,189.82,0,0,1,.12,20q-.65,22.29-1.3,44.6c-.32,10.13-11.18-2.56-11.33-8.36-.46-17.31.54-34.62,1.06-51.92.22-7.46-2.12-23.12,8.85-21.4C1752.94,453.15,1753.59,456.19,1753.56,459.68Z"></path><path class="cls-3" d="M914.71,1738.65c8-1.33,5.06,13,4.7,17.24a340.62,340.62,0,0,0-.87,43.92c.17,3.9,5.54,46.15-3.43,39.32a5.83,5.83,0,0,1-1.74-3.58c-4.2-19.32-6.23-39.67-7-59.39-.4-9.54-1.45-21.34,2-30.49,1-2.53,2-5.64,4.87-6.63A9.9,9.9,0,0,1,914.71,1738.65Z"></path><path class="cls-3" d="M894.1,1375.21c1.43-1.08,3.46-.63,6,2.62,4.7,5.92,5.57,14.68,8.63,21.55,3.89,8.73,9,17.89,15.91,24.51,5.87,5.58,14.2,9.49,16.28,18,.27,1.11-3.71,6.89-5.09,7-2.33.21-5.59-3.34-7.14-4.79-17.1-16-30.05-33.85-36.46-56.81C891.05,1383,891.75,1377,894.1,1375.21Z"></path><path class="cls-3" d="M1590.92,885a12.86,12.86,0,0,1,.09-1.47,18.73,18.73,0,0,1,2.7-7c5.9-10.29,14.2-18.82,21.65-27.95,7.66-9.37,12.27-21.63,21.18-29.75,1.4-1.27,4.12-.6,5.87.73,2.14,1.63,1.79,2.58.35,4.79-6,9.18-11.07,18.49-17.59,27.64-2.05,2.87-4.06,5.77-6.07,8.67-4.19,6-8.41,12.11-11.45,18.8-1.34,3-2.49,6.07-4.65,8.48C1598.92,892.53,1590.91,892.34,1590.92,885Z"></path><path class="cls-3" d="M1250.5,1788.52c-2-.18-3.66-2.84-5.17-3.79-17.25-10.84-39.26-26.9-45.28-47.37-1.31-4.47-.55-26.88,8.37-15.39,1.63,2.09,2,4.88,2.14,7.51.53,7.91,4.09,14.27,9.43,20s11.08,12.66,17.34,17.53c3.3,2.57,7.14,4.38,10.51,6.88s5.88,5.33,6,9.66a5.23,5.23,0,0,1-1.41,4.18A2.53,2.53,0,0,1,1250.5,1788.52Z"></path><path class="cls-3" d="M1143.55,1533c-23.12-1.55-46.74-18.81-59.51-37.58-1.36-2-2.57-4.1-3.77-6.2-2.42-4.21-2.67-9.76,3.68-9.41,4.11.23,4.25.24,6,4.38,8.32,20.36,32.87,33.84,53.34,38.38,3.66.82,9.43.36,9.47,5.55,0,2.44-1.69,4.68-3.89,4.85A35.71,35.71,0,0,1,1143.55,1533Z"></path><path class="cls-3" d="M1523.93,723.51c-4.66-.34-8.69-2.46-2.63-7,9.43-7.1,30.1-7,41.41-9.15l48.83-9.45a7.77,7.77,0,0,1,3.86-.09c8.42,2.72-1.5,8.57-5.48,9.42-27,5.77-54.09,11.51-81.3,16A17.89,17.89,0,0,1,1523.93,723.51Z"></path><path class="cls-3" d="M1500,604a46.82,46.82,0,0,1,9,.23c8.38,2,16.64,4.87,24.91,7.25,6.64,1.91,15.93,2.89,21.89,6.33,3.13,1.8,8.87,9.32,7.93,13.19-2.4,9.86-25.4-5.42-30.3-7.24-13.4-5-27.49-7.91-41.52-10.49-1.74-.31-3.66-.74-4.69-2.17C1483.57,606.1,1492.41,604.41,1500,604Z"></path><path class="cls-3" d="M1577.19,675.28c-.49-2.72,1.48-5.83,5.49-6.08,20.85-1.3,42.67,2.77,64.09,2.85a14.32,14.32,0,0,1,6.35,1c5.81,2.82,5.75,11.87-2,11.59C1640.41,684.21,1580.34,689.45,1577.19,675.28Z"></path><path class="cls-3" d="M944.67,1877c-3.73,0-5-4.2-3.9-7.31a16.59,16.59,0,0,1,3.49-5.19c12-13.65,23.7-27.92,36.65-40.64,2.77-2.72,9.77-10.58,14.13-9.82,10,1.75-3.54,18.19-6.71,21.34-4.77,4.76-10.26,8.73-15.34,13.17A109.79,109.79,0,0,0,958.47,1864C954.87,1868.65,951.68,1877.07,944.67,1877Z"></path><path class="cls-3" d="M1130.76,959.55v-1.06c0-3.17.38-5.17,3.75-5.37,5.5-.34,6.37,8.41,7.78,12.15,5.16,13.65,13.28,26.09,22,37.7,3.89,5.17,17,21.31,8.6,27.45-4.06,3-9.36-4.12-11.44-7.27A261.89,261.89,0,0,1,1143,990.4C1139.08,982,1130.76,968.89,1130.76,959.55Z"></path><path class="cls-3" d="M845.75,701.21l-.28-.2c-3.72-2.53-7.79-4.54-11.41-7.22-6.4-4.74-11.06-11.28-16.48-17-6.08-6.42-13.81-10.94-20.85-16.24-4.67-3.51-10-8.75-2.84-12.94,3-1.77,9.24,2.2,11.86,3.7a55.34,55.34,0,0,1,12.52,10.41c5.49,5.85,10.32,12.75,16.69,17.73,5.06,4,9.25,10.1,14.81,13.29,1.81,1,3.93,1.73,5.26,3.34,2.8,3.39.56,8.54-4,7.81C849.08,703.56,847.4,702.34,845.75,701.21Z"></path><path class="cls-3" d="M901.31,834.43c-.94-10.68-2.1-21.38-4.68-31.54-1.37-5.41-3.88-10.57-4.27-16.21-.19-2.64-.11-5.61,1.78-7.69s6-3.11,7.41.21,1,7.68,1.77,11.34c4.53,21.93,8.33,44.17,12.16,66.34a13.85,13.85,0,0,1,.12,6.27c-1.77,6-8.75,3.74-10.83-.65a21.32,21.32,0,0,1-1.55-6.91C902.45,848.65,901.93,841.55,901.31,834.43Z"></path><path class="cls-3" d="M1943,430.53c11.18-3.17-4.35,17.29-6.21,19-15.93,14.82-23.88,33.61-36.28,50.93-3.58,5-8,3.3-9.67-1.73a4.68,4.68,0,0,1-.36-2.14c1.71-11.9,15.91-23.93,22.44-33.66C1915.11,459.66,1934.21,433,1943,430.53Z"></path><path class="cls-3" d="M1003.61,799.8c-8.58,0-15.18-7.37-21.54-12.13a176.29,176.29,0,0,0-25.15-15.74,22.28,22.28,0,0,1-4.62-2.83,11.86,11.86,0,0,1-2.93-3.91c-1.36-2.85-2.78-8.81,1.11-10.33,4.2-1.64,10.65,3.85,13.6,6.1,11.77,9,24.65,15.9,37.11,23.78,3.65,2.3,7.87,4.86,9.15,9.19,1.19,4-.4,6.88-4.89,5.88A10.73,10.73,0,0,0,1003.61,799.8Z"></path><path class="cls-3" d="M784.94,1105.89a10.58,10.58,0,0,1,2.66-8.44c7.36-8.44,9.28,3.24,9.67,9.08,1.09,16.17,13,30.43,25.26,40,4.13,3.2,9.09,6,10,11.68.62,4.11.22,4-3.92,4.44-9.89,1.08-20.28-13.81-25.95-20.41-8.61-10-15.89-21.83-17.55-35.18C785,1106.63,785,1106.26,784.94,1105.89Z"></path><path class="cls-3" d="M1778.41,548.41c-8.41-.7-3.88-10.56-2.94-15.46,2.22-11.47.75-23.3,1.16-34.89.3-8.59,1.9-17.91,7-25,4.13-5.77,12.94-9.09,10.85,1.5-2.91,14.74-7.76,29.05-8.18,44.18C1786.16,524.52,1788.65,549.27,1778.41,548.41Z"></path><path class="cls-3" d="M1700.44,567.88a6.32,6.32,0,0,1-.4,2.9c-3.25,7.53-10.32-2.53-11-6.18q-5.94-32.1-11.89-64.22c-.83-4.46-6.07-14.64-1.18-18.49,6.59-5.18,8.13,12.16,9,15.94,5.11,22.61,12.37,45.48,15.32,68.47C1700.35,566.82,1700.41,567.35,1700.44,567.88Z"></path><path class="cls-3" d="M1030.42,1865.79c11.37-1.82,4,8.83-2.17,11-17.45,6.12-36.29,5.34-54.13,9.68-3.54.86-16.3,7.84-19.43,5-2.88-2.57.06-7.59,2.48-9.24a20.14,20.14,0,0,1,6.7-2.5q32.86-7.9,66.14-13.93Z"></path><path class="cls-3" d="M1644.28,448.93a4.82,4.82,0,0,1,1.63-.09c4.71.47,7.32,10,8.31,13.51,4.68,16.49,6.21,34.28,12.32,50.28,1.66,4.34,8.56,18.12-1,18.12-5.56-1.1-6.89-12.77-8.47-17.15-5.58-15.47-7.42-31.77-13.89-47.09a36.73,36.73,0,0,1-2.91-8.61C1639.75,454.6,1640.81,449.77,1644.28,448.93Z"></path><path class="cls-3" d="M1530.91,1823.75a4.34,4.34,0,0,1-.82,3.68c-2,2-4.78-.24-7.3-1-15.9-4.69-28.42-20.82-35.81-34.89-1.74-3.32-3.3-6.83-3.62-10.56-.74-8.77,4.1-18.82,10.81-7.61,2,3.36,2.56,7.58,3.49,11.31,3.17,12.72,14.22,23.6,25.06,30.25,2.64,1.61,5.5,3.15,7.15,5.76A8.17,8.17,0,0,1,1530.91,1823.75Z"></path><path class="cls-3" d="M1001.32,726l-5.54.79c-6.67,1-13.88,1.17-20.18,3.36-3.94,1.37-11,4.67-14.62.95-5.49-5.59,6.28-9.68,9.8-10.38,21.31-4.25,43.07-6.06,64.51-9.56,3-.48,10.82-.2,10.21,4.65-.3,2.36-3.14,3.32-5.48,3.75Q1020.73,723.11,1001.32,726Z"></path><path class="cls-3" d="M1050.77,879.47a4.85,4.85,0,0,1,1.62.28c2.16.73,3.5,2.8,4.95,4.55,2.9,3.5,6.72,6.07,10.49,8.6,3.51,2.34,7.12,4.73,11.25,5.62a36.64,36.64,0,0,1,4.68,1,5.12,5.12,0,0,1,3.38,3.15,3.58,3.58,0,0,1-1.53,3.88c-2.24,1.38-4-1-6.15-.24-2.4.88-1.67,5.05-3.7,6.5a14.09,14.09,0,0,1-5.79,2l-30.5,5.63c-1.81.33-4,.5-5.12-1-1.83-2.57,1.5-5,3.57-5.82a22.68,22.68,0,0,1,5.36-1.09c6.38-.79,22,0,26-5.81.35-.51-10.46-6.61-11.64-7.34-4.17-2.6-8.06-5.89-10.26-10.38C1045.29,884.78,1045,879.51,1050.77,879.47Z"></path><path class="cls-3" d="M1199.45,847.22c-.42,3-3.77,5.45-6.57,7.24-9.11,5.82-16.2,14.5-23.59,22.2-1.45,1.51-2.85,3.08-4.25,4.64-3.39,3.78-15.2,21.4-18,7.89-.91-4.32,2.19-8.36,5.08-11.7,9.88-11.37,24.36-34.46,41.1-35.75,2.51-.19,5.3,1.08,6.08,3.47A4.5,4.5,0,0,1,1199.45,847.22Z"></path><path class="cls-3" d="M1098.35,789c5.52-.18,2.77,20.76,2.72,23.73a346.88,346.88,0,0,0,2.29,45.8c.5,4.25-2.49,20.06-7.51,9.76-2.67-5.46-2.75-12.48-3.33-18.43a276.68,276.68,0,0,1-.39-48.93c.21-2.58,2.48-11.42,5.81-11.9Z"></path><path class="cls-3" d="M1786.25,384.71c.12,3.14-1.55,7.39-2.4,10a251.8,251.8,0,0,0-10.94,54.35c-.23,2.6-.55,5.46-2.47,7.24-3.78,3.52-6.75-1.21-6.81-4.63a197.74,197.74,0,0,1,8.8-62.4c1-3,6.16-8.7,9.58-8.66C1785.09,380.68,1786.15,382.4,1786.25,384.71Z"></path><path class="cls-3" d="M1705.22,352c1,3.69.73,9.11.64,12a302.86,302.86,0,0,0,2.66,51.25c.68,4.91-2.65,9.46-7.55,6.5-5.59-3.39-4-13.37-3.91-18.79.08-10,.14-20.07-1-30-.88-7.58-5.07-16.63,1.22-22.91C1702,346.46,1704.24,348.42,1705.22,352Z"></path><path class="cls-3" d="M928.46,1841.82a3.86,3.86,0,0,1-3.73-1.63,7.09,7.09,0,0,1-.78-2.31c-4.56-21.1,2.25-40.1,10.17-59.8,1.32-3.29,3.17-7,6.62-7.76a4.16,4.16,0,0,1,4.42,1.48c1,1.52.5,3.51,0,5.25-3.7,12.63-8.48,25.14-10.6,38.17-.61,3.71-2,8.26-2.24,11.85-.25,4.22,2.63,9.11-.3,12.9A5.12,5.12,0,0,1,928.46,1841.82Z"></path><path class="cls-3" d="M1960.31,1095.48a11.9,11.9,0,0,1,1.11-3.92c1.79-3.76,5-6.54,7.18-10,2.83-4.54,4.94-9.68,7.51-14.38q4.74-8.64,9.89-17c2.74-4.47,5.43-10.75,10.08-13.58s9.07,0,7.44,5.11c-1.45,4.56-5.57,8-8.06,11.93-9.65,15.37-15.82,33.05-28,46.68-.93,1-2.07,2.12-3.46,2a3.57,3.57,0,0,1-2.58-1.79A7.84,7.84,0,0,1,1960.31,1095.48Z"></path><path class="cls-3" d="M1667.4,598.55c-8.15-2.1-11.61-23.43-14.32-30.31-4.29-10.9-9.17-21.47-14.18-32a8.87,8.87,0,0,1-1.23-4.68c.51-4.38,8.89-4.35,11.36-2,2,1.86,2.87,4.53,3.72,7.09,5.28,16,10,32.44,17.16,47.72a83.63,83.63,0,0,1,1.94,11.58C1670.75,597.18,1669.72,599.15,1667.4,598.55Z"></path><path class="cls-3" d="M979.76,1650.12a6.09,6.09,0,0,1,7,2.94c3.79,6.18,2.7,12,8.32,17.85l10.81,11.23c3,3.17,18,12.1,13.39,17.15-2.51,2.72-7.64,1.13-10.87-.73a9.68,9.68,0,0,1-1.54-1.18c-11.13-9.67-24-19.72-30.28-33.44a14.92,14.92,0,0,1-1.69-7.9A6.85,6.85,0,0,1,979.76,1650.12Z"></path><path class="cls-3" d="M960.81,1901.92a31.94,31.94,0,0,1,6-.25c11.91.56,23.52,3.46,35.34,4.77,4.32.49,29.41-2,20.8,9-2.27,2.88-6.62,2.81-9.91,2.53l-11.79-1c-7.25-.62-14.5-1.24-21.71-2.15s-13.74-1.43-19.85-5.6C953.1,1904.7,956.12,1902.63,960.81,1901.92Z"></path><path class="cls-3" d="M777.56,716.05a33.17,33.17,0,0,1,8.68.51c17.18,4.14,32.49,3.44,49.94,1.37,2-.25,6.37-.64,7.66,1.54,1.41,2.38-.88,4.89-3.19,5.51a144.61,144.61,0,0,1-40.89,4.85c-6.85-.17-13.85-.41-20.56-2-2.61-.6-7.29-1.48-8.77-4.09C767.3,718.25,772.27,716.42,777.56,716.05Z"></path><path class="cls-3" d="M886.45,1768.18c10-2.27,5.84,19.67,6.25,25.66a194,194,0,0,0,6.48,37.9,8,8,0,0,1,.37,4.45c-1.82,5.78-8.26-2.37-9.29-4.71-2.07-4.69-2.55-10.09-3.87-15-2.66-10-5-20.25-5.77-30.56-.31-4.14-1.29-11.06,1.17-14.8A7.69,7.69,0,0,1,886.45,1768.18Z"></path><path class="cls-3" d="M1975.83,484.37c-3.67,12.31-20.07,21-28.83,29.89-4.59,4.66-11.66,9-18.54,7.34a4.47,4.47,0,0,1-3.55-3.38c-.84-5.82,14.14-11.5,17.32-15.52,5.7-7.22,12.9-14.73,20.94-19.36C1966.13,481.64,1978.23,476.31,1975.83,484.37Z"></path><path class="cls-3" d="M1669.81,604.33a16.91,16.91,0,0,1,5.44,1.21c5.65,2.41,10.15,8.3,13.8,13,7.56,9.74,13.14,20.77,19.26,31.42,4.48,7.79-6.13,5-9.15,1.57-1-1.19-2.7-1.58-4.05-2.41-4.5-2.75-6.74-10.68-9.56-15a77.78,77.78,0,0,0-15.47-17.36C1665.93,613.32,1659.38,603.85,1669.81,604.33Z"></path><path class="cls-3" d="M1080.1,951.83c1.8-3.67,3.69-6.36,5.34-6.11,1.36.2,3.38-1,3.7,1.72,1.08,9.34-2.18,17.85-6.48,26-5.55,10.49-11.65,20.59-19.24,29.74-8,9.66-8.84-6-4.55-11.36C1068.8,979.45,1073.25,965.73,1080.1,951.83Z"></path><path class="cls-3" d="M1859.5,1164.28h-.31c-5.26.16-5.08-.41-5.18-5.65,0-2,1.13-2.14,2.49-3.09,6.61-4.62,17.32-4.22,25-6,13.18-3.09,25.37-9.45,38.44-12.47a5,5,0,0,1,3.44.07c1.59.83,1.86,3.14,1,4.73a9.74,9.74,0,0,1-4,3.5c-9.58,5.58-20.14,9.21-30.76,12.21C1880,1160.28,1869.59,1163.89,1859.5,1164.28Z"></path><path class="cls-3" d="M1076.48,1704a5.2,5.2,0,0,1-1,3.32c-1.45,1.33-3.51.46-5.09-.08-4.06-1.38-7.76-4.57-11.08-7.19-6.44-5.08-18.65-13.49-21.14-21.53-1.08-3.49-5-11.43-1.34-14.57,4.16-3.51,8.78,1.58,10.35,5,5.34,11.59,15.45,23.48,26.86,29.46a4.66,4.66,0,0,1,1.51,1C1076.2,1700.14,1076.55,1702.14,1076.48,1704Z"></path><path class="cls-3" d="M1118.71,862.55c0-.55.1-1.1.18-1.64,1.52-10.61,8.38-19.82,10.34-30.37.87-4.7,2.64-12,6.18-15.46,5.65-5.47,8.44,2.68,8.08,7.72a36,36,0,0,1-2.57,9.7c-4.07,11.08-9.1,22.2-11.79,33.7a12.58,12.58,0,0,1-1.37,3.93c-2.28,3.61-6.62,1.28-8.14-1.79A11.19,11.19,0,0,1,1118.71,862.55Z"></path><path class="cls-3" d="M874.15,1938.26c0,5.1-11.66,11.69-15,15.13-6.32,6.56-11.83,13.85-17.85,20.67-2.39,2.71-13.12,11-17,5.09-3.26-5,7.95-11.29,10.71-13.38,2.18-1.65,3.45-4.19,5.2-6.29,5.12-6.15,12.16-9.34,16.61-16.31a46.26,46.26,0,0,1,4.3-6.38C864.24,1933.4,874.11,1930.84,874.15,1938.26Z"></path><path class="cls-3" d="M1744.45,605.42c-1.46-13.85-2.92-27.69-5.08-41.42a6.21,6.21,0,0,1,.12-3.5c5.06-11.51,11.9.64,12.16,7a367.34,367.34,0,0,0,3.84,39.73c.38,2.5.78,5.08.12,7.52-2,7.45-9.68,4.78-10.37-1.69C1745,610.49,1744.71,608,1744.45,605.42Z"></path><path class="cls-3" d="M1892.59,1210.08a5.74,5.74,0,0,1-4.18-1.79c-1.41-1.87-.25-4.71.46-6.6,1.84-5,5.42-9.42,8.62-13.58,7.26-9.48,15.83-18.12,21.21-28.91,1.34-2.7,3.1-6,6.11-6,10.74-.23-6.18,24.18-8.54,27-4.44,5.31-9.23,10.45-12.64,16.5C1901.27,1200.87,1898.81,1210.49,1892.59,1210.08Z"></path><path class="cls-3" d="M1505,684.27c.85-5.88,8.32-6.78,14.35-7.79a98.09,98.09,0,0,1,13.16-1c8.43-.29,16.79-2.09,24.84,1.13,3.92,1.59,11.12,4.74,3.17,7.06-5.74,1.67-54.4,11.51-55.51,3.11A8.89,8.89,0,0,1,1505,684.27Z"></path><path class="cls-3" d="M1772.88,850c-.15-8.66.42-17.49.43-26,0-7.09-1.63-16.55,8.65-13,8.33,2.88,1.44,44.56,1,51.16-.23,3.79-1,8.4-5.87,6.28-2.78-1.22-3.66-7.89-3.87-10.44S1772.93,852.71,1772.88,850Z"></path><path class="cls-3" d="M1547.77,1816.28c.74,1.89.36,3.86-2.13,5.69-1.75,1.29-2.63,1.68-4.09,0-2.94-3.35-8.55-4.09-12.26-6.53a141.92,141.92,0,0,1-14.8-11.76,19.33,19.33,0,0,1-4.64-5.21,17.07,17.07,0,0,1-1.47-4.48c-.76-3.62-3.86-15.67,3.89-14.44,5.3.85,4.67,3,5.84,7,2.69,9.31,10.94,17,19.46,21.19C1540.19,1809,1546.26,1812.48,1547.77,1816.28Z"></path><path class="cls-3" d="M893.58,1955.52c.86,5.21-.8,14-1,15.93-1,11.82-1.88,23.63-2.88,35.45a3.67,3.67,0,0,1-.7,2.22c-6.72,7.28-9.86-10.76-9.87-14.51,0-10.18,2.38-20.19,4.79-30C884.64,1961.86,891.55,1943.16,893.58,1955.52Z"></path><path class="cls-3" d="M818.43,1854.89c6.17.22,15.77,2.62,17.26,3.48,6.62,3.8,12.91,8.62,20.38,10.22,3.12.66,9,1.15,9,5.36,0,3.93-6.77,6.07-9.8,5.53a29.78,29.78,0,0,1-8.12-3.14c-10.51-5.34-24.08-10.26-33-18.07a2.71,2.71,0,0,1-.89-1.16C812.67,1855.3,815,1854.77,818.43,1854.89Z"></path><path class="cls-3" d="M1945,1203.45c0-3.2.08-6.41.22-9.61s.34-17.53,4.5-17.92c5.82-.52,3.38,49,4.22,53,.69,3.33,8,24-1.83,22.19-2.14-.38-3-3-3.37-5.1A235.29,235.29,0,0,1,1945,1203.45Z"></path><path class="cls-3" d="M2012.07,1071.19a5.59,5.59,0,0,1-.2,1.19c-.62,2.19-2.21,4-3.72,5.68-9.37,10.61-17.71,22-24,34.7-1.33,2.66-2.48,5.34-5.73,4.73-2.83-.53-5-4.62-4.65-7.26a14.31,14.31,0,0,1,2.43-5.68c2.68-4.25,5.67-8.3,8.66-12.34l16.47-22.3a12.73,12.73,0,0,1,3.65-3.73C2008.71,1064.05,2012.29,1067.45,2012.07,1071.19Z"></path><path class="cls-3" d="M1565.66,1806.08c-8.36-1.27-15.5-8.49-21.51-13.91a95.83,95.83,0,0,1-9.1-9.89,20.86,20.86,0,0,1-4-6.16c-1.55-4.41,1.06-9.81,6.07-10s13,15.76,16.68,19.13c1.33,1.23,2.73,2.39,4.12,3.56l5.78,4.82c2.31,1.92,9.17,6.42,7.62,10.14C1570.39,1806,1568.22,1806.47,1565.66,1806.08Z"></path><path class="cls-3" d="M1119.63,961c-.08-1.72-.11-3.43-.09-5.15,0-2.73,7.91,3,8.64,4.11,3.4,4.91,3.46,14.61,4.43,20.42l4.06,24.46c.89,5.37-5.56,18.91-7.56,8.62C1125.8,996.38,1120.39,978.51,1119.63,961Z"></path><path class="cls-3" d="M1939.17,1169.84c-1.33,15-6.14,29.63-8.45,44.52-.3,1.91-.64,6.69-2.69,7.69-2.59,1.25-5.66-2-5.46-4.49,1.32-16.46,5-32.87,7.21-49.26.37-2.78.8-8.72,3.68-10.26a4.09,4.09,0,0,1,6,3.68A72.76,72.76,0,0,1,1939.17,1169.84Z"></path><path class="cls-3" d="M1292.51,1578.48c-12.94-1.41-22.88-12.49-28.9-23.26a17.41,17.41,0,0,1-2.49-7c-.27-3.52,1.76-8.07,5.8-7.52a3.59,3.59,0,0,1,3.13,2,38.59,38.59,0,0,1,3.92,7.74c3.29,8.24,10.33,15.4,19.16,17.45a3.7,3.7,0,0,0,1.19.14,8.68,8.68,0,0,0,2.39-1.08c6.5-2.78,5.82,9.24.9,11.14a10.46,10.46,0,0,1-4.69.42Z"></path><path class="cls-3" d="M2016,1130.57c-6.25-.27-12.48-.54-18.5,1-2,.51-4,1.23-6.14,1.08-8.9-.66-1.15-9.92,4.22-9.8,14.35.33,28.43-1.15,42.86-2.95,4-.49,12.42-2.61,16,0,1.91,1.39,1,4.67-1,5.92s-4.51,1.2-6.86,1.39c-5.11.42-10,2.22-15,3S2021.16,1130.79,2016,1130.57Z"></path><path class="cls-3" d="M1935.36,1043.68c.52,10.55,2.78,21.52,3.6,32.28.39,5.16,1.27,11.94-.3,17-1.26,4-4.12,6.37-6.93,2-1.22-1.91-1.29-4.3-1.37-6.57-.29-8-1.2-16-2.11-23.94s-2.44-16.17-1.76-24.34c.33-4,3.15-9.29,7.67-5.94,1.65,1.22,1,3.24,1,5.26C1935.24,1040.8,1935.29,1042.25,1935.36,1043.68Z"></path><path class="cls-3" d="M912,1965.84c.68,7.59,1.42,15.19,2.76,22.66.48,2.73,5.52,16.1,1.44,17.39s-7.41,0-8.27-4.55c-2.81-14.78-8.95-31.83-5.2-46.84,1.76-7,7.35-8.71,8.2-.25C911.3,1958.1,911.63,1962,912,1965.84Z"></path><path class="cls-3" d="M1913.07,1080.45a30.62,30.62,0,0,1-.58,3.7c-.44,2-4.92,13.7-7,6.8a13,13,0,0,1-.31-3.9c0-12.74-7.39-22.91-11.83-34.32-1.48-3.79-5.21-12.3-1.45-15.76,6.76-6.25,11.52,13.07,12.86,16.75,1.61,4.41,4.44,8.27,6.25,12.6A29.55,29.55,0,0,1,1913.07,1080.45Z"></path><path class="cls-3" d="M1908.93,1113.65a15.05,15.05,0,0,1-3.78-1.17c-5.29-2.35-10-5.54-15.54-7.35-6-1.94-12.21-3-18.2-4.86-3.53-1.13-15.68-6.27-11.6-11.8,1.9-2.57,7.81-1,10.25-.3,10.25,3.16,20.15,7.71,30.42,11a36.18,36.18,0,0,1,8.44,3.45C1915.7,1106.87,1915.92,1114.69,1908.93,1113.65Z"></path><path class="cls-3" d="M1021.11,957.41c-.75-5.39,21.39-16.1,23.64-17.18a89.66,89.66,0,0,0,19.35-12.64,13.88,13.88,0,0,1,4-2.73c6.17-2.34,5.92,6.82,3.32,9.93a17.89,17.89,0,0,1-5.26,4c-8.31,4.6-16.54,8.41-24.53,13.68-3.87,2.55-13.42,9-18.45,7C1021.85,958.91,1021.23,958.22,1021.11,957.41Z"></path><path class="cls-3" d="M1078.44,950.65c-5.79,8.75-14.56,14.13-21.24,22-2.45,2.87-5.41,5.68-9.14,6.25-6.82,1-6.87-5.1-3-8.62,4.43-4,9.21-7.64,13.39-11.9,5.85-6,10.75-14.35,18.28-18.44s6.66,2.08,3.74,7.37C1079.85,948.43,1079.17,949.56,1078.44,950.65Z"></path><path class="cls-3" d="M1139.8,878.87c-4.47-.16-5.21-8.91-3.76-12.43,3.08-7.48,6.18-15,10.42-21.89,2.38-3.86,5.72-7.86,10.25-8.08,2-.09,4.35.91,4.94,2.87a6.67,6.67,0,0,1-.55,4.12c-1.66,4.67-5.21,8.67-7.36,13.17-2.5,5.22-4.45,10.68-6.91,15.92-1,2.08-2.13,4.23-4.1,5.41A5.38,5.38,0,0,1,1139.8,878.87Z"></path><path class="cls-3" d="M833.19,1912c.38.87.14,1.93-1.1,3.15a8.61,8.61,0,0,1-4.46,1.86c-14.62,3-30.17,8-45.13,8.53-1.59,0-6.58.75-7.82-.62-4.43-4.91,3.78-8,7.17-8.67,8.16-1.52,16.33-3.34,24.53-4.57,5.8-.86,13.78.71,19-1.9C827.55,1908.93,832.27,1909.86,833.19,1912Z"></path><path class="cls-3" d="M2000.09,1203a9.63,9.63,0,0,1,0,1.2c-.42,4.26-1.73,3.73-5.63,3.67-2.21,0-6.15-7.45-8.61-9.25a134,134,0,0,1-23.5-21.9c-1-1.19-2-2.57-2-4.13.25-4.43,7.82-1.8,10-.51,4.89,3,8.8,8.48,13.54,12,3.63,2.66,7.51,5,10.69,8.25C1997.24,1195,2000,1199,2000.09,1203Z"></path><path class="cls-3" d="M1091.07,880a3.16,3.16,0,0,1-1,2.82c-2.07,2-5.73.47-7.11-1.57a13.77,13.77,0,0,1-1.59-4c-3.28-11.7-7-23.37-9.52-35.24a16.12,16.12,0,0,1-.53-5.56c.67-5,6.8-7.34,8.22-1.53,3.27,13.34,6.59,26.67,9.84,40C1089.79,876.53,1090.89,878.34,1091.07,880Z"></path><path class="cls-3" d="M1098.68,996.82c-2.32-1.05-3.66-4.13-1.86-9.14,3.3-9.15,0-32.35,10.66-36.64,7.57-3.06,5.3,13.6,4.81,16.86-1.08,7.28-2.6,14.48-4.12,21.68C1106.83,995.92,1101.84,998.25,1098.68,996.82Z"></path><path class="cls-3" d="M1719.58,607.63c-.48-10.66-.36-33.57,6.21-26.89a8.7,8.7,0,0,1,1.86,4.41c2.32,10.75,2.73,21.89,3.72,32.82,1.48,16.43-10.31,3-11.45-5.59C1719.81,611.62,1719.68,609.9,1719.58,607.63Z"></path><path class="cls-3" d="M1946.81,1070.12q0-10.45,0-20.9a9.29,9.29,0,0,1,.93-5c2-3.29,9.21-1.26,9,2.73-1,16.19-2,32.08-2.13,48.36a5.84,5.84,0,0,1-.4,2.56c-1.88,3.82-7.21-.92-7.24-3.67C1946.83,1086.18,1946.81,1078.15,1946.81,1070.12Z"></path><path class="cls-3" d="M1719.19,638.09c-1.16,1.85-3.38,1.47-7.32-3.75a24,24,0,0,1-3.32-7.57c-2-6.58-9.31-20-5.89-26.82,1-2.55,3.26-6.06,6.4-3.54a8.29,8.29,0,0,1,2.16,3.37,177.69,177.69,0,0,1,8,23C1720.14,626.19,1721.07,635.08,1719.19,638.09Z"></path><path class="cls-3" d="M1207.41,898.3c-.06,2.63-3.22,5.14-5.46,5.51l-10.66,1.77-16.69,2.76c-3.35.55-8.63,3.11-11.9,2.95-4.84-.22-2.74-6.36-.53-8.37a16.25,16.25,0,0,1,5.48-2.95c9.85-3.51,20.27-3.93,30.56-5.07,2.28-.25,7.84-.71,9,2.15A3.27,3.27,0,0,1,1207.41,898.3Z"></path><path class="cls-3" d="M1784.32,590.27c0,6.27-.14,12.55.08,18.81.2,5.78-6.79,6.7-9.27,1.93a15.21,15.21,0,0,1-1.3-6c-.33-4.74-.44-9.5-.36-14.25a41.67,41.67,0,0,1,1.71-12.64c1.15-3.37,5.09-11.12,9-8.4C1786.12,571,1784.32,587.54,1784.32,590.27Z"></path><path class="cls-3" d="M1694.1,678.65c-6.57-.27-17.24-4.11-20.4-9.06-3.91-6.13,1.09-10.83,8.94-9,5.44,1.28,16.06,5.31,19.4,9.91,3.63,5-1.66,7.66-5.92,8.09A13.22,13.22,0,0,1,1694.1,678.65Z"></path><path class="cls-3" d="M1887.63,922.43c.44,5.29.68,10.93-5.19,7.35-6.29-3.85-7.55-14.88-11.23-21-1.36-2.27-2.9-4.56-3.24-7.19-.59-4.48,3.59-8.48,7.75-5.65a12.65,12.65,0,0,1,3.61,4.67c3.21,5.89,6.63,12.08,7.92,18.74A30.66,30.66,0,0,1,1887.63,922.43Z"></path><path class="cls-3" d="M1743.53,392c2.64,0,4.81,2.33,4.4,8L1746.25,423c-.48,6.55-9.89,1.92-10.58-2.37-.48-3,.43-6.09.5-9.16C1736.3,405.64,1733.35,392,1743.53,392Z"></path><path class="cls-3" d="M1202.49,920.69c-.75,8.66-17,5-22.32,6a25.34,25.34,0,0,1-6.85.82c-2.61-.24-14.75-7.34-8.42-9.46a38,38,0,0,1,10.09-1.44C1180.74,916.36,1202.49,911.37,1202.49,920.69Z"></path><path class="cls-3" d="M1671.49,764.24c1-7.65,8.34-18.75,12.8-22.26,2.71-2.13,10.88-3.32,10.84,2.18-.07,8.92-10.21,17-17.25,21C1675.64,766.49,1670.85,768.86,1671.49,764.24Z"></path><path class="cls-3" d="M1872.25,1136.52c-3.77-.39-10.63-3.61-5.44-7,3.29-2.18,9.66-3,13.47-4.32a109.51,109.51,0,0,1,16.69-4.45,14.19,14.19,0,0,1,4.9-.19c8.82,1.66.75,8.4-3,10.06-7.9,3.47-16.84,4.88-25.35,6A5.5,5.5,0,0,1,1872.25,1136.52Z"></path><path class="cls-3" d="M1773,729c.06,5.84-2.42,13-3.62,16.57a8.67,8.67,0,0,1-2.13,3.93c-10.23,9-6.35-21.8-4.57-25.67C1766.32,715.81,1772.89,723,1773,729Z"></path><path class="cls-3" d="M988.69,1043.62a2.38,2.38,0,0,1-1.84-.17c-1.21-.77-.88-2.59-.38-3.94,2.29-6.24,4.84-16.29,11.56-19.3,6.34-2.85,9.16,1,7,6.88-2.32,6.39-9.32,13.8-15.57,16.26A7,7,0,0,1,988.69,1043.62Z"></path><path class="cls-3" d="M970.91,1025.11a41.26,41.26,0,0,1,.71-8.52c.52-2.77,7.11-10.15,10-6.38,3.63,4.78-.5,17.64-1.58,23-.61,3-5.25,9.87-7.2,3.61A41.63,41.63,0,0,1,970.91,1025.11Z"></path><path class="cls-3" d="M1034.29,1068.88c-5.72-4.68-11.89-.24-18.26-.67a24.42,24.42,0,0,0-6.27.37,5.74,5.74,0,0,0-2.56,1c-4.78,3.77,4.3,6.8,6.87,6.6,5.2-.42,10.31-1.56,15.44-2.35C1031.38,1073.52,1037.48,1071.49,1034.29,1068.88Z"></path><path class="cls-3" d="M955.61,1020.75c1.94-.07,4.16.36,4.53,2.63a10.08,10.08,0,0,1-.22,3.09c-.67,4.55,7.18,24-3.72,20.23-2.8-1-4.15-4.28-5-6.86-1.18-3.81-4-13.67-1.31-16.94C950.89,1021.73,953.34,1020.83,955.61,1020.75Z"></path><path class="cls-3" d="M1020.38,1096.49c1.51,10.67-20.81-6.45-22.64-8.86-5.72-7.57,2.91-6.83,7.57-4.66C1008,1084.22,1019.63,1091.26,1020.38,1096.49Z"></path><path class="cls-3" d="M1007,1055.07a6.17,6.17,0,0,1-4.44-1c-6.76-5,10.06-10.66,13-12.71s7.53-4.86,11.17-3.06c6.78,3.36-.91,5.68-3.79,8.4a36.39,36.39,0,0,1-13.61,7.8A11.35,11.35,0,0,1,1007,1055.07Z"></path><path class="cls-3" d="M958.71,1089.47c2.71-.67,4.9.27,3.18,4.72-1.78,4.64-3.27,11.72-6.46,15.63-7.47,9.16-5.67-12.68-2.33-16.88A11.29,11.29,0,0,1,958.71,1089.47Z"></path><path class="cls-3" d="M931.61,1063.14a54.58,54.58,0,0,1-11-2.85,5.67,5.67,0,0,1-2-1c-4.12-3.82-.16-15.46,4.9-8.14,2.2,3.16,4.76,3.44,8.37,3.78,3.22.3,8.76,2.13,6.51,6.37C937.4,1063.16,934.68,1063.49,931.61,1063.14Z"></path><path class="cls-3" d="M942.57,1081.81c-.21,3.55-2,7.85-3.26,9.07-2.27,2.11-14.18,8.57-12.47,0a9.3,9.3,0,0,1,2.45-4.06c2.11-2.4,6.24-9.88,9.74-10.07C941.91,1076.59,942.74,1079,942.57,1081.81Z"></path><path class="cls-3" d="M971.77,1095.52c1.33.15,2.75,1.39,3.81,3.75,1.78,3.93,1.56,8.67,2.49,12.83a10.93,10.93,0,0,1,.4,4.05c-.56,3.71-3.53,3.55-6,1.75-4.14-3.05-5.2-12.15-4.69-16.89C968.22,1097.17,969.92,1095.31,971.77,1095.52Z"></path><path class="cls-3" d="M931,1030.24v-3.09a5.23,5.23,0,0,1,.48-2.69,3.46,3.46,0,0,1,3.62-1.4c5,.9,7.65,8,4.53,12-1.33,1.68-6.85,4.25-8.28,1.53a4.4,4.4,0,0,1-.34-2.07Z"></path><path class="cls-3" d="M987.12,1094.59a6.87,6.87,0,0,1,5.45,1.54c1.83,1.79,1.11,3.47,1,5.16-.28,2.71-9.27.45-9.35-3.36A3.12,3.12,0,0,1,987.12,1094.59Z"></path></svg> 