<svg xmlns="http://www.w3.org/2000/svg" width="47" height="47" viewBox="0 0 47 47">
    <path fill="#fff" d="M44 47H3a3 3 0 0 1-3-3V3a3 3 0 0 1 3-3h41a3 3 0 0 1 3 3v41a3 3 0 0 1-3 3zM31.45 18.51a6.48 6.48 0 0 0-4.85 2.378 9.782 9.782 0 0 0-2.2 6.562c0 5.533 2.679 8.97 6.99 8.97a6.623 6.623 0 0 0 4.469-2.07h.121l.39 1.65h4.35V12.03h-5.34v5.7l.18 2.55a5.377 5.377 0 0 0-4.11-1.77zm-17.91 9.42h.121c.581 1.339 1.106 2.543 1.65 3.721L17.38 36h5.97L17.2 24.75l5.76-11.1h-5.67l-1.62 4.02c-.385.9-.9 2.126-1.44 3.66h-.12c-.183-.419-.353-.813-.517-1.193-.4-.926-.742-1.723-1.1-2.467l-1.8-4.019H4.72l5.79 10.859L4.39 36h5.7l1.92-4.35c.5-1.15 1.02-2.339 1.53-3.72zm19.26 4.11a2.413 2.413 0 0 1-2.141-1.1 6.559 6.559 0 0 1-.769-3.552 6.029 6.029 0 0 1 .859-3.446 2.38 2.38 0 0 1 1.961-1.082 3.856 3.856 0 0 1 2.67 1.02v6.72a2.855 2.855 0 0 1-2.58 1.44z"/>
</svg>
