<svg xmlns="http://www.w3.org/2000/svg" id="adobe-illustrator" width="47.013" height="47.003" viewBox="0 0 47.013 47.003">
    <defs>
        <style>
            .cls-1{fill:#fff}
        </style>
    </defs>
    <g id="그룹_382">
        <path id="패스_174" d="M8.54 5.772h-.071c-.358 1.441-.716 3.272-1.114 4.673l-1.438 5.136h5.353l-1.509-5.136C9.332 9.007 8.9 7.213 8.54 5.772z" class="cls-1" transform="translate(10.546 10.257)"/>
        <path id="패스_175" d="M44.132 0H2.879A2.877 2.877 0 0 0 0 2.878v41.247A2.878 2.878 0 0 0 2.879 47h41.256a2.88 2.88 0 0 0 2.879-2.878V2.878A2.881 2.881 0 0 0 44.132 0zM24.405 35.953l-1.848-6.138h-6.846l-1.705 6.138H8.4l7.312-23.912h7.095l7.421 23.912zm14.031 0h-5.4V18.6h5.4zm-2.731-19.477a2.643 2.643 0 0 1-2.806-2.7 2.637 2.637 0 0 1 2.845-2.727 2.719 2.719 0 1 1-.039 5.427z" class="cls-1"/>
    </g>
</svg>
