<svg xmlns="http://www.w3.org/2000/svg" width="47.013" height="47.003" viewBox="0 0 47.013 47.003">
    <defs>
        <style>
            .cls-1{fill:#d4fff9}
        </style>
    </defs>
    <g id="adobe-photoshop-logo" transform="translate(0 -.002)">
        <g id="그룹_383" transform="translate(0 .002)">
            <path id="패스_176" d="M7.444 4.982a9.715 9.715 0 0 0-2.417.234v7.646a9.1 9.1 0 0 0 1.957.151c3.114 0 5.035-1.574 5.035-4.228-.003-2.379-1.655-3.803-4.575-3.803z" class="cls-1" transform="translate(8.502 8.42)"/>
            <path id="패스_177" d="M44.136 0H2.88A2.876 2.876 0 0 0 0 2.874v41.254A2.879 2.879 0 0 0 2.88 47h41.256a2.878 2.878 0 0 0 2.877-2.877V2.876A2.876 2.876 0 0 0 44.136 0zm-20.2 23.2c-1.994 1.884-4.957 2.729-8.41 2.729a14.533 14.533 0 0 1-2-.116v9.263H7.721V9.526a48.367 48.367 0 0 1 7.918-.536c3.609 0 6.187.689 7.912 2.075a7.558 7.558 0 0 1 2.772 6 8.269 8.269 0 0 1-2.387 6.141zm8.749 12.259a13.268 13.268 0 0 1-6.077-1.305l1.036-4.188a11.5 11.5 0 0 0 5.041 1.418c1.763 0 2.495-.614 2.495-1.577s-.576-1.418-2.764-2.15c-3.881-1.305-5.383-3.421-5.345-5.649 0-3.493 3-6.152 7.649-6.152a12.644 12.644 0 0 1 5.3 1.077l-1.036 4.037a9.192 9.192 0 0 0-4.073-1.07c-1.418 0-2.223.576-2.223 1.537 0 .883.724 1.343 3.03 2.153 3.574 1.227 5.076 3.036 5.111 5.8 0 3.499-2.772 6.075-8.144 6.075z" class="cls-1" transform="translate(0 -.002)"/>
        </g>
    </g>
</svg>
