<svg xmlns="http://www.w3.org/2000/svg" width="45" height="58" viewBox="0 0 45 58">
    <defs>
        <style>
            .cls-1{fill:#d4fff9}
        </style>
    </defs>
    <g id="css" transform="translate(-6.5)">
        <path id="패스_161" d="M6.5 41v15a2.426 2.426 0 0 0 2.463 2h40.074a2.426 2.426 0 0 0 2.463-2V41zm12.96 9.664a3.427 3.427 0 0 0 .547 1.183 2.192 2.192 0 0 0 .793.67 2.138 2.138 0 0 0 .937.212 2.4 2.4 0 0 0 .923-.178 2.167 2.167 0 0 0 .786-.574l1.135 1a3.73 3.73 0 0 1-1.271.82 4.23 4.23 0 0 1-1.531.273 4.135 4.135 0 0 1-1.661-.328 3.72 3.72 0 0 1-1.326-.971 4.581 4.581 0 0 1-.889-1.613 7.966 7.966 0 0 1 0-4.477 4.574 4.574 0 0 1 .889-1.606 3.793 3.793 0 0 1 1.333-.978 4.072 4.072 0 0 1 1.654-.335 4.23 4.23 0 0 1 1.531.273 3.73 3.73 0 0 1 1.271.82l-1.135 1.012a2.064 2.064 0 0 0-.759-.574 2.2 2.2 0 0 0-.868-.178 2.471 2.471 0 0 0-.964.191 2.065 2.065 0 0 0-.82.649 3.352 3.352 0 0 0-.567 1.183 7.345 7.345 0 0 0-.008 3.528zM32.407 52.3a2.75 2.75 0 0 1-.636.9 3.048 3.048 0 0 1-1.012.622 3.771 3.771 0 0 1-1.367.232c-.219 0-.444-.012-.677-.034a5.492 5.492 0 0 1-.7-.116 3.612 3.612 0 0 1-.677-.226 2.189 2.189 0 0 1-.554-.349l.287-1.176a2.92 2.92 0 0 0 .485.212c.2.068.4.132.608.191s.419.107.629.144a3.388 3.388 0 0 0 .588.055 1.878 1.878 0 0 0 1.278-.39 1.456 1.456 0 0 0 .441-1.155 1.1 1.1 0 0 0-.314-.793 3.4 3.4 0 0 0-.786-.6q-.471-.267-1.019-.533a6.215 6.215 0 0 1-1.025-.629 3.281 3.281 0 0 1-.793-.854 2.238 2.238 0 0 1-.314-1.23 2.747 2.747 0 0 1 .246-1.189 2.66 2.66 0 0 1 .663-.882 2.934 2.934 0 0 1 .971-.554 3.542 3.542 0 0 1 1.171-.186 7.171 7.171 0 0 1 1.271.116 2.8 2.8 0 0 1 1.039.376c-.055.118-.118.248-.191.39s-.142.273-.2.4-.118.226-.164.308a1.264 1.264 0 0 1-.082.137 1.651 1.651 0 0 1-.185-.109 1.391 1.391 0 0 0-.294-.137 2.1 2.1 0 0 0-.506-.1 4.781 4.781 0 0 0-.807.014 1.412 1.412 0 0 0-.52.157 1.8 1.8 0 0 0-.438.321 1.464 1.464 0 0 0-.3.431 1.1 1.1 0 0 0-.109.458 1.237 1.237 0 0 0 .314.882 3.082 3.082 0 0 0 .779.588q.464.254 1.012.492a5.486 5.486 0 0 1 1.019.581 2.936 2.936 0 0 1 .786.854 2.484 2.484 0 0 1 .314 1.319 2.529 2.529 0 0 1-.231 1.062zm7.41 0a2.75 2.75 0 0 1-.636.9 3.048 3.048 0 0 1-1.012.622 3.771 3.771 0 0 1-1.367.232c-.219 0-.444-.012-.677-.034a5.492 5.492 0 0 1-.7-.116 3.612 3.612 0 0 1-.677-.226 2.189 2.189 0 0 1-.554-.349l.287-1.176a2.92 2.92 0 0 0 .485.212c.2.068.4.132.608.191s.419.107.629.144a3.388 3.388 0 0 0 .588.055 1.878 1.878 0 0 0 1.278-.39 1.456 1.456 0 0 0 .444-1.155 1.1 1.1 0 0 0-.314-.793 3.4 3.4 0 0 0-.786-.6q-.471-.267-1.019-.533a6.215 6.215 0 0 1-1.025-.629 3.281 3.281 0 0 1-.793-.854 2.238 2.238 0 0 1-.314-1.23 2.747 2.747 0 0 1 .246-1.189 2.66 2.66 0 0 1 .663-.882 2.934 2.934 0 0 1 .971-.554 3.542 3.542 0 0 1 1.169-.191 7.171 7.171 0 0 1 1.271.116 2.8 2.8 0 0 1 1.039.376c-.055.118-.118.248-.191.39s-.142.273-.205.4-.118.226-.164.308a1.265 1.265 0 0 1-.082.137 1.651 1.651 0 0 1-.185-.109 1.391 1.391 0 0 0-.294-.137 2.1 2.1 0 0 0-.506-.1 4.781 4.781 0 0 0-.807.014 1.412 1.412 0 0 0-.52.157 1.8 1.8 0 0 0-.438.321 1.464 1.464 0 0 0-.3.431 1.1 1.1 0 0 0-.109.458 1.237 1.237 0 0 0 .314.882 3.082 3.082 0 0 0 .779.588q.463.254 1.012.492a5.486 5.486 0 0 1 1.019.581 2.936 2.936 0 0 1 .786.854 2.484 2.484 0 0 1 .314 1.319 2.529 2.529 0 0 1-.227 1.067z" class="cls-1"/>
        <path id="패스_162" d="M51.5 39V13.978a2.309 2.309 0 0 0-.55-1.792L39.313.55A1.891 1.891 0 0 0 37.985 0H8.963C7.777 0 6.5.916 6.5 2.926V39zm-14-35.609a.513.513 0 0 1 .877-.363l10.1 10.1a.513.513 0 0 1-.363.877H37.5zM36.5 23v-4a1 1 0 0 0-1-1 1 1 0 0 1 0-2 3 3 0 0 1 3 3v4a2 2 0 0 0 2 2 1 1 0 0 1 0 2 2 2 0 0 0-2 2v4a3 3 0 0 1-3 3 1 1 0 0 1 0-2 1 1 0 0 0 1-1v-4a3.975 3.975 0 0 1 1.382-3 3.975 3.975 0 0 1-1.382-3zm-20 2a2 2 0 0 0 2-2v-4a3 3 0 0 1 3-3 1 1 0 0 1 0 2 1 1 0 0 0-1 1v4a3.975 3.975 0 0 1-1.382 3 3.975 3.975 0 0 1 1.382 3v4a1 1 0 0 0 1 1 1 1 0 0 1 0 2 3 3 0 0 1-3-3v-4a2 2 0 0 0-2-2 1 1 0 0 1 0-2z" class="cls-1"/>
    </g>
</svg>
