<svg xmlns="http://www.w3.org/2000/svg" width="45" height="58" viewBox="0 0 45 58">
    <defs>
        <style>
            .cls-1{fill:#fff}
        </style>
    </defs>
    <g id="html" transform="translate(-6.5)">
        <path id="패스_159" d="M51.5 39V13.978a2.309 2.309 0 0 0-.55-1.792L39.313.55A1.891 1.891 0 0 0 37.985 0H8.963C7.777 0 6.5.916 6.5 2.926V39zm-14-35.609a.513.513 0 0 1 .877-.363l10.1 10.1a.513.513 0 0 1-.363.877H37.5zm-2.707 15.316a1 1 0 0 1 1.414-1.414l6 6a1 1 0 0 1 0 1.414l-6 6a1 1 0 0 1-1.414-1.414L40.086 24zm-18 4.586l6-6a1 1 0 0 1 1.414 1.414L18.914 24l5.293 5.293a1 1 0 1 1-1.414 1.414l-6-6a1 1 0 0 1 0-1.414z" class="cls-1"/>
        <path id="패스_160" d="M6.5 41v15a2.426 2.426 0 0 0 2.463 2h40.074a2.426 2.426 0 0 0 2.463-2V41zm11.955 13h-1.641v-4.539h-4.361V54h-1.668V43.924h1.668v4.416h4.361v-4.416h1.641zm9.652-8.955H25.1V54h-1.654v-8.955h-3.008v-1.121h7.67v1.121zM39.373 54h-1.668v-6.932l-2.256 5.6H34l-2.27-5.6V54h-1.668V43.924h1.668l2.994 6.891 2.98-6.891h1.668V54zm8.832 0H41.9V43.924h1.67v8.832h4.635z" class="cls-1"/>
    </g>
</svg>
