<svg xmlns="http://www.w3.org/2000/svg" width="45" height="58" viewBox="0 0 45 58">
    <defs>
        <style>
            .cls-1{fill:#d4fff9}
        </style>
    </defs>
    <g id="javascript" transform="translate(-6.5)">
        <path id="패스_150" d="M6.5 41v15a2.426 2.426 0 0 0 2.463 2h40.074a2.426 2.426 0 0 0 2.463-2V41zm20.521 10.566a2.509 2.509 0 0 1-.26 1.2 2.151 2.151 0 0 1-.7.779 2.778 2.778 0 0 1-1 .41 5.852 5.852 0 0 1-1.169.116 4.742 4.742 0 0 1-.7-.062 6.014 6.014 0 0 1-.834-.191q-.43-.131-.827-.294a3.022 3.022 0 0 1-.67-.369l.7-1.107a2.042 2.042 0 0 0 .39.2c.169.068.353.132.554.191s.41.111.629.157a3 3 0 0 0 .615.068 2.1 2.1 0 0 0 1.155-.28 1.106 1.106 0 0 0 .458-.95v-7.717h1.668zm7.937.732a2.75 2.75 0 0 1-.636.9 3.058 3.058 0 0 1-1.012.622 3.771 3.771 0 0 1-1.367.232c-.219 0-.444-.012-.677-.034a5.464 5.464 0 0 1-.7-.116 3.686 3.686 0 0 1-.677-.226 2.171 2.171 0 0 1-.554-.349l.287-1.176a2.883 2.883 0 0 0 .485.212c.2.068.4.132.608.191a6.134 6.134 0 0 0 .629.144 3.48 3.48 0 0 0 .588.055 1.878 1.878 0 0 0 1.278-.39 1.456 1.456 0 0 0 .444-1.155 1.107 1.107 0 0 0-.314-.793 3.4 3.4 0 0 0-.786-.6q-.471-.267-1.019-.533a6.173 6.173 0 0 1-1.025-.629 3.264 3.264 0 0 1-.793-.854 2.238 2.238 0 0 1-.314-1.23 2.747 2.747 0 0 1 .246-1.189 2.66 2.66 0 0 1 .663-.882 2.934 2.934 0 0 1 .971-.554 3.542 3.542 0 0 1 1.169-.191 7.171 7.171 0 0 1 1.271.116 2.8 2.8 0 0 1 1.039.376c-.055.118-.119.248-.191.39s-.142.273-.205.4-.119.226-.164.308a1.264 1.264 0 0 1-.082.137 1.651 1.651 0 0 1-.185-.109 1.415 1.415 0 0 0-.294-.137 2.107 2.107 0 0 0-.506-.1 4.781 4.781 0 0 0-.807.014 1.412 1.412 0 0 0-.52.157 1.78 1.78 0 0 0-.438.321 1.446 1.446 0 0 0-.3.431 1.1 1.1 0 0 0-.109.458 1.237 1.237 0 0 0 .314.882 3.047 3.047 0 0 0 .779.588c.31.169.646.333 1.012.492a5.519 5.519 0 0 1 1.019.581 2.936 2.936 0 0 1 .786.854 2.5 2.5 0 0 1 .314 1.319 2.544 2.544 0 0 1-.227 1.069z" class="cls-1"/>
        <path id="패스_151" d="M51.5 39V13.978a2.309 2.309 0 0 0-.55-1.792L39.313.55A1.891 1.891 0 0 0 37.985 0H8.963C7.777 0 6.5.916 6.5 2.926V39zm-22-7a1 1 0 0 1-2 0v-3a1 1 0 0 1 2 0zm8-28.609a.513.513 0 0 1 .877-.363l10.1 10.1a.513.513 0 0 1-.363.877H37.5zM36.5 23v-4a1 1 0 0 0-1-1 1 1 0 0 1 0-2 3 3 0 0 1 3 3v4a2 2 0 0 0 2 2 1 1 0 0 1 0 2 2 2 0 0 0-2 2v4a3 3 0 0 1-3 3 1 1 0 0 1 0-2 1 1 0 0 0 1-1v-4a3.975 3.975 0 0 1 1.382-3 3.975 3.975 0 0 1-1.382-3zm-8-2a1.5 1.5 0 1 1-1.5 1.5 1.5 1.5 0 0 1 1.5-1.5zm-12 4a2 2 0 0 0 2-2v-4a3 3 0 0 1 3-3 1 1 0 0 1 0 2 1 1 0 0 0-1 1v4a3.975 3.975 0 0 1-1.382 3 3.975 3.975 0 0 1 1.382 3v4a1 1 0 0 0 1 1 1 1 0 0 1 0 2 3 3 0 0 1-3-3v-4a2 2 0 0 0-2-2 1 1 0 0 1 0-2z" class="cls-1"/>
    </g>
</svg>
