<svg xmlns="http://www.w3.org/2000/svg" width="45" height="58" viewBox="0 0 45 58">
    <defs>
        <style>
            .cls-1{fill:#fff}
        </style>
    </defs>
    <g id="json-file" transform="translate(-6.5)">
        <path id="패스_163" d="M33.655 45.988a2.1 2.1 0 0 0-.793-.67 2.2 2.2 0 0 0-.937-.205 2.471 2.471 0 0 0-.964.191 2.065 2.065 0 0 0-.82.649 3.352 3.352 0 0 0-.567 1.183 6.926 6.926 0 0 0-.219 1.777 7.065 7.065 0 0 0 .212 1.75 3.427 3.427 0 0 0 .547 1.183 2.192 2.192 0 0 0 .793.67 2.138 2.138 0 0 0 .937.212 2.407 2.407 0 0 0 .964-.2 2.148 2.148 0 0 0 .82-.649 3.277 3.277 0 0 0 .567-1.183 7.06 7.06 0 0 0 .219-1.784 6.974 6.974 0 0 0-.212-1.743 3.508 3.508 0 0 0-.547-1.181z" class="cls-1"/>
        <path id="패스_164" d="M51.5 39V13.978a2.309 2.309 0 0 0-.55-1.792L39.313.55A1.891 1.891 0 0 0 37.985 0H8.963C7.777 0 6.5.916 6.5 2.926V39zm-22-6a1 1 0 0 1-2 0v-3a1 1 0 0 1 2 0zm8-29.609a.513.513 0 0 1 .877-.363l10.1 10.1a.513.513 0 0 1-.363.877H37.5zM36.5 24v-4a1 1 0 0 0-1-1 1 1 0 0 1 0-2 3 3 0 0 1 3 3v4a2 2 0 0 0 2 2 1 1 0 0 1 0 2 2 2 0 0 0-2 2v4a3 3 0 0 1-3 3 1 1 0 0 1 0-2 1 1 0 0 0 1-1v-4a3.975 3.975 0 0 1 1.382-3 3.975 3.975 0 0 1-1.382-3zm-8-2a1.5 1.5 0 1 1-1.5 1.5 1.5 1.5 0 0 1 1.5-1.5zm-12 4a2 2 0 0 0 2-2v-4a3 3 0 0 1 3-3 1 1 0 0 1 0 2 1 1 0 0 0-1 1v4a3.975 3.975 0 0 1-1.382 3 3.975 3.975 0 0 1 1.382 3v4a1 1 0 0 0 1 1 1 1 0 0 1 0 2 3 3 0 0 1-3-3v-4a2 2 0 0 0-2-2 1 1 0 0 1 0-2z" class="cls-1"/>
        <path id="패스_165" d="M6.5 41v15a2.426 2.426 0 0 0 2.463 2h40.074a2.426 2.426 0 0 0 2.463-2V41zm11.521 10.566a2.509 2.509 0 0 1-.26 1.2 2.133 2.133 0 0 1-.7.779 2.778 2.778 0 0 1-1 .41 5.845 5.845 0 0 1-1.169.116 4.753 4.753 0 0 1-.7-.062 6.014 6.014 0 0 1-.834-.191q-.43-.131-.827-.294a3.068 3.068 0 0 1-.67-.369l.7-1.107a2.042 2.042 0 0 0 .39.2q.254.1.554.191t.629.157a3 3 0 0 0 .615.068 2.1 2.1 0 0 0 1.155-.28 1.106 1.106 0 0 0 .458-.95v-7.717h1.668zm7.937.732a2.75 2.75 0 0 1-.636.9 3.048 3.048 0 0 1-1.012.622 3.771 3.771 0 0 1-1.367.232c-.219 0-.444-.012-.677-.034a5.492 5.492 0 0 1-.7-.116 3.686 3.686 0 0 1-.677-.226 2.189 2.189 0 0 1-.554-.349l.287-1.176a2.92 2.92 0 0 0 .485.212c.2.068.4.132.608.191s.419.107.629.144a3.388 3.388 0 0 0 .588.055 1.878 1.878 0 0 0 1.278-.39 1.456 1.456 0 0 0 .444-1.155 1.1 1.1 0 0 0-.314-.793 3.4 3.4 0 0 0-.786-.6q-.471-.267-1.019-.533a6.215 6.215 0 0 1-1.025-.629 3.281 3.281 0 0 1-.793-.854 2.238 2.238 0 0 1-.314-1.23 2.747 2.747 0 0 1 .246-1.189 2.66 2.66 0 0 1 .663-.882 2.934 2.934 0 0 1 .971-.554 3.542 3.542 0 0 1 1.169-.191 7.171 7.171 0 0 1 1.271.116 2.8 2.8 0 0 1 1.039.376c-.055.118-.118.248-.191.39s-.142.273-.2.4-.118.226-.164.308a1.264 1.264 0 0 1-.082.137 1.651 1.651 0 0 1-.185-.109 1.391 1.391 0 0 0-.294-.137 2.1 2.1 0 0 0-.506-.1 4.781 4.781 0 0 0-.807.014 1.412 1.412 0 0 0-.52.157 1.8 1.8 0 0 0-.438.321 1.464 1.464 0 0 0-.3.431 1.1 1.1 0 0 0-.109.458 1.237 1.237 0 0 0 .314.882 3.082 3.082 0 0 0 .779.588q.464.254 1.012.492a5.486 5.486 0 0 1 1.019.581 2.936 2.936 0 0 1 .786.854 2.484 2.484 0 0 1 .314 1.319 2.544 2.544 0 0 1-.232 1.069zm9.8-1.142a4.572 4.572 0 0 1-.889 1.613 3.732 3.732 0 0 1-1.326.971 4.37 4.37 0 0 1-3.322 0 3.72 3.72 0 0 1-1.326-.971 4.581 4.581 0 0 1-.889-1.613 7.966 7.966 0 0 1 0-4.477 4.583 4.583 0 0 1 .889-1.606 3.813 3.813 0 0 1 1.326-.978 4.285 4.285 0 0 1 3.322 0 3.8 3.8 0 0 1 1.326.978 4.592 4.592 0 0 1 .889 1.606 7.966 7.966 0 0 1 0 4.477zM45.68 54h-1.668l-3.951-6.945V54h-1.668V43.924h1.668l3.951 6.945v-6.945h1.668z" class="cls-1"/>
    </g>
</svg>
