<svg xmlns="http://www.w3.org/2000/svg" width="42.849" height="93.65" viewBox="0 0 42.849 93.65">
    <defs>
        <style>
            .cls-1{fill:#1a1311}
        </style>
    </defs>
    <g id="그룹_425" transform="translate(-954 -734)">
        <g id="그룹_424" transform="translate(954 734)">
            <path id="패스_194" d="M245.469 143.375c-11.793.006-21.418 9.017-21.424 20.059v25.073c.007 11.042 9.631 20.053 21.424 20.059s21.418-9.017 21.424-20.059v-25.073c-.007-11.042-9.628-20.053-21.424-20.059zm18.131 45.132a16.387 16.387 0 0 1-5.326 11.986 18.921 18.921 0 0 1-25.6 0 16.4 16.4 0 0 1-5.33-11.986v-25.073a16.4 16.4 0 0 1 5.33-11.986 18.921 18.921 0 0 1 25.6 0 16.387 16.387 0 0 1 5.326 11.986z" class="cls-1" transform="translate(-224.044 -143.375)"/>
            <path id="패스_195" d="M253.4 168.527l-12.314 12.314-12.314-12.314a1.648 1.648 0 1 0-2.33 2.33l13.481 13.481a1.649 1.649 0 0 0 2.33 0l13.478-13.481a1.648 1.648 0 1 0-2.33-2.33z" class="cls-1" transform="translate(-219.657 -91.17)"/>
            <path id="패스_196" d="M232.193 147.375a2.374 2.374 0 0 0-2.367 2.37v8.655a2.368 2.368 0 1 0 4.736 0v-8.652a2.374 2.374 0 0 0-2.369-2.373z" class="cls-1" transform="translate(-210.768 -134.191)"/>
        </g>
    </g>
</svg>
