<svg xmlns="http://www.w3.org/2000/svg" width="223.4" height="303.516" viewBox="0 0 223.4 303.516">
    <defs>
        <style>
            .cls-5{fill:#262727}.cls-8{fill:#2b2c2c}.cls-9{fill:#f2f9fb}
        </style>
    </defs>
    <g id="그룹_413" transform="translate(-90.928 -185.676)">
        <path id="패스_182" fill="#222" d="M202.628 401.254a159.944 159.944 0 0 0 111.7-45.294c-10.513-46.059-51.911-80.71-101.039-80.71h-21.323c-49.127 0-90.525 34.651-101.038 80.71a159.943 159.943 0 0 0 111.7 45.294z" transform="translate(0 87.937)"/>
        <ellipse id="타원_34" cx="29.354" cy="13.129" fill="#e89e8d" rx="29.354" ry="13.129" transform="translate(173.274 354.517)"/>
        <path id="패스_183" fill="#131414" d="M288.723 227.167h-22.764l-71.116 42.661-69.42-42h-22.765s-17.861 106.441 16.324 95.3c25.883-8.438 97.7-9.451 131.06-9.447 9.06.9 16.8 2.156 22.358 3.874 34.184 10.565 16.323-90.388 16.323-90.388z" transform="translate(6.937 40.733)"/>
        <path id="패스_184" fill="#f8c6bb" d="M204.481 364.415h-39.437a1.09 1.09 0 0 1-.115-.006c-30.7-3.755-55.8-32.572-55.8-64.1V247.5c0-31.545 25.138-57.353 55.861-57.353h39.551c30.723 0 55.861 25.808 55.861 57.353v52.817c0 31.523-25.107 60.34-55.8 64.1a1.063 1.063 0 0 1-.121-.002z" transform="translate(17.865 4.386)"/>
        <g id="그룹_411" transform="translate(160.603 283.671)">
            <ellipse id="타원_35" cx="7.586" cy="8.856" class="cls-5" rx="7.586" ry="8.856"/>
            <ellipse id="타원_36" cx="7.586" cy="8.856" class="cls-5" rx="7.586" ry="8.856" transform="translate(68.879)"/>
        </g>
        <path id="패스_186" fill="#d9866e" d="M148.331 244.164L143 258.6a3.63 3.63 0 0 0 3.4 4.887h10.67a3.63 3.63 0 0 0 3.4-4.887l-5.335-14.433a3.63 3.63 0 0 0-6.804-.003z" transform="translate(50.893 55.092)"/>
        <path id="패스_187" fill="#e65743" d="M156.958 273.675c9.043 0 16.7-4.647 19.29-11.056.957-2.37-1.332-4.786-4.506-4.786h-29.568c-3.173 0-5.464 2.416-4.506 4.786 2.592 6.409 10.247 11.056 19.29 11.056z" transform="translate(45.67 70.839)"/>
        <path id="패스_188" d="M285.69 251.267s-13.565-65.591-91.358-65.591-90.256 65.591-90.256 65.591l-4.814 35.352s42.338-14.365 51.038-37.03v13.026a9.938 9.938 0 0 0 9.909 9.909H226.1a9.938 9.938 0 0 0 9.909-9.909v-14.162s29.26 40.065 53.622 31.943z" class="cls-8" transform="translate(8.183)"/>
        <g id="그룹_412" transform="translate(140.352 266.348)">
            <ellipse id="타원_37" cx="3.114" cy="2.422" class="cls-9" rx="3.114" ry="2.422" transform="rotate(-69.7 46.188 -17.42)"/>
            <ellipse id="타원_38" cx="2.422" cy="3.114" class="cls-9" rx="2.422" ry="3.114" transform="rotate(-20.28 112.977 -184.11)"/>
            <path id="패스_189" d="M232.588 234.008a27.177 27.177 0 0 0-37.75 0 25.686 25.686 0 0 0-7.792 17.667 23.108 23.108 0 0 0-8.749-1.768 24.853 24.853 0 0 0-9.066 1.728 25.682 25.682 0 0 0-7.78-17.449 27.172 27.172 0 0 0-37.75 0 25.627 25.627 0 0 0 0 36.882 27.172 27.172 0 0 0 37.75 0 25.683 25.683 0 0 0 7.766-17.176 22.61 22.61 0 0 1 9.08-1.908 20.931 20.931 0 0 1 8.787 1.95 25.691 25.691 0 0 0 7.754 16.956 27.172 27.172 0 0 0 37.75 0 25.627 25.627 0 0 0 0-36.882zM160 269.582a25.1 25.1 0 0 1-34.853 0 23.555 23.555 0 0 1 0-33.909 25.1 25.1 0 0 1 34.853 0 23.55 23.55 0 0 1 0 33.909zm71.138-.178a25.1 25.1 0 0 1-34.853 0 23.55 23.55 0 0 1 0-33.909 25.1 25.1 0 0 1 34.853 0 23.55 23.55 0 0 1 0 33.909z" class="cls-8" transform="translate(-115.868 -226.384)"/>
        </g>
    </g>
</svg>
