<svg xmlns="http://www.w3.org/2000/svg" width="72.751" height="54.568" viewBox="0 0 72.751 54.568">
    <path fill="#fff" d="M34.315 57.259c-.034.068-.068.122 0 0zm28.32-9.89a14.909 14.909 0 0 0-6.594 1.531 14 14 0 0 1-1.478-3.422 9.133 9.133 0 0 1-.125-2.876 24.22 24.22 0 0 1 .864-3.092c-.011-.125-.159-.75-1.626-.762s-2.728.284-2.875.671a13.963 13.963 0 0 0-.6 2.171c-.261 1.33-2.932 6.082-4.444 8.56a8.826 8.826 0 0 1-1.012-2.5 9.134 9.134 0 0 1-.125-2.876 24.22 24.22 0 0 1 .864-3.092c-.011-.125-.159-.75-1.624-.762s-2.728.284-2.876.671-.307 1.3-.6 2.171-3.856 8.791-4.784 10.848c-.477 1.046-.887 1.887-1.182 2.455-.045.091-.08.148-.1.193.034-.057.057-.114.057-.091-.25.489-.4.762-.4.762v.011c-.193.364-.409.693-.512.693a4.716 4.716 0 0 1 .034-2.262c.534-2.751 1.8-7.025 1.785-7.173-.011-.08.239-.818-.83-1.216a1.338 1.338 0 0 0-1.5.25c-.091 0-.159.227-.159.227s1.148-4.82-2.2-4.82c-2.092 0-5 2.3-6.432 4.376-.9.489-2.842 1.546-4.888 2.671-.784.432-1.591.875-2.353 1.3-.057-.057-.1-.114-.159-.171-4.076-4.344-11.588-7.415-11.27-13.244.114-2.126.853-7.707 14.445-14.482 11.14-5.547 20.047-4.024 21.58-.637 2.205 4.831-4.762 13.823-16.331 15.119-4.409.489-6.727-1.216-7.307-1.853-.6-.671-.693-.7-.921-.58-.375.2-.136.8 0 1.148a6.85 6.85 0 0 0 4.182 3.285c2.126.693 7.3 1.08 13.547-1.341 7.023-2.705 12.489-10.242 10.887-16.551-1.632-6.411-12.263-8.514-22.316-4.945-5.989 2.126-12.466 5.466-17.126 9.821C.6 32.739-.289 37.252.075 39.139 1.37 45.834 10.6 50.2 14.291 53.428c-.182.1-.352.193-.512.284-1.852.921-8.887 4.6-10.648 8.492-1.989 4.411.33 7.571 1.852 8 4.75 1.319 9.615-1.057 12.228-4.956s2.3-8.992 1.091-11.311c-.011-.034-.034-.057-.045-.091.477-.284.966-.568 1.455-.853.942-.557 1.863-1.069 2.67-1.512a17.656 17.656 0 0 0-.955 4.843c-.2 2.5.83 5.741 2.171 7.014a2.386 2.386 0 0 0 1.749.568c1.569 0 2.273-1.3 3.057-2.842.966-1.887 1.819-4.081 1.819-4.081s-1.069 5.934 1.853 5.934c1.067 0 2.136-1.375 2.615-2.08v.011s.023-.045.08-.136c.114-.171.171-.273.171-.273v-.034c.432-.739 1.375-2.433 2.8-5.229 1.842-3.615 3.6-8.128 3.6-8.128a22.876 22.876 0 0 0 .7 2.933 27.459 27.459 0 0 0 1.523 3.41c-.432.591-.693.932-.693.932a.035.035 0 0 0 .011.023c-.341.455-.728.943-1.125 1.421a40.123 40.123 0 0 0-3.41 4.274 1.161 1.161 0 0 0 .318 1.557 2.763 2.763 0 0 0 1.784.284 7.883 7.883 0 0 0 2.671-.614 9.344 9.344 0 0 0 2.3-1.2 5.132 5.132 0 0 0 2.205-4.524 9.414 9.414 0 0 0-.83-3.206c.125-.182.261-.375.386-.568a60.431 60.431 0 0 0 3.989-6.891 22.877 22.877 0 0 0 .7 2.933 20.05 20.05 0 0 0 1.295 2.921 12.5 12.5 0 0 0-3.875 5.013c-.841 2.421-.182 3.513 1.057 3.763a3.814 3.814 0 0 0 1.944-.4 9.032 9.032 0 0 0 2.454-1.262c1.421-1.046 2.8-2.512 2.7-4.5a8.457 8.457 0 0 0-.614-2.66 13.875 13.875 0 0 1 7.058-.818c6.329.739 7.568 4.695 7.33 6.343a4.2 4.2 0 0 1-2.012 2.842c-.443.273-.58.375-.546.58.057.3.261.284.637.216a4.938 4.938 0 0 0 3.443-4.4c.182-3.865-3.534-8.116-10.117-8.082zM13.848 63.818c-2.09 2.285-5.023 3.149-6.284 2.421-1.353-.787-.818-4.149 1.761-6.584a33.68 33.68 0 0 1 4.932-3.683c.307-.182.75-.455 1.3-.784.091-.057.136-.08.136-.08.1-.068.216-.125.33-.193a9.073 9.073 0 0 1-2.171 8.9zm15.273-10.39c-.728 1.785-2.261 6.332-3.193 6.093-.8-.2-1.285-3.672-.159-7.082a15.678 15.678 0 0 1 2.489-4.558c1.147-1.285 2.409-1.694 2.7-1.182.402.67-1.382 5.615-1.837 6.729zm12.618 6.025c-.307.159-.591.261-.728.182-.1-.057.125-.273.125-.273s1.58-1.694 2.205-2.467c.364-.455.784-.989 1.238-1.58 0 .057.011.114.011.182-.015 2.035-1.969 3.41-2.856 3.956zm9.728-2.217c-.227-.159-.193-.693.568-2.353A8.835 8.835 0 0 1 54.2 52.1a4.113 4.113 0 0 1 .216 1.228 4.008 4.008 0 0 1-2.943 3.91z" transform="translate(-.004 -16.004)"/>
</svg>
