<svg xmlns="http://www.w3.org/2000/svg" width="60" height="47.961" viewBox="0 0 60 47.961">
    <defs>
        <style>
            .cls-1{fill:#d4fff9}.cls-1,.cls-2,.cls-4{fill-rule:evenodd}.cls-2{fill:#a2ece2}.cls-4{fill:#66ccbe}
        </style>
    </defs>
    <g id="그룹_384" transform="translate(-1479.905 -1627)">
        <path id="패스_166" d="M9.225 33.084l-3.139 1.147-.169 9.338L16.783 39.6c-3.727-1.252-6.448-3.454-7.558-6.515" class="cls-1" transform="translate(1479.928 1626.984)"/>
        <path id="패스_167" d="M10.868 23.208L-.023 27.186l6.109 7.044 3.139-1.147c-1.107-3.052-.424-6.5 1.643-9.876" class="cls-2" transform="translate(1479.928 1626.984)"/>
        <path id="패스_168" fill="#fff" fill-rule="evenodd" d="M29.195 9.734C15.326 14.8 6.386 25.254 9.225 33.084l50.221-18.346c-2.839-7.83-16.383-10.07-30.252-5" transform="translate(1479.928 1626.984)"/>
        <path id="패스_169" d="M39.477 38.088c13.868-5.066 22.826-15.474 19.97-23.35L9.225 33.084c2.856 7.876 16.383 10.07 30.252 5" class="cls-4" transform="translate(1479.928 1626.984)"/>
        <path id="패스_170" d="M59.446 14.738L9.225 33.084c.983 2.712 4.734 4.048 10 4.048a56.57 56.57 0 0 0 18.543-3.77c13.863-5.062 23.62-13.269 21.678-18.624" class="cls-2" transform="translate(1479.928 1626.984)"/>
        <path id="패스_171" d="M49.451 10.69a56.571 56.571 0 0 0-18.543 3.77C17.04 19.526 7.283 27.728 9.225 33.084l50.221-18.346c-.983-2.712-4.734-4.048-10-4.048" class="cls-1" transform="translate(1479.928 1626.984)"/>
        <path id="패스_172" d="M46.677 44.063c-1.478 0-3.657-1.335-6.479-3.967A83.693 83.693 0 0 1 29.43 27.252 83.847 83.847 0 0 1 21.088 12.7c-1.933-4.592-2.208-7.415-.819-8.392a1.859 1.859 0 0 1 1.091-.322c1.13 0 3.332.841 7.4 4.85l.089.088-.012.125c-.028.288-.054.579-.076.864l-.045.566-.4-.4c-4.387-4.42-6.318-4.9-6.945-4.9a.729.729 0 0 0-.423.108c-.6.423-.641 2.5 1.232 6.949a82.633 82.633 0 0 0 8.22 14.331A82.485 82.485 0 0 0 41 39.221c3.535 3.3 5.129 3.654 5.65 3.654a.744.744 0 0 0 .434-.115c.636-.447.636-2.668-1.453-7.46l-.1-.22.21-.115c.21-.115.413-.228.6-.336l.252-.143.116.266c1.482 3.395 2.867 7.71 1.051 8.986a1.868 1.868 0 0 1-1.1.324zm0-.524z" class="cls-4" transform="translate(1479.928 1626.984)"/>
        <path id="패스_173" d="M39.813 37.944l-.021.261c-.351 4.338-1.274 9.554-3.681 9.765-.048 0-.1.007-.149.007-1.635 0-3.182-2.343-4.6-6.963a84.035 84.035 0 0 1-2.927-16.527A84.067 84.067 0 0 1 28.461 7.7c.613-4.947 1.781-7.53 3.471-7.678.05 0 .1-.007.153-.007 1.186 0 2.974 1.343 4.8 7.6l-1.195.231a24.448 24.448 0 0 0-1.938-4.959c-.612-1.081-1.206-1.676-1.674-1.676h-.046c-.732.064-1.8 1.841-2.394 6.636a82.868 82.868 0 0 0-.019 16.534A82.84 82.84 0 0 0 32.5 40.663a22.379 22.379 0 0 0 1.869 4.583c.584.992 1.149 1.538 1.592 1.538h.045c.7-.061 2.021-1.91 2.577-8.415l1.228-.422" class="cls-4" transform="translate(1479.928 1626.984)"/>
    </g>
</svg>
